<svg width="146" height="27" viewBox="-20 0 200 27" fill="none" xmlns="http://www.w3.org/2000/svg">
<path fill-rule="evenodd" clip-rule="evenodd" d="M47.8775 6V16.3599C47.8775 18.0067 47.2896 19.3128 46.1139 20.2781C44.9461 21.2364 43.3877 21.7155 41.4387 21.7155C39.4661 21.7155 37.8998 21.2435 36.7399 20.2994C35.58 19.3483 35 18.0315 35 16.3493V6H37.9826V16.3706C37.9826 17.4069 38.2746 18.1984 38.8585 18.7449C39.4424 19.2915 40.3025 19.5648 41.4387 19.5648C43.7428 19.5648 44.8948 18.4716 44.8948 16.2854V6H47.8775ZM53.8394 9.98212L53.9223 11.313C54.8692 10.2838 56.1119 9.76918 57.6506 9.76918C60.3176 9.76918 61.6748 11.1427 61.7221 13.8897V21.5026H58.846V14.0388C58.846 13.3077 58.6685 12.7682 58.3134 12.4204C57.9662 12.0655 57.3942 11.888 56.5972 11.888C55.4373 11.888 54.5733 12.36 54.0051 13.3041V21.5026H51.129V9.98212H53.8394ZM65.2104 21.5026H68.0865V9.98212H65.2104V21.5026ZM75.1966 7.18186V9.98212H77.4573V11.8987H75.1966V18.3297C75.1966 18.7698 75.2913 19.0892 75.4807 19.2879C75.6779 19.4796 76.0251 19.5754 76.5222 19.5754C76.8536 19.5754 77.189 19.5399 77.5283 19.4689V21.4707C76.8734 21.6339 76.2421 21.7155 75.6345 21.7155C73.4252 21.7155 72.3205 20.6189 72.3205 18.4255V11.8987H70.2137V9.98212H72.3205V7.18186H75.1966ZM90.1775 9.98212H87.112L84.5081 17.7973L81.7977 9.98212H78.6967L83.1944 21.4494L82.7801 22.4396C82.5671 23.0003 82.2751 23.3978 81.9043 23.6321C81.5413 23.8734 80.9968 23.9941 80.2709 23.9941L79.7264 23.9621V25.9639C80.2314 26.0916 80.693 26.1555 81.1112 26.1555C82.9813 26.1555 84.3069 25.1866 85.0881 23.2488L90.1775 9.98212ZM93.4822 21.5026V6H99.3883C101.337 6 102.821 6.35136 103.839 7.05409C104.857 7.75682 105.365 8.80381 105.365 10.1951C105.365 10.9049 105.152 11.5437 104.726 12.1116C104.3 12.6795 103.677 13.1196 102.856 13.4319C103.787 13.659 104.505 14.0885 105.01 14.7202C105.523 15.3449 105.78 16.0973 105.78 16.9775C105.78 18.4326 105.259 19.5506 104.217 20.3314C103.184 21.1122 101.7 21.5026 99.7671 21.5026H93.4822ZM96.4767 14.5073V19.3518H99.8026C100.742 19.3518 101.475 19.1424 102.004 18.7236C102.533 18.3048 102.797 17.7228 102.797 16.9775C102.797 15.3662 101.882 14.5428 100.051 14.5073H96.4767ZM96.4767 12.5268H99.412C100.343 12.5268 101.069 12.3387 101.59 11.9625C102.118 11.5792 102.383 11.0398 102.383 10.3441C102.383 9.57752 102.138 9.02386 101.649 8.68314C101.168 8.34243 100.414 8.17207 99.3883 8.17207H96.4767V12.5268ZM116.18 20.4272C116.275 20.9241 116.385 21.2826 116.512 21.5026H119.447V21.3216C119.123 20.704 118.962 19.8771 118.962 18.8408V13.6448C118.938 12.4168 118.48 11.4657 117.589 10.7913C116.697 10.1099 115.502 9.76918 114.002 9.76918C113.016 9.76918 112.12 9.92534 111.316 10.2377C110.519 10.55 109.887 10.983 109.422 11.5366C108.956 12.0832 108.724 12.6724 108.724 13.3041H111.6C111.6 12.8498 111.809 12.4772 112.227 12.1861C112.645 11.888 113.182 11.7389 113.837 11.7389C114.594 11.7389 115.158 11.9199 115.529 12.282C115.9 12.6369 116.085 13.1125 116.085 13.7087V14.4647H114.322C112.436 14.4647 110.984 14.7947 109.966 15.4549C108.956 16.1079 108.451 17.0484 108.451 18.2764C108.451 19.2489 108.858 20.0652 109.67 20.7253C110.483 21.3855 111.533 21.7155 112.819 21.7155C114.144 21.7155 115.265 21.2861 116.18 20.4272ZM114.949 19.2666C114.452 19.5151 113.92 19.6393 113.351 19.6393C112.736 19.6393 112.243 19.4938 111.872 19.2028C111.509 18.9046 111.327 18.5071 111.327 18.0103C111.327 17.3998 111.596 16.9278 112.132 16.5942C112.669 16.2605 113.47 16.0937 114.535 16.0937H116.085V18.2658C115.833 18.6846 115.454 19.0182 114.949 19.2666ZM129.516 18.3723C129.516 17.9109 129.303 17.5595 128.877 17.3182C128.459 17.0768 127.76 16.8639 126.782 16.6793C125.803 16.4948 124.987 16.2605 124.332 15.9766C122.896 15.352 122.178 14.4469 122.178 13.2615C122.178 12.2678 122.643 11.4373 123.574 10.77C124.505 10.1028 125.689 9.76918 127.125 9.76918C128.656 9.76918 129.891 10.1099 130.83 10.7913C131.777 11.4728 132.25 12.3565 132.25 13.4425H129.374C129.374 12.9456 129.169 12.5339 128.758 12.2074C128.348 11.8738 127.804 11.707 127.125 11.707C126.494 11.707 125.977 11.8383 125.575 12.101C125.18 12.3636 124.983 12.715 124.983 13.155C124.983 13.5525 125.168 13.8613 125.539 14.0814C125.91 14.3014 126.66 14.525 127.788 14.7522C128.916 14.9722 129.8 15.2384 130.439 15.5507C131.086 15.8559 131.564 16.225 131.871 16.658C132.187 17.091 132.345 17.6163 132.345 18.2338C132.345 19.2702 131.867 20.1113 130.913 20.7573C129.958 21.3961 128.707 21.7155 127.161 21.7155C126.111 21.7155 125.176 21.5452 124.355 21.2045C123.535 20.8638 122.896 20.3953 122.438 19.799C121.98 19.2028 121.752 18.5604 121.752 17.8718H124.545C124.584 18.4823 124.841 18.9543 125.314 19.2879C125.788 19.6145 126.415 19.7777 127.196 19.7777C127.954 19.7777 128.53 19.65 128.924 19.3944C129.319 19.1318 129.516 18.7911 129.516 18.3723ZM136.425 20.1717C137.561 21.2009 139.04 21.7155 140.863 21.7155C141.928 21.7155 142.887 21.5274 143.739 21.1512C144.599 20.7679 145.286 20.232 145.799 19.5435L144.248 18.2126C143.42 19.1708 142.347 19.65 141.029 19.65C140.09 19.65 139.309 19.3731 138.685 18.8195C138.07 18.2658 137.719 17.5134 137.632 16.5622H146V15.5188C146 13.6874 145.523 12.2713 144.568 11.2705C143.621 10.2696 142.276 9.76918 140.532 9.76918C139.435 9.76918 138.441 10.0212 137.549 10.5251C136.658 11.0291 135.963 11.7354 135.466 12.644C134.977 13.5454 134.732 14.5711 134.732 15.7211V16.0405C134.732 17.7583 135.296 19.1353 136.425 20.1717ZM138.603 12.5907C139.092 12.0939 139.731 11.8454 140.52 11.8454C141.317 11.8454 141.94 12.069 142.39 12.5162C142.84 12.9563 143.096 13.6093 143.159 14.4753V14.667H137.679C137.814 13.7797 138.121 13.0876 138.603 12.5907ZM68.0599 6.08935H65.2192V8.80913H68.0599V6.08935Z" fill="white"/>
<path d="M13.5 27C20.9559 27 27 20.9559 27 13.5C27 6.04416 20.9559 0 13.5 0C6.04416 0 0 6.04416 0 13.5C0 20.9559 6.04416 27 13.5 27Z" fill="url(#paint0_linear)"/>
<path opacity="0.25" d="M15.4555 5.28823L14.6371 8.55335C14.6371 8.55335 15.7461 7.20401 17.9456 7.11719L18.8078 3.71021L15.4555 5.28823Z" fill="#FEFEFE"/>
<path d="M15.4206 5.23739L14.6022 8.50251C14.6022 8.50251 15.7112 7.15317 17.9107 7.06635L18.7729 3.65936L15.4206 5.23739Z" fill="#FEFEFE"/>
<path opacity="0.25" d="M4.22008 10.5786L7.51053 9.03009C7.51053 9.03009 3.76144 17.9079 7.77516 18.4451C11.9825 19.0082 11.9991 9.79304 16.9178 8.42812C22.428 6.89932 24.6767 11.3835 24.6003 13.6732C24.4626 17.8095 22.074 19.4141 21.26 19.9267C16.8165 22.7241 13.5524 19.4137 13.5524 19.4137C13.5524 19.4137 14.4743 18.1624 14.9084 17.1176C15.292 17.6165 16.2029 18.4933 18.0052 18.4933C22.0379 18.4933 23.5513 11.2066 19.0785 10.8096C16.1755 10.552 14.9732 14.2835 14.4566 15.2811C13.46 17.2061 12.1684 21.3446 7.10008 20.9153C0.743724 20.3773 4.22008 10.5786 4.22008 10.5786Z" fill="#FEFEFE"/>
<path d="M4.22008 10.5094L7.51053 8.96087C7.51053 8.96087 3.76144 17.8387 7.77516 18.3759C11.9825 18.939 11.9991 9.72382 16.9178 8.35891C22.428 6.83011 24.6767 11.3143 24.6003 13.604C24.4626 17.7403 22.074 19.3449 21.26 19.8575C16.8165 22.6549 13.5524 19.3445 13.5524 19.3445C13.5524 19.3445 14.4743 18.0932 14.9084 17.0484C15.292 17.5473 16.2029 18.4241 18.0052 18.4241C22.0379 18.4241 23.5513 11.1373 19.0785 10.7404C16.1755 10.4828 14.9732 14.2143 14.4566 15.2119C13.46 17.1368 12.1684 21.2754 7.10008 20.8461C0.743724 20.3081 4.22008 10.5094 4.22008 10.5094Z" fill="#FEFEFE"/>
<defs>
<linearGradient id="paint0_linear" x1="2.72695" y1="21.2065" x2="24.7474" y2="20.9694" gradientUnits="userSpaceOnUse">
<stop stop-color="#1C75BC"/>
<stop offset="0.163108" stop-color="#187CC2"/>
<stop offset="0.72147" stop-color="#0F90D4"/>
<stop offset="1" stop-color="#00AEEF"/>
</linearGradient>
</defs>
</svg>
