<svg width="36" height="36" viewBox="0 0 36 36" fill="none" xmlns="http://www.w3.org/2000/svg">
<path d="M18 36C27.9411 36 36 27.9411 36 18C36 8.05888 27.9411 0 18 0C8.05888 0 0 8.05888 0 18C0 27.9411 8.05888 36 18 36Z" fill="url(#paint0_linear)"/>
<path opacity="0.25" d="M20.6085 7.05076L19.5173 11.4042C19.5173 11.4042 20.996 9.60513 23.9287 9.48936L25.0783 4.94672L20.6085 7.05076Z" fill="#FEFEFE"/>
<path d="M20.5604 6.9835L19.4692 11.337C19.4692 11.337 20.9479 9.53787 23.8806 9.4221L25.0303 4.87946L20.5604 6.9835Z" fill="#FEFEFE"/>
<path opacity="0.25" d="M5.62629 14.1051L10.0136 12.0404C10.0136 12.0404 5.01477 23.8775 10.3664 24.5938C15.9761 25.3446 15.9983 13.0577 22.5566 11.2378C29.9035 9.1994 32.9018 15.1783 32.7999 18.2312C32.6162 23.7463 29.4315 25.8858 28.3461 26.5693C22.4215 30.2991 18.0694 25.8852 18.0694 25.8852C18.0694 25.8852 19.2985 24.2168 19.8774 22.8237C20.3889 23.489 21.6034 24.658 24.0065 24.658C29.3833 24.658 31.4012 14.9424 25.4375 14.4131C21.5668 14.0697 19.9638 19.0449 19.275 20.3752C17.9461 22.9417 16.224 28.4598 9.46629 27.8873C0.991144 27.17 5.62629 14.1051 5.62629 14.1051Z" fill="#FEFEFE"/>
<path d="M5.62629 14.0128L10.0136 11.9481C10.0136 11.9481 5.01477 23.7853 10.3664 24.5015C15.9761 25.2523 15.9983 12.9654 22.5566 11.1455C29.9035 9.10712 32.9018 15.0861 32.7999 18.1389C32.6162 23.654 29.4315 25.7935 28.3461 26.477C22.4215 30.2068 18.0694 25.7929 18.0694 25.7929C18.0694 25.7929 19.2985 24.1245 19.8774 22.7314C20.3889 23.3967 21.6034 24.5657 24.0065 24.5657C29.3833 24.5657 31.4012 14.8501 25.4375 14.3208C21.5668 13.9774 19.9638 18.9526 19.275 20.2829C17.9461 22.8494 16.224 28.3675 9.46629 27.795C0.991144 27.0777 5.62629 14.0128 5.62629 14.0128Z" fill="#FEFEFE"/>
<defs>
<linearGradient id="paint0_linear" x1="3.63594" y1="28.2754" x2="32.9965" y2="27.9592" gradientUnits="userSpaceOnUse">
<stop stop-color="#1C75BC"/>
<stop offset="0.163108" stop-color="#187CC2"/>
<stop offset="0.72147" stop-color="#0F90D4"/>
<stop offset="1" stop-color="#00AEEF"/>
</linearGradient>
</defs>
</svg>
