<svg width="20" height="20" viewBox="0 0 20 20" fill="none" xmlns="http://www.w3.org/2000/svg">
<path d="M17.9479 16.9897C18.0368 17.0266 18.1175 17.0807 18.1854 17.149C18.2879 17.2515 18.3576 17.382 18.3859 17.5242C18.4142 17.6663 18.3997 17.8137 18.3442 17.9476C18.2887 18.0815 18.1948 18.196 18.0743 18.2765C17.9538 18.357 17.8121 18.4 17.6672 18.4H1.7328C1.53846 18.4 1.35208 18.3228 1.21466 18.1853C1.07724 18.0479 1.00003 17.8615 1 17.6672V1.7328C1 1.53845 1.07721 1.35206 1.21463 1.21463C1.35206 1.07721 1.53845 1 1.7328 1C1.92715 1 2.11354 1.07721 2.25097 1.21463C2.38839 1.35206 2.4656 1.53845 2.4656 1.7328V16.9343H17.6673C17.7636 16.934 17.8589 16.9529 17.9479 16.9897Z" fill="#576175"/>
<path d="M17.9706 5.25023C18.1808 5.42276 18.3247 5.66286 18.3777 5.9296C18.4107 6.09591 18.4074 6.26741 18.3679 6.43231C18.3285 6.59722 18.2538 6.75163 18.149 6.88494C18.0442 7.01826 17.9118 7.12732 17.7609 7.20464C17.61 7.28197 17.4441 7.32572 17.2747 7.3329L17.1572 7.3379L13.9368 10.5848L13.8498 10.6826V10.8069C13.8491 10.9613 13.8181 11.114 13.7584 11.2563C13.6987 11.3987 13.6116 11.5279 13.502 11.6366C13.3924 11.7452 13.2624 11.8313 13.1196 11.8897C12.9767 11.9482 12.8238 11.978 12.6694 11.9773C12.515 11.9766 12.3623 11.9456 12.22 11.8859C12.0776 11.8262 11.9484 11.7391 11.8397 11.6295C11.7311 11.5199 11.645 11.3899 11.5866 11.2471C11.5281 11.1042 11.4983 10.9513 11.499 10.7969V10.6726L9.9845 9.1579H9.4509L6.8939 11.7148L6.8952 11.8408C6.8954 11.8583 6.8947 11.8758 6.892 11.9183C6.89092 12.1484 6.8223 12.3732 6.69466 12.5647C6.56702 12.7562 6.38597 12.906 6.17397 12.9956C5.96197 13.0852 5.72834 13.1105 5.50206 13.0685C5.27578 13.0265 5.0668 12.919 4.90104 12.7594C4.73528 12.5997 4.62004 12.3949 4.5696 12.1704C4.51916 11.9458 4.53574 11.7114 4.61729 11.4962C4.69884 11.281 4.84177 11.0945 5.02835 10.9597C5.21494 10.825 5.43696 10.748 5.6669 10.7383L5.7837 10.7334L8.5209 7.9962L8.5258 7.8794C8.53838 7.57632 8.66764 7.28983 8.88656 7.07985C9.10548 6.86987 9.3971 6.75266 9.70044 6.75272C10.0038 6.75279 10.2954 6.87012 10.5142 7.0802C10.733 7.29027 10.8622 7.57681 10.8746 7.8799L10.8794 7.9953L12.4075 9.5496L12.5144 9.6396H12.7644L16.0476 6.3567L16.0463 6.2305C16.0461 6.2134 16.0468 6.1956 16.0495 6.1534C16.0509 5.84259 16.1754 5.54499 16.3956 5.32572C16.6159 5.10646 16.9141 4.98337 17.2249 4.9834C17.4969 4.98339 17.7604 5.07769 17.9706 5.25023Z" fill="#576175"/>
</svg>
