<svg xmlns="http://www.w3.org/2000/svg" width="20" height="20" viewBox="0 0 20 20" fill="none">
    <path fill-rule="evenodd" clip-rule="evenodd" d="M5.30063 2.29897C4.51337 2.29897 3.82911 2.93986 3.82911 3.73711V13.934C4.2678 13.6693 4.77665 13.5258 5.30063 13.5258H16.1709V2.29897H5.30063ZM17.5 1.64948C17.5 1.29078 17.2025 1 16.8354 1H5.30063C3.80229 1 2.5 2.21975 2.5 3.73711V16.2629C2.5 16.9888 2.79507 17.685 3.32029 18.1983C3.84551 18.7116 4.55786 19 5.30063 19H16.8354C17.2025 19 17.5 18.7092 17.5 18.3505V1.64948ZM16.1709 14.8247H5.30063C4.51337 14.8247 3.82911 15.4656 3.82911 16.2629C3.82911 17.0601 4.51337 17.701 5.30063 17.701H16.1709V14.8247Z" fill="#576175"/>
</svg>
