<svg xmlns="http://www.w3.org/2000/svg" width="20" height="20" viewBox="0 0 20 20" fill="none">
    <path fill-rule="evenodd" clip-rule="evenodd" d="M4.89282 2.4C4.34335 2.4 3.89684 2.83998 3.89296 3.38944C3.87503 5.9279 3.82909 12.5679 3.82911 13.9343C4.5 13.5002 4.77665 13.526 5.30063 13.526H16.1709L16.1 2.4H4.89282ZM17.5 2.00007C17.5 1.44788 17.0586 1.00023 16.5064 1.00018C13.9115 0.999994 7.7049 0.999992 4.49637 1C3.39181 1.00001 2.5 1.89544 2.5 3V16.2631C2.5 17.7805 3.80229 19.0002 5.30063 19.0002H16.5C17.0523 19.0002 17.5 18.5525 17.5 18.0002V2.00007ZM16.1709 14.825H5.30063C4.51337 14.825 3.82911 15.4659 3.82911 16.2631C3.82911 17.0604 4.51337 17.7013 5.30063 17.7013H16.1709V14.825Z" fill="#576175"/>
</svg>
