<svg xmlns="http://www.w3.org/2000/svg" width="20" height="20" viewBox="0 0 20 20" fill="none">
    <path d="M4.60913 15.8507L14.5114 15.8507C16.5689 15.8453 18.4895 14.3826 18.8057 12.3061C19.1101 10.3067 17.8041 8.4204 15.9179 7.80189C15.707 7.73274 15.6895 7.73791 15.5941 7.54213C13.0644 2.3494 4.67728 3.60136 3.91155 9.25524L3.79627 9.38136C2.97203 9.56937 2.25071 10.0388 1.76817 10.6984C0.134495 12.9315 2.04044 15.8558 4.60913 15.8507ZM14.5118 14.4357L14.5134 14.4357C15.9138 14.4204 17.1929 13.3712 17.3211 11.9465C17.4473 10.5437 16.3619 9.26484 14.9945 9.03554C14.7261 8.99268 14.4964 8.80554 14.4099 8.56695C12.7441 3.93657 5.37026 5.19497 5.35937 9.99794C5.35937 10.4009 4.99945 10.7058 4.60913 10.7058C4.09412 10.7058 3.59883 10.9006 3.23254 11.2494C1.98047 12.4421 3.00203 14.4357 4.60913 14.4357L14.5118 14.4357Z"/>
</svg>
