<svg width="20" height="20" viewBox="0 0 20 20" fill="none" xmlns="http://www.w3.org/2000/svg">
<path fill-rule="evenodd" clip-rule="evenodd" d="M9.28409 16.5869V14.3533H3.55682C2.87789 14.3533 2.22728 14.0861 1.74797 13.6114C1.26875 13.1367 1 12.4935 1 11.8234V4.52991C1 3.85977 1.26875 3.21655 1.74797 2.74189C2.22728 2.26716 2.87789 2 3.55682 2H16.4432C17.1221 2 17.7727 2.26716 18.252 2.74189C18.7312 3.21655 19 3.85977 19 4.52991V11.8234C19 12.4935 18.7312 13.1367 18.252 13.6114C17.7727 14.0861 17.1221 14.3533 16.4432 14.3533H10.7159V16.5869H14.6023C14.793 16.5869 14.9753 16.6619 15.1094 16.7947C15.2434 16.9274 15.3182 17.1069 15.3182 17.2934C15.3182 17.48 15.2434 17.6595 15.1094 17.7922C14.9753 17.9249 14.793 18 14.6023 18H5.39773C5.20704 18 5.02467 17.9249 4.8906 17.7922C4.75662 17.6595 4.68182 17.48 4.68182 17.2934C4.68182 17.1069 4.75662 16.9274 4.8906 16.7947C5.02467 16.6619 5.20704 16.5869 5.39773 16.5869H9.28409ZM17.2378 12.614C17.449 12.4047 17.5682 12.1204 17.5682 11.8234V4.52991C17.5682 4.23289 17.449 3.94855 17.2378 3.73931C17.0266 3.53016 16.7407 3.41311 16.4432 3.41311H3.55682C3.25926 3.41311 2.97339 3.53016 2.76222 3.73931C2.55097 3.94855 2.43182 4.23289 2.43182 4.52991V11.8234C2.43182 12.1204 2.55097 12.4047 2.76222 12.614C2.97339 12.8231 3.25926 12.9402 3.55682 12.9402H16.4432C16.7407 12.9402 17.0266 12.8231 17.2378 12.614Z" fill="#576175"/>
</svg>
