<svg width="24" height="24" viewBox="0 0 24 24" fill="none" xmlns="http://www.w3.org/2000/svg">
<path fill-rule="evenodd" clip-rule="evenodd" d="M3.98691 16.0724L3.99075 16.074C4.07697 16.1085 4.15609 16.1602 4.22363 16.2262C4.28756 16.296 4.33793 16.3783 4.37176 16.4685L4.37386 16.4738C4.42915 16.6097 4.44432 16.7597 4.41728 16.9047C4.3906 17.0479 4.32409 17.1793 4.22655 17.283C4.15524 17.3491 4.07383 17.4022 3.98578 17.4403L3.98192 17.442C3.89805 17.4803 3.80753 17.5 3.71611 17.5C3.62469 17.5 3.53417 17.4803 3.45031 17.442L3.44645 17.4403C3.3584 17.4022 3.27699 17.3491 3.20568 17.283C3.10813 17.1793 3.04162 17.0479 3.01494 16.9047C2.98791 16.7597 3.00307 16.6097 3.05837 16.4738L3.06047 16.4685C3.09429 16.3783 3.14467 16.296 3.2086 16.2262C3.27614 16.1602 3.35526 16.1085 3.44147 16.074L3.4453 16.0724C3.61888 15.9987 3.81333 15.9988 3.98691 16.0724ZM3.44687 11.3155C3.57679 11.2591 3.71976 11.2437 3.85788 11.2712C3.99509 11.2985 4.12198 11.3671 4.22257 11.4688C4.287 11.5389 4.33774 11.6216 4.37176 11.7123L4.37528 11.721C4.41279 11.8087 4.43223 11.9037 4.43223 11.9999C4.43223 12.096 4.41279 12.191 4.37528 12.2787L4.37368 12.2826C4.33707 12.3731 4.28627 12.4566 4.22347 12.5296C4.1529 12.5944 4.07257 12.6466 3.98578 12.6841L3.98192 12.6858C3.89805 12.7241 3.80753 12.7438 3.71611 12.7438C3.62469 12.7438 3.53417 12.7241 3.45031 12.6858L3.44645 12.6841C3.35966 12.6466 3.27932 12.5944 3.20875 12.5296C3.14595 12.4566 3.09515 12.3731 3.05854 12.2826L3.05694 12.2787C3.01943 12.191 3 12.096 3 11.9999C3 11.9037 3.01943 11.8087 3.05694 11.721L3.06047 11.7123C3.09398 11.6229 3.14374 11.5414 3.20683 11.4719C3.27787 11.4063 3.3593 11.3534 3.44687 11.3155ZM3.98532 6.55942L3.99075 6.56159C4.07617 6.59582 4.15463 6.64682 4.22176 6.71195C4.28535 6.78548 4.33674 6.86963 4.37368 6.961L4.37528 6.96484C4.41279 7.05255 4.43223 7.14754 4.43223 7.24369C4.43223 7.33984 4.41279 7.43483 4.37528 7.52254L4.37368 7.52638C4.33654 7.61825 4.28479 7.70282 4.22073 7.77663C4.12044 7.87736 3.99426 7.94521 3.85788 7.97237C3.71976 7.99987 3.57679 7.98451 3.44687 7.92805C3.36008 7.89056 3.27932 7.83824 3.20875 7.77345C3.14595 7.7004 3.09515 7.61693 3.05854 7.52638L3.05694 7.52254C3.01943 7.43483 3 7.33984 3 7.24369C3 7.14754 3.01943 7.05255 3.05694 6.96484L3.05854 6.961C3.09569 6.86914 3.14743 6.78456 3.2115 6.71075C3.31179 6.61003 3.43797 6.54217 3.57434 6.51502C3.71247 6.48752 3.8554 6.50295 3.98532 6.55942ZM20.2841 7.98738H7.39789C7.20924 7.98738 7.02755 7.90997 6.89299 7.77091C6.75831 7.63172 6.68199 7.44215 6.68199 7.24369C6.68199 7.04524 6.75831 6.85566 6.89299 6.71647C7.02755 6.57741 7.20924 6.5 7.39789 6.5H20.2841C20.4727 6.5 20.6544 6.57741 20.789 6.71647C20.9237 6.85566 21 7.04524 21 7.24369C21 7.44215 20.9237 7.63173 20.789 7.77091C20.6544 7.90997 20.4727 7.98738 20.2841 7.98738ZM7.39789 11.2562H20.2841C20.4727 11.2562 20.6544 11.3336 20.789 11.4727C20.9237 11.6119 21 11.8014 21 11.9999C21 12.1983 20.9237 12.3879 20.789 12.5271C20.6544 12.6662 20.4727 12.7436 20.2841 12.7436H7.39789C7.20924 12.7436 7.02755 12.6662 6.89299 12.5271C6.75831 12.3879 6.68199 12.1983 6.68199 11.9999C6.68199 11.8014 6.75831 11.6119 6.89299 11.4727C7.02755 11.3336 7.20924 11.2562 7.39789 11.2562ZM7.39789 16.0124H20.2841C20.4727 16.0124 20.6544 16.0898 20.789 16.2289C20.9237 16.3681 21 16.5576 21 16.7561C21 16.9545 20.9237 17.1441 20.789 17.2833C20.6544 17.4224 20.4727 17.4998 20.2841 17.4998H7.39789C7.20924 17.4998 7.02755 17.4224 6.89299 17.2833C6.75831 17.1441 6.68199 16.9545 6.68199 16.7561C6.68199 16.5576 6.75831 16.3681 6.89299 16.2289C7.02755 16.0898 7.20924 16.0124 7.39789 16.0124Z" fill="#576175"/>
</svg>
