<svg width="24" height="24" viewBox="0 0 24 24" fill="none" xmlns="http://www.w3.org/2000/svg">
<path fill-rule="evenodd" clip-rule="evenodd" d="M16.7601 4.7089V7.24066H17.6716C18.2893 7.24066 18.8817 7.48606 19.3186 7.92288C19.7554 8.35969 20.0008 8.95214 20.0008 9.56989V14.4309C20.0008 15.0486 19.7554 15.6411 19.3186 16.0779C18.8817 16.5147 18.2893 16.7601 17.6716 16.7601H16.7601V19.2919C16.7601 19.4799 16.6854 19.6602 16.5525 19.7931C16.4195 19.9261 16.2392 20.0008 16.0512 20.0008H7.94956C7.76155 20.0008 7.58124 19.9261 7.44829 19.7931C7.31535 19.6602 7.24066 19.4799 7.24066 19.2919V16.7601H6.32923C5.71148 16.7601 5.11903 16.5147 4.68221 16.0779C4.2454 15.6411 4 15.0486 4 14.4309V9.56989C4 8.95214 4.2454 8.35969 4.68221 7.92288C5.11903 7.48606 5.71148 7.24066 6.32923 7.24066H7.24066V4.7089C7.24066 4.52088 7.31535 4.34057 7.44829 4.20763C7.58124 4.07469 7.76155 4 7.94956 4H16.0512C16.2392 4 16.4195 4.07469 16.5525 4.20763C16.6854 4.34057 16.7601 4.52088 16.7601 4.7089ZM15.3423 5.41779H8.65845V7.24066H15.3423V5.41779ZM8.65845 18.583H15.3423V15.1398H8.65845V18.583ZM16.7601 14.4309V15.3423H17.6716C17.9133 15.3423 18.1451 15.2463 18.316 15.0754C18.487 14.9044 18.583 14.6726 18.583 14.4309V9.56989C18.583 9.32816 18.487 9.09634 18.316 8.92541C18.1451 8.75448 17.9133 8.65845 17.6716 8.65845H6.32923C6.0875 8.65845 5.85567 8.75448 5.68474 8.92541C5.51382 9.09634 5.41779 9.32816 5.41779 9.56989V14.4309C5.41779 14.6726 5.51382 14.9044 5.68474 15.0754C5.85567 15.2463 6.0875 15.3423 6.32923 15.3423H7.24066V14.4309C7.24066 14.2429 7.31535 14.0626 7.44829 13.9296C7.58124 13.7967 7.76155 13.722 7.94956 13.722H16.0512C16.2392 13.722 16.4195 13.7967 16.5525 13.9296C16.6854 14.0626 16.7601 14.2429 16.7601 14.4309ZM7.55572 10.6008C7.6723 10.5229 7.80935 10.4813 7.94956 10.4813C8.13757 10.4813 8.31788 10.556 8.45082 10.689C8.58377 10.8219 8.65845 11.0022 8.65845 11.1902C8.65845 11.3304 8.61688 11.4675 8.53898 11.5841C8.46109 11.7006 8.35038 11.7915 8.22084 11.8452C8.09131 11.8988 7.94877 11.9128 7.81126 11.8855C7.67375 11.8581 7.54744 11.7906 7.44829 11.6915C7.34915 11.5923 7.28164 11.466 7.25429 11.3285C7.22693 11.191 7.24097 11.0485 7.29463 10.9189C7.34828 10.7894 7.43914 10.6787 7.55572 10.6008Z" fill="#576175"/>
</svg>
