<svg width="24" height="24" viewBox="0 0 32 32" fill="none" xmlns="http://www.w3.org/2000/svg">
<path fill-rule="evenodd" clip-rule="evenodd" d="M24.0599 5.43907V19.0406H10.9841C10.1966 19.0441 9.42459 19.2602 8.74983 19.6661L7.9401 20.1531V8.47969C7.9401 7.67327 8.26068 6.89987 8.83131 6.32965C9.40194 5.75942 10.1759 5.43907 10.9829 5.43907H24.0599ZM24.0599 20.4797V26.5609H10.9829C10.1759 26.5609 9.40194 26.2406 8.83131 25.6704C8.26068 25.1001 7.9401 24.3267 7.9401 23.5203C7.9401 22.7139 8.26068 21.9405 8.83131 21.3703C9.40194 20.8 10.1759 20.4797 10.9829 20.4797H24.0599ZM23.5257 4H10.9829C9.79395 4 8.65371 4.47197 7.81301 5.31207C6.9723 6.15218 6.5 7.2916 6.5 8.47969V23.5203C6.5 24.7084 6.9723 25.8478 7.81301 26.6879C8.65371 27.528 9.79395 28 10.9829 28H23.5257C24.0493 28 24.5515 27.7921 24.9217 27.4221C25.292 27.0521 25.5 26.5503 25.5 26.0271V5.97292C25.5 5.44967 25.292 4.94785 24.9217 4.57785C24.5515 4.20786 24.0493 4 23.5257 4ZM13.4914 10.4526H18.5086C18.6995 10.4526 18.8827 10.3768 19.0177 10.2419C19.1527 10.1069 19.2286 9.92391 19.2286 9.73308C19.2286 9.54224 19.1527 9.35923 19.0177 9.22429C18.8827 9.08935 18.6995 9.01354 18.5086 9.01354H13.4914C13.3005 9.01354 13.1173 9.08935 12.9823 9.22429C12.8473 9.35923 12.7714 9.54224 12.7714 9.73308C12.7714 9.92391 12.8473 10.1069 12.9823 10.2419C13.1173 10.3768 13.3005 10.4526 13.4914 10.4526Z" fill="#576175"/>
</svg>
