<svg width="24" height="24" viewBox="0 0 16 16" fill="none" xmlns="http://www.w3.org/2000/svg">
<path fill-rule="evenodd" clip-rule="evenodd" d="M3.18976 8.36202C3.18591 8.39172 3.18405 8.42171 3.18421 8.45179V10.9614C3.18421 11.1393 3.25492 11.31 3.38077 11.4358C3.50661 11.5616 3.6773 11.6323 3.85526 11.6323H6.3655C6.39744 11.6324 6.42927 11.6303 6.46077 11.626C6.4874 11.6223 6.51379 11.6171 6.5398 11.6102C6.56803 11.6028 6.59581 11.5935 6.62295 11.5825C6.65226 11.5705 6.68063 11.5565 6.70784 11.5406C6.72841 11.5286 6.74833 11.5155 6.7675 11.5013C6.77923 11.4927 6.79069 11.4836 6.80185 11.4742C6.81562 11.4626 6.82921 11.4502 6.84204 11.4374L10.9394 7.33535L12.6207 5.69004C12.6836 5.62768 12.7335 5.55348 12.7676 5.47172C12.8017 5.38997 12.8192 5.30228 12.8192 5.21371C12.8192 5.12514 12.8017 5.03745 12.7676 4.9557C12.7336 4.87407 12.6835 4.79968 12.6207 4.73737L10.1107 2.19844C10.0483 2.13556 9.97405 2.08565 9.89227 2.05159C9.8105 2.01753 9.7228 2 9.63421 2C9.54563 2 9.45792 2.01753 9.37615 2.05159C9.29439 2.08564 9.22015 2.13557 9.15777 2.19844L7.48816 3.87348L3.37883 7.97571C3.36204 7.99263 3.3462 8.01039 3.33136 8.02892C3.31797 8.04565 3.30539 8.063 3.29367 8.08091C3.28126 8.09989 3.2698 8.1195 3.25935 8.13967C3.25011 8.15752 3.24165 8.17581 3.23403 8.19448C3.22223 8.22336 3.21248 8.25296 3.20484 8.28306C3.19824 8.30906 3.1932 8.33542 3.18976 8.36202ZM8.90509 4.34949L9.63421 3.62057L11.1982 5.18411L10.4691 5.91303L8.90509 4.34949ZM4.52632 9.79355V8.72699L7.95855 5.29574L9.52255 6.85928L6.09033 10.2905H5.02339H4.52632V9.79355Z" fill="#576175"/>
<path fill-rule="evenodd" clip-rule="evenodd" d="M13.3289 12.6582H2.67105C2.49309 12.6582 2.3224 12.7289 2.19655 12.8547C2.07071 12.9805 2 13.1512 2 13.3291C2 13.5071 2.07071 13.6777 2.19655 13.8035C2.3224 13.9293 2.49309 14 2.67105 14H13.3289C13.5069 14 13.6776 13.9293 13.8034 13.8035C13.9293 13.6777 14 13.5071 14 13.3291C14 13.1512 13.9293 12.9805 13.8034 12.8547C13.6776 12.7289 13.5069 12.6582 13.3289 12.6582Z" fill="#576175"/>
</svg>
