<svg width="24" height="24" viewBox="0 0 24 24" fill="none" xmlns="http://www.w3.org/2000/svg">
<path fill-rule="evenodd" clip-rule="evenodd" d="M15.2786 6.63777V5.63391C15.2786 4.93191 15.0197 4.26069 14.5617 3.76743C14.1042 3.27454 13.4861 3 12.8443 3H11.1557C10.5139 3 9.89583 3.27454 9.43826 3.76743C8.98035 4.26069 8.72136 4.93191 8.72136 5.63391V6.63777H5.24583C5.05185 6.63777 4.86326 6.72066 4.72234 6.87246C4.5811 7.0246 4.5 7.23318 4.5 7.45279C4.5 7.67241 4.5811 7.88098 4.72234 8.03313C4.86326 8.18493 5.05185 8.26782 5.24583 8.26782H6.18854V18.3661C6.18854 19.0681 6.44753 19.7393 6.90544 20.2326C7.36302 20.7255 7.98109 21 8.62291 21H15.3771C16.0189 21 16.637 20.7255 17.0946 20.2326C17.5525 19.7393 17.8115 19.0681 17.8115 18.3661V8.26782H18.7542C18.9482 8.26782 19.1367 8.18493 19.2777 8.03313C19.4189 7.88098 19.5 7.67241 19.5 7.45279C19.5 7.23318 19.4189 7.0246 19.2777 6.87246C19.1367 6.72066 18.9482 6.63777 18.7542 6.63777H15.2786ZM13.787 6.63777H10.213V5.63391C10.213 5.37109 10.3098 5.11704 10.4852 4.9281C10.661 4.73874 10.9019 4.63006 11.1557 4.63006H12.8443C13.0981 4.63006 13.339 4.73874 13.5148 4.9281C13.6902 5.11704 13.787 5.37109 13.787 5.63391V6.63777ZM7.6802 8.26782H16.3198V18.3661C16.3198 18.6289 16.223 18.883 16.0476 19.0719C15.8718 19.2613 15.6309 19.3699 15.3771 19.3699H8.62291C8.36913 19.3699 8.12821 19.2613 7.95242 19.0719C7.77702 18.883 7.6802 18.6289 7.6802 18.3661V8.26782ZM10.3115 17.3622C10.5054 17.3622 10.694 17.2793 10.8349 17.1275C10.9762 16.9754 11.0573 16.7668 11.0573 16.5472V11.0906C11.0573 10.8709 10.9762 10.6624 10.8349 10.5102C10.694 10.3584 10.5054 10.2755 10.3115 10.2755C10.1175 10.2755 9.92889 10.3584 9.78797 10.5102C9.64673 10.6624 9.56563 10.8709 9.56563 11.0906V16.5472C9.56563 16.7668 9.64673 16.9754 9.78797 17.1275C9.92889 17.2793 10.1175 17.3622 10.3115 17.3622ZM13.6885 17.3622C13.8825 17.3622 14.0711 17.2793 14.212 17.1275C14.3533 16.9754 14.4344 16.7668 14.4344 16.5472V11.0906C14.4344 10.8709 14.3533 10.6624 14.212 10.5102C14.0711 10.3584 13.8825 10.2755 13.6885 10.2755C13.4946 10.2755 13.306 10.3584 13.1651 10.5102C13.0238 10.6624 12.9427 10.8709 12.9427 11.0906V16.5472C12.9427 16.7668 13.0238 16.9754 13.1651 17.1275C13.306 17.2793 13.4946 17.3622 13.6885 17.3622Z" fill="#576175"/>
</svg>
