<svg width="24" height="24" viewBox="0 0 24 24" fill="none" xmlns="http://www.w3.org/2000/svg">
<path fill-rule="evenodd" clip-rule="evenodd" d="M3.66694 8.35185L3.23133 7.55131L3.00063 6.66326C3.00056 6.66021 3.0005 6.65716 3.00044 6.6541C3.00014 6.63803 2.99999 6.62195 3 6.60586V5.52302C3 4.146 4.1515 3 5.52273 3H18.4773C19.8485 3 21 4.146 21 5.52302V6.60193C20.9794 7.25731 20.7275 7.92336 20.26 8.38851L14.5227 14.1264V18.4786C14.5219 18.7266 14.3746 18.9647 14.1532 19.0765L10.4525 20.927L10.4503 20.9282C10.0124 21.1525 9.47628 20.8233 9.47727 20.33V14.1259C7.542 12.203 5.55873 10.3177 3.66694 8.35185ZM3.00842 6.81274L3.00044 6.6541L3.23133 7.55131L3.66694 8.35185L3.57645 8.25224C3.43777 8.09053 3.23133 7.71712 3.23133 7.71712C3.23133 7.71712 3.03376 7.12201 3.00842 6.81274ZM18.7101 8.04604L13.3735 13.3732C13.2491 13.4988 13.1775 13.6738 13.1786 13.8504L13.1786 13.8516L13.1786 18.0618L10.8214 19.2405V13.8507C10.8225 13.674 10.751 13.4989 10.6265 13.3732L5.2899 8.04604H18.7101ZM19.6558 6.70173H4.34416V5.52302C4.34416 4.8797 4.88211 4.34431 5.52273 4.34431H18.4773C19.1179 4.34431 19.6558 4.8797 19.6558 5.52302V6.70173Z" fill="#576175"/>
</svg>
