<svg width="24" height="24" viewBox="0 0 24 24" fill="none" xmlns="http://www.w3.org/2000/svg">
<path fill-rule="evenodd" clip-rule="evenodd" d="M13.3065 13.8074C13.8503 13.7387 14.9378 13.6356 15.319 14.0105C15.6471 14.3386 15.569 15.2196 14.7721 15.2196C14.3096 15.2196 13.619 15.0072 13.0284 14.6885C12.4772 14.7803 11.8677 14.9868 11.2815 15.1853C11.1498 15.2299 11.0193 15.2741 10.8909 15.3165C9.32526 18.016 8.40964 16.785 8.51276 16.2913C8.63776 15.6664 9.48151 15.1696 10.1065 14.8478C10.4346 14.2729 10.9003 13.27 11.2128 12.5233C10.9815 11.6297 10.8565 10.9298 10.994 10.4268C11.144 9.8738 12.194 9.79257 12.3253 10.6112C12.4678 11.0783 12.2894 11.8134 12.1674 12.3161C12.1637 12.3312 12.1601 12.3461 12.1565 12.3608C12.4096 13.0263 12.769 13.4793 13.3065 13.8074ZM9.97864 15.4377C9.73316 15.6564 9.26547 16.0731 9.12839 16.4413C9.12839 16.4631 9.48464 16.2944 10.0784 15.3477C10.0526 15.3718 10.0186 15.4021 9.97864 15.4377ZM11.6784 10.4862C11.9096 10.4862 11.8878 11.4891 11.7346 11.7609C11.5971 11.3266 11.6003 10.4862 11.6784 10.4862ZM11.6878 13.0451C11.4784 13.5981 11.219 14.2261 10.9159 14.7541C11.0364 14.7079 11.1609 14.6567 11.2897 14.6038C11.692 14.4384 12.136 14.256 12.6284 14.1542C12.2784 13.8949 11.9471 13.5168 11.6878 13.0451ZM15.0284 14.5979C15.0284 14.5979 14.8721 14.7853 13.8628 14.3542C14.9596 14.2729 15.1409 14.5229 15.0284 14.5979Z" fill="#576175"/>
<path fill-rule="evenodd" clip-rule="evenodd" d="M17.5708 7.06643L14.9268 4.42858C14.6526 4.15495 14.2809 4 13.8942 4H7.46233C6.65491 4.00309 6 4.65666 6 5.46197V18.5412C6 19.3465 6.65496 20 7.46223 20H16.5382C17.3454 20 18.0004 19.3465 18.0004 18.5412V8.09982C18.0004 7.7139 17.845 7.33998 17.5708 7.06643ZM16.537 8.02752H13.9666V5.46313L16.537 8.02752ZM7.41181 18.5915V5.41165H12.5548V8.73177C12.5548 9.12213 12.8694 9.43603 13.2607 9.43603H16.5886V18.5915H7.41181Z" fill="#576175"/>
</svg>
