<svg width="24" height="24" viewBox="0 0 24 24" fill="none" xmlns="http://www.w3.org/2000/svg">
<path fill-rule="evenodd" clip-rule="evenodd" d="M15.292 12.4918C16.1654 11.8084 16.8027 10.8714 17.1155 9.81127C17.4283 8.75115 17.4011 7.62044 17.0377 6.57641C16.6742 5.53236 15.9925 4.62673 15.0871 3.98567C14.1818 3.34459 13.0979 3 11.9863 3C10.8747 3 9.79077 3.34459 8.88542 3.98567C7.9801 4.62673 7.29838 5.53236 6.9349 6.57641C6.57143 7.62044 6.54422 8.75115 6.85702 9.81127C7.16983 10.8714 7.80717 11.8084 8.68058 12.4918L8.96092 12.7112L8.63024 12.8429C7.11056 13.4484 5.78472 14.4527 4.794 15.7484C3.80332 17.0441 3.18483 18.5828 3.00434 20.2004C2.99395 20.2943 3.00226 20.3894 3.02882 20.4802C3.05539 20.571 3.09969 20.6557 3.15925 20.7296C3.27956 20.8788 3.45478 20.9747 3.64653 20.9957C3.83828 21.0166 4.03041 20.961 4.18063 20.8412C4.33081 20.7214 4.42674 20.5475 4.44773 20.3578C4.65652 18.5092 5.54286 16.8017 6.93698 15.5623C8.33107 14.3229 10.1352 13.6378 12.0048 13.6378C13.8743 13.6378 15.6785 14.3229 17.0726 15.5623C18.4667 16.8017 19.353 18.5087 19.5618 20.3573C19.5813 20.5328 19.6656 20.6954 19.7985 20.8131C19.9315 20.9308 20.1039 20.9955 20.2823 20.9945L20.2835 20.9944L20.3729 20.9944C20.5578 20.9705 20.7261 20.8762 20.8425 20.7316C20.961 20.5842 21.0161 20.3964 20.9959 20.2091C20.8145 18.5871 20.1927 17.0447 19.197 15.7471C18.2012 14.4494 16.8689 13.4455 15.3429 12.8432L15.292 12.667V12.4918ZM9.81747 11.55C10.4595 11.9766 11.2143 12.2043 11.9863 12.2043C13.0215 12.2043 14.0145 11.7953 14.7468 11.067C15.4792 10.3387 15.8908 9.35059 15.8908 8.32006C15.8908 7.55157 15.6617 6.80044 15.2325 6.16165C14.8033 5.52288 14.1935 5.02518 13.4801 4.73133C12.7668 4.43749 11.9819 4.36062 11.2248 4.51041C10.4676 4.66019 9.77188 5.02995 9.22575 5.57308C8.67961 6.11623 8.30755 6.80838 8.1568 7.56207C8.00606 8.31576 8.08344 9.09697 8.37911 9.80686C8.67477 10.5167 9.17538 11.1233 9.81747 11.55Z" fill="#576175"/>
</svg>
