<svg width="24" height="24" viewBox="0 0 24 24" fill="none" xmlns="http://www.w3.org/2000/svg">
<path fill-rule="evenodd" clip-rule="evenodd" d="M16.8245 11.5005C16.8098 11.4801 16.7942 11.4602 16.7776 11.4408L16.7194 11.3787L16.7123 11.3718L16.7111 11.3706L8.54474 3.26744C8.33675 3.062 8.08962 2.9781 7.84574 3.00482C7.60969 3.03068 7.40415 3.15696 7.25861 3.32145C6.97115 3.64634 6.86401 4.19365 7.2775 4.60157L7.28092 4.60494L14.7715 12.0546L7.27747 19.4039C7.23722 19.4437 7.2008 19.4872 7.16859 19.5335C7.13409 19.5831 7.10434 19.6361 7.07986 19.6917C7.02846 19.8084 7 19.9371 7 20.0705C7 20.3266 7.10366 20.5657 7.27742 20.7372C7.36382 20.8226 7.46552 20.8893 7.57377 20.9335C7.68196 20.9777 7.79663 21 7.9115 21C8.02636 21 8.14103 20.9777 8.24923 20.9335C8.35751 20.8893 8.45829 20.8234 8.5447 20.738L8.54817 20.7346L16.7165 12.724L16.719 12.7216C16.9884 12.4596 17.0609 12.0729 16.9503 11.7455C16.9377 11.7082 16.9227 11.6715 16.9053 11.6357C16.8912 11.6069 16.8756 11.5787 16.8584 11.5511C16.8477 11.5339 16.8364 11.517 16.8245 11.5005Z" fill="#576175"/>
</svg>
