<svg width="24" height="24" viewBox="0 0 24 24" fill="none" xmlns="http://www.w3.org/2000/svg">
<path fill-rule="evenodd" clip-rule="evenodd" d="M18.946 8.89904V8.96748L18.9562 8.99846C18.9772 9.06232 18.9919 9.12822 19 9.19516V18.4432C19 19.1231 18.7356 19.7741 18.2668 20.2532C17.7982 20.7321 17.1638 21 16.5037 21H7.49632C6.83616 21 6.20182 20.7321 5.73319 20.2532C5.26437 19.7741 5 19.1231 5 18.4432V5.55682C5 4.87688 5.26437 4.22591 5.73319 3.74682C6.20182 3.26794 6.83616 3 7.49632 3H12.9317C13.0042 3.0107 13.0744 3.03535 13.1384 3.07288L13.2009 3.10953L13.2707 3.0994C13.3287 3.13103 13.3826 3.17037 13.431 3.21654L18.8308 8.73455C18.8759 8.78394 18.9146 8.83923 18.946 8.89904ZM16.6217 8.52273L13.5956 5.43038V7.39773C13.5956 7.69427 13.7108 7.97978 13.9177 8.19117C14.1247 8.40276 14.4068 8.52273 14.7022 8.52273H16.6217ZM12.2059 7.39773V4.43182H7.49632C7.20093 4.43182 6.91885 4.55179 6.71179 4.76337C6.50493 4.97477 6.38971 5.26028 6.38971 5.55682V18.4432C6.38971 18.7397 6.50493 19.0252 6.71179 19.2366C6.91885 19.4482 7.20093 19.5682 7.49632 19.5682H16.5037C16.7991 19.5682 17.0812 19.4482 17.2882 19.2366C17.4951 19.0252 17.6103 18.7397 17.6103 18.4432V9.95455H14.7022C14.042 9.95455 13.4077 9.68661 12.9391 9.20772C12.4703 8.72864 12.2059 8.07767 12.2059 7.39773ZM10.1985 9.95455H9.29779C9.11541 9.95455 8.93928 9.88056 8.8085 9.74691C8.67752 9.61307 8.60294 9.43034 8.60294 9.23864C8.60294 9.04694 8.67752 8.86421 8.8085 8.73036C8.93928 8.59671 9.11541 8.52273 9.29779 8.52273H10.1985C10.3809 8.52273 10.557 8.59671 10.6878 8.73036C10.8188 8.86421 10.8934 9.04694 10.8934 9.23864C10.8934 9.43034 10.8188 9.61307 10.6878 9.74691C10.557 9.88056 10.3809 9.95455 10.1985 9.95455ZM8.8085 12.4122C8.93928 12.2785 9.11541 12.2045 9.29779 12.2045H14.7022C14.8846 12.2045 15.0607 12.2785 15.1915 12.4122C15.3225 12.546 15.3971 12.7288 15.3971 12.9205C15.3971 13.1122 15.3225 13.2949 15.1915 13.4287C15.0607 13.5624 14.8846 13.6364 14.7022 13.6364H9.29779C9.11541 13.6364 8.93928 13.5624 8.8085 13.4287C8.67752 13.2949 8.60294 13.1122 8.60294 12.9205C8.60294 12.7288 8.67752 12.546 8.8085 12.4122ZM8.8085 16.094C8.93928 15.9603 9.11541 15.8864 9.29779 15.8864H14.7022C14.8846 15.8864 15.0607 15.9603 15.1915 16.094C15.3225 16.2278 15.3971 16.4106 15.3971 16.6023C15.3971 16.794 15.3225 16.9767 15.1915 17.1105C15.0607 17.2442 14.8846 17.3182 14.7022 17.3182H9.29779C9.11541 17.3182 8.93928 17.2442 8.8085 17.1105C8.67752 16.9767 8.60294 16.794 8.60294 16.6023C8.60294 16.4106 8.67752 16.2278 8.8085 16.094Z" fill="#576175"/>
</svg>
