<svg width="24" height="24" viewBox="0 0 16 16" fill="none" xmlns="http://www.w3.org/2000/svg">
<path d="M6.06822 9.62702C6.00601 9.58985 5.93456 9.56754 5.85909 9.56754C5.54998 9.56754 5.34268 9.80318 5.34268 10.0996C5.34268 10.3961 5.54998 10.6319 5.85909 10.6319C5.93538 10.6319 6.00761 10.6091 6.07032 10.5712C6.21875 10.4815 6.40872 10.3864 6.56631 10.4588C6.71001 10.5249 6.77751 10.6976 6.6796 10.8218C6.5193 11.0252 6.26001 11.1995 5.85932 11.1995C5.19319 11.1995 4.68945 10.7533 4.68945 10.0998C4.68945 9.44316 5.19296 9 5.85932 9C6.26249 9 6.52082 9.16987 6.68117 9.37475C6.77849 9.49911 6.71099 9.67158 6.56782 9.73823C6.40962 9.81188 6.21802 9.71654 6.06822 9.62702Z" fill="#576175"/>
<path d="M7.90879 9.5454C7.78118 9.5454 7.74617 9.58685 7.74617 9.64098C7.74617 9.70828 7.87896 9.73369 8.05555 9.76748C8.406 9.83452 8.92894 9.93458 8.92894 10.4605C8.92894 10.9292 8.58136 11.2001 8.01082 11.2001C7.68031 11.2001 7.42624 11.1288 7.22515 11.011C7.10104 10.9382 7.0844 10.7737 7.16689 10.6559C7.26697 10.5129 7.47185 10.4967 7.6307 10.569C7.7589 10.6274 7.89922 10.6583 8.04261 10.6581C8.16376 10.6581 8.27847 10.6261 8.27847 10.5432C8.27847 10.4758 8.14905 10.4533 7.97573 10.4231C7.62441 10.362 7.09271 10.2694 7.09271 9.70801C7.09271 9.34777 7.39215 9.00342 7.97558 9.00342C8.21924 9.00342 8.44557 9.05198 8.6426 9.14909C8.78278 9.21818 8.80324 9.39855 8.70904 9.52325C8.61214 9.65153 8.42915 9.67323 8.27886 9.61613C8.15468 9.56896 8.0253 9.5454 7.90879 9.5454Z" fill="#576175"/>
<path d="M10.2554 10.4669L9.86317 9.24402C9.82335 9.11986 9.70789 9.03564 9.5775 9.03564H9.49678C9.28802 9.03564 9.14308 9.24357 9.21531 9.43944L9.77811 10.9657C9.82159 11.0836 9.93393 11.1619 10.0596 11.1619H10.451C10.5766 11.1619 10.689 11.0836 10.7325 10.9657L11.2954 9.43947C11.3677 9.24359 11.2227 9.03564 11.014 9.03564H10.9333C10.8029 9.03564 10.6874 9.11986 10.6476 9.24402L10.2554 10.4669Z" fill="#576175"/>
<path fill-rule="evenodd" clip-rule="evenodd" d="M4.31735 1.99756H9.53558C9.8603 1.99756 10.1722 2.11709 10.4023 2.32803L12.5475 4.29444C12.7776 4.50538 12.908 4.79367 12.908 5.09131V12.8749C12.908 13.4957 12.3586 13.9999 11.6808 13.9999H4.31712C3.63923 13.9999 3.08984 13.4957 3.08984 12.8749V3.1249C3.08984 2.50424 3.6395 2.00001 4.31735 1.99756ZM9.6353 4.9999H11.581L9.6353 3.21631V4.9999ZM8.40803 3.1249H4.31712V12.8749H11.6808V6.1249H9.02166C8.681 6.1249 8.40803 5.87357 8.40803 5.5624V3.1249Z" fill="#576175"/>
</svg>
