<svg width="24" height="24" viewBox="0 0 24 24" fill="none" xmlns="http://www.w3.org/2000/svg">
<path d="M7.11426 16.8848L11.0938 16.8712L20.4979 7.49529C20.8217 7.16917 21 6.73673 21 6.27564C21 5.81431 20.822 5.38217 20.4979 5.05599L18.937 3.48471C18.2936 2.8371 17.1591 2.84072 16.5213 3.48186L16.5206 3.48261L7.11426 12.8607V16.8848ZM17.9098 4.52279C17.8616 4.47449 17.7963 4.4473 17.7281 4.44722C17.6598 4.44713 17.5944 4.47415 17.5461 4.52233L15.9773 6.08767C15.8769 6.18784 15.8765 6.3504 15.9765 6.45098L17.5375 8.02128C17.5856 8.06969 17.651 8.09698 17.7193 8.09713C17.7876 8.09728 17.8531 8.07028 17.9014 8.02208L19.4732 6.45476C19.5215 6.4066 19.5487 6.34123 19.5488 6.27303C19.5489 6.20483 19.5219 6.13939 19.4737 6.0911L17.9098 4.52279ZM8.64397 13.3981C8.59559 13.4464 8.5684 13.5119 8.5684 13.5802V15.1545C8.5684 15.2228 8.5956 15.2883 8.644 15.3366C8.6924 15.3848 8.75801 15.4118 8.82635 15.4116L10.3883 15.4067C10.4561 15.4065 10.521 15.3795 10.569 15.3316L16.5028 9.41604C16.6033 9.3159 16.6037 9.15333 16.5037 9.05271L14.9428 7.48142C14.8946 7.43298 14.8292 7.40567 14.7609 7.40551C14.6927 7.40535 14.6271 7.43235 14.5788 7.48056L8.64397 13.3981ZM4.42857 19.3143C4.42857 19.4563 4.5437 19.5714 4.68571 19.5714H7.57282L7.57921 19.5723L7.59217 19.5741L7.59412 19.5743C7.60953 19.5766 7.64147 19.5811 7.67674 19.5811C7.69912 19.5811 7.71832 19.579 7.73203 19.5771C7.74448 19.5753 7.75606 19.5731 7.76187 19.572L7.76491 19.5714H18.2857C18.4277 19.5714 18.5429 19.4563 18.5429 19.3143V12.9433L19.9714 11.5147V19.3143C19.9714 20.2438 19.2152 21 18.2857 21H4.68571C3.75624 21 3 20.2438 3 19.3143V5.71429C3 4.78482 3.75624 4.02857 4.68571 4.02857H12.6591L11.2306 5.45714H4.68571C4.5437 5.45714 4.42857 5.57227 4.42857 5.71429V19.3143Z" fill="#576175"/>
</svg>
