<svg width="24" height="24" viewBox="0 0 24 24" fill="none" xmlns="http://www.w3.org/2000/svg">
    <path d="M19.9479 18.9897C20.0368 19.0266 20.1175 19.0807 20.1854 19.149C20.2879 19.2515 20.3576 19.382 20.3859 19.5242C20.4142 19.6663 20.3997 19.8137 20.3442 19.9476C20.2887 20.0815 20.1948 20.196 20.0743 20.2765C19.9538 20.357 19.8121 20.4 19.6672 20.4H3.7328C3.53846 20.4 3.35208 20.3228 3.21466 20.1853C3.07724 20.0479 3.00003 19.8615 3 19.6672V3.7328C3 3.53845 3.07721 3.35206 3.21463 3.21463C3.35206 3.07721 3.53845 3 3.7328 3C3.92715 3 4.11354 3.07721 4.25097 3.21463C4.38839 3.35206 4.4656 3.53845 4.4656 3.7328V18.9343H19.6673C19.7636 18.934 19.8589 18.9529 19.9479 18.9897Z" fill="#576175"/>
    <path d="M19.9706 7.25023C20.1808 7.42276 20.3247 7.66286 20.3777 7.9296C20.4107 8.09591 20.4074 8.26741 20.3679 8.43231C20.3285 8.59722 20.2538 8.75163 20.149 8.88494C20.0442 9.01826 19.9118 9.12732 19.7609 9.20464C19.61 9.28197 19.4441 9.32572 19.2747 9.3329L19.1572 9.3379L15.9368 12.5848L15.8498 12.6826V12.8069C15.8491 12.9613 15.8181 13.114 15.7584 13.2563C15.6987 13.3987 15.6116 13.5279 15.502 13.6366C15.3924 13.7452 15.2624 13.8313 15.1196 13.8897C14.9767 13.9482 14.8238 13.978 14.6694 13.9773C14.515 13.9766 14.3623 13.9456 14.22 13.8859C14.0776 13.8262 13.9484 13.7391 13.8397 13.6295C13.7311 13.5199 13.645 13.3899 13.5866 13.2471C13.5281 13.1042 13.4983 12.9513 13.499 12.7969V12.6726L11.9845 11.1579H11.4509L8.8939 13.7148L8.8952 13.8408C8.8954 13.8583 8.8947 13.8758 8.892 13.9183C8.89092 14.1484 8.8223 14.3732 8.69466 14.5647C8.56702 14.7562 8.38597 14.906 8.17397 14.9956C7.96197 15.0852 7.72834 15.1105 7.50206 15.0685C7.27578 15.0265 7.0668 14.919 6.90104 14.7594C6.73528 14.5997 6.62004 14.3949 6.5696 14.1704C6.51916 13.9458 6.53574 13.7114 6.61729 13.4962C6.69884 13.281 6.84177 13.0945 7.02835 12.9597C7.21494 12.825 7.43696 12.748 7.6669 12.7383L7.7837 12.7334L10.5209 9.9962L10.5258 9.8794C10.5384 9.57632 10.6676 9.28983 10.8866 9.07985C11.1055 8.86987 11.3971 8.75266 11.7004 8.75272C12.0038 8.75279 12.2954 8.87012 12.5142 9.0802C12.733 9.29027 12.8622 9.57681 12.8746 9.8799L12.8794 9.9953L14.4075 11.5496L14.5144 11.6396H14.7644L18.0476 8.3567L18.0463 8.2305C18.0461 8.2134 18.0468 8.1956 18.0495 8.1534C18.0509 7.84259 18.1754 7.54499 18.3956 7.32572C18.6159 7.10646 18.9141 6.98337 19.2249 6.9834C19.4969 6.98339 19.7604 7.07769 19.9706 7.25023Z" fill="#576175"/>
</svg>
