<svg width="24" height="24" viewBox="0 0 24 24" fill="none" xmlns="http://www.w3.org/2000/svg">
    <path d="M19.926 3.34557C19.9082 3.31179 19.8874 3.27966 19.864 3.24957C19.8502 3.23216 19.8355 3.21547 19.82 3.19957L19.81 3.18957C19.7203 3.09988 19.6062 3.03852 19.482 3.01312C19.3577 2.98771 19.2287 2.99938 19.1111 3.04667L3.43307 8.53367C3.31075 8.57649 3.20412 8.65508 3.127 8.75922C3.04988 8.86337 3.00582 8.98829 3.00054 9.11778C2.99526 9.24727 3.029 9.37536 3.09738 9.48544C3.16577 9.59552 3.26564 9.68253 3.38407 9.73517L9.88747 12.6252L10.131 12.8685L10.3745 13.1118L13.2652 19.6159C13.3178 19.7343 13.4048 19.8343 13.5149 19.9027C13.6249 19.9711 13.7531 20.0049 13.8826 19.9996C14.0121 19.9943 14.137 19.9502 14.2412 19.8731C14.3453 19.7959 14.4239 19.6892 14.4667 19.5669L19.9641 3.86037C19.9934 3.77654 20.0051 3.68757 19.9986 3.59901C19.992 3.51044 19.9673 3.42417 19.926 3.34557ZM5.39997 9.21567L16.891 5.19377L10.571 11.5138L5.39997 9.21567ZM13.7846 17.6002L11.4859 12.4282L17.8073 6.10687L13.7846 17.6002Z" fill="#576175"/>
</svg>
