<svg width="24" height="24" viewBox="0 0 32 32" fill="none" xmlns="http://www.w3.org/2000/svg">
<path fill-rule="evenodd" clip-rule="evenodd" d="M12.9541 6.47108H7.26348C6.80719 6.47108 6.36824 6.6464 6.04353 6.96057C5.71858 7.27498 5.53467 7.70294 5.53467 8.15072V8.6645H14.9536L14.5963 7.61465L14.5954 7.61196C14.5479 7.47601 14.4828 7.34672 14.4028 7.22836C14.3437 7.14101 14.2764 7.05921 14.2016 6.98401C14.1284 6.91032 14.0481 6.84298 13.9615 6.78301C13.8971 6.73844 13.83 6.69842 13.7607 6.6631C13.6479 6.60566 13.5291 6.56063 13.4067 6.52866C13.26 6.49033 13.1078 6.47076 12.9541 6.47108ZM16.5493 8.62278L16.0443 7.09606C16.0029 6.98343 15.955 6.87357 15.901 6.76693C15.8005 6.56847 15.6788 6.38113 15.5383 6.20785C15.3435 5.96778 15.1124 5.75471 14.8509 5.57654C14.7157 5.4844 14.574 5.40272 14.4271 5.33193C14.174 5.20988 13.9056 5.1202 13.6288 5.06504C13.4088 5.0212 13.1836 4.99918 12.9565 5.00002L7.26348 5.00003C6.39573 5.00003 5.56487 5.33362 4.95335 5.92531C4.34206 6.51676 4 7.31742 4 8.15072V23.8493C4 24.6826 4.34206 25.4833 4.95335 26.0747C5.56487 26.6664 6.39573 27 7.26348 27H24.7365C25.6043 27 26.4351 26.6664 27.0467 26.0747C27.6579 25.4833 28 24.6826 28 23.8493V11.7735C28 10.9402 27.6579 10.1395 27.0467 9.54806C26.4351 8.95637 25.6043 8.62278 24.7365 8.62278H16.5493ZM5.53467 10.1024H15.9317V10.0938L24.7365 10.0938C25.1928 10.0938 25.6318 10.2691 25.9565 10.5833C26.2814 10.8977 26.4653 11.3257 26.4653 11.7735V23.8493C26.4653 24.2971 26.2814 24.725 25.9565 25.0395C25.6318 25.3536 25.1928 25.5289 24.7365 25.5289H7.26348C6.8072 25.5289 6.36824 25.3536 6.04353 25.0395C5.71858 24.725 5.53467 24.2971 5.53467 23.8493V10.1024ZM21.4237 21.7277C22.066 21.7277 22.5763 21.2231 22.5763 20.6133C22.5763 20.0035 22.066 19.4989 21.4237 19.4989C20.7814 19.4989 20.2712 20.0035 20.2712 20.6133C20.2712 21.2231 20.7814 21.7277 21.4237 21.7277Z" fill="#576175"/>
</svg>
