<svg width="24" height="24" viewBox="0 0 24 24" fill="none" xmlns="http://www.w3.org/2000/svg">
<path d="M18.6134 10.5618C18.9384 10.0537 19.0648 9.44454 18.9686 8.84986C18.8672 8.25 18.5521 7.70659 18.0808 7.31927C17.8951 7.16545 17.6895 7.03702 17.4696 6.93739C17.3739 6.89399 17.2759 6.85602 17.1759 6.82367C17.1157 6.80423 17.0548 6.78681 16.9932 6.7714C16.9331 6.7564 16.8725 6.74335 16.8112 6.73223C16.7441 6.72003 16.6764 6.71031 16.6082 6.70309C16.5247 6.69416 16.4407 6.68894 16.3563 6.68744C16.2587 6.68764 16.1613 6.69287 16.0643 6.70309C15.9955 6.71035 15.9271 6.72006 15.8595 6.73234C15.7979 6.74338 15.737 6.75644 15.6769 6.77151C15.6094 6.78835 15.5426 6.80764 15.4767 6.82939C15.3905 6.85782 15.3061 6.89031 15.2233 6.92686C15.1626 6.95379 15.1027 6.9829 15.0437 7.0142C14.9769 7.04972 14.9119 7.08797 14.8485 7.12894C14.78 7.17306 14.7136 7.22024 14.6494 7.27049C14.5851 7.32074 14.5231 7.37406 14.4632 7.43044C14.393 7.49664 14.3264 7.56667 14.264 7.6402C14.2117 7.70156 14.1626 7.76528 14.1165 7.83134C14.0686 7.9 14.0241 7.97074 13.983 8.04356C13.9396 8.12098 13.9004 8.20062 13.8654 8.28216C13.8345 8.35456 13.8071 8.4284 13.7832 8.50368C13.758 8.58301 13.7368 8.66357 13.7197 8.74504C13.7077 8.80251 13.6978 8.86016 13.69 8.91798C13.6367 9.31399 13.6817 9.71697 13.8212 10.0916C13.8462 10.1591 13.8742 10.2257 13.9054 10.2912C13.9295 10.342 13.9554 10.3923 13.9832 10.4418C14.0209 10.5091 14.0615 10.5745 14.1051 10.638C14.1545 10.7097 14.2074 10.7789 14.2638 10.8453C14.307 10.8961 14.3521 10.9453 14.3992 10.9928C14.4319 11.0258 14.4654 11.0578 14.4997 11.089C14.5359 11.1219 14.5731 11.1538 14.6113 11.1847C14.6622 11.2261 14.7147 11.2655 14.7687 11.303C14.8148 11.3351 14.862 11.3658 14.9103 11.3951C14.9463 11.4169 14.9829 11.4379 15.02 11.4582C15.0583 11.4792 15.0974 11.4993 15.1371 11.5184C15.1983 11.5481 15.2608 11.5755 15.3246 11.6008L15.5219 11.6789L15.4371 11.8727C15.402 11.9529 15.3616 12.0307 15.3162 12.1056C15.2843 12.1584 15.2498 12.2101 15.2128 12.2602C15.1581 12.3345 15.0984 12.405 15.0342 12.4713C14.981 12.5262 14.9249 12.5782 14.866 12.627C14.7959 12.6852 14.7221 12.7387 14.6451 12.7874C14.4972 12.8809 14.3385 12.9563 14.1724 13.0119C13.9443 13.0883 13.7052 13.1272 13.4645 13.1271H9.59372C9.28588 13.1283 8.97937 13.1674 8.68115 13.2434C8.35963 13.3253 8.05077 13.4503 7.76302 13.6149L7.45479 13.7912V8.01032L7.59442 7.96327C8.18622 7.7674 8.69054 7.37163 9.02 6.84453C9.33839 6.33096 9.45576 5.71871 9.34971 5.12453C9.23829 4.52461 8.91317 3.98484 8.43405 3.60437C8.06726 3.31478 7.63346 3.12121 7.17223 3.04132C6.711 2.96143 6.23701 2.99777 5.79351 3.14701C5.48871 3.24888 5.20447 3.40373 4.95398 3.60437C4.72216 3.78982 4.52406 4.01354 4.36833 4.26576C4.20542 4.52907 4.09359 4.82047 4.03863 5.12484C3.98418 5.42578 3.98732 5.73425 4.04787 6.03403C4.10571 6.32101 4.21425 6.5955 4.36844 6.84473C4.52416 7.09695 4.72226 7.32067 4.95408 7.50612C5.2045 7.70675 5.48867 7.8616 5.7934 7.96348L5.93303 8.01052V15.9938L5.79443 16.0413C5.51471 16.1366 5.25241 16.2766 5.01778 16.4557C4.76615 16.6472 4.55182 16.8829 4.38539 17.1511C4.06954 17.6589 3.95011 18.2637 4.04941 18.8526C4.15406 19.4469 4.46855 19.9845 4.9362 20.3685C5.1585 20.5524 5.40889 20.6997 5.67792 20.805C5.98664 20.9264 6.31461 20.9922 6.64649 20.9993L6.70886 21C7.06173 21.0004 7.4115 20.9344 7.7397 20.8054C7.97047 20.715 8.18776 20.5936 8.38555 20.4447C8.87139 20.0818 9.21166 19.5586 9.34549 18.9689C9.47347 18.3859 9.38361 17.7765 9.09274 17.2547C8.91972 16.9435 8.68375 16.6714 8.39973 16.4556C8.19819 16.3017 7.97603 16.1767 7.7397 16.0841L7.5416 16.0064L7.62678 15.8121C7.79229 15.4369 8.0665 15.1194 8.41432 14.9002C8.76653 14.6768 9.17546 14.558 9.59311 14.5578H13.4599C13.5132 14.5578 13.5663 14.5567 13.6194 14.5546C13.6746 14.5522 13.73 14.5487 13.7853 14.5443C13.8822 14.5361 13.978 14.5243 14.073 14.5089L14.2118 14.4839C14.2975 14.4668 14.3829 14.4467 14.4673 14.4237C14.557 14.3993 14.6459 14.3716 14.7337 14.3407C14.8119 14.3134 14.8889 14.2833 14.9649 14.2504C15.0638 14.208 15.1607 14.1615 15.2556 14.1109C15.4336 14.0158 15.6034 13.9064 15.7634 13.7836C16.0735 13.5459 16.3418 13.2587 16.5576 12.9337C16.7849 12.5918 16.9478 12.2115 17.0382 11.8115L17.0639 11.6978L17.1753 11.6618C17.496 11.5589 17.7947 11.3975 18.0561 11.1859C18.2746 11.0093 18.4628 10.7985 18.6134 10.5618ZM5.72189 6.19081C5.59185 6.00688 5.52202 5.78747 5.52195 5.56256C5.52284 5.41313 5.55399 5.26542 5.61353 5.12825C5.67308 4.99109 5.7598 4.86728 5.86851 4.76423C6.09095 4.55331 6.38686 4.43641 6.69406 4.43809C6.92336 4.43766 7.14797 4.50261 7.34136 4.62524C7.53335 4.74624 7.68449 4.92176 7.77525 5.12913C7.86548 5.33504 7.88914 5.56378 7.84295 5.78367C7.79647 6.00435 7.68354 6.2057 7.51921 6.36089C7.35353 6.51798 7.14563 6.62388 6.92072 6.66576C6.69505 6.70849 6.46183 6.68661 6.24815 6.60266C6.03591 6.51978 5.85288 6.37655 5.72189 6.19081ZM7.66613 17.8134C7.79618 17.9974 7.866 18.2168 7.86607 18.4417C7.86517 18.5911 7.83401 18.7388 7.77447 18.876C7.71492 19.0131 7.62821 19.137 7.51951 19.24C7.40971 19.3443 7.2806 19.4264 7.13936 19.4818C6.96187 19.5516 6.77031 19.5787 6.58032 19.5608C6.39032 19.5429 6.20725 19.4806 6.04605 19.3789C5.85412 19.2579 5.70303 19.0824 5.61226 18.8751C5.52207 18.6692 5.49841 18.4405 5.54456 18.2206C5.59102 17.9999 5.70396 17.7985 5.8683 17.6434C6.03396 17.4862 6.24186 17.3803 6.46679 17.3384C6.54161 17.3242 6.6176 17.3171 6.69376 17.3171C6.84632 17.3169 6.99753 17.3455 7.13936 17.4015C7.3518 17.4843 7.53502 17.6276 7.66613 17.8134ZM17.1852 10.0408C16.9628 10.2517 16.6669 10.3686 16.3597 10.367C16.1304 10.3674 15.9058 10.3024 15.7124 10.1798C15.5993 10.1082 15.4997 10.0174 15.418 9.91164C15.362 9.83923 15.3151 9.76023 15.2785 9.67642C15.2121 9.52414 15.1816 9.35877 15.1893 9.19295C15.1969 9.02713 15.2425 8.86525 15.3227 8.71967C15.3507 8.66858 15.3827 8.61975 15.4183 8.57363C15.4537 8.52782 15.4925 8.48475 15.5344 8.44477C15.6164 8.36686 15.7094 8.3012 15.8103 8.24984C15.9121 8.19807 16.0207 8.16102 16.133 8.13979C16.2078 8.12566 16.2838 8.11854 16.36 8.11852C16.3979 8.11852 16.4356 8.12026 16.473 8.12374C16.5869 8.13432 16.6987 8.16097 16.8051 8.2029C17.0174 8.28569 17.2005 8.42889 17.3316 8.61464C17.4616 8.79859 17.5315 9.01799 17.5316 9.24289C17.5306 9.39224 17.4995 9.53986 17.4399 9.67695C17.3804 9.81404 17.2938 9.93779 17.1851 10.0408H17.1852Z" fill="#576175"/>
</svg>
