<svg width="24" height="24" viewBox="0 0 24 24" fill="none" xmlns="http://www.w3.org/2000/svg">
<path fill-rule="evenodd" clip-rule="evenodd" d="M17.3182 2.72356V3.85529H18.4432C19.1206 3.85529 19.7707 4.12648 20.2504 4.60989C20.7301 5.09336 21 5.74953 21 6.43414V19.4212C21 20.1058 20.7301 20.7619 20.2504 21.2454C19.7707 21.7288 19.1206 22 18.4432 22H5.55682C4.87937 22 4.22926 21.7288 3.7496 21.2454C3.26987 20.7619 3 20.1058 3 19.4212V6.43414C3 5.74953 3.26987 5.09336 3.7496 4.60989C4.22926 4.12648 4.87937 3.85529 5.55682 3.85529H6.68182V2.72356C6.68182 2.531 6.75774 2.34674 6.89223 2.2112C7.02665 2.07573 7.20852 2 7.39773 2C7.58693 2 7.76881 2.07573 7.90323 2.2112C8.03772 2.34674 8.11364 2.531 8.11364 2.72356V3.85529H15.8864V2.72356C15.8864 2.531 15.9623 2.34674 16.0968 2.2112C16.2312 2.07573 16.4131 2 16.6023 2C16.7915 2 16.9734 2.07573 17.1078 2.2112C17.2423 2.34674 17.3182 2.531 17.3182 2.72356ZM19.5682 10.8683H4.43182V19.4212C4.43182 19.7206 4.54985 20.0083 4.7606 20.2207C4.97142 20.4331 5.25778 20.5529 5.55682 20.5529H18.4432C18.7422 20.5529 19.0286 20.4331 19.2394 20.2207C19.4502 20.0083 19.5682 19.7206 19.5682 19.4212V10.8683ZM4.43182 9.42115H19.5682V6.43414C19.5682 6.13464 19.4502 5.84701 19.2394 5.63461C19.0286 5.42215 18.7422 5.30241 18.4432 5.30241H17.3182V6.43414C17.3182 6.6267 17.2423 6.81096 17.1078 6.9465C16.9734 7.08197 16.7915 7.1577 16.6023 7.1577C16.4131 7.1577 16.2312 7.08197 16.0968 6.9465C15.9623 6.81096 15.8864 6.6267 15.8864 6.43414V5.30241H8.11364V6.43414C8.11364 6.6267 8.03772 6.81096 7.90323 6.9465C7.76881 7.08197 7.58693 7.1577 7.39773 7.1577C7.20852 7.1577 7.02665 7.08197 6.89223 6.9465C6.75774 6.81096 6.68182 6.6267 6.68182 6.43414V5.30241H5.55682C5.25778 5.30241 4.97141 5.42215 4.7606 5.63461C4.54985 5.84701 4.43182 6.13464 4.43182 6.43414V9.42115ZM12.3969 18.168C12.2793 18.2473 12.1411 18.2894 12 18.2894C11.8108 18.2894 11.6289 18.2137 11.4945 18.0782C11.36 17.9427 11.2841 17.7584 11.2841 17.5659C11.2841 17.4223 11.3263 17.2821 11.4053 17.1631C11.4842 17.0441 11.5961 16.9516 11.7267 16.8971C11.8573 16.8426 12.0008 16.8284 12.1393 16.8561C12.2778 16.8839 12.4052 16.9525 12.5055 17.0535C12.6058 17.1546 12.6743 17.2836 12.7021 17.4243C12.7299 17.5651 12.7156 17.711 12.6611 17.8434C12.6067 17.9759 12.5147 18.0888 12.3969 18.168ZM16.9992 18.168C16.8815 18.2473 16.7434 18.2894 16.6023 18.2894C16.4131 18.2894 16.2312 18.2137 16.0968 18.0782C15.9623 17.9427 15.8864 17.7584 15.8864 17.5659C15.8864 17.4223 15.9286 17.2821 16.0075 17.1631C16.0865 17.0441 16.1984 16.9516 16.329 16.8971C16.4595 16.8426 16.6031 16.8284 16.7416 16.8561C16.88 16.8839 17.0075 16.9525 17.1078 17.0535C17.2081 17.1546 17.2766 17.2836 17.3044 17.4243C17.3321 17.5651 17.3179 17.711 17.2634 17.8434C17.209 17.9759 17.1169 18.0888 16.9992 18.168ZM16.9992 14.4574C16.8815 14.5367 16.7434 14.5788 16.6023 14.5788C16.4131 14.5788 16.2312 14.5031 16.0968 14.3677C15.9623 14.2321 15.8864 14.0478 15.8864 13.8553C15.8864 13.7117 15.9286 13.5716 16.0075 13.4525C16.0865 13.3335 16.1984 13.241 16.329 13.1865C16.4595 13.132 16.6031 13.1178 16.7416 13.1456C16.88 13.1733 17.0075 13.2419 17.1078 13.3429C17.2081 13.444 17.2766 13.573 17.3044 13.7137C17.3321 13.8545 17.3179 14.0004 17.2634 14.1329C17.209 14.2653 17.1169 14.3782 16.9992 14.4574ZM12.3969 14.4574C12.2793 14.5367 12.1411 14.5788 12 14.5788C11.8108 14.5788 11.6289 14.5031 11.4945 14.3677C11.36 14.2321 11.2841 14.0478 11.2841 13.8553C11.2841 13.7117 11.3263 13.5716 11.4053 13.4525C11.4842 13.3335 11.5961 13.241 11.7267 13.1865C11.8573 13.132 12.0008 13.1178 12.1393 13.1456C12.2778 13.1733 12.4052 13.2419 12.5055 13.3429C12.6058 13.444 12.6743 13.573 12.7021 13.7137C12.7299 13.8545 12.7156 14.0004 12.6611 14.1329C12.6067 14.2653 12.5147 14.3782 12.3969 14.4574ZM7.79468 14.4574C7.677 14.5367 7.53886 14.5788 7.39773 14.5788C7.20852 14.5788 7.02665 14.5031 6.89223 14.3677C6.75774 14.2321 6.68182 14.0478 6.68182 13.8553C6.68182 13.7117 6.72407 13.5716 6.803 13.4525C6.88191 13.3335 6.99385 13.241 7.12443 13.1865C7.255 13.132 7.39854 13.1178 7.53701 13.1456C7.67548 13.1733 7.80297 13.2419 7.90323 13.3429C8.00351 13.444 8.07202 13.573 8.0998 13.7137C8.12759 13.8545 8.11331 14.0004 8.05887 14.1329C8.00443 14.2653 7.91238 14.3782 7.79468 14.4574ZM7.79468 18.168C7.677 18.2473 7.53886 18.2894 7.39773 18.2894C7.20852 18.2894 7.02665 18.2137 6.89223 18.0782C6.75774 17.9427 6.68182 17.7584 6.68182 17.5659C6.68182 17.4223 6.72407 17.2821 6.803 17.1631C6.88191 17.0441 6.99385 16.9516 7.12443 16.8971C7.255 16.8426 7.39854 16.8284 7.53701 16.8561C7.67549 16.8839 7.80297 16.9525 7.90323 17.0535C8.00351 17.1546 8.07202 17.2836 8.0998 17.4243C8.12759 17.5651 8.11331 17.711 8.05887 17.8434C8.00443 17.9759 7.91238 18.0888 7.79468 18.168Z" fill="#576175"/>
</svg>
