<svg width="24" height="24" viewBox="0 0 24 24" fill="none" xmlns="http://www.w3.org/2000/svg">
<path fill-rule="evenodd" clip-rule="evenodd" d="M11.2841 18.5869V16.3533H5.55682C4.87789 16.3533 4.22728 16.0861 3.74797 15.6114C3.26875 15.1367 3 14.4935 3 13.8234V6.52991C3 5.85977 3.26875 5.21655 3.74797 4.74189C4.22728 4.26716 4.87789 4 5.55682 4H18.4432C19.1221 4 19.7727 4.26716 20.252 4.74189C20.7312 5.21655 21 5.85977 21 6.52991V13.8234C21 14.4935 20.7312 15.1367 20.252 15.6114C19.7727 16.0861 19.1221 16.3533 18.4432 16.3533H12.7159V18.5869H16.6023C16.793 18.5869 16.9753 18.6619 17.1094 18.7947C17.2434 18.9274 17.3182 19.1069 17.3182 19.2934C17.3182 19.48 17.2434 19.6595 17.1094 19.7922C16.9753 19.9249 16.793 20 16.6023 20H7.39773C7.20704 20 7.02467 19.9249 6.8906 19.7922C6.75662 19.6595 6.68182 19.48 6.68182 19.2934C6.68182 19.1069 6.75662 18.9274 6.8906 18.7947C7.02467 18.6619 7.20704 18.5869 7.39773 18.5869H11.2841ZM19.2378 14.614C19.449 14.4047 19.5682 14.1204 19.5682 13.8234V6.52991C19.5682 6.23289 19.449 5.94855 19.2378 5.73931C19.0266 5.53016 18.7407 5.41311 18.4432 5.41311H5.55682C5.25926 5.41311 4.97339 5.53016 4.76222 5.73931C4.55097 5.94855 4.43182 6.23289 4.43182 6.52991V13.8234C4.43182 14.1204 4.55097 14.4047 4.76222 14.614C4.97339 14.8231 5.25926 14.9402 5.55682 14.9402H18.4432C18.7407 14.9402 19.0266 14.8231 19.2378 14.614Z" fill="#576175"/>
</svg>
