<svg width="24" height="24" viewBox="0 0 24 24" fill="none" xmlns="http://www.w3.org/2000/svg">
<path fill-rule="evenodd" clip-rule="evenodd" d="M11.2896 13.268L7.0498 15.7825C6.24538 16.2515 5.56506 14.9775 6.34295 14.5083L10.5723 12L6.3425 9.49143C5.5649 9.02237 6.24565 7.74866 7.0498 8.21751L11.2896 10.732V5.70808C11.2896 4.76397 12.7104 4.76397 12.7104 5.70808V10.732L16.9506 8.21726C17.7547 7.7484 18.4347 9.02254 17.6571 9.49171L13.4278 12L17.6576 14.5086C18.4351 14.9777 17.7543 16.2514 16.9502 15.7825L12.7104 13.268V18.2919C12.7104 19.236 11.2896 19.236 11.2896 18.2919V13.268Z" fill="#576175"/>
</svg>
