<svg width="24" height="24" viewBox="0 0 24 24" fill="none" xmlns="http://www.w3.org/2000/svg">
<path fill-rule="evenodd" clip-rule="evenodd" d="M13.0608 12.0516L12.8235 12.2604L13.1104 12.3925C14.3627 12.9692 15.4256 13.9006 16.1718 15.0758C16.9179 16.2511 17.3155 17.6202 17.3169 19.0196C17.3168 19.2141 17.2408 19.4002 17.1063 19.537C16.9718 19.6737 16.79 19.75 16.601 19.75C16.412 19.75 16.2303 19.6737 16.0958 19.537C15.9613 19.4001 15.8852 19.214 15.8852 19.0194C15.8852 17.4765 15.2825 15.9962 14.2088 14.9044C13.135 13.8125 11.6781 13.1986 10.1584 13.1986C8.63872 13.1986 7.18181 13.8125 6.10804 14.9044C5.03437 15.9962 4.43165 17.4765 4.43165 19.0194C4.43165 19.214 4.35559 19.4001 4.22105 19.537C4.08659 19.6737 3.90481 19.75 3.71583 19.75C3.52685 19.75 3.34506 19.6737 3.2106 19.537C3.07608 19.4002 3.00002 19.2141 3 19.0195C3.00134 17.6202 3.39897 16.251 4.14509 15.0758C4.89121 13.9006 5.95414 12.9692 7.20649 12.3925L7.49335 12.2604L7.25607 12.0516C6.78708 11.6387 6.41072 11.128 6.15271 10.5539C5.89469 9.97972 5.76111 9.35574 5.76111 8.72429C5.76111 7.53677 6.22504 6.39843 7.05 5.55954C7.87487 4.72074 8.99306 4.25 10.1584 4.25C11.3238 4.25 12.442 4.72074 13.2669 5.55954C14.0918 6.39843 14.5557 7.53677 14.5557 8.72429C14.5557 9.35574 14.4222 9.97972 14.1641 10.5539C13.9061 11.128 13.5298 11.6387 13.0608 12.0516ZM20.5569 9.29819C20.644 9.33507 20.7231 9.38917 20.7898 9.45753C20.8585 9.52763 20.913 9.61174 20.9491 9.7041C20.9852 9.79646 21.0024 9.89542 20.9997 9.99491C20.997 10.0944 20.9744 10.1922 20.9334 10.2824C20.8924 10.3725 20.8337 10.4528 20.7613 10.5189L18.2966 13.0252C18.1623 13.161 17.9812 13.2368 17.7929 13.2368C17.6047 13.2368 17.4235 13.161 17.2892 13.0252L16.0565 11.7717C15.923 11.6351 15.8477 11.4497 15.8477 11.2559C15.8477 11.0621 15.9233 10.8764 16.0569 10.7397C16.1236 10.6714 16.2028 10.6173 16.2898 10.5804C16.3768 10.5435 16.4701 10.5246 16.5642 10.5246C16.6583 10.5246 16.7516 10.5435 16.8386 10.5804C16.9255 10.6172 17.0049 10.6715 17.0715 10.7397L17.7871 11.4792L19.7752 9.45753C19.8419 9.38917 19.9211 9.33507 20.0081 9.29819C20.0951 9.26132 20.1884 9.24237 20.2825 9.24237C20.3766 9.24237 20.4699 9.26132 20.5569 9.29819ZM8.50977 11.2289C8.99753 11.5603 9.57128 11.7373 10.1584 11.7373C10.9458 11.7373 11.7005 11.4192 12.2564 10.8539C12.8123 10.2886 13.1241 9.52254 13.1241 8.72429C13.1241 8.12896 12.9505 7.54678 12.625 7.05136C12.2994 6.55591 11.8364 6.16934 11.2942 5.94096C10.752 5.71257 10.1552 5.65276 9.57935 5.76924C9.00356 5.8857 8.47502 6.17311 8.06045 6.59469C7.6459 7.01625 7.36388 7.55301 7.24965 8.13697C7.13543 8.72092 7.19403 9.32623 7.41816 9.87646C7.64229 10.4267 8.02203 10.8975 8.50977 11.2289Z" fill="#576175"/>
</svg>
