<svg width="24" height="24" viewBox="0 0 16 16" fill="none" xmlns="http://www.w3.org/2000/svg">
<path fill-rule="evenodd" clip-rule="evenodd" d="M8.08298 2.00063C5.54427 1.95856 4.02262 4.03907 3.55124 6.38204C3.14356 8.39539 2.74207 9.75682 2.12311 10.7372C1.79177 11.2442 2.16994 11.9056 2.77258 11.9056H6.20118C6.17373 12.0666 6.16827 12.2374 6.19557 12.4196C6.31736 13.3064 7.08689 14 7.98683 14C8.99887 14 9.82003 13.1884 9.82003 12.1892C9.82003 12.0904 9.81034 11.996 9.79456 11.9056H13.2274C13.8302 11.9056 14.2084 11.244 13.8767 10.7369C13.1812 9.64233 12.7659 8.06366 12.3044 5.62536C11.9154 3.58118 10.1629 2.04226 8.08298 2.00063ZM4.12613 9.60024C4.41692 8.7535 4.64959 7.77993 4.86958 6.65001C4.94803 6.26012 5.16019 5.43086 5.63974 4.70039C6.1184 3.97127 6.85964 3.34535 7.99957 3.34535C9.1395 3.34535 9.88074 3.97127 10.3594 4.70039C10.8389 5.43081 11.0511 6.26002 11.1295 6.64994C11.376 7.91573 11.6389 8.98529 11.981 9.90034C12.0185 10.0007 12.057 10.0992 12.0965 10.196C12.1279 10.2728 12.1599 10.3485 12.1927 10.4231C12.2122 10.4675 12.2319 10.5116 12.252 10.5553L12.2544 10.5607H3.74516C3.75611 10.5368 3.76703 10.5127 3.77783 10.4887L3.79092 10.4593C3.80482 10.428 3.81859 10.3965 3.83224 10.3649C3.84871 10.3266 3.865 10.2881 3.88111 10.2493C3.89983 10.2043 3.91831 10.1588 3.93658 10.113C3.95924 10.0561 3.98157 9.99853 4.00356 9.94038C4.04558 9.8293 4.0864 9.71595 4.12613 9.60024ZM8.28674 12.1892C8.28674 12.3433 8.15848 12.4728 8 12.4728C7.84152 12.4728 7.71326 12.3433 7.71326 12.1892C7.71326 12.0351 7.84152 11.9056 8 11.9056C8.15848 11.9056 8.28674 12.0351 8.28674 12.1892Z" fill="#576175"/>
</svg>
