<svg width="24" height="24" viewBox="0 0 24 24" fill="none" xmlns="http://www.w3.org/2000/svg">
<path fill-rule="evenodd" clip-rule="evenodd" d="M17.3537 14.0948C17.4395 14.1309 17.5176 14.184 17.5834 14.2509L19.7902 16.4796C19.8565 16.5461 19.9093 16.6253 19.9453 16.7127C19.9814 16.8001 20 16.894 20 16.9889C20 17.0837 19.9814 17.1776 19.9453 17.265C19.9093 17.3525 19.8559 17.4322 19.7896 17.4987L16.5272 20.7935C16.4611 20.8596 16.3829 20.9118 16.2972 20.9472C16.2113 20.9826 16.1195 21.0005 16.0269 21H13.8201C13.6337 21 13.4543 20.9252 13.3217 20.7912C13.1889 20.6572 13.1139 20.4748 13.1139 20.2841L13.1139 18.0566L13.1139 18.0554C13.1133 17.9608 13.1313 17.8671 13.1666 17.7797C13.2019 17.6925 13.2542 17.6129 13.3196 17.5462L16.5824 14.2509C16.6482 14.184 16.7263 14.1309 16.8121 14.0948C16.898 14.0587 16.99 14.0401 17.0829 14.0401C17.1758 14.0401 17.2678 14.0587 17.3537 14.0948ZM14.5264 19.5682H15.7286L18.2826 16.9889L17.0829 15.7773L14.5264 18.3592V19.5682ZM11.2911 7.39773V4.43182H6.52903C6.23207 4.43182 5.9478 4.55099 5.73862 4.76225C5.52952 4.97342 5.41252 5.25928 5.41252 5.55682V18.4432C5.41252 18.7407 5.52952 19.0266 5.73862 19.2377C5.9478 19.449 6.23207 19.5682 6.52903 19.5682H10.1746C10.361 19.5682 10.5404 19.643 10.6731 19.7769C10.8058 19.911 10.8808 20.0934 10.8808 20.2841C10.8808 20.4748 10.8058 20.6572 10.6731 20.7912C10.5404 20.9252 10.361 21 10.1746 21H6.52903C5.85914 21 5.21615 20.7313 4.74166 20.252C4.26708 19.7727 4 19.1221 4 18.4432V5.55682C4 4.87787 4.26708 4.22725 4.74166 3.74795C5.21615 3.26874 5.85914 3 6.52903 3H12.0174L12.3234 3.10626L12.3728 3.09917C12.4324 3.13113 12.4877 3.17094 12.5372 3.21764L18.0009 8.73569C18.0466 8.78503 18.0857 8.84017 18.1173 8.89972V8.96796L18.1277 8.99934C18.1489 9.063 18.1637 9.12867 18.1719 9.19534V11.0795C18.1719 11.2702 18.0969 11.4526 17.9642 11.5867C17.8315 11.7207 17.6521 11.7954 17.4657 11.7954C17.2792 11.7954 17.0999 11.7207 16.9672 11.5867C16.8345 11.4526 16.7594 11.2702 16.7594 11.0795V9.95454H13.8201C13.1502 9.95454 12.5072 9.68581 12.0328 9.20659C11.5582 8.72729 11.2911 8.07667 11.2911 7.39773ZM15.76 8.52272L12.7036 5.4359V7.39773C12.7036 7.69526 12.8206 7.98112 13.0297 8.1923C13.2389 8.40356 13.5232 8.52272 13.8201 8.52272H15.76ZM13.8201 13.6364H8.35181C8.16535 13.6364 7.98599 13.5616 7.85333 13.4276C7.72059 13.2935 7.64555 13.1112 7.64555 12.9204C7.64555 12.7297 7.72059 12.5474 7.85333 12.4133C7.98599 12.2793 8.16535 12.2045 8.35181 12.2045H13.8201C14.0066 12.2045 14.186 12.2793 14.3186 12.4133C14.4514 12.5474 14.5264 12.7297 14.5264 12.9204C14.5264 13.1112 14.4514 13.2935 14.3186 13.4276C14.186 13.5616 14.0066 13.6364 13.8201 13.6364ZM9.2632 9.95454H8.35181C8.16535 9.95454 7.98599 9.87976 7.85333 9.74578C7.72059 9.61172 7.64555 9.42934 7.64555 9.23863C7.64555 9.04793 7.72059 8.86555 7.85333 8.73148C7.98599 8.59751 8.16535 8.52272 8.35181 8.52272H9.2632C9.44966 8.52272 9.62902 8.59751 9.76167 8.73148C9.89442 8.86555 9.96946 9.04793 9.96946 9.23863C9.96946 9.42934 9.89442 9.61172 9.76167 9.74578C9.62902 9.87976 9.44966 9.95454 9.2632 9.95454ZM7.85333 16.0951C7.98599 15.9611 8.16535 15.8864 8.35181 15.8864H10.1746C10.361 15.8864 10.5404 15.9611 10.6731 16.0951C10.8058 16.2292 10.8808 16.4116 10.8808 16.6023C10.8808 16.793 10.8058 16.9753 10.6731 17.1094C10.5404 17.2434 10.361 17.3182 10.1746 17.3182H8.35181C8.16535 17.3182 7.98599 17.2434 7.85333 17.1094C7.72059 16.9753 7.64555 16.793 7.64555 16.6023C7.64555 16.4116 7.72059 16.2292 7.85333 16.0951Z" fill="#576175"/>
</svg>
