<svg width="24" height="24" viewBox="0 0 24 24" fill="none" xmlns="http://www.w3.org/2000/svg">
<path fill-rule="evenodd" clip-rule="evenodd" d="M4.2274 5.72685L4.71548 6.2018L6.76839 4.20229C7.04524 3.93263 7.49806 3.93257 7.77504 4.2021C8.05502 4.47416 8.05517 4.91207 7.7754 5.18431L5.21981 7.67117C4.9384 7.93181 4.4926 7.93225 4.21108 7.67191L3.20733 6.69515C2.93135 6.4266 2.93158 5.99461 3.20785 5.72633C3.4886 5.45371 3.94695 5.45394 4.2274 5.72685ZM4.22803 11.7936L4.7154 12.2694L6.76153 10.2758C7.04219 10.0024 7.50125 10.0022 7.78218 10.2754C8.05823 10.5438 8.05831 10.9757 7.78235 11.2443L5.21982 13.7379C4.93841 13.9985 4.4926 13.999 4.21108 13.7386L3.20689 12.7614C2.93104 12.493 2.93104 12.0613 3.20689 11.7929C3.48793 11.5194 3.94743 11.5197 4.22803 11.7936ZM4.2274 17.8603L4.71548 18.3352L6.76839 16.3357C7.04524 16.066 7.49806 16.066 7.77505 16.3355C8.05502 16.6076 8.05517 17.0455 7.7754 17.3177L5.21977 19.8046C4.93836 20.0652 4.4919 20.065 4.2104 19.8047L3.20733 18.8286C2.93135 18.56 2.93158 18.128 3.20785 17.8597C3.4886 17.5871 3.94695 17.5873 4.2274 17.8603ZM20.2917 6.34519H11.7389C11.3477 6.34519 11.0306 6.04041 11.0306 5.66443C11.0306 5.28846 11.3477 4.98367 11.7389 4.98367H20.2917C20.6829 4.98367 21 5.28846 21 5.66443C21 6.04041 20.6829 6.34519 20.2917 6.34519ZM20.2917 12.4119H11.7389C11.3477 12.4119 11.0306 12.1071 11.0306 11.7311C11.0306 11.3552 11.3477 11.0504 11.7389 11.0504H20.2917C20.6829 11.0504 21 11.3552 21 11.7311C21 12.1071 20.6829 12.4119 20.2917 12.4119ZM20.2917 18.4786H11.7389C11.3477 18.4786 11.0306 18.1738 11.0306 17.7978C11.0306 17.4219 11.3477 17.1171 11.7389 17.1171H20.2917C20.6829 17.1171 21 17.4219 21 17.7978C21 18.1738 20.6829 18.4786 20.2917 18.4786Z" fill="#576175"/>
</svg>
