<svg width="24" height="24" viewBox="0 0 24 24" fill="none" xmlns="http://www.w3.org/2000/svg">
<path fill-rule="evenodd" clip-rule="evenodd" d="M18.5123 12V14.6093H20.2924C20.4801 14.6093 20.66 14.6839 20.7927 14.8166C20.9254 14.9493 21 15.1293 21 15.317V20.2924C21 20.4801 20.9254 20.66 20.7927 20.7927C20.66 20.9254 20.4801 21 20.2924 21H15.317C15.1293 21 14.9493 20.9254 14.8166 20.7927C14.6839 20.66 14.6093 20.4801 14.6093 20.2924V15.317C14.6093 15.1293 14.6839 14.9493 14.8166 14.8166C14.9493 14.6839 15.1293 14.6093 15.317 14.6093H17.0971V12.7076H6.90295V14.6093H8.68305C8.87072 14.6093 9.0507 14.6839 9.18341 14.8166C9.31611 14.9493 9.39066 15.1293 9.39066 15.317V20.2924C9.39066 20.4801 9.31611 20.66 9.18341 20.7927C9.0507 20.9254 8.87072 21 8.68305 21H3.70762C3.51994 21 3.33996 20.9254 3.20726 20.7927C3.07455 20.66 3 20.4801 3 20.2924V15.317C3 15.1293 3.07455 14.9493 3.20726 14.8166C3.33996 14.6839 3.51995 14.6093 3.70762 14.6093H5.48772V12C5.48772 11.8123 5.56227 11.6323 5.69497 11.4996C5.82768 11.3669 6.00766 11.2924 6.19533 11.2924H11.2924V9.39066H9.51229C9.32461 9.39066 9.14463 9.31611 9.01192 9.18341C8.87922 9.0507 8.80467 8.87072 8.80467 8.68305V3.70762C8.80467 3.51995 8.87922 3.33996 9.01192 3.20726C9.14463 3.07455 9.32461 3 9.51229 3H14.4877C14.6754 3 14.8554 3.07455 14.9881 3.20726C15.1208 3.33996 15.1953 3.51995 15.1953 3.70762V8.68305C15.1953 8.87072 15.1208 9.0507 14.9881 9.18341C14.8554 9.31611 14.6754 9.39066 14.4877 9.39066H12.7076V11.2924H17.8047C17.9923 11.2924 18.1723 11.3669 18.305 11.4996C18.4377 11.6323 18.5123 11.8123 18.5123 12ZM7.97543 19.5848V16.0246H4.41523V19.5848H7.97543ZM10.2199 4.41523V7.97543H13.7801V4.41523H10.2199ZM16.0246 16.0246V19.5848H19.5848V16.0246H16.0246Z" fill="#576175"/>
</svg>
