<svg width="24" height="24" viewBox="0 0 24 24" fill="none" xmlns="http://www.w3.org/2000/svg">
    <path d="M14.0955 11.6126C14.2021 11.4236 14.0667 11.1992 13.8738 11.1992H13.0103C12.9176 11.1992 12.831 11.2517 12.7843 11.342C12.2457 12.3744 12.1211 12.6623 11.9308 13.1365L11.8441 13.3525L11.7471 13.1409C11.6116 12.8452 11.542 12.684 11.4878 12.5583L11.4868 12.5562C11.3762 12.2997 11.3298 12.1921 10.8916 11.342C10.8454 11.2525 10.7563 11.1992 10.6627 11.1992H9.79616C9.60121 11.1992 9.46727 11.4229 9.57159 11.6129L10.9876 14.0992L9.57145 16.5858C9.46545 16.7742 9.59969 16.9992 9.79616 16.9992H10.6627C10.7553 16.9992 10.842 16.9468 10.8886 16.8564C11.4355 15.8057 11.5485 15.5312 11.6697 15.2364L11.6704 15.2347C11.6932 15.1794 11.7165 15.1227 11.7429 15.0603L11.8299 14.8547L11.9254 15.0564C12.0971 15.4193 12.1638 15.5782 12.2187 15.7093L12.2196 15.7114C12.3054 15.9162 12.363 16.0535 12.7812 16.8561C12.8274 16.9456 12.9167 16.9992 13.0103 16.9992H13.8738C14.0687 16.9992 14.2027 16.7756 14.0984 16.5856L12.6783 14.0975L12.7091 14.0472L12.7099 14.0457L12.7125 14.0412L12.7217 14.0255L12.7538 13.9699L12.866 13.7749C12.9596 13.612 13.0875 13.389 13.2297 13.1402C13.5141 12.6426 13.8559 12.0418 14.0955 11.6126Z" fill="#576175"/>
    <path fill-rule="evenodd" clip-rule="evenodd" d="M6.47605 3.2207H14.303C14.7358 3.2207 15.1489 3.38026 15.4511 3.65727L18.6688 6.60688C18.9701 6.88301 19.1366 7.2563 19.1366 7.63633V19.3117C19.1366 20.1007 18.4321 20.7742 17.5207 20.7742H6.47528C5.56397 20.7742 4.85938 20.1007 4.85938 19.3117V4.68672C4.85938 3.8982 5.56415 3.2242 6.47605 3.2207ZM14.2276 4.31235V7.72422H17.9496L14.2276 4.31235ZM12.8366 8.34297V4.46172H6.25028V19.5367H17.7457V8.96172H13.5321C13.1268 8.96172 12.8366 8.6677 12.8366 8.34297Z" fill="#576175"/>
</svg>
