<svg width="24" height="24" viewBox="0 0 24 24" fill="none" xmlns="http://www.w3.org/2000/svg">
<path fill-rule="evenodd" clip-rule="evenodd" d="M17.3739 16.1371L17.2589 16.2806L20.8007 19.7965C20.9288 19.9299 21.0004 20.1077 21.0004 20.2928C21.0004 20.4781 20.9286 20.6561 20.8003 20.7895C20.734 20.8562 20.6552 20.9092 20.5684 20.9453C20.4812 20.9817 20.3877 21.0004 20.2933 21.0004C20.1989 21.0004 20.1054 20.9817 20.0182 20.9453C19.9311 20.909 19.8514 20.8551 19.7848 20.788L16.2698 17.2704L16.1268 17.3852C14.5158 18.6782 12.471 19.3044 10.4129 19.135C8.35473 18.9656 6.43965 18.0134 5.06141 16.4743C3.68316 14.9352 2.94653 12.9261 3.00302 10.86C3.05951 8.79403 3.90483 6.82823 5.36511 5.36684C6.82539 3.90546 8.78963 3.05956 10.8539 3.00303C12.9182 2.9465 14.9258 3.68363 16.4637 5.06291C18.0016 6.44219 18.9531 8.35878 19.1224 10.4186C19.2917 12.4784 18.666 14.5249 17.3739 16.1371ZM7.40273 16.6287C8.49534 17.3593 9.77992 17.7493 11.094 17.7493C12.8562 17.7493 14.5461 17.0487 15.7921 15.8018C17.0381 14.5549 17.7381 12.8637 17.7381 11.1003C17.7381 9.78533 17.3484 8.49985 16.6184 7.40644C15.8883 6.31303 14.8507 5.4608 13.6366 4.95754C12.4226 4.45427 11.0867 4.32259 9.79781 4.57916C8.50896 4.83572 7.3251 5.469 6.39592 6.39888C5.46675 7.32876 4.83399 8.51348 4.57764 9.80322C4.32129 11.093 4.45286 12.4298 4.95571 13.6447C5.45856 14.8596 6.31012 15.8981 7.40273 16.6287ZM7.41432 10.3843H14.7737C14.9634 10.3843 15.1454 10.4597 15.2795 10.5939C15.4137 10.7282 15.4891 10.9104 15.4891 11.1003C15.4891 11.2903 15.4137 11.4724 15.2795 11.6067C15.1454 11.741 14.9634 11.8164 14.7737 11.8164H7.41432C7.22464 11.8164 7.04269 11.741 6.90852 11.6067C6.77435 11.4724 6.69894 11.2903 6.69894 11.1003C6.69894 10.9104 6.77435 10.7282 6.90852 10.5939C7.04269 10.4597 7.22464 10.3843 7.41432 10.3843Z" fill="#576175"/>
</svg>
