<svg width="24" height="24" viewBox="0 0 24 24" fill="none" xmlns="http://www.w3.org/2000/svg">
<path fill-rule="evenodd" clip-rule="evenodd" d="M20.2559 7.41436H3.74405C3.54407 7.41436 3.35387 7.33788 3.2149 7.20425C3.07623 7.0709 3 6.8919 3 6.70718C3 6.52245 3.07623 6.34346 3.2149 6.21011C3.35387 6.07648 3.54407 6 3.74405 6H20.2559C20.4559 6 20.6461 6.07648 20.7851 6.21011C20.9238 6.34346 21 6.52245 21 6.70718C21 6.8919 20.9238 7.0709 20.7851 7.20425C20.6461 7.33788 20.4559 7.41436 20.2559 7.41436ZM16.5866 10.9429H3.74405C3.54407 10.9429 3.35387 10.8664 3.2149 10.7328C3.07623 10.5994 3 10.4205 3 10.2357C3 10.051 3.07623 9.87201 3.2149 9.73866C3.35387 9.60502 3.54407 9.52855 3.74405 9.52855H16.5866C16.7866 9.52855 16.9768 9.60502 17.1158 9.73866C17.2545 9.87201 17.3307 10.051 17.3307 10.2357C17.3307 10.4205 17.2545 10.5994 17.1158 10.7328C16.9768 10.8664 16.7866 10.9429 16.5866 10.9429ZM3.74405 13.0571H20.2559C20.4559 13.0571 20.6461 13.1336 20.7851 13.2672C20.9238 13.4006 21 13.5795 21 13.7643C21 13.949 20.9238 14.128 20.7851 14.2613C20.6461 14.395 20.4559 14.4715 20.2559 14.4715H3.74405C3.54407 14.4715 3.35387 14.395 3.2149 14.2613C3.07623 14.128 3 13.949 3 13.7643C3 13.5795 3.07623 13.4006 3.2149 13.2672C3.35387 13.1336 3.54407 13.0571 3.74405 13.0571ZM3.74405 16.5856H16.5866C16.7866 16.5856 16.9768 16.6621 17.1158 16.7957C17.2545 16.9291 17.3307 17.1081 17.3307 17.2928C17.3307 17.4775 17.2545 17.6565 17.1158 17.7899C16.9768 17.9235 16.7866 18 16.5866 18H3.74405C3.54406 18 3.35387 17.9235 3.2149 17.7899C3.07623 17.6565 3 17.4775 3 17.2928C3 17.1081 3.07623 16.9291 3.2149 16.7957C3.35387 16.6621 3.54406 16.5856 3.74405 16.5856Z" fill="#576175"/>
</svg>
