<svg width="24" height="24" viewBox="0 0 24 24" fill="none" xmlns="http://www.w3.org/2000/svg">
<path fill-rule="evenodd" clip-rule="evenodd" d="M12 12.9205L11.9975 13.125C11.7667 13.1222 11.5401 13.1918 11.3482 13.325C11.1561 13.4583 11.0078 13.6491 10.924 13.8726C10.8402 14.096 10.8254 14.3407 10.8816 14.5732C10.9379 14.8058 11.0623 15.0142 11.2372 15.171L11.3051 15.2319V16.6023C11.3051 16.794 11.3797 16.9767 11.5107 17.1105C11.6415 17.2442 11.8176 17.3182 12 17.3182C12.1824 17.3182 12.3585 17.2442 12.4893 17.1105C12.6203 16.9767 12.6949 16.794 12.6949 16.6023V15.2319L12.7628 15.171C12.9377 15.0142 13.0621 14.8058 13.1184 14.5732C13.1746 14.3407 13.1598 14.096 13.076 13.8726C12.9922 13.6491 12.8439 13.4583 12.6518 13.325C12.4599 13.1918 12.2333 13.1222 12.0025 13.125L12 12.9205ZM16.2978 7.39773V9.44318H16.5037C17.1638 9.44318 17.7982 9.71112 18.2668 10.19C18.7356 10.6691 19 11.3201 19 12V18.4432C19 19.1231 18.7356 19.7741 18.2668 20.2532C17.7982 20.7321 17.1638 21 16.5037 21H7.49632C6.83616 21 6.20182 20.7321 5.73319 20.2532C5.26437 19.7741 5 19.1231 5 18.4432V12C5 11.3201 5.26437 10.6691 5.73319 10.19C6.20182 9.71112 6.83616 9.44318 7.49632 9.44318H7.70221V7.39773C7.70221 6.22955 8.15638 5.11033 8.96304 4.28601C9.76951 3.46189 10.8621 3 12 3C13.1379 3 14.2305 3.46189 15.037 4.28601C15.8436 5.11033 16.2978 6.22955 16.2978 7.39773ZM9.09191 9.44318H14.9081V7.39773C14.9081 6.61295 14.6031 5.85919 14.0584 5.30256C13.5135 4.74574 12.7732 4.43182 12 4.43182C11.2268 4.43182 10.4865 4.74574 9.94164 5.30256C9.39693 5.85919 9.09191 6.61295 9.09191 7.39773V9.44318ZM17.2882 19.2366C17.4951 19.0252 17.6103 18.7397 17.6103 18.4432V12C17.6103 11.7035 17.4951 11.4179 17.2882 11.2066C17.0812 10.995 16.7991 10.875 16.5037 10.875H7.49632C7.20093 10.875 6.91885 10.995 6.71179 11.2066C6.50493 11.4179 6.38971 11.7035 6.38971 12V18.4432C6.38971 18.7397 6.50493 19.0252 6.71179 19.2366C6.91885 19.4482 7.20093 19.5682 7.49632 19.5682H16.5037C16.7991 19.5682 17.0812 19.4482 17.2882 19.2366Z" fill="#576175"/>
</svg>
