<svg width="24" height="24" viewBox="0 0 24 24" fill="none" xmlns="http://www.w3.org/2000/svg">
<path fill-rule="evenodd" clip-rule="evenodd" d="M14.8542 3.20783L13.5354 4.52876C13.3958 4.66823 13.3261 4.85193 13.3273 5.03459C13.3284 5.21442 13.3979 5.39441 13.5354 5.53165L14.8584 6.85283C14.9951 6.98943 15.1781 7.05957 15.36 7.05957C15.545 7.05957 15.7211 6.98752 15.858 6.85649L15.8617 6.85283C16.1392 6.57572 16.1392 6.12706 15.8617 5.84995L15.75 5.73838H17.3038C19.5824 5.73838 19.6634 5.73838 19.5824 8.01353V9.57493C19.5824 9.9653 19.9011 10.2831 20.2912 10.2831C20.6813 10.2831 21 9.9653 21 9.57493V8.01353C21 4.5 21.0499 4.32203 17.2999 4.32203H15.7461L15.8578 4.21046C16.1353 3.93334 16.1353 3.48469 15.8578 3.20757C15.5805 2.93064 15.1315 2.93089 14.8542 3.20783Z" fill="#576175"/>
<path fill-rule="evenodd" clip-rule="evenodd" d="M8.13832 18.1509L8.25004 18.2625H6.69622C4.41762 18.2625 4.41762 18.5 4.41762 15.9873V14.4259C4.41762 14.0355 4.0989 13.7177 3.70881 13.7177C3.31873 13.7177 3 14.0355 3 14.4259V15.9873C3 20 3 19.5836 6.69622 19.6788H8.25004L8.13832 19.7904C7.86083 20.0675 7.86083 20.5162 8.13832 20.7933C8.2751 20.9299 8.45805 21 8.63998 21C8.82492 21 9.00106 20.928 9.13798 20.7969L10.4646 19.4721C10.7421 19.195 10.7421 18.7463 10.4646 18.4692L9.14164 17.148C8.86433 16.8711 8.41564 16.8711 8.13832 17.148C7.86083 17.4251 7.86083 17.8738 8.13832 18.1509Z" fill="#576175"/>
<path fill-rule="evenodd" clip-rule="evenodd" d="M20.9646 20.2918C20.9646 20.1033 20.8885 19.9212 20.7574 19.7903L20.7536 19.7865C20.6218 19.6607 20.4423 19.5836 20.2558 19.5836C20.0673 19.5836 19.8852 19.6594 19.7541 19.7903C19.623 19.9212 19.547 20.1033 19.547 20.2918C19.547 20.4753 19.6223 20.6615 19.7541 20.7932C19.8852 20.9241 20.0673 20.9999 20.2558 20.9999C20.4442 20.9999 20.6263 20.9241 20.7574 20.7932C20.8885 20.6623 20.9646 20.4802 20.9646 20.2918Z" fill="#576175"/>
<path fill-rule="evenodd" clip-rule="evenodd" d="M13.3177 12.6553C13.3177 12.4718 13.2424 12.2855 13.1106 12.1538C12.9738 12.0173 12.7908 11.9471 12.6089 11.9471C12.4205 11.9471 12.2383 12.0229 12.1073 12.1538C11.9762 12.2848 11.9001 12.4668 11.9001 12.6553C11.9001 12.8438 11.9762 13.0258 12.1073 13.1567C12.2383 13.2876 12.4205 13.3635 12.6089 13.3635C12.7924 13.3635 12.9788 13.2884 13.1106 13.1567C13.2417 13.0258 13.3177 12.8438 13.3177 12.6553Z" fill="#576175"/>
<path fill-rule="evenodd" clip-rule="evenodd" d="M20.9646 12.6553C20.9646 12.4718 20.8893 12.2855 20.7574 12.1538L20.7536 12.1501C20.6218 12.0242 20.4423 11.9471 20.2558 11.9471C20.0673 11.9471 19.8852 12.0229 19.7541 12.1538C19.623 12.2848 19.547 12.4668 19.547 12.6553C19.547 12.8438 19.623 13.0258 19.7541 13.1567C19.8852 13.2876 20.0673 13.3635 20.2558 13.3635C20.4442 13.3635 20.6263 13.2876 20.7574 13.1567C20.8885 13.0258 20.9646 12.8438 20.9646 12.6553Z" fill="#576175"/>
<path fill-rule="evenodd" clip-rule="evenodd" d="M11.391 3.00082H3.74397C3.35388 3.00082 3.03516 3.31863 3.03516 3.709V11.3455C3.03516 11.7359 3.35388 12.0537 3.74397 12.0537H11.391C11.7811 12.0537 12.0998 11.7359 12.0998 11.3455V3.709C12.0998 3.31995 11.7863 3.00082 11.391 3.00082ZM4.45278 4.41718H10.6822V10.6374H4.45278V4.41718Z" fill="#576175"/>
<path fill-rule="evenodd" clip-rule="evenodd" d="M18.3431 19.5836C17.953 19.5836 17.6343 19.9014 17.6343 20.2918C17.6343 20.6821 17.953 20.9999 18.3431 20.9999C18.7332 20.9999 19.0519 20.6821 19.0519 20.2918C19.0519 19.9014 18.7332 19.5836 18.3431 19.5836Z" fill="#576175"/>
<path fill-rule="evenodd" clip-rule="evenodd" d="M14.5178 19.5836C14.1277 19.5836 13.809 19.9014 13.809 20.2918C13.809 20.6821 14.1277 20.9999 14.5178 20.9999C14.9079 20.9999 15.2266 20.6821 15.2266 20.2918C15.2266 19.9027 14.9131 19.5836 14.5178 19.5836Z" fill="#576175"/>
<path fill-rule="evenodd" clip-rule="evenodd" d="M16.4304 19.5836C16.0404 19.5836 15.7216 19.9014 15.7216 20.2918C15.7216 20.6821 16.0404 20.9999 16.4304 20.9999C16.8205 20.9999 17.1393 20.6821 17.1393 20.2918C17.1393 19.9014 16.8205 19.5836 16.4304 19.5836Z" fill="#576175"/>
<path fill-rule="evenodd" clip-rule="evenodd" d="M12.6089 19.5836C12.4205 19.5836 12.2383 19.6594 12.1073 19.7903C11.9762 19.9212 11.9001 20.1033 11.9001 20.2918C11.9001 20.4753 11.9754 20.6615 12.1073 20.7932C12.2383 20.9241 12.4205 20.9999 12.6089 20.9999C12.7924 20.9999 12.9788 20.9249 13.1106 20.7932C13.2417 20.6623 13.3177 20.4802 13.3177 20.2918C13.3177 20.1033 13.2417 19.9212 13.1106 19.7903C12.9787 19.6587 12.7924 19.5836 12.6089 19.5836Z" fill="#576175"/>
<path fill-rule="evenodd" clip-rule="evenodd" d="M12.6089 17.6733C12.2188 17.6733 11.9001 17.9911 11.9001 18.3815C11.9001 18.7718 12.2188 19.0896 12.6089 19.0896C12.999 19.0896 13.3177 18.7718 13.3177 18.3815C13.3177 17.9911 12.999 17.6733 12.6089 17.6733Z" fill="#576175"/>
<path fill-rule="evenodd" clip-rule="evenodd" d="M12.6089 15.7634C12.2188 15.7634 11.9001 16.0813 11.9001 16.4716C11.9001 16.862 12.2188 17.1798 12.6089 17.1798C12.999 17.1798 13.3177 16.862 13.3177 16.4716C13.3177 16.0812 12.999 15.7634 12.6089 15.7634Z" fill="#576175"/>
<path fill-rule="evenodd" clip-rule="evenodd" d="M12.6089 13.8531C12.2188 13.8531 11.9001 14.1709 11.9001 14.5613C11.9001 14.9517 12.2188 15.2695 12.6089 15.2695C12.999 15.2695 13.3177 14.9517 13.3177 14.5613C13.3177 14.1709 12.999 13.8531 12.6089 13.8531Z" fill="#576175"/>
<path fill-rule="evenodd" clip-rule="evenodd" d="M18.3431 11.9471C17.953 11.9471 17.6343 12.2649 17.6343 12.6553C17.6343 13.0457 17.953 13.3635 18.3431 13.3635C18.7332 13.3635 19.0519 13.0457 19.0519 12.6553C19.0519 12.2649 18.7332 11.9471 18.3431 11.9471Z" fill="#576175"/>
<path fill-rule="evenodd" clip-rule="evenodd" d="M16.4304 11.9471C16.0404 11.9471 15.7216 12.2649 15.7216 12.6553C15.7216 13.0457 16.0404 13.3635 16.4304 13.3635C16.8205 13.3635 17.1393 13.0457 17.1393 12.6553C17.1393 12.2649 16.8205 11.9471 16.4304 11.9471Z" fill="#576175"/>
<path fill-rule="evenodd" clip-rule="evenodd" d="M14.5178 11.9471C14.1277 11.9471 13.809 12.2649 13.809 12.6553C13.809 13.0457 14.1277 13.3635 14.5178 13.3635C14.9079 13.3635 15.2266 13.0457 15.2266 12.6553C15.2266 12.2662 14.9131 11.9471 14.5178 11.9471Z" fill="#576175"/>
<path fill-rule="evenodd" clip-rule="evenodd" d="M20.2558 13.8531C19.8657 13.8531 19.547 14.1709 19.547 14.5613C19.547 14.9517 19.8657 15.2695 20.2558 15.2695C20.6459 15.2695 20.9646 14.9517 20.9646 14.5613C20.9646 14.1709 20.6459 13.8531 20.2558 13.8531Z" fill="#576175"/>
<path fill-rule="evenodd" clip-rule="evenodd" d="M20.2558 17.6733C19.8657 17.6733 19.547 17.9911 19.547 18.3815C19.547 18.7718 19.8657 19.0896 20.2558 19.0896C20.6459 19.0896 20.9646 18.7718 20.9646 18.3815C20.9646 17.9911 20.6459 17.6733 20.2558 17.6733Z" fill="#576175"/>
<path fill-rule="evenodd" clip-rule="evenodd" d="M20.2558 15.7634C19.8657 15.7634 19.547 16.0813 19.547 16.4716C19.547 16.862 19.8657 17.1798 20.2558 17.1798C20.6459 17.1798 20.9646 16.862 20.9646 16.4716C20.9646 16.0813 20.6459 15.7634 20.2558 15.7634Z" fill="#576175"/>
</svg>
