<svg width="24" height="24" viewBox="0 0 24 24" fill="none" xmlns="http://www.w3.org/2000/svg">
<path fill-rule="evenodd" clip-rule="evenodd" d="M15.1592 4H8.71592C8.52605 4 8.34395 4.07543 8.20969 4.20969C8.07543 4.34395 8 4.52605 8 4.71592V11.1592C8 11.3491 8.07543 11.5312 8.20969 11.6655C8.34395 11.7997 8.52605 11.8752 8.71592 11.8752H15.1592C15.3491 11.8752 15.5312 11.7997 15.6655 11.6655C15.7997 11.5312 15.8752 11.3491 15.8752 11.1592V4.71592C15.8752 4.52605 15.7997 4.34395 15.6655 4.20969C15.5312 4.07543 15.3491 4 15.1592 4ZM14.4433 10.4433H9.43185V5.43185H14.4433V10.4433Z" fill="#576175"/>
<path fill-rule="evenodd" clip-rule="evenodd" d="M10.1592 13.125H3.71592C3.52605 13.125 3.34395 13.2004 3.20969 13.3347C3.07543 13.469 3 13.651 3 13.8409V20.2842C3 20.4741 3.07543 20.6562 3.20969 20.7905C3.34395 20.9247 3.52605 21.0002 3.71592 21.0002H10.1592C10.3491 21.0002 10.5312 20.9247 10.6655 20.7905C10.7997 20.6562 10.8752 20.4741 10.8752 20.2842V13.8409C10.8752 13.651 10.7997 13.469 10.6655 13.3347C10.5312 13.2004 10.3491 13.125 10.1592 13.125ZM9.44332 19.5683H4.43185V14.5568H9.44332V19.5683Z" fill="#576175"/>
<path fill-rule="evenodd" clip-rule="evenodd" d="M20.2845 13.125H13.8411C13.6513 13.125 13.4692 13.2004 13.3349 13.3347C13.2006 13.469 13.1252 13.651 13.1252 13.8409V20.2842C13.1252 20.4741 13.2006 20.6562 13.3349 20.7905C13.4692 20.9247 13.6513 21.0002 13.8411 21.0002H20.2845C20.4743 21.0002 20.6564 20.9247 20.7907 20.7905C20.925 20.6562 21.0004 20.4741 21.0004 20.2842V13.8409C21.0004 13.651 20.925 13.469 20.7907 13.3347C20.6564 13.2004 20.4743 13.125 20.2845 13.125ZM19.5685 19.5683H14.5571V14.5568H19.5685V19.5683Z" fill="#576175"/>
</svg>
