<svg width="24" height="24" viewBox="0 0 24 24" fill="none" xmlns="http://www.w3.org/2000/svg">
<path fill-rule="evenodd" clip-rule="evenodd" d="M12.7573 6.70177C12.6946 6.63812 12.6198 6.5875 12.5373 6.55287C12.4548 6.51824 12.3661 6.50029 12.2765 6.50007H12.2439C12.1574 6.50004 12.0716 6.51646 11.9913 6.54847C11.9027 6.58363 11.8223 6.63645 11.7551 6.70368C11.6898 6.76471 11.6383 6.83882 11.604 6.92111C11.5685 7.00486 11.5509 7.095 11.5523 7.18584V14.7726L11.4935 14.6972L5.26392 6.75939C5.19228 6.67788 5.10409 6.61238 5.00516 6.56721C4.90901 6.52326 4.80447 6.5004 4.69864 6.50017H4.69542C4.60167 6.49808 4.50848 6.51502 4.42154 6.54996C4.33461 6.5849 4.25575 6.6371 4.18979 6.70338C4.1274 6.76712 4.07863 6.84275 4.0464 6.92572C4.01398 7.00871 3.99827 7.09723 4.00015 7.18624V16.8154C3.99844 16.9042 4.01432 16.9925 4.04691 17.0752C4.07916 17.158 4.12794 17.2334 4.19029 17.297C4.2577 17.3639 4.33809 17.4164 4.42658 17.4514C4.50659 17.483 4.5919 17.4992 4.67799 17.4992H4.71829C4.80514 17.4992 4.89119 17.4827 4.97181 17.4506C5.0604 17.4153 5.14078 17.3623 5.208 17.295C5.27326 17.2343 5.32478 17.1604 5.35915 17.0784C5.39459 16.9949 5.41225 16.905 5.41104 16.8143V9.24124L11.7138 17.2543C11.7844 17.333 11.871 17.3958 11.9679 17.4387C12.0594 17.479 12.1583 17.4998 12.2584 17.4998C12.3517 17.5021 12.4451 17.4851 12.5314 17.4498C12.6177 17.4146 12.6957 17.362 12.7604 17.2952C12.8279 17.2373 12.8819 17.1655 12.9185 17.0848C12.957 17.0005 12.9769 16.909 12.977 16.8164V7.18444C12.9771 7.09267 12.9576 7.00193 12.9198 6.91821C12.8822 6.83512 12.8267 6.76125 12.7573 6.70177Z" fill="#576175"/>
<path fill-rule="evenodd" clip-rule="evenodd" d="M15.8874 11.7219C16.2974 11.9666 16.7662 12.0965 17.2444 12.098H17.3114C17.7827 12.0967 18.2446 11.9667 18.6467 11.7223C19.0582 11.4674 19.3987 11.1138 19.6369 10.6939C19.7539 10.4901 19.8439 10.2721 19.9045 10.0453C20.0322 9.55604 20.0322 9.04252 19.9045 8.55329C19.8439 8.32597 19.7538 8.10747 19.6364 7.9033C19.5346 7.72468 19.4138 7.5574 19.2763 7.4043C19.0949 7.20548 18.8856 7.03376 18.6549 6.89449L18.643 6.88737L18.6316 6.88427L18.6161 6.86964C18.4339 6.75721 18.2377 6.66896 18.0324 6.60711C17.7906 6.53617 17.5398 6.5001 17.2877 6.5H17.2452C16.7651 6.50128 16.295 6.63612 15.888 6.88928C15.4719 7.14019 15.1285 7.49426 14.8914 7.91681C14.6542 8.33936 14.5315 8.8159 14.5353 9.29978C14.5311 9.78832 14.6565 10.2693 14.8989 10.6943C15.1377 11.113 15.4774 11.4661 15.8874 11.7219ZM17.2852 7.86923C17.4724 7.86924 17.6571 7.91152 17.8255 7.99288C18.062 8.11589 18.2642 8.29524 18.4139 8.51492C18.4732 8.60232 18.5215 8.69653 18.558 8.79548C18.6171 8.95646 18.6465 9.12672 18.6449 9.29808C18.6448 9.37317 18.6395 9.44817 18.629 9.52252C18.6146 9.61787 18.5906 9.71153 18.5573 9.80208C18.5206 9.90269 18.4725 9.99881 18.4138 10.0886C18.3613 10.168 18.3019 10.2429 18.2365 10.3123C18.1162 10.4422 17.9703 10.5462 17.8078 10.6177C17.6454 10.6891 17.4699 10.7266 17.2922 10.7277H17.2425C17.0646 10.7266 16.8888 10.6899 16.7256 10.6197C16.5623 10.5495 16.415 10.4472 16.2924 10.3191C16.1603 10.185 16.0572 10.0253 15.9895 9.85008C15.9212 9.67439 15.8873 9.48732 15.8898 9.29898C15.8863 9.10786 15.9211 8.91796 15.9922 8.74037C16.0612 8.56871 16.1656 8.41329 16.2985 8.28406C16.4227 8.15382 16.5721 8.04988 16.7377 7.97846C16.9032 7.90704 17.0816 7.86961 17.2621 7.86843H17.2751L17.2852 7.86923Z" fill="#576175"/>
<path fill-rule="evenodd" clip-rule="evenodd" d="M19.5833 12.8367C19.666 12.862 19.743 12.9028 19.8102 12.9569C19.8712 13.0043 19.9205 13.0648 19.9544 13.134C19.9867 13.1988 20.0022 13.2706 19.9995 13.3428C20.0024 13.4193 19.9865 13.4954 19.9531 13.5644C19.9188 13.6352 19.8693 13.6977 19.8081 13.7475C19.7414 13.8009 19.6652 13.8411 19.5834 13.8661C19.5105 13.8887 19.4346 13.9001 19.3583 13.9L19.3292 13.8993H15.1867C15.107 13.8994 15.0279 13.8874 14.9519 13.8637C14.8696 13.8384 14.7927 13.7983 14.725 13.7455C14.6646 13.6958 14.6158 13.6336 14.5819 13.5634C14.5497 13.4973 14.5339 13.4246 14.5356 13.3512C14.5321 13.2761 14.5477 13.2014 14.5808 13.1338C14.6148 13.0649 14.6642 13.0047 14.7251 12.9575C14.7923 12.9049 14.8687 12.865 14.9504 12.8396C15.0322 12.8143 15.1175 12.8022 15.2032 12.8035H19.3244L19.3586 12.8027C19.4348 12.8026 19.5105 12.8141 19.5833 12.8367Z" fill="#576175"/>
</svg>
