<svg width="24" height="24" viewBox="0 0 16 16" fill="none" xmlns="http://www.w3.org/2000/svg">
<path d="M6.65799 10.4655L6.65711 10.4663C6.4609 10.6483 6.43889 10.9489 6.57965 11.1649L6.58436 11.1722L6.58966 11.1789C6.68105 11.2958 6.82083 11.3665 6.96755 11.3665C7.08877 11.3665 7.19256 11.3291 7.28605 11.2437L9.22515 9.47045C9.33053 9.37143 9.38917 9.23776 9.38917 9.08314C9.38917 8.92852 9.33051 8.79486 9.22514 8.69584L9.22351 8.69431L7.29565 6.92298C7.19964 6.83527 7.08511 6.7998 6.97673 6.7998C6.83001 6.7998 6.69023 6.87044 6.59885 6.98733L6.59807 6.98831C6.43273 7.20254 6.46332 7.51014 6.65711 7.68991L6.65846 7.69117L8.17659 9.07356L6.65799 10.4655Z" fill="#576175"/>
<path fill-rule="evenodd" clip-rule="evenodd" d="M9.53558 1.99756H4.31735C3.6395 2.00001 3.08984 2.50424 3.08984 3.1249V12.8749C3.08984 13.4957 3.63923 13.9999 4.31712 13.9999H11.6808C12.3586 13.9999 12.908 13.4957 12.908 12.8749V5.09131C12.908 4.79367 12.7776 4.50538 12.5475 4.29444L10.4023 2.32803C10.1722 2.11709 9.8603 1.99756 9.53558 1.99756ZM11.581 4.9999H9.6353V3.21631L11.581 4.9999ZM4.31712 3.1249H8.40803V5.5624C8.40803 5.87357 8.681 6.1249 9.02166 6.1249H11.6808V12.8749H4.31712V3.1249Z" fill="#576175"/>
</svg>
