<svg width="24" height="24" viewBox="0 0 16 16" fill="none" xmlns="http://www.w3.org/2000/svg">
<path d="M8.67389 7.39979H9.24956C9.43346 7.39979 9.54939 7.60812 9.45544 7.77479C9.13563 8.3477 8.54396 9.37687 8.52997 9.39979L9.45744 11.0248C9.54939 11.1915 9.43545 11.3998 9.24956 11.3998H8.67389C8.58594 11.3998 8.50399 11.3498 8.46201 11.2685C8.18194 10.731 8.14328 10.6388 8.08468 10.499C8.04834 10.4123 8.00433 10.3073 7.89034 10.0665C7.87285 10.1078 7.85746 10.1452 7.84228 10.1821C7.76033 10.3814 7.68465 10.5654 7.31867 11.2685C7.27669 11.3498 7.19674 11.3998 7.10879 11.3998H6.53112C6.34522 11.3998 6.22929 11.1915 6.32324 11.0248L7.24871 9.39979L6.32324 7.77479C6.23129 7.60812 6.34522 7.39979 6.53112 7.39979H7.10879C7.19674 7.39979 7.27869 7.44979 7.32067 7.53103C7.61382 8.09988 7.64493 8.17198 7.72007 8.34611C7.75611 8.42962 7.80228 8.53661 7.89234 8.73312C8.02027 8.41437 8.10422 8.22062 8.46401 7.53103C8.50599 7.44979 8.58594 7.39979 8.67389 7.39979Z" fill="#576175"/>
<path fill-rule="evenodd" clip-rule="evenodd" d="M4.31735 1.99756H9.53558C9.8603 1.99756 10.1722 2.11709 10.4023 2.32803L12.5475 4.29444C12.7776 4.50538 12.908 4.79367 12.908 5.09131V12.8749C12.908 13.4957 12.3586 13.9999 11.6808 13.9999H4.31712C3.63923 13.9999 3.08984 13.4957 3.08984 12.8749V3.1249C3.08984 2.50424 3.6395 2.00001 4.31735 1.99756ZM9.6353 4.9999H11.581L9.6353 3.21631V4.9999ZM8.40803 3.1249H4.31712V12.8749H11.6808V6.1249H9.02166C8.681 6.1249 8.40803 5.87357 8.40803 5.5624V3.1249Z" fill="#576175"/>
</svg>
