<svg width="24" height="24" viewBox="0 0 24 24" fill="none" xmlns="http://www.w3.org/2000/svg">
<path d="M12.5146 19.4115C12.554 19.3905 12.5944 19.372 12.6349 19.3535C12.6927 19.327 12.7506 19.3005 12.805 19.267C12.7494 19.3014 12.6902 19.3285 12.631 19.3556C12.5919 19.3735 12.5527 19.3914 12.5146 19.4115Z" fill="#576175"/>
<path d="M18.1888 12.3065C18.3568 12.3186 18.5149 12.3902 18.6341 12.5084C18.6992 12.573 18.7514 12.6493 18.7866 12.7337C18.8218 12.8181 18.84 12.9085 18.84 12.9998C18.84 13.0912 18.8218 13.1816 18.7866 13.266C18.7514 13.3503 18.6997 13.427 18.6346 13.4916L13.4978 18.5782C12.563 19.4403 11.3336 19.9188 10.0574 19.9171L9.97973 19.9166C9.00905 19.9024 8.06302 19.611 7.25474 19.0774C6.44647 18.5438 5.81016 17.7904 5.42187 16.9074C5.03359 16.0244 4.90977 15.0491 5.06522 14.0981C5.22066 13.1471 5.64879 12.2607 6.29843 11.5448L12.9386 4.95938C13.6053 4.34179 14.4837 3.99883 15.3958 4L15.4595 4.00061C16.1553 4.0124 16.8328 4.22398 17.41 4.60979C17.9873 4.99559 18.4396 5.53908 18.7122 6.17455C18.9848 6.81003 19.066 7.51027 18.9461 8.1906C18.8263 8.87094 18.5103 9.50224 18.0366 10.0082L12.3173 15.6886C11.9066 16.0763 11.3616 16.2926 10.7948 16.293C10.228 16.2933 9.68272 16.0777 9.27153 15.6905C9.07067 15.4931 8.91123 15.2581 8.80242 14.9991C8.69361 14.7402 8.63758 14.4624 8.63758 14.1818C8.63758 13.9012 8.69361 13.6234 8.80242 13.3645C8.91123 13.1055 9.07067 12.8705 9.27153 12.673L13.5315 8.43992C13.6629 8.30936 13.8412 8.23596 14.0272 8.23585C14.2131 8.23575 14.3915 8.30895 14.5231 8.43937C14.6546 8.56978 14.7286 8.74672 14.7287 8.93125C14.7288 9.11579 14.655 9.29281 14.5236 9.42337L10.2604 13.6436C10.1918 13.7168 10.1385 13.8027 10.1034 13.8964C10.0683 13.9901 10.0521 14.0897 10.0559 14.1895C10.0596 14.2894 10.0831 14.3876 10.1251 14.4784C10.1671 14.5692 10.2267 14.651 10.3005 14.7189C10.4498 14.8544 10.6462 14.9271 10.8484 14.9218H10.8508C11.0522 14.9143 11.2425 14.8285 11.3806 14.6828L17.1113 9.00764C17.5228 8.59426 17.7533 8.03645 17.7527 7.4554C17.7521 6.87434 17.5205 6.31698 17.1083 5.9044C16.6865 5.50715 16.127 5.28589 15.5455 5.28634C14.964 5.28679 14.4048 5.50892 13.9836 5.90683L7.33525 12.501C6.87243 13.0175 6.56777 13.6544 6.45706 14.3368C6.34636 15.0192 6.43421 15.7188 6.7103 16.3534C6.98638 16.9879 7.43923 17.5311 8.01564 17.9191C8.59204 18.3071 9.26805 18.5237 9.96424 18.5436L10.0722 18.5451C10.9714 18.5451 11.8392 18.2168 12.5102 17.6227L17.5303 12.6358L17.5761 12.5903L17.6095 12.5572V12.5413L17.6421 12.5248L17.6759 12.4771C17.6897 12.465 17.704 12.4535 17.7188 12.4426C17.8539 12.3427 18.0207 12.2944 18.1888 12.3065Z" fill="#576175"/>
<path d="M11.7038 19.7659C11.6559 19.778 11.6079 19.7902 11.5605 19.8044C11.6076 19.7903 11.6552 19.7783 11.7028 19.7664C11.7808 19.7468 11.8587 19.7272 11.9336 19.6983C11.859 19.7266 11.7814 19.7462 11.7038 19.7659Z" fill="#576175"/>
</svg>
