<svg width="24" height="24" viewBox="0 0 16 16" fill="none" xmlns="http://www.w3.org/2000/svg">
<path fill-rule="evenodd" clip-rule="evenodd" d="M5.34426 10.459C5.60513 10.459 5.85531 10.3554 6.03978 10.1709C6.22313 9.98757 6.32662 9.73928 6.32786 9.4801C6.32947 9.46194 6.33019 9.44371 6.33 9.4255L7.91681 7.83869H8.1068L8.99934 8.73123V8.73771C8.99934 8.99857 9.10297 9.24876 9.28744 9.43322C9.4719 9.61768 9.72208 9.72131 9.98295 9.72131C10.2438 9.72131 10.494 9.61768 10.6785 9.43322C10.8629 9.24876 10.9666 8.99857 10.9666 8.73771V8.731L13.0583 6.62206C13.2381 6.6144 13.4127 6.5575 13.5629 6.45718C13.7246 6.3491 13.8507 6.19548 13.9251 6.01575C13.9996 5.83602 14.0191 5.63825 13.9811 5.44745C13.9431 5.25665 13.8495 5.08139 13.7119 4.94383C13.5743 4.80627 13.3991 4.71259 13.2083 4.67464C13.0175 4.63668 12.8197 4.65616 12.64 4.73061C12.4603 4.80506 12.3066 4.93113 12.1986 5.09288C12.0913 5.25334 12.0337 5.44175 12.0328 5.63466C12.0312 5.65282 12.0305 5.67104 12.0307 5.68926L9.95991 7.76H9.94747L8.98275 6.77855C8.97247 6.53263 8.87026 6.2989 8.69551 6.12416C8.51105 5.9397 8.26087 5.83607 8 5.83607C7.73913 5.83607 7.48895 5.9397 7.30448 6.12416C7.12986 6.29879 7.02767 6.53232 7.01727 6.77805L5.30264 8.49268C5.0569 8.50308 4.82337 8.60527 4.64875 8.77989C4.46428 8.96436 4.36066 9.21454 4.36066 9.47541C4.36066 9.73628 4.46428 9.98646 4.64875 10.1709C4.83321 10.3554 5.08339 10.459 5.34426 10.459Z" fill="#576175"/>
<path fill-rule="evenodd" clip-rule="evenodd" d="M13.3115 12.623H3.37705V2.68852C3.37705 2.50592 3.30451 2.33079 3.17538 2.20166C3.04626 2.07254 2.87113 2 2.68852 2C2.50592 2 2.33079 2.07254 2.20166 2.20166C2.07254 2.33079 2 2.50592 2 2.68852V13.3115C2 13.4941 2.07254 13.6692 2.20166 13.7983C2.33079 13.9275 2.50592 14 2.68852 14H13.3115C13.4941 14 13.6692 13.9275 13.7983 13.7983C13.9275 13.6692 14 13.4941 14 13.3115C14 13.1289 13.9275 12.9537 13.7983 12.8246C13.6692 12.6955 13.4941 12.623 13.3115 12.623Z" fill="#576175"/>
</svg>
