<svg width="24" height="24" viewBox="0 0 24 24" fill="none" xmlns="http://www.w3.org/2000/svg">
<path fill-rule="evenodd" clip-rule="evenodd" d="M6.77172 7.50007C6.96902 7.50285 7.15858 7.58491 7.29825 7.73046L10.9405 11.4718L10.9443 11.4756C11.013 11.5447 11.0679 11.6272 11.1055 11.7186C11.143 11.8101 11.1625 11.9084 11.1625 12.0078C11.1625 12.1073 11.143 12.2056 11.1055 12.297C11.0679 12.3884 11.013 12.4709 10.9443 12.54L10.9428 12.5415L7.2539 16.2802L7.25247 16.2816C7.18432 16.3513 7.10361 16.4062 7.01517 16.4435C6.92675 16.4809 6.83215 16.5 6.73677 16.5C6.6414 16.5 6.5468 16.4809 6.45837 16.4435C6.36994 16.4062 6.28924 16.3513 6.22109 16.2816L6.2182 16.2787C6.14949 16.2097 6.0946 16.1271 6.05702 16.0357C6.01944 15.9443 6 15.846 6 15.7465C6 15.6471 6.01944 15.5488 6.05702 15.4574C6.09441 15.3664 6.14894 15.2842 6.21716 15.2154L6.2182 15.2143L9.45112 12.0078L6.22076 8.80381C6.0832 8.65842 6.00646 8.46258 6.00925 8.25831C6.01208 8.05222 6.09561 7.85708 6.23932 7.71542C6.38281 7.57398 6.57443 7.4973 6.77172 7.50007ZM14.0661 7.73543L17.9019 11.623H17.9094C17.9251 11.6521 17.9389 11.6823 17.9507 11.7134C17.9858 11.806 18.0025 11.9049 17.9997 12.0043C17.9969 12.1038 17.9748 12.2015 17.9346 12.2918C17.8945 12.3821 17.8373 12.463 17.7667 12.53L17.7608 12.5357L14.0661 16.2802L14.0647 16.2816C13.9966 16.3513 13.9158 16.4062 13.8274 16.4435C13.739 16.4809 13.6444 16.5 13.549 16.5C13.4536 16.5 13.359 16.4809 13.2706 16.4435C13.1822 16.4062 13.1015 16.3513 13.0333 16.2816L13.0304 16.2787C12.9617 16.2097 12.9068 16.1271 12.8693 16.0357C12.8317 15.9443 12.8122 15.846 12.8122 15.7465C12.8122 15.6471 12.8317 15.5488 12.8693 15.4574C12.9068 15.3659 12.9624 15.2827 13.0311 15.2137L16.2081 12.0078L13.0315 8.80237C12.8932 8.662 12.8143 8.47033 12.8143 8.26909C12.8143 8.06767 12.8933 7.87584 13.0319 7.73543C13.1702 7.59525 13.3563 7.51775 13.549 7.51775C13.7417 7.51775 13.9278 7.59525 14.0661 7.73543Z" fill="#576175"/>
</svg>
