<svg width="24" height="24" viewBox="0 0 24 24" fill="none" xmlns="http://www.w3.org/2000/svg">
<path fill-rule="evenodd" clip-rule="evenodd" d="M12.9621 8.83002V6.32007H5.35861C4.83554 6.32007 4.39654 6.72976 4.39654 7.24503V16.755C4.39654 17.2702 4.83554 17.6799 5.35861 17.6799H18.6414C19.1645 17.6799 19.6035 17.2702 19.6035 16.755V9.49005H13.6603C13.2702 9.49005 12.9621 9.18649 12.9621 8.83002ZM4.52844 5H19.4716C20.3183 5 21 5.66018 21 6.45253V17.5475C21 18.3398 20.3183 19 19.4716 19H4.52844C3.68173 19 3 18.3398 3 17.5475V6.45253C3 5.66018 3.68173 5 4.52844 5Z" fill="#576175"/>
</svg>
