<svg width="24" height="24" viewBox="0 0 24 24" fill="none" xmlns="http://www.w3.org/2000/svg">
<path fill-rule="evenodd" clip-rule="evenodd" d="M12.9809 9.32424L14.545 7.77264H12.124C8.99588 7.77264 6.44808 10.298 6.44808 13.4045C6.44808 16.511 8.99588 19.0364 12.124 19.0364C14.6448 19.0364 16.7826 17.3961 17.5197 15.1352C17.6422 14.7594 17.9654 14.4909 18.3305 14.4909C18.7963 14.4909 19.1263 14.8943 19.0115 15.3053C18.1751 18.2997 15.4121 20.5 12.124 20.5C10.2261 20.5 8.40626 19.7521 7.06467 18.4213C5.72313 17.0905 4.96973 15.2859 4.96973 13.4045C4.96973 11.5231 5.72313 9.7185 7.06467 8.38772C8.40626 7.05689 10.2261 6.30899 12.124 6.30899H14.545L12.9809 4.75739C12.6909 4.46975 12.6909 4.00093 12.9809 3.71329C13.2675 3.4289 13.7299 3.4289 14.0166 3.71329L16.7516 6.42634C17.0929 6.7649 17.0929 7.31673 16.7516 7.65528L14.0166 10.3683C13.7299 10.6527 13.2675 10.6527 12.9809 10.3683C12.6909 10.0807 12.6909 9.61188 12.9809 9.32424Z" fill="#576175"/>
</svg>
