<svg width="24" height="24" viewBox="0 0 24 24" fill="none" xmlns="http://www.w3.org/2000/svg">
    <path fill-rule="evenodd" clip-rule="evenodd" d="M19.2564 4.74421V15.4485H8.55216V4.74421H19.2564ZM4.74421 19.2564V7.84021C4.74421 7.42812 4.44436 7.12826 4.03226 7.12826C3.62017 7.12826 3.32031 7.42812 3.32031 7.84021V19.9684C3.32031 20.3805 3.62017 20.6803 4.03226 20.6803H16.1604C16.5725 20.6803 16.8724 20.3805 16.8724 19.9684C16.8724 19.5563 16.5725 19.2564 16.1604 19.2564H4.74421ZM7.84021 16.8724H19.9684C20.0971 16.8724 20.2805 16.8028 20.4355 16.6619C20.5868 16.5243 20.6803 16.347 20.6803 16.1604V4.03226C20.6803 3.62017 20.3805 3.32031 19.9684 3.32031H7.84021C7.42812 3.32031 7.12826 3.62017 7.12826 4.03226V16.1604C7.12826 16.5725 7.42811 16.8724 7.84021 16.8724Z" fill="#576175"/>
</svg>
