<svg width="24" height="24" viewBox="0 0 24 24" fill="none" xmlns="http://www.w3.org/2000/svg">
<path fill-rule="evenodd" clip-rule="evenodd" d="M12.7161 13.0386L15.1732 10.5708C15.3081 10.436 15.4913 10.36 15.6821 10.36C15.873 10.36 16.056 10.4359 16.191 10.5708C16.326 10.7058 16.4018 10.8888 16.4018 11.0797C16.4018 11.2706 16.326 11.4536 16.191 11.5886L12.5108 15.2688C12.443 15.3333 12.3632 15.3837 12.2759 15.4175L12.2673 15.4214C12.1832 15.4585 12.0922 15.4778 12.0002 15.4778C11.9082 15.4778 11.8173 15.4583 11.7332 15.4212L11.7244 15.4177C11.6371 15.3839 11.5574 15.3333 11.4896 15.2688L7.8094 11.5886C7.74257 11.5218 7.68956 11.4425 7.65339 11.3551C7.61722 11.2678 7.59861 11.1742 7.59861 11.0797C7.59861 10.9852 7.61722 10.8916 7.65339 10.8043C7.68956 10.717 7.74257 10.6377 7.8094 10.5708C7.87623 10.504 7.95557 10.451 8.04288 10.4148C8.1302 10.3786 8.22379 10.36 8.3183 10.36C8.41281 10.36 8.50639 10.3786 8.59371 10.4148C8.68095 10.4509 8.7604 10.5041 8.8272 10.5708L11.2843 13.0386V3.71592C11.2843 3.52605 11.3597 3.34395 11.494 3.20969C11.6282 3.07543 11.8103 3 12.0002 3C12.1901 3 12.3722 3.07543 12.5064 3.20969C12.6407 3.34395 12.7161 3.52605 12.7161 3.71592V13.0386ZM19.7782 14.2554C19.9125 14.1211 20.0946 14.0457 20.2845 14.0457C20.4743 14.0457 20.6564 14.1211 20.7907 14.2554C20.925 14.3896 21.0004 14.5717 21.0004 14.7616V18.4435C21.0004 19.1216 20.731 19.772 20.2515 20.2515C19.772 20.731 19.1216 21.0004 18.4435 21.0004H5.55687C4.87875 21.0004 4.2284 20.731 3.74889 20.2515C3.26938 19.772 3 19.1216 3 18.4435V14.7616C3 14.5717 3.07543 14.3896 3.20969 14.2554C3.34395 14.1211 3.52605 14.0457 3.71592 14.0457C3.9058 14.0457 4.0879 14.1211 4.22216 14.2554C4.35642 14.3896 4.43185 14.5717 4.43185 14.7616V18.4435C4.43185 18.7419 4.55038 19.028 4.76136 19.239C4.97234 19.45 5.2585 19.5685 5.55687 19.5685H18.4435C18.7419 19.5685 19.028 19.45 19.239 19.239C19.45 19.028 19.5685 18.7419 19.5685 18.4435V14.7616C19.5685 14.5717 19.644 14.3896 19.7782 14.2554Z" fill="#576175"/>
</svg>
