<svg width="24" height="24" viewBox="0 0 24 24" fill="none" xmlns="http://www.w3.org/2000/svg">
    <path d="M8.53193 10.25H15.4681C15.7011 10.25 15.8624 10.1257 15.952 9.87722C16.0416 9.60799 16.0058 9.38018 15.8445 9.19379L12.3764 5.18639C12.2688 5.06213 12.1434 5 12 5C11.8566 5 11.7312 5.06213 11.6236 5.18639L8.15554 9.19379C7.99424 9.38018 7.95839 9.60799 8.04801 9.87722C8.13762 10.1257 8.29893 10.25 8.53193 10.25Z" fill="#576175"/>
    <path d="M15.4681 13.75H8.53193C8.29893 13.75 8.13762 13.8846 8.04801 14.1538C7.95839 14.4024 7.99424 14.6198 8.15554 14.8062L11.6236 18.8136C11.7312 18.9379 11.8566 19 12 19C12.1434 19 12.2688 18.9379 12.3764 18.8136L15.8445 14.8062C16.0058 14.6198 16.0416 14.4024 15.952 14.1538C15.8624 13.8846 15.7011 13.75 15.4681 13.75Z" fill="#576175"/>
</svg>
