<svg width="24" height="24" viewBox="0 0 16 16" fill="none" xmlns="http://www.w3.org/2000/svg">
<path fill-rule="evenodd" clip-rule="evenodd" d="M5.2266 11.4614H13.312C13.462 11.4614 13.6334 11.3869 13.7669 11.2656C13.9008 11.1438 14 10.9718 14 10.7734V2.68797C14 2.29541 13.7046 2 13.312 2H5.2266C4.83405 2 4.53863 2.29541 4.53863 2.68797V10.7734C4.53863 11.166 4.83405 11.4614 5.2266 11.4614ZM5.91457 3.37593H12.6241V10.0854H5.91457V3.37593Z" fill="#576175"/>
<path fill-rule="evenodd" clip-rule="evenodd" d="M2.68797 14H10.7734C11.166 14 11.4614 13.7046 11.4614 13.312C11.4614 12.9195 11.166 12.6241 10.7734 12.6241H3.37593V5.2266C3.37593 4.83405 3.08052 4.53863 2.68797 4.53863C2.29541 4.53863 2 4.83405 2 5.2266V13.312C2 13.7046 2.29541 14 2.68797 14Z" fill="#576175"/>
</svg>
