<svg width="24" height="24" viewBox="0 0 24 24" fill="none" xmlns="http://www.w3.org/2000/svg">
<path fill-rule="evenodd" clip-rule="evenodd" d="M12.4051 13.519H10.6835V15.2405C10.6835 15.4285 10.6089 15.6088 10.4759 15.7417C10.343 15.8747 10.1627 15.9494 9.97469 15.9494C9.78668 15.9494 9.60638 15.8747 9.47345 15.7417C9.34051 15.6088 9.26583 15.4285 9.26583 15.2405V8.75949C9.26583 8.57149 9.34051 8.39119 9.47345 8.25825C9.60638 8.12532 9.78668 8.05063 9.97469 8.05063H12.4051C13.0228 8.05063 13.6152 8.29602 14.052 8.73281C14.4888 9.16961 14.7342 9.76203 14.7342 10.3797V11.1896C14.7307 11.764 14.515 12.3169 14.1286 12.742L14.0667 12.8101L14.1286 12.8782C14.515 13.3033 14.7307 13.8562 14.7342 14.4307V15.2405C14.7342 15.4285 14.6595 15.6088 14.5266 15.7417C14.3936 15.8747 14.2133 15.9494 14.0253 15.9494C13.8373 15.9494 13.657 15.8747 13.5241 15.7417C13.3911 15.6088 13.3165 15.4285 13.3165 15.2405V14.4304C13.3165 14.1887 13.2204 13.9568 13.0495 13.7859C12.8786 13.615 12.6468 13.519 12.4051 13.519ZM10.6835 9.46835V12.1013H12.4051C12.6468 12.1013 12.8786 12.0052 13.0495 11.8343C13.2204 11.6634 13.3165 11.4316 13.3165 11.1899V10.3797C13.3165 10.138 13.2204 9.90621 13.0495 9.73529C12.8786 9.56437 12.6468 9.46835 12.4051 9.46835H10.6835ZM7.55544 5.34824C8.87103 4.46919 10.4178 4 12 4C13.0506 4 14.0909 4.20693 15.0615 4.60896C16.0321 5.011 16.914 5.60028 17.6569 6.34315C18.3997 7.08601 18.989 7.96793 19.391 8.93853C19.7931 9.90914 20 10.9494 20 12C20 13.5822 19.5308 15.129 18.6518 16.4446C17.7727 17.7602 16.5233 18.7855 15.0615 19.391C13.5997 19.9965 11.9911 20.155 10.4393 19.8463C8.88743 19.5376 7.46197 18.7757 6.34315 17.6568C5.22433 16.538 4.4624 15.1126 4.15372 13.5607C3.84504 12.0089 4.00347 10.4003 4.60897 8.93853C5.21447 7.47672 6.23985 6.22729 7.55544 5.34824ZM8.34308 17.473C9.42553 18.1962 10.6982 18.5823 12 18.5823C13.7457 18.5823 15.42 17.8888 16.6544 16.6544C17.8888 15.42 18.5823 13.7457 18.5823 12C18.5823 10.6981 18.1962 9.42553 17.473 8.34308C16.7497 7.26063 15.7217 6.41696 14.5189 5.91877C13.3162 5.42057 11.9927 5.29022 10.7159 5.5442C9.43903 5.79818 8.26618 6.42508 7.34563 7.34563C6.42508 8.26617 5.79818 9.43902 5.5442 10.7159C5.29022 11.9927 5.42057 13.3162 5.91877 14.5189C6.41697 15.7217 7.26063 16.7497 8.34308 17.473Z" fill="#576175"/>
</svg>
