<svg width="24" height="24" viewBox="0 0 24 24" fill="none" xmlns="http://www.w3.org/2000/svg">
    <path fill-rule="evenodd" clip-rule="evenodd" d="M12.0003 19.2147C8.02318 19.2147 4.78585 15.9774 4.78585 12.0003C4.78585 8.02318 8.02318 4.78585 12.0003 4.78585C15.9774 4.78585 19.2147 8.02318 19.2147 12.0003C19.2147 15.9774 15.9774 19.2147 12.0003 19.2147ZM12.0003 3.28027C10.8551 3.28027 9.72123 3.50582 8.66327 3.94404C7.60531 4.38226 6.64403 5.02458 5.8343 5.8343C4.19898 7.46962 3.28027 9.68758 3.28027 12.0003C3.28027 14.313 4.19898 16.5309 5.8343 18.1662C6.64403 18.976 7.60531 19.6183 8.66327 20.0565C9.72123 20.4947 10.8551 20.7203 12.0003 20.7203C14.313 20.7203 16.5309 19.8016 18.1662 18.1662C19.8016 16.5309 20.7203 14.313 20.7203 12.0003C20.7203 10.8551 20.4947 9.72123 20.0565 8.66327C19.6183 7.60531 18.976 6.64403 18.1662 5.8343C17.3565 5.02458 16.3952 4.38226 15.3373 3.94404C14.2793 3.50582 13.1454 3.28027 12.0003 3.28027ZM12.7531 15.5413V12.0003C12.7531 11.5845 12.416 11.2475 12.0003 11.2475C11.5845 11.2475 11.2475 11.5845 11.2475 12.0003V15.5413C11.2475 15.957 11.5845 16.294 12.0003 16.294C12.416 16.294 12.7531 15.957 12.7531 15.5413ZM12.0003 7.7065C11.5845 7.7065 11.2475 8.04354 11.2475 8.45929C11.2475 8.87504 11.5845 9.21208 12.0003 9.21208C12.416 9.21208 12.7531 8.87504 12.7531 8.45929C12.7531 8.04354 12.416 7.7065 12.0003 7.7065Z" fill="#576175"/>
</svg>
