<svg width="24" height="24" viewBox="0 0 24 24" fill="none" xmlns="http://www.w3.org/2000/svg">
<path d="M10.8954 18.5894L18.3929 10.9876C18.4266 10.9534 18.4424 10.9072 18.4385 10.861L17.933 4.8044C17.9191 4.64766 17.7982 4.52508 17.6435 4.51101L11.6685 4.0006C11.6229 3.99659 11.5753 4.01266 11.5436 4.04682L4.04607 11.6467C4.01656 11.6769 4 11.7177 4 11.7602C4 11.8027 4.01656 11.8435 4.04607 11.8737L10.6713 18.5894C10.7328 18.6537 10.8339 18.6537 10.8954 18.5894ZM12.0045 5.62731C12.088 5.54263 12.2049 5.49953 12.3234 5.50969L16.2525 5.8466C16.4468 5.86326 16.6007 6.01757 16.617 6.21188L16.9502 10.2054C16.9599 10.3218 16.9183 10.4366 16.8363 10.5197L10.7824 16.6543L5.95316 11.7612L12.0045 5.62731ZM13.329 9.2359C13.4173 9.32546 13.5223 9.3965 13.6377 9.44497C13.7532 9.49344 13.8769 9.51838 14.0019 9.51837C14.1268 9.51836 14.2506 9.4934 14.366 9.44492C14.4815 9.39643 14.5864 9.32537 14.6747 9.2358C14.7631 9.14622 14.8332 9.03988 14.881 8.92285C14.9288 8.80581 14.9534 8.68038 14.9534 8.55371C14.9534 8.42704 14.9288 8.30161 14.8809 8.18458C14.8331 8.06756 14.763 7.96123 14.6746 7.87166C14.5863 7.7821 14.4814 7.71106 14.3659 7.66259C14.2505 7.61412 14.1267 7.58918 14.0017 7.58919C13.8768 7.5892 13.753 7.61416 13.6376 7.66264C13.5221 7.71113 13.4172 7.78219 13.3289 7.87176C13.2405 7.96134 13.1704 8.06768 13.1226 8.18471C13.0748 8.30175 13.0502 8.42718 13.0502 8.55385C13.0502 8.68052 13.0748 8.80595 13.1227 8.92298C13.1705 9.04 13.2406 9.14633 13.329 9.2359ZM18.9539 13.5557L18.1689 12.7619C18.1391 12.732 18.0988 12.7152 18.0569 12.7152C18.0149 12.7152 17.9747 12.732 17.9449 12.7619L10.7685 20.0222L6.05823 15.2597C6.02843 15.2298 5.98817 15.213 5.94623 15.213C5.90428 15.213 5.86403 15.2298 5.83422 15.2597L5.04918 16.0535C5.01966 16.0837 5.00311 16.1245 5.00311 16.167C5.00311 16.2095 5.01966 16.2503 5.04918 16.2805L9.87044 21.1595L10.6555 21.9533C10.7169 22.0156 10.818 22.0156 10.8795 21.9533L18.9539 13.7827C19.0154 13.7204 19.0154 13.618 18.9539 13.5557Z" fill="#576175"/>
</svg>
