<svg width="24" height="24" viewBox="0 0 24 24" fill="none" xmlns="http://www.w3.org/2000/svg">
<path fill-rule="evenodd" clip-rule="evenodd" d="M6.47727 7.60227H8.52273V3.71591C8.52273 3.52604 8.59815 3.34394 8.73241 3.20968C8.86667 3.07543 9.04877 3 9.23864 3H20.2841C20.474 3 20.6561 3.07543 20.7903 3.20968C20.9246 3.34394 21 3.52604 21 3.71591V14.7614C21 14.9512 20.9246 15.1333 20.7903 15.2676C20.6561 15.4018 20.474 15.4773 20.2841 15.4773H16.3977V17.5227C16.3977 17.7126 16.3223 17.8947 16.188 18.029C16.0538 18.1632 15.8717 18.2386 15.6818 18.2386H11.7955V20.2841C11.7955 20.474 11.72 20.6561 11.5858 20.7903C11.4515 20.9246 11.2694 21 11.0795 21H3.71591C3.52604 21 3.34394 20.9246 3.20968 20.7903C3.07543 20.6561 3 20.474 3 20.2841V12.9205C3 12.7306 3.07543 12.5485 3.20968 12.4142C3.34394 12.28 3.52604 12.2045 3.71591 12.2045H5.76136V8.31818C5.76136 8.12831 5.83679 7.94622 5.97105 7.81196C6.10531 7.6777 6.2874 7.60227 6.47727 7.60227ZM4.43182 19.5682H10.3636V13.6364H4.43182V19.5682ZM11.7955 16.8068H14.9659V9.03409H7.19318V12.2045H11.0795C11.2694 12.2045 11.4515 12.28 11.5858 12.4142C11.72 12.5485 11.7955 12.7306 11.7955 12.9205V16.8068ZM16.3977 14.0455H19.5682V4.43182H9.95455V7.60227H15.6818C15.8717 7.60227 16.0538 7.6777 16.188 7.81196C16.3223 7.94622 16.3977 8.12831 16.3977 8.31818V14.0455Z" fill="#576175"/>
</svg>
