<svg width="24" height="24" viewBox="0 0 24 24" fill="none" xmlns="http://www.w3.org/2000/svg">
<path fill-rule="evenodd" clip-rule="evenodd" d="M17.2586 16.2804L20.8004 19.7962C20.9284 19.9295 21 20.1073 21 20.2924C21 20.4777 20.9283 20.6557 20.7999 20.7891C20.7336 20.8558 20.6548 20.9088 20.568 20.945C20.4808 20.9813 20.3873 21 20.2929 21C20.1985 21 20.105 20.9813 20.0179 20.945C19.9307 20.9086 19.851 20.8548 19.7845 20.7877L16.2696 17.2701L16.1265 17.3849C14.5155 18.6779 12.4708 19.304 10.4127 19.1346C8.35461 18.9652 6.43957 18.0131 5.06136 16.474C3.68315 14.9349 2.94654 12.9258 3.00302 10.8599C3.05951 8.79391 3.90481 6.82815 5.36506 5.36679C6.82531 3.90544 8.7895 3.05956 10.8538 3.00303C12.918 2.9465 14.9255 3.68362 16.4634 5.06287C18.0013 6.44212 18.9528 8.35867 19.1221 10.4184C19.2914 12.4782 18.6656 14.5246 17.3736 16.1368L17.2586 16.2804ZM7.40264 16.6284C8.49523 17.359 9.77978 17.7489 11.0939 17.7489C12.856 17.7489 14.5459 17.0484 15.7919 15.8015C17.0378 14.5546 17.7378 12.8635 17.7378 11.1002C17.7378 9.78518 17.3481 8.49973 16.6181 7.40634C15.8881 6.31296 14.8504 5.46074 13.6364 4.95749C12.4224 4.45424 11.0865 4.32257 9.79766 4.57912C8.50884 4.83568 7.32501 5.46894 6.39585 6.3988C5.4667 7.32866 4.83395 8.51336 4.57761 9.80307C4.32126 11.0928 4.45283 12.4296 4.95567 13.6445C5.45851 14.8594 6.31005 15.8978 7.40264 16.6284Z" fill="#576175"/>
</svg>
