<svg width="24" height="24" viewBox="0 0 24 24" fill="none" xmlns="http://www.w3.org/2000/svg">
<path d="M8.09842 9H15.9016C16.1637 9 16.3452 8.85799 16.446 8.57396C16.5468 8.26627 16.5065 8.00592 16.325 7.7929L12.4234 3.21302C12.3024 3.07101 12.1613 3 12 3C11.8387 3 11.6976 3.07101 11.5766 3.21302L7.67499 7.7929C7.49352 8.00592 7.45319 8.26627 7.55401 8.57396C7.65482 8.85799 7.83629 9 8.09842 9Z" fill="#576175"/>
<path d="M15.9016 15H8.09842C7.83629 15 7.65482 15.1538 7.55401 15.4615C7.45319 15.7456 7.49352 15.9941 7.67499 16.2071L11.5766 20.787C11.6976 20.929 11.8387 21 12 21C12.1613 21 12.3024 20.929 12.4234 20.787L16.325 16.2071C16.5065 15.9941 16.5468 15.7456 16.446 15.4615C16.3452 15.1538 16.1637 15 15.9016 15Z" fill="#576175"/>
</svg>
