<svg width="24" height="24" viewBox="0 0 24 24" fill="none" xmlns="http://www.w3.org/2000/svg">
<path fill-rule="evenodd" clip-rule="evenodd" d="M18.946 8.89904V8.96748L18.9562 8.99846C18.9772 9.06232 18.9919 9.12822 19 9.19516V18.4432C19 19.1231 18.7356 19.7741 18.2668 20.2532C17.7982 20.7321 17.1638 21 16.5037 21H7.49632C6.83616 21 6.20182 20.7321 5.73319 20.2532C5.26437 19.7741 5 19.1231 5 18.4432V5.55682C5 4.87688 5.26437 4.22591 5.73319 3.74682C6.20182 3.26794 6.83616 3 7.49632 3H12.9317C13.0042 3.0107 13.0744 3.03535 13.1384 3.07288L13.2009 3.10953L13.2707 3.0994C13.3287 3.13103 13.3826 3.17037 13.431 3.21654L18.8308 8.73455C18.8759 8.78394 18.9146 8.83923 18.946 8.89904ZM16.6217 8.52273L13.5956 5.43038V7.39773C13.5956 7.69427 13.7108 7.97978 13.9177 8.19117C14.1247 8.40276 14.4068 8.52273 14.7022 8.52273H16.6217ZM12.2059 7.39773V4.43182H7.49632C7.20093 4.43182 6.91885 4.55179 6.71179 4.76337C6.50493 4.97477 6.38971 5.26028 6.38971 5.55682V18.4432C6.38971 18.7397 6.50493 19.0252 6.71179 19.2366C6.91885 19.4482 7.20093 19.5682 7.49632 19.5682H16.5037C16.7991 19.5682 17.0812 19.4482 17.2882 19.2366C17.4951 19.0252 17.6103 18.7397 17.6103 18.4432V9.95455H14.7022C14.042 9.95455 13.4077 9.68661 12.9391 9.20772C12.4703 8.72864 12.2059 8.07767 12.2059 7.39773Z" fill="#576175"/>
</svg>
