<svg width="24" height="24" viewBox="0 0 24 24" fill="none" xmlns="http://www.w3.org/2000/svg">
<path d="M16.3998 7.6998C16.3998 7.1998 15.9998 6.7998 15.4998 6.7998H7.7998L10.5998 8.0998C5.4998 13.6998 10.9998 17.7998 10.9998 17.7998C10.5998 13.1998 14.9998 11.6998 14.9998 11.6998L16.3998 14.3998V7.6998Z" fill="#576175"/>
<path fill-rule="evenodd" clip-rule="evenodd" d="M4.6 3H19.4C20.3 3 21 3.7 21 4.6V19.4C21 20.3 20.3 21 19.4 21H4.6C3.7 21 3 20.3 3 19.4V4.6C3 3.7 3.7 3 4.6 3ZM19.6 4.6C19.6 4.5 19.5 4.4 19.4 4.4H4.6C4.5 4.4 4.4 4.5 4.4 4.6V19.4C4.4 19.5 4.5 19.6 4.6 19.6H19.4C19.5 19.6 19.6 19.5 19.6 19.4V4.6Z" fill="#576175"/>
</svg>
