<svg width="24" height="24" viewBox="0 0 24 24" fill="none" xmlns="http://www.w3.org/2000/svg">
<path fill-rule="evenodd" clip-rule="evenodd" d="M17.2283 7.50007C17.031 7.50285 16.8414 7.58491 16.7017 7.73046L13.0595 11.4718L13.0557 11.4756C12.987 11.5447 12.9321 11.6272 12.8945 11.7186C12.857 11.8101 12.8375 11.9084 12.8375 12.0078C12.8375 12.1073 12.857 12.2056 12.8945 12.297C12.9321 12.3884 12.987 12.4709 13.0557 12.54L13.0572 12.5415L16.7461 16.2802L16.7475 16.2816C16.8157 16.3513 16.8964 16.4062 16.9848 16.4435C17.0732 16.4809 17.1678 16.5 17.2632 16.5C17.3586 16.5 17.4532 16.4809 17.5416 16.4435C17.6301 16.4062 17.7108 16.3513 17.7789 16.2816L17.7818 16.2787C17.8505 16.2097 17.9054 16.1271 17.943 16.0357C17.9806 15.9443 18 15.846 18 15.7465C18 15.6471 17.9806 15.5488 17.943 15.4574C17.9056 15.3664 17.8511 15.2842 17.7828 15.2154L17.7818 15.2143L14.5489 12.0078L17.7792 8.80381C17.9168 8.65842 17.9935 8.46258 17.9907 8.25831C17.9879 8.05222 17.9044 7.85708 17.7607 7.71542C17.6172 7.57398 17.4256 7.4973 17.2283 7.50007ZM9.93386 7.73543L6.09809 11.623H6.0906C6.07494 11.6521 6.06114 11.6823 6.04933 11.7134C6.01424 11.806 5.99753 11.9049 6.00029 12.0043C6.00306 12.1038 6.02524 12.2015 6.06536 12.2918C6.10548 12.3821 6.16266 12.463 6.23327 12.53L6.23919 12.5357L9.93386 16.2802L9.9353 16.2816C10.0034 16.3513 10.0842 16.4062 10.1726 16.4435C10.261 16.4809 10.3556 16.5 10.451 16.5C10.5464 16.5 10.641 16.4809 10.7294 16.4435C10.8178 16.4062 10.8985 16.3513 10.9667 16.2816L10.9696 16.2787C11.0383 16.2097 11.0932 16.1271 11.1307 16.0357C11.1683 15.9443 11.1878 15.846 11.1878 15.7465C11.1878 15.6471 11.1683 15.5488 11.1307 15.4574C11.0932 15.3659 11.0376 15.2827 10.9689 15.2137L7.79193 12.0078L10.9685 8.80237C11.1068 8.662 11.1857 8.47033 11.1857 8.26909C11.1857 8.06767 11.1067 7.87584 10.9681 7.73543C10.8298 7.59525 10.6437 7.51775 10.451 7.51775C10.2583 7.51775 10.0722 7.59525 9.93386 7.73543Z" fill="#576175"/>
</svg>
