<svg width="24" height="24" viewBox="0 0 24 24" fill="none" xmlns="http://www.w3.org/2000/svg">
    <path d="M19.197 15.7472C18.1991 14.448 16.867 13.4442 15.3429 12.8433L15.292 12.6671V12.4919C16.1675 11.8044 16.8069 10.861 17.121 9.79302C17.4352 8.72507 17.4086 7.58574 17.0448 6.53364C16.6811 5.48153 15.9984 4.56903 15.0917 3.92315C14.185 3.27728 13.0995 2.93018 11.9863 2.93018C10.8731 2.93018 9.78762 3.27728 8.88094 3.92315C7.97426 4.56903 7.29153 5.48153 6.9278 6.53364C6.56407 7.58574 6.53743 8.72507 6.8516 9.79302C7.16577 10.861 7.80512 11.8044 8.68062 12.4919L8.96062 12.7113L8.62992 12.843C7.11362 13.4445 5.78927 14.4468 4.79841 15.7426C3.80755 17.0385 3.18743 18.5792 3.00432 20.2001C2.99395 20.2942 3.00229 20.3894 3.02888 20.4802C3.05546 20.571 3.09976 20.6557 3.15922 20.7293C3.2803 20.8789 3.45561 20.9746 3.64693 20.9955C3.83826 21.0164 4.0301 20.9609 4.18062 20.8409C4.25479 20.7819 4.31657 20.7088 4.36242 20.6259C4.40827 20.5429 4.4373 20.4517 4.44782 20.3575C4.65781 18.5069 5.54433 16.7991 6.93702 15.5624C8.33401 14.3226 10.137 13.6379 12.0048 13.6379C13.8726 13.6379 15.6756 14.3226 17.0726 15.5624C18.4654 16.799 19.352 18.5068 19.5619 20.3574C19.5816 20.5335 19.6659 20.6959 19.7986 20.8132C19.9321 20.9311 20.1043 20.9957 20.2824 20.9946H20.373C20.5577 20.971 20.7261 20.8768 20.843 20.7318C20.9614 20.5849 21.0165 20.3969 20.9964 20.2093C20.8143 18.5858 20.1921 17.0429 19.197 15.7472ZM11.9863 12.2044C11.2156 12.2054 10.4618 11.9783 9.81985 11.5517C9.17794 11.1251 8.67665 10.518 8.37912 9.80702C8.08364 9.09705 8.00636 8.31515 8.15717 7.56107C8.30797 6.807 8.68002 6.11495 9.22582 5.57323C9.63482 5.16685 10.1285 4.8558 10.6716 4.6623C11.2147 4.4688 11.7939 4.39762 12.3677 4.45384C12.9415 4.51007 13.4958 4.69232 13.9911 4.98757C14.4863 5.28282 14.9102 5.68378 15.2325 6.16182C15.7345 6.90841 15.9606 7.8066 15.872 8.70189C15.7834 9.59717 15.3855 10.4336 14.7468 11.0672C14.013 11.796 13.0206 12.2049 11.9863 12.2044Z" fill="#576175"/>
</svg>
