<svg width="24" height="24" viewBox="0 0 24 24" fill="none" xmlns="http://www.w3.org/2000/svg">
<path fill-rule="evenodd" clip-rule="evenodd" d="M19.9628 10.2838C19.9698 10.2864 19.9769 10.2887 19.9841 10.2907C20.543 10.4504 21.0004 11.1291 21.0004 11.8544V17.5442C21.0004 18.5108 20.2083 19.3029 19.2417 19.3029H4.75866C3.79211 19.3029 3 18.5108 3 17.5442V13.4062C3 12.4396 3.79211 11.6475 4.75866 11.6475H17.7934C17.9442 11.6475 18.0731 11.5392 18.0991 11.3908C18.1251 11.2423 18.0407 11.0966 17.899 11.0453L4.30161 6.12714C3.91813 5.98843 3.72077 5.56414 3.86175 5.18149C4.00187 4.80116 4.42335 4.60595 4.80406 4.74505L19.9628 10.2838ZM19.2417 17.8546C19.4131 17.8546 19.5521 17.7156 19.5521 17.5442V13.4062C19.5521 13.2348 19.4131 13.0958 19.2417 13.0958H4.75866C4.58726 13.0958 4.44831 13.2348 4.44831 13.4062V17.5442C4.44831 17.7156 4.58726 17.8546 4.75866 17.8546H19.2417ZM10.9657 14.7511H17.1727C17.5727 14.7511 17.8969 15.0753 17.8969 15.4752C17.8969 15.8751 17.5727 16.1994 17.1727 16.1994H10.9657C10.5657 16.1994 10.2415 15.8751 10.2415 15.4752C10.2415 15.0753 10.5657 14.7511 10.9657 14.7511ZM6.82767 16.1994C6.42773 16.1994 6.10352 15.8751 6.10352 15.4752C6.10352 15.0753 6.42773 14.7511 6.82767 14.7511C7.22761 14.7511 7.55182 15.0753 7.55182 15.4752C7.55182 15.8751 7.22761 16.1994 6.82767 16.1994Z" fill="#576175"/>
</svg>
