<svg width="24" height="24" viewBox="0 0 24 24" fill="none" xmlns="http://www.w3.org/2000/svg">
    <path d="M18.4773 3H5.5227C4.85562 3.00657 4.21773 3.2745 3.74604 3.74625C3.27434 4.21799 3.00649 4.85592 3 5.523V6.6058V6.6541V6.6633V6.6649L3.0074 6.8127C3.05602 7.11992 3.13059 7.42247 3.2303 7.7171C3.33226 7.90362 3.44763 8.08249 3.5755 8.2523L3.6655 8.3523C5.5573 10.3181 7.5406 12.2034 9.4755 14.1263V20.33C9.47668 20.4441 9.50677 20.556 9.56296 20.6553C9.61915 20.7546 9.6996 20.838 9.7968 20.8978C9.894 20.9576 10.0048 20.9917 10.1187 20.997C10.2327 21.0023 10.3462 20.9787 10.4485 20.9282L10.4507 20.927L14.1514 19.0765C14.2614 19.0197 14.354 18.9341 14.4192 18.8288C14.4843 18.7235 14.5197 18.6024 14.5214 18.4786V14.1264L20.26 8.3885C20.7223 7.90703 20.9865 7.26923 21 6.6019V5.523C20.9935 4.85592 20.7257 4.21799 20.254 3.74625C19.7823 3.2745 19.1444 3.00657 18.4773 3ZM13.3735 13.3732C13.2483 13.5005 13.1783 13.6719 13.1786 13.8504V18.0618L10.8214 19.24V13.85C10.8217 13.6714 10.7516 13.4999 10.6265 13.3725L5.29 8.046H18.71L13.3735 13.3732ZM19.6558 6.7017H4.3442V5.523C4.34715 5.21134 4.47225 4.91327 4.69262 4.69286C4.91299 4.47245 5.21104 4.3473 5.5227 4.3443H18.4773C18.789 4.3473 19.087 4.47245 19.3074 4.69286C19.5278 4.91327 19.6529 5.21134 19.6558 5.523V6.7017Z" fill="#576175"/>
</svg>
