<svg width="24" height="24" viewBox="0 0 24 24" fill="none" xmlns="http://www.w3.org/2000/svg">
<path fill-rule="evenodd" clip-rule="evenodd" d="M3.2256 8.50994L10.48 12.59L6.28725 15.1007C5.28092 15.5901 6.37766 17.0027 7.03116 16.4143L11.0272 14.089V19.2078C11.0272 20.2654 12.6957 20.2627 12.6957 19.2078V13.9044L19.9398 18.0692C20.5432 18.6271 21.7303 17.5187 20.6884 16.8502L4.06402 7.28767C3.31988 6.81335 2.39984 7.98014 3.2256 8.50994Z" fill="#576175"/>
<path fill-rule="evenodd" clip-rule="evenodd" d="M12.6962 9.64603V5.78458C12.6962 4.74072 11.1232 4.73623 11.1232 5.78458V9.64603C11.1232 10.692 12.6962 10.672 12.6962 9.64603Z" fill="#576175"/>
<path fill-rule="evenodd" clip-rule="evenodd" d="M15.0556 11.7255L18.1036 9.98379C19.0289 9.53491 18.1924 8.14009 17.3661 8.66657L14.3126 10.4114C13.2742 10.9151 14.3902 12.3233 15.0556 11.7255Z" fill="#576175"/>
</svg>
