<svg width="24" height="24" viewBox="0 0 24 24" fill="none" xmlns="http://www.w3.org/2000/svg">
    <path d="M16.8315 15.5556C16.9414 15.3911 17 15.1978 17 15C17 14.7348 16.8946 14.4804 16.7071 14.2929C16.5196 14.1054 16.2652 14 16 14C15.8022 14 15.6089 14.0586 15.4444 14.1685C15.28 14.2784 15.1518 14.4346 15.0761 14.6173C15.0004 14.8 14.9806 15.0011 15.0192 15.1951C15.0578 15.3891 15.153 15.5673 15.2929 15.7071C15.4327 15.847 15.6109 15.9422 15.8049 15.9808C15.9989 16.0194 16.2 15.9996 16.3827 15.9239C16.5654 15.8482 16.7216 15.72 16.8315 15.5556Z" fill="#576175"/>
    <path fill-rule="evenodd" clip-rule="evenodd" d="M18.4432 5.74853C19.1207 5.7483 19.7707 6.01629 20.2511 6.49393C20.4883 6.72977 20.6766 7.01017 20.8051 7.319C20.9336 7.62784 20.9999 7.95902 21 8.29353V17.4551C20.9984 18.1316 20.7281 18.7798 20.2486 19.2571C19.7691 19.7343 19.1197 20.0016 18.4432 20H5.5568C5.2218 20.0008 4.88993 19.9356 4.58014 19.8081C4.27035 19.6806 3.9887 19.4934 3.75128 19.257C3.51385 19.0207 3.32531 18.7399 3.1964 18.4307C3.0675 18.1215 3.00076 17.7899 3 17.4549V5.54493C3.00159 4.86841 3.27186 4.22022 3.75135 3.74296C4.23084 3.26571 4.88028 2.99847 5.5568 3.00003H9.7549C10.2838 2.99737 10.8006 3.15886 11.2339 3.46223C11.6671 3.76559 11.9957 4.1959 12.1741 4.69383L12.5132 5.74853H18.4432ZM4.51815 5.11553C4.46144 5.2516 4.4321 5.39752 4.4318 5.54493V5.77993H11.0182L10.8223 5.18783V5.18633C10.7463 4.96356 10.6023 4.77026 10.4106 4.63366C10.2189 4.49707 9.98918 4.42406 9.7538 4.42493H5.5568C5.40938 4.42458 5.26334 4.45327 5.12702 4.50937C4.99069 4.56546 4.86675 4.64787 4.76228 4.75188C4.65781 4.85588 4.57485 4.97945 4.51815 5.11553ZM19.4818 17.8843C19.5385 17.7483 19.5679 17.6023 19.5682 17.4549L19.5686 8.29363C19.5683 8.14622 19.5389 8.00031 19.4822 7.86424C19.4255 7.72818 19.3426 7.60461 19.2381 7.50061C19.1336 7.3966 19.0097 7.3142 18.8734 7.25809C18.737 7.20199 18.591 7.17329 18.4436 7.17363H12.1V7.18003H4.4318V17.4549C4.43211 17.6023 4.46147 17.7483 4.51817 17.8843C4.57488 18.0204 4.65784 18.144 4.76231 18.248C4.86678 18.352 4.99071 18.4344 5.12703 18.4905C5.26335 18.5466 5.40939 18.5753 5.5568 18.5749H18.4432C18.5906 18.5753 18.7366 18.5466 18.873 18.4905C19.0093 18.4344 19.1332 18.352 19.2377 18.248C19.3422 18.144 19.4251 18.0204 19.4818 17.8843Z" fill="#576175"/>
</svg>
