<svg width="24" height="24" viewBox="0 0 24 24" fill="none" xmlns="http://www.w3.org/2000/svg">
<path fill-rule="evenodd" clip-rule="evenodd" d="M6.82727 19.6538C7.48524 19.6538 8.11753 19.3985 8.59097 18.9416L12.189 15.3436C12.2564 15.2762 12.3364 15.2227 12.4245 15.1862C12.5126 15.1497 12.6069 15.131 12.7023 15.131C12.7976 15.131 12.892 15.1497 12.9801 15.1862C13.0681 15.2227 13.1482 15.2762 13.2156 15.3436C13.283 15.411 13.3364 15.491 13.3729 15.5791C13.4094 15.6672 13.4282 15.7615 13.4282 15.8569C13.4282 15.9522 13.4094 16.0466 13.3729 16.1347C13.3365 16.2227 13.2829 16.3028 13.2156 16.3702L9.61406 19.9624C8.86489 20.6492 7.87958 21.0206 6.86334 20.9991C5.84571 20.9776 4.87575 20.5637 4.15601 19.844C3.43628 19.1243 3.02243 18.1543 3.00089 17.1367C2.97937 16.1204 3.35076 15.1351 4.0376 14.3859L7.63 10.7843C7.76612 10.6482 7.95068 10.5718 8.14313 10.5718C8.33565 10.5718 8.52028 10.6483 8.65642 10.7844C8.79255 10.9206 8.86903 11.1052 8.86903 11.2977C8.86903 11.4902 8.79255 11.6749 8.65642 11.811L5.06127 15.4062C4.8287 15.6378 4.64415 15.9131 4.51823 16.2163C4.39231 16.5194 4.32749 16.8445 4.32749 17.1727C4.32749 17.501 4.39231 17.826 4.51823 18.1292C4.64415 18.4323 4.82868 18.7077 5.06126 18.9393L5.06358 18.9416C5.53702 19.3985 6.1693 19.6538 6.82727 19.6538ZM21 6.93781C21 7.98264 20.5867 8.98505 19.8502 9.72623L16.2548 13.3309C16.1877 13.3986 16.1074 13.4527 16.0194 13.4894C15.9314 13.5261 15.837 13.5449 15.7417 13.5449C15.6464 13.5449 15.552 13.5261 15.464 13.4894C15.376 13.4527 15.2961 13.399 15.229 13.3313L15.2278 13.3301C15.1601 13.263 15.1064 13.1831 15.0698 13.0951C15.0331 13.0072 15.0142 12.9128 15.0142 12.8174C15.0142 12.7221 15.0331 12.6277 15.0698 12.5397C15.1064 12.4517 15.1601 12.3719 15.2278 12.3047L18.8236 8.70901C19.0561 8.47738 19.2407 8.20199 19.3666 7.89889C19.4925 7.59574 19.5573 7.2707 19.5573 6.94244C19.5573 6.61417 19.4925 6.28914 19.3666 5.98599C19.2407 5.68283 19.0561 5.40753 18.8236 5.17587L18.8213 5.17361C18.3478 4.71669 17.7155 4.46134 17.0576 4.46134C16.3996 4.46134 15.7673 4.71669 15.2939 5.17361L11.6959 8.77158C11.6284 8.83899 11.5484 8.89246 11.4603 8.92894C11.3723 8.96542 11.2779 8.98419 11.1826 8.98419C11.0872 8.98419 10.9928 8.96542 10.9048 8.92894C10.8167 8.89246 10.7367 8.83899 10.6693 8.77158C10.6019 8.70417 10.5484 8.62415 10.5119 8.53608C10.4754 8.44801 10.4567 8.35362 10.4567 8.25829C10.4567 8.16297 10.4754 8.06857 10.5119 7.9805C10.5484 7.89251 10.6019 7.81237 10.6693 7.745L14.2737 4.14988C15.0148 3.41338 16.0173 3 17.0622 3C18.107 3 19.1093 3.41327 19.8504 4.14959C20.5867 4.89075 21 5.89306 21 6.93781ZM9.66402 15.0593L9.66166 15.0593C9.56663 15.0598 9.47242 15.0416 9.38444 15.0057C9.29646 14.9697 9.21643 14.9168 9.14896 14.8499C9.08127 14.7827 9.02755 14.7029 8.99089 14.6149C8.95423 14.5269 8.93536 14.4325 8.93536 14.3372C8.93536 14.2418 8.95423 14.1474 8.99089 14.0595C9.02755 13.9715 9.08187 13.891 9.14955 13.8239L13.7087 9.26472C13.8448 9.12858 14.0295 9.05211 14.222 9.05211C14.4145 9.05211 14.5992 9.12858 14.7353 9.26472C14.8714 9.40085 14.9479 9.58549 14.9479 9.77801C14.9479 9.97053 14.8714 10.1552 14.7353 10.2913L10.1764 14.8501C10.109 14.9169 10.0291 14.9698 9.94125 15.0057C9.85327 15.0416 9.75906 15.0598 9.66402 15.0593Z" fill="#576175"/>
</svg>
