<svg width="24" height="24" viewBox="0 0 24 24" fill="none" xmlns="http://www.w3.org/2000/svg">
<path fill-rule="evenodd" clip-rule="evenodd" d="M11.8092 7.41773V10.3841H14.7735C14.9632 10.3841 15.1451 10.4595 15.2793 10.5938C15.4134 10.728 15.4888 10.9102 15.4888 11.1002C15.4888 11.2901 15.4134 11.4723 15.2793 11.6065C15.1451 11.7408 14.9632 11.8162 14.7735 11.8162H11.8092V14.7826C11.8092 14.9725 11.7338 15.1547 11.5996 15.289C11.4655 15.4232 11.2835 15.4986 11.0938 15.4986C10.9042 15.4986 10.7222 15.4232 10.5881 15.289C10.4539 15.1547 10.3785 14.9725 10.3785 14.7826V11.8162H7.41422C7.22454 11.8162 7.04261 11.7408 6.90844 11.6065C6.77426 11.4723 6.69886 11.2901 6.69886 11.1002C6.69886 10.9102 6.77426 10.728 6.90844 10.5938C7.04261 10.4595 7.22454 10.3841 7.41422 10.3841H10.3785V7.41773C10.3785 7.22777 10.4539 7.04562 10.5881 6.91134C10.7222 6.77707 10.9042 6.70167 11.0938 6.70167C11.2835 6.70167 11.4655 6.77707 11.5996 6.91134C11.7338 7.04562 11.8092 7.22777 11.8092 7.41773ZM17.3736 16.1368L17.2586 16.2804L20.8004 19.7962C20.9284 19.9295 21 20.1073 21 20.2924C21 20.4777 20.9283 20.6557 20.7999 20.7891C20.7336 20.8558 20.6548 20.9088 20.568 20.945C20.4808 20.9813 20.3873 21 20.2929 21C20.1985 21 20.105 20.9813 20.0179 20.945C19.9307 20.9086 19.851 20.8548 19.7845 20.7877L16.2696 17.2701L16.1265 17.3849C14.5155 18.6779 12.4708 19.304 10.4127 19.1346C8.35461 18.9652 6.43957 18.0131 5.06136 16.474C3.68315 14.9349 2.94654 12.9258 3.00302 10.8599C3.05951 8.79391 3.90481 6.82815 5.36506 5.36679C6.8253 3.90544 8.7895 3.05956 10.8538 3.00303C12.918 2.9465 14.9255 3.68362 16.4634 5.06287C18.0013 6.44212 18.9528 8.35867 19.1221 10.4184C19.2914 12.4782 18.6656 14.5246 17.3736 16.1368ZM7.40264 16.6284C8.49522 17.359 9.77978 17.7489 11.0938 17.7489C12.856 17.7489 14.5459 17.0484 15.7919 15.8015C17.0378 14.5546 17.7377 12.8635 17.7377 11.1002C17.7377 9.78518 17.3481 8.49973 16.6181 7.40634C15.8881 6.31296 14.8504 5.46074 13.6364 4.95749C12.4224 4.45424 11.0865 4.32257 9.79766 4.57912C8.50884 4.83568 7.325 5.46894 6.39585 6.3988C5.46669 7.32866 4.83395 8.51336 4.57761 9.80307C4.32126 11.0928 4.45282 12.4296 4.95567 13.6445C5.45851 14.8594 6.31005 15.8978 7.40264 16.6284Z" fill="#576175"/>
</svg>
