<svg width="24" height="24" viewBox="0 0 24 24" fill="none" xmlns="http://www.w3.org/2000/svg">
<path fill-rule="evenodd" clip-rule="evenodd" d="M7.94956 20.0008H4.7095C4.61708 19.9996 4.52491 19.98 4.43987 19.9437C4.26665 19.8718 4.12864 19.7333 4.0567 19.56C4.02046 19.475 4.00119 19.3837 4 19.2913V16.0512C4 15.8632 4.07469 15.6829 4.20763 15.55C4.34057 15.417 4.52088 15.3423 4.7089 15.3423C4.89691 15.3423 5.07722 15.417 5.21016 15.55C5.3431 15.6829 5.41779 15.8632 5.41779 16.0512V17.5842L9.87645 13.1171C10.01 12.9836 10.1912 12.9085 10.3801 12.9085C10.5689 12.9085 10.7501 12.9836 10.8837 13.1171C11.0172 13.2507 11.0923 13.4318 11.0923 13.6207C11.0923 13.8096 11.0172 13.9908 10.8837 14.1243L6.41658 18.583H7.94956C8.13757 18.583 8.31788 18.6577 8.45083 18.7906C8.58377 18.9236 8.65846 19.1039 8.65846 19.2919C8.65846 19.4799 8.58377 19.6602 8.45083 19.7932C8.31788 19.9261 8.13757 20.0008 7.94956 20.0008ZM7.94956 5.41779H6.41658L10.884 9.87674C10.9504 9.94264 11.0031 10.021 11.0391 10.1074C11.0751 10.1938 11.0937 10.2865 11.0937 10.3801C11.0937 10.4736 11.0751 10.5663 11.0391 10.6527C11.0031 10.7391 10.9498 10.8181 10.8834 10.884C10.8175 10.9504 10.7391 11.0031 10.6527 11.0391C10.5663 11.0751 10.4736 11.0937 10.3801 11.0937C10.2865 11.0937 10.1938 11.0751 10.1074 11.0391C10.021 11.0031 9.94242 10.9502 9.87652 10.8837L5.41779 6.41658V7.94956C5.41779 8.13757 5.3431 8.31788 5.21016 8.45083C5.07722 8.58377 4.89691 8.65846 4.7089 8.65846C4.52088 8.65846 4.34057 8.58377 4.20763 8.45083C4.07469 8.31788 4 8.13757 4 7.94956V4.70953C4.00119 4.61709 4.02082 4.52492 4.05707 4.43987C4.129 4.26665 4.26752 4.12864 4.44074 4.0567C4.52578 4.02046 4.61709 4.00119 4.70953 4H7.94956C8.13757 4 8.31788 4.07469 8.45083 4.20763C8.58377 4.34057 8.65846 4.52088 8.65846 4.7089C8.65846 4.89691 8.58377 5.07722 8.45083 5.21016C8.31788 5.3431 8.13757 5.41779 7.94956 5.41779ZM14.1243 13.1171L18.583 17.5842V16.0512C18.583 15.8632 18.6577 15.6829 18.7906 15.55C18.9236 15.417 19.1039 15.3423 19.2919 15.3423C19.4799 15.3423 19.6602 15.417 19.7932 15.55C19.9261 15.6829 20.0008 15.8632 20.0008 16.0512V19.2913C19.9996 19.3837 19.98 19.4759 19.9437 19.5609C19.8718 19.7341 19.7333 19.8721 19.56 19.9441C19.475 19.9803 19.3837 19.9996 19.2913 20.0008H16.0512C15.8632 20.0008 15.6829 19.9261 15.55 19.7932C15.417 19.6602 15.3423 19.4799 15.3423 19.2919C15.3423 19.1039 15.417 18.9236 15.55 18.7906C15.6829 18.6577 15.8632 18.583 16.0512 18.583H17.5842L13.1171 14.1243C12.9836 13.9908 12.9085 13.8096 12.9085 13.6207C12.9085 13.4318 12.9836 13.2507 13.1171 13.1171C13.2507 12.9836 13.4318 12.9085 13.6207 12.9085C13.8096 12.9085 13.9908 12.9836 14.1243 13.1171ZM19.5609 4.05707C19.7341 4.129 19.8718 4.26665 19.9437 4.43987C19.98 4.52491 19.9996 4.61708 20.0008 4.7095V7.94956C20.0008 8.13757 19.9261 8.31788 19.7932 8.45083C19.6602 8.58377 19.4799 8.65846 19.2919 8.65846C19.1039 8.65846 18.9236 8.58377 18.7906 8.45083C18.6577 8.31788 18.583 8.13757 18.583 7.94956V6.41658L14.124 10.884C14.0581 10.9504 13.9797 11.0031 13.8933 11.0391C13.807 11.0751 13.7143 11.0937 13.6207 11.0937C13.5271 11.0937 13.4345 11.0751 13.3481 11.0391C13.2617 11.0031 13.1827 10.9498 13.1168 10.8834C13.0504 10.8175 12.9976 10.7391 12.9616 10.6527C12.9257 10.5663 12.9071 10.4736 12.9071 10.3801C12.9071 10.2865 12.9257 10.1938 12.9616 10.1074C12.9976 10.021 13.0506 9.94242 13.117 9.87652L17.5842 5.41779H16.0512C15.8632 5.41779 15.6829 5.3431 15.55 5.21016C15.417 5.07722 15.3423 4.89691 15.3423 4.7089C15.3423 4.52088 15.417 4.34057 15.55 4.20763C15.6829 4.07469 15.8632 4 16.0512 4H19.2913C19.3837 4.00119 19.4759 4.02082 19.5609 4.05707Z" fill="#576175"/>
</svg>
