<svg width="24" height="24" viewBox="0 0 24 24" fill="none" xmlns="http://www.w3.org/2000/svg">
<path fill-rule="evenodd" clip-rule="evenodd" d="M6.26815 6.15794C4.46166 6.16003 3.00207 7.63062 3 9.43976V11.3798C3 11.7675 3.32271 12.0817 3.72078 12.0817C4.11886 12.0817 4.44157 11.7675 4.44157 11.3798V9.43985C4.44157 8.422 5.26179 7.60145 6.26825 7.60145H18.5437L16.6021 9.5527C16.3276 9.82865 16.3276 10.2671 16.6021 10.543C16.8892 10.8315 17.3645 10.8315 17.6516 10.543L20.7899 7.38907C21.07 7.10737 21.07 6.652 20.7899 6.3703L17.6516 3.21639C17.3645 2.92787 16.8892 2.92787 16.6021 3.21639C16.3276 3.49234 16.3276 3.93074 16.6021 4.20669L18.5437 6.15794H6.26815Z" fill="#576175"/>
<path fill-rule="evenodd" clip-rule="evenodd" d="M17.7319 17.8421C19.5383 17.8398 20.9978 16.3694 21 14.5603V12.6202C21 12.2325 20.6773 11.9183 20.2792 11.9183C19.8811 11.9183 19.5584 12.2325 19.5584 12.6202V14.5602C19.5584 15.5778 18.7381 16.3985 17.7317 16.3985H5.45627L7.39785 14.4473C7.67243 14.1713 7.67243 13.7329 7.39785 13.457C7.11076 13.1685 6.63549 13.1685 6.34841 13.457L3.2101 16.6109C2.92997 16.8926 2.92999 17.348 3.21012 17.6297L6.34841 20.7836C6.63549 21.0721 7.11076 21.0721 7.39785 20.7836C7.67243 20.5077 7.67243 20.0693 7.39785 19.7933L5.45627 17.8421H17.7319Z" fill="#576175"/>
</svg>
