<svg width="24" height="24" viewBox="0 0 24 24" fill="none" xmlns="http://www.w3.org/2000/svg">
    <path fill-rule="evenodd" clip-rule="evenodd" d="M7.01003 9.91748L7.01039 9.91563C7.13111 9.31571 7.45885 8.02832 8.20895 6.88573C8.96283 5.7374 10.1574 4.71782 11.9995 4.71782C13.8415 4.71782 15.0361 5.7374 15.79 6.88573C16.5401 8.02825 16.8678 9.31556 16.9885 9.91552L16.9889 9.91737C17.3574 11.8099 17.748 13.3955 18.2526 14.7453C18.3079 14.8931 18.3645 15.0381 18.4226 15.1803C18.4687 15.2932 18.5158 15.4044 18.5638 15.5139C18.5925 15.5791 18.6214 15.6437 18.6508 15.7077L18.8494 16.1408H5.15001L5.34523 15.7156C5.36125 15.6807 5.37724 15.6455 5.39306 15.6102L5.41234 15.567C5.43272 15.5211 5.45294 15.4749 5.47297 15.4284C5.49715 15.3723 5.52107 15.3157 5.54475 15.2587C5.57225 15.1925 5.59943 15.1257 5.62629 15.0583C5.65963 14.9745 5.69248 14.8899 5.72487 14.8042C5.78675 14.6406 5.84694 14.4735 5.90559 14.3027C6.33526 13.0516 6.68117 11.6066 7.01003 9.91748ZM5.62103 9.6324C5.00919 12.654 4.39888 14.7445 3.43847 16.2657L3.43597 16.2697C3.07654 16.8197 3.48012 17.5581 4.159 17.5581H9.65735L9.59763 17.9085C9.56139 18.1212 9.5543 18.3453 9.59017 18.5848L9.59071 18.5884C9.75366 19.7748 10.7851 20.6998 11.9804 20.6998C13.3362 20.6998 14.4302 19.6132 14.4302 18.2836C14.4302 18.1551 14.4176 18.0309 14.3964 17.9097L14.3351 17.5581H19.8413C20.5203 17.5581 20.9239 16.8194 20.5641 16.2693L20.5619 16.266C19.4835 14.5689 18.8532 12.1453 18.162 8.49363C17.6038 5.56118 15.0911 3.36043 12.1191 3.30069C8.52268 3.24138 6.31507 6.18269 5.62103 9.6324ZM12.7302 18.2836C12.7302 18.6817 12.4022 19.009 12.0001 19.009C11.598 19.009 11.27 18.6817 11.27 18.2836C11.27 17.8854 11.598 17.5581 12.0001 17.5581C12.4022 17.5581 12.7302 17.8854 12.7302 18.2836Z" fill="#576175"/>
</svg>
