<svg width="24" height="24" viewBox="0 0 24 24" fill="none" xmlns="http://www.w3.org/2000/svg">
    <path d="M9.10233 14.4405C9.00902 14.3848 8.90183 14.3513 8.78864 14.3513C8.32497 14.3513 8.01402 14.7048 8.01402 15.1494C8.01402 15.5941 8.32497 15.9479 8.78864 15.9479C8.90307 15.9479 9.01141 15.9137 9.10548 15.8568C9.32813 15.7223 9.61309 15.5796 9.84947 15.6882C10.065 15.7873 10.1663 16.0463 10.0194 16.2327C9.77895 16.5377 9.39002 16.7992 8.78898 16.7992C7.78979 16.7992 7.03418 16.13 7.03418 15.1498C7.03418 14.1647 7.78945 13.5 8.78898 13.5C9.39374 13.5 9.78123 13.7548 10.0218 14.0621C10.1677 14.2487 10.0665 14.5074 9.85173 14.6073C9.61443 14.7178 9.32703 14.5748 9.10233 14.4405Z" fill="#576175"/>
    <path d="M11.8632 14.3181C11.6718 14.3181 11.6193 14.3803 11.6193 14.4615C11.6193 14.5624 11.8184 14.6005 12.0833 14.6512C12.609 14.7518 13.3934 14.9019 13.3934 15.6908C13.3934 16.3939 12.872 16.8002 12.0162 16.8002C11.5205 16.8002 11.1394 16.6932 10.8377 16.5164C10.6516 16.4073 10.6266 16.1606 10.7503 15.9838C10.9005 15.7693 11.2078 15.7451 11.4461 15.8535C11.6383 15.9411 11.8488 15.9875 12.0639 15.9872C12.2456 15.9872 12.4177 15.9392 12.4177 15.8148C12.4177 15.7137 12.2236 15.6799 11.9636 15.6347C11.4366 15.5429 10.6391 15.4042 10.6391 14.562C10.6391 14.0217 11.0882 13.5051 11.9634 13.5051C12.3289 13.5051 12.6684 13.578 12.9639 13.7236C13.1742 13.8273 13.2049 14.0978 13.0636 14.2849C12.9182 14.4773 12.6437 14.5098 12.4183 14.4242C12.232 14.3534 12.038 14.3181 11.8632 14.3181Z" fill="#576175"/>
    <path d="M14.7948 13.866L15.3831 15.7004L15.9714 13.866C16.0312 13.6798 16.2043 13.5535 16.3999 13.5535H16.5209C16.8341 13.5535 17.0515 13.8654 16.9431 14.1592L16.0987 16.4485C16.0335 16.6254 15.865 16.7428 15.6765 16.7428H15.0894C14.9009 16.7428 14.7324 16.6253 14.6672 16.4485L13.823 14.1592C13.7146 13.8654 13.932 13.5535 14.2452 13.5535H14.3663C14.5618 13.5535 14.735 13.6798 14.7948 13.866Z" fill="#576175"/>
    <path fill-rule="evenodd" clip-rule="evenodd" d="M6.47637 3.20605H14.3033C14.7398 3.20605 15.1565 3.36693 15.4616 3.64656L18.6793 6.59617C18.9835 6.87499 19.152 7.25223 19.152 7.63668V19.3121C19.152 20.1105 18.4394 20.7896 17.5211 20.7896H6.47564C5.55729 20.7896 4.84473 20.1105 4.84473 19.3121V4.68707C4.84473 3.88905 5.55748 3.20956 6.47637 3.20605ZM14.2429 7.70957H17.9114L14.2429 4.3468V7.70957ZM12.822 4.47707H6.26564V19.5221H17.7311V8.97707H13.5325C13.1201 8.97707 12.822 8.67752 12.822 8.34332V4.47707Z" fill="#576175"/>
</svg>
