<svg width="24" height="24" viewBox="0 0 24 24" fill="none" xmlns="http://www.w3.org/2000/svg">
<mask id="path-2-inside-1" fill="white">
<path d="M12.258 12.1812C12.6952 11.8008 13.0458 11.3304 13.2861 10.8018C13.5265 10.2732 13.6508 9.69882 13.6508 9.11765C13.6508 8.02558 13.2192 6.97824 12.451 6.20603C11.6828 5.43382 10.6408 5 9.55435 5C8.4679 5 7.42595 5.43382 6.65771 6.20603C5.88947 6.97824 5.45788 8.02558 5.45788 9.11765C5.45788 9.69882 5.58225 10.2732 5.82257 10.8018C6.06289 11.3304 6.41353 11.8008 6.85068 12.1812C5.70379 12.7032 4.73073 13.5462 4.04786 14.6094C3.36499 15.6726 3.00121 16.911 3 18.1765C3 18.3949 3.08632 18.6044 3.23997 18.7588C3.39361 18.9132 3.602 19 3.81929 19C4.03658 19 4.24498 18.9132 4.39862 18.7588C4.55227 18.6044 4.63859 18.3949 4.63859 18.1765C4.63859 16.866 5.1565 15.6092 6.07838 14.6825C7.00027 13.7559 8.25061 13.2353 9.55435 13.2353C10.8581 13.2353 12.1084 13.7559 13.0303 14.6825C13.9522 15.6092 14.4701 16.866 14.4701 18.1765C14.4701 18.3949 14.5564 18.6044 14.7101 18.7588C14.8637 18.9132 15.0721 19 15.2894 19C15.5067 19 15.7151 18.9132 15.8687 18.7588C16.0224 18.6044 16.1087 18.3949 16.1087 18.1765C16.1075 16.911 15.7437 15.6726 15.0608 14.6094C14.378 13.5462 13.4049 12.7032 12.258 12.1812ZM9.55435 11.5882C9.06823 11.5882 8.59302 11.4433 8.18883 11.1719C7.78463 10.9004 7.4696 10.5145 7.28357 10.0631C7.09754 9.61166 7.04886 9.11491 7.1437 8.63566C7.23854 8.15641 7.47263 7.7162 7.81637 7.37068C8.16011 7.02516 8.59806 6.78986 9.07485 6.69453C9.55163 6.5992 10.0458 6.64813 10.4949 6.83512C10.9441 7.02211 11.3279 7.33878 11.598 7.74506C11.8681 8.15135 12.0122 8.62901 12.0122 9.11765C12.0122 9.77289 11.7533 10.4013 11.2923 10.8646C10.8314 11.3279 10.2062 11.5882 9.55435 11.5882ZM17.5343 11.8518C17.556 11.8272 17.5774 11.8024 17.5984 11.7774C17.6192 11.7527 17.6396 11.7279 17.6597 11.7028C17.6878 11.6678 17.7153 11.6324 17.7421 11.5966C17.7825 11.5427 17.8216 11.4879 17.8592 11.4322C17.8995 11.3727 17.9382 11.3121 17.9753 11.2506C18.0125 11.1888 18.0481 11.126 18.082 11.0623C18.1392 10.955 18.1917 10.8452 18.2392 10.7333C18.3734 10.4171 18.4683 10.0837 18.5205 9.74051C18.5451 9.57949 18.56 9.41771 18.5654 9.256C18.5719 9.06123 18.5646 8.86658 18.5438 8.6735C18.4976 8.24581 18.3848 7.82582 18.2075 7.42941C18.1456 7.29086 18.0763 7.15633 18 7.02632C17.923 6.89511 17.839 6.76851 17.7484 6.64706C17.4596 6.26004 17.1038 5.92527 16.6957 5.66C16.4303 5.48748 16.1473 5.34729 15.8527 5.24121C15.4112 5.08226 14.9437 4.99987 14.4701 5C14.2528 5 14.0444 5.08676 13.8908 5.24121C13.7371 5.39565 13.6508 5.60512 13.6508 5.82353C13.6508 6.04194 13.7371 6.25141 13.8908 6.40585C14.0444 6.56029 14.2528 6.64706 14.4701 6.64706C14.8245 6.64706 15.1711 6.72401 15.4876 6.8687C15.7533 6.99012 15.9978 7.15926 16.2081 7.37068C16.3169 7.48004 16.4145 7.5986 16.5 7.72454C16.6002 7.87199 16.6839 8.02956 16.7499 8.19433C16.8117 8.34855 16.8581 8.50907 16.888 8.6735C16.8982 8.72987 16.9065 8.78669 16.9129 8.84388C16.9229 8.93435 16.928 9.02574 16.928 9.11765C16.9278 9.17635 16.9256 9.23491 16.9213 9.29322C16.9148 9.38121 16.9037 9.46864 16.888 9.55513C16.8766 9.61746 16.8629 9.6793 16.8469 9.74051C16.8238 9.82843 16.796 9.91506 16.7634 10C16.7424 10.0546 16.7195 10.1085 16.6947 10.1617C16.6649 10.2254 16.6323 10.288 16.5971 10.3492C16.574 10.3892 16.5499 10.4285 16.5247 10.467C16.4916 10.5177 16.4567 10.567 16.4201 10.6149C16.3892 10.6554 16.3571 10.6949 16.3239 10.7333C16.2897 10.7728 16.2543 10.8111 16.2177 10.8483C16.1424 10.9248 16.0623 10.9963 15.9776 11.0623C15.8894 11.1312 15.7964 11.1941 15.6991 11.2506C15.645 11.2819 15.5949 11.3193 15.5496 11.3617C15.4932 11.4146 15.4442 11.4755 15.4044 11.5427C15.3327 11.6638 15.2931 11.8014 15.2894 11.9424C15.2874 12.0233 15.2973 12.1037 15.3185 12.1812C15.334 12.2375 15.3554 12.2923 15.3825 12.3444C15.4117 12.4004 15.447 12.4525 15.4876 12.5C15.537 12.5577 15.5943 12.6084 15.6581 12.6506L15.9776 12.8647L16.0841 12.9224C16.3149 13.0324 16.5372 13.1574 16.7499 13.2962C16.8348 13.3516 16.9182 13.4093 17 13.469C17.127 13.5619 17.2501 13.6599 17.3689 13.7628C17.5357 13.9071 17.6941 14.0611 17.8434 14.2239C18.0818 14.4839 18.2969 14.7665 18.4855 15.0687C18.6345 15.3076 18.7652 15.5562 18.8772 15.8123C19.0355 16.1745 19.1561 16.5518 19.2374 16.9382C19.2764 17.1236 19.3063 17.3111 19.327 17.5C19.3364 17.5854 19.3439 17.671 19.3494 17.7569C19.3584 17.8962 19.3624 18.0362 19.3613 18.1765C19.3613 18.2888 19.3841 18.3987 19.4272 18.5C19.4679 18.5957 19.5266 18.6838 19.6013 18.7588C19.6784 18.8363 19.7692 18.8967 19.8681 18.9377C19.9663 18.9785 20.0723 19 20.1806 19C20.3979 19 20.6063 18.9132 20.7599 18.7588C20.8346 18.6838 20.8933 18.5957 20.934 18.5C20.9771 18.3987 20.9999 18.2888 20.9999 18.1765C21.0007 18.0165 20.9964 17.8568 20.987 17.6977C20.9784 17.5517 20.9655 17.4061 20.9483 17.2612C20.918 17.0051 20.8745 16.751 20.8179 16.5C20.78 16.3319 20.7363 16.1651 20.6869 16C20.6188 15.7729 20.5399 15.5489 20.4503 15.329C20.3436 15.067 20.2218 14.8106 20.0851 14.5612C19.7417 13.9345 19.3113 13.3636 18.8089 12.8647C18.7722 12.8282 18.7351 12.7921 18.6976 12.7564C18.6601 12.7208 18.6223 12.6855 18.5841 12.6506C18.5437 12.6137 18.5028 12.5772 18.4616 12.5412C18.3991 12.4867 18.3356 12.4331 18.2713 12.3807C18.1936 12.3173 18.1145 12.2555 18.0342 12.1953C17.9986 12.1686 17.9627 12.1422 17.9265 12.1161C17.8946 12.0931 17.8625 12.0703 17.8302 12.0478C17.7819 12.0141 17.7332 11.981 17.6841 11.9484C17.6606 11.9329 17.6371 11.9175 17.6134 11.9022C17.5871 11.8852 17.5608 11.8684 17.5343 11.8518Z"/>
</mask>
<path d="M12.258 12.1812C12.6952 11.8008 13.0458 11.3304 13.2861 10.8018C13.5265 10.2732 13.6508 9.69882 13.6508 9.11765C13.6508 8.02558 13.2192 6.97824 12.451 6.20603C11.6828 5.43382 10.6408 5 9.55435 5C8.4679 5 7.42595 5.43382 6.65771 6.20603C5.88947 6.97824 5.45788 8.02558 5.45788 9.11765C5.45788 9.69882 5.58225 10.2732 5.82257 10.8018C6.06289 11.3304 6.41353 11.8008 6.85068 12.1812C5.70379 12.7032 4.73073 13.5462 4.04786 14.6094C3.36499 15.6726 3.00121 16.911 3 18.1765C3 18.3949 3.08632 18.6044 3.23997 18.7588C3.39361 18.9132 3.602 19 3.81929 19C4.03658 19 4.24498 18.9132 4.39862 18.7588C4.55227 18.6044 4.63859 18.3949 4.63859 18.1765C4.63859 16.866 5.1565 15.6092 6.07838 14.6825C7.00027 13.7559 8.25061 13.2353 9.55435 13.2353C10.8581 13.2353 12.1084 13.7559 13.0303 14.6825C13.9522 15.6092 14.4701 16.866 14.4701 18.1765C14.4701 18.3949 14.5564 18.6044 14.7101 18.7588C14.8637 18.9132 15.0721 19 15.2894 19C15.5067 19 15.7151 18.9132 15.8687 18.7588C16.0224 18.6044 16.1087 18.3949 16.1087 18.1765C16.1075 16.911 15.7437 15.6726 15.0608 14.6094C14.378 13.5462 13.4049 12.7032 12.258 12.1812ZM9.55435 11.5882C9.06823 11.5882 8.59302 11.4433 8.18883 11.1719C7.78463 10.9004 7.4696 10.5145 7.28357 10.0631C7.09754 9.61166 7.04886 9.11491 7.1437 8.63566C7.23854 8.15641 7.47263 7.7162 7.81637 7.37068C8.16011 7.02516 8.59806 6.78986 9.07485 6.69453C9.55163 6.5992 10.0458 6.64813 10.4949 6.83512C10.9441 7.02211 11.3279 7.33878 11.598 7.74506C11.8681 8.15135 12.0122 8.62901 12.0122 9.11765C12.0122 9.77289 11.7533 10.4013 11.2923 10.8646C10.8314 11.3279 10.2062 11.5882 9.55435 11.5882ZM17.5343 11.8518C17.556 11.8272 17.5774 11.8024 17.5984 11.7774C17.6192 11.7527 17.6396 11.7279 17.6597 11.7028C17.6878 11.6678 17.7153 11.6324 17.7421 11.5966C17.7825 11.5427 17.8216 11.4879 17.8592 11.4322C17.8995 11.3727 17.9382 11.3121 17.9753 11.2506C18.0125 11.1888 18.0481 11.126 18.082 11.0623C18.1392 10.955 18.1917 10.8452 18.2392 10.7333C18.3734 10.4171 18.4683 10.0837 18.5205 9.74051C18.5451 9.57949 18.56 9.41771 18.5654 9.256C18.5719 9.06123 18.5646 8.86658 18.5438 8.6735C18.4976 8.24581 18.3848 7.82582 18.2075 7.42941C18.1456 7.29086 18.0763 7.15633 18 7.02632C17.923 6.89511 17.839 6.76851 17.7484 6.64706C17.4596 6.26004 17.1038 5.92527 16.6957 5.66C16.4303 5.48748 16.1473 5.34729 15.8527 5.24121C15.4112 5.08226 14.9437 4.99987 14.4701 5C14.2528 5 14.0444 5.08676 13.8908 5.24121C13.7371 5.39565 13.6508 5.60512 13.6508 5.82353C13.6508 6.04194 13.7371 6.25141 13.8908 6.40585C14.0444 6.56029 14.2528 6.64706 14.4701 6.64706C14.8245 6.64706 15.1711 6.72401 15.4876 6.8687C15.7533 6.99012 15.9978 7.15926 16.2081 7.37068C16.3169 7.48004 16.4145 7.5986 16.5 7.72454C16.6002 7.87199 16.6839 8.02956 16.7499 8.19433C16.8117 8.34855 16.8581 8.50907 16.888 8.6735C16.8982 8.72987 16.9065 8.78669 16.9129 8.84388C16.9229 8.93435 16.928 9.02574 16.928 9.11765C16.9278 9.17635 16.9256 9.23491 16.9213 9.29322C16.9148 9.38121 16.9037 9.46864 16.888 9.55513C16.8766 9.61746 16.8629 9.6793 16.8469 9.74051C16.8238 9.82843 16.796 9.91506 16.7634 10C16.7424 10.0546 16.7195 10.1085 16.6947 10.1617C16.6649 10.2254 16.6323 10.288 16.5971 10.3492C16.574 10.3892 16.5499 10.4285 16.5247 10.467C16.4916 10.5177 16.4567 10.567 16.4201 10.6149C16.3892 10.6554 16.3571 10.6949 16.3239 10.7333C16.2897 10.7728 16.2543 10.8111 16.2177 10.8483C16.1424 10.9248 16.0623 10.9963 15.9776 11.0623C15.8894 11.1312 15.7964 11.1941 15.6991 11.2506C15.645 11.2819 15.5949 11.3193 15.5496 11.3617C15.4932 11.4146 15.4442 11.4755 15.4044 11.5427C15.3327 11.6638 15.2931 11.8014 15.2894 11.9424C15.2874 12.0233 15.2973 12.1037 15.3185 12.1812C15.334 12.2375 15.3554 12.2923 15.3825 12.3444C15.4117 12.4004 15.447 12.4525 15.4876 12.5C15.537 12.5577 15.5943 12.6084 15.6581 12.6506L15.9776 12.8647L16.0841 12.9224C16.3149 13.0324 16.5372 13.1574 16.7499 13.2962C16.8348 13.3516 16.9182 13.4093 17 13.469C17.127 13.5619 17.2501 13.6599 17.3689 13.7628C17.5357 13.9071 17.6941 14.0611 17.8434 14.2239C18.0818 14.4839 18.2969 14.7665 18.4855 15.0687C18.6345 15.3076 18.7652 15.5562 18.8772 15.8123C19.0355 16.1745 19.1561 16.5518 19.2374 16.9382C19.2764 17.1236 19.3063 17.3111 19.327 17.5C19.3364 17.5854 19.3439 17.671 19.3494 17.7569C19.3584 17.8962 19.3624 18.0362 19.3613 18.1765C19.3613 18.2888 19.3841 18.3987 19.4272 18.5C19.4679 18.5957 19.5266 18.6838 19.6013 18.7588C19.6784 18.8363 19.7692 18.8967 19.8681 18.9377C19.9663 18.9785 20.0723 19 20.1806 19C20.3979 19 20.6063 18.9132 20.7599 18.7588C20.8346 18.6838 20.8933 18.5957 20.934 18.5C20.9771 18.3987 20.9999 18.2888 20.9999 18.1765C21.0007 18.0165 20.9964 17.8568 20.987 17.6977C20.9784 17.5517 20.9655 17.4061 20.9483 17.2612C20.918 17.0051 20.8745 16.751 20.8179 16.5C20.78 16.3319 20.7363 16.1651 20.6869 16C20.6188 15.7729 20.5399 15.5489 20.4503 15.329C20.3436 15.067 20.2218 14.8106 20.0851 14.5612C19.7417 13.9345 19.3113 13.3636 18.8089 12.8647C18.7722 12.8282 18.7351 12.7921 18.6976 12.7564C18.6601 12.7208 18.6223 12.6855 18.5841 12.6506C18.5437 12.6137 18.5028 12.5772 18.4616 12.5412C18.3991 12.4867 18.3356 12.4331 18.2713 12.3807C18.1936 12.3173 18.1145 12.2555 18.0342 12.1953C17.9986 12.1686 17.9627 12.1422 17.9265 12.1161C17.8946 12.0931 17.8625 12.0703 17.8302 12.0478C17.7819 12.0141 17.7332 11.981 17.6841 11.9484C17.6606 11.9329 17.6371 11.9175 17.6134 11.9022C17.5871 11.8852 17.5608 11.8684 17.5343 11.8518Z" fill="#576175" stroke="white" stroke-width="0.2" mask="url(#path-2-inside-1)"/>
</svg>
