<svg width="24" height="24" viewBox="0 0 24 24" fill="none" xmlns="http://www.w3.org/2000/svg">
    <path fill-rule="evenodd" clip-rule="evenodd" d="M19.7931 16.195C19.8095 16.1782 19.8249 16.1606 19.8393 16.1423C19.855 16.1225 19.8695 16.1018 19.8828 16.0804C19.9067 16.0418 19.9268 16.0009 19.9426 15.9581L19.946 15.9488C19.956 15.9241 19.9647 15.8991 19.9719 15.8738C19.9794 15.8474 19.9854 15.8207 19.9898 15.7938C19.9966 15.7533 20 15.7124 20 15.6715C20 15.6455 19.9986 15.6195 19.9959 15.5936C19.9932 15.568 19.9891 15.5425 19.9838 15.5172C19.9748 15.4752 19.9622 15.4339 19.9459 15.3935C19.928 15.3504 19.9065 15.3082 19.8824 15.269C19.8682 15.2459 19.853 15.2236 19.8367 15.2019C19.8221 15.1825 19.8074 15.1643 19.7924 15.1473L17.0687 12.3946C16.9303 12.2547 16.7413 12.1751 16.5432 12.1751C16.3451 12.1751 16.1562 12.2547 16.0177 12.3946C15.8794 12.5343 15.8028 12.7227 15.8028 12.9179C15.8028 13.1126 15.8795 13.3012 16.0176 13.4411L17.5047 14.9325H12.0023C11.8051 14.9325 11.6172 15.0117 11.4794 15.1509C11.3418 15.2899 11.2655 15.4773 11.2655 15.6715C11.2655 15.8657 11.3418 16.0531 11.4794 16.1922C11.6172 16.3314 11.8051 16.4106 12.0023 16.4106H17.5047L16.0173 17.9023C15.9858 17.9339 15.9573 17.9682 15.9321 18.0046C15.9023 18.0478 15.8772 18.0941 15.8571 18.1428C15.8402 18.1838 15.8271 18.226 15.8178 18.2691C15.8119 18.2969 15.8075 18.325 15.8047 18.3534C15.8024 18.3772 15.8012 18.4012 15.8012 18.4252C15.8012 18.4492 15.8024 18.4732 15.8047 18.497C15.8075 18.5253 15.8119 18.5534 15.8178 18.5812C15.8271 18.6243 15.8402 18.6666 15.8571 18.7076C15.8692 18.7368 15.8831 18.7652 15.8987 18.7926C15.9309 18.8489 15.9705 18.901 16.0166 18.9473L16.0182 18.949C16.0462 18.9775 16.0765 19.0037 16.1086 19.0273C16.1548 19.0611 16.205 19.0896 16.2581 19.112C16.3066 19.1324 16.3571 19.1475 16.4086 19.1571C16.4529 19.1654 16.4979 19.1696 16.5432 19.1696C16.5699 19.1696 16.5966 19.1681 16.623 19.1652M19.7931 16.195L17.0692 18.948L17.0683 18.9489C17 19.0184 16.9182 19.0741 16.8283 19.112C16.7968 19.1252 16.7644 19.1363 16.7315 19.145C16.6959 19.1544 16.6597 19.1612 16.623 19.1652M18.1288 9.52618L18.1296 9.52399C18.1854 9.39007 18.2005 9.24281 18.1734 9.10056C18.1464 8.95889 18.0777 8.82658 17.976 8.72215L12.5316 3.2195C12.4786 3.16913 12.4186 3.12598 12.3539 3.09179L12.2519 3H12.0279H6.55311C5.87425 3 5.22427 3.27261 4.74586 3.75611C4.26765 4.23943 4 4.89376 4 5.57483V18.4252C4 19.1062 4.26765 19.7606 4.74586 20.2439C5.22427 20.7274 5.87425 21 6.55311 21H13.8186C14.0158 21 14.2038 20.9208 14.3415 20.7816C14.4791 20.6425 14.5554 20.4551 14.5554 20.2609C14.5554 20.0667 14.4791 19.8793 14.3415 19.7403C14.2038 19.6011 14.0158 19.5219 13.8186 19.5219H6.55311C6.26851 19.5219 5.99449 19.4077 5.79161 19.2026C5.58855 18.9974 5.47346 18.7179 5.47346 18.4252V5.57483C5.47346 5.28215 5.58855 5.00261 5.79161 4.79738C5.99449 4.59234 6.26851 4.47813 6.55311 4.47813H11.2655V7.41059C11.2655 8.09166 11.5332 8.74599 12.0114 9.22931C12.4898 9.71281 13.1398 9.98542 13.8186 9.98542L17.4513 9.98542C17.5977 9.98454 17.7401 9.93993 17.8607 9.85782C17.9811 9.77577 18.0741 9.66018 18.1288 9.52618ZM12.739 5.52888L15.686 8.50729H13.8186C13.534 8.50729 13.26 8.39308 13.0571 8.18804C12.8541 7.98281 12.739 7.70327 12.739 7.41059V5.52888Z" fill="#576175"/>
</svg>
