<svg width="24" height="24" viewBox="0 0 24 24" fill="none" xmlns="http://www.w3.org/2000/svg">
<path fill-rule="evenodd" clip-rule="evenodd" d="M13.0311 12.4193C12.9699 12.2977 12.6831 12.1721 12.6831 12.1721C12.9417 11.9671 13.175 11.7337 13.3782 11.4767C13.7204 11.0432 13.9789 10.5439 14.1354 10.0055C14.3853 9.1482 14.3639 8.23406 14.0742 7.39054C13.7845 6.54603 13.2411 5.81433 12.5198 5.29644C11.7985 4.77856 10.9353 4.5 10.0507 4.5C9.60544 4.5 9.16605 4.57062 8.74805 4.70598C8.33393 4.84035 7.93926 5.03848 7.58055 5.29644C6.86022 5.81433 6.31682 6.54603 6.02713 7.39054C5.87062 7.84565 5.79285 8.32136 5.79285 8.79804C5.79285 9.20411 5.85021 9.61116 5.96492 10.0055C6.21475 10.8627 6.72218 11.6199 7.41821 12.1721C6.22544 12.6537 5.18626 13.4531 4.40858 14.485C4.01779 15.0028 3.70089 15.5708 3.46467 16.17C3.23039 16.7635 3.07485 17.3882 3.00389 18.0287C3.00097 18.0513 3 18.0739 3 18.0964L3.00194 18.1602C3.00583 18.2102 3.01458 18.2602 3.02819 18.3093C3.07485 18.4691 3.17401 18.6084 3.3101 18.7026C3.44717 18.7967 3.61145 18.8399 3.77574 18.8252C3.94002 18.8114 4.09459 18.7398 4.21319 18.6231C4.33081 18.5064 4.40566 18.3524 4.42316 18.1867C4.5787 16.787 5.2407 15.4942 6.28085 14.5556C7.32197 13.6169 8.66931 13.0981 10.0652 13.0981C10.2665 13.099 10.4677 13.1108 10.668 13.1334C11.0918 13.1824 11.5088 13.2805 11.9122 13.4276C11.9822 13.4551 12.0561 13.4688 12.13 13.4688C12.1825 13.4688 12.235 13.4619 12.2865 13.4472C12.41 13.4119 12.5179 13.3374 12.5956 13.2344C12.5956 13.2344 13.1701 12.6949 13.0311 12.4193ZM10.0507 11.6641C9.39352 11.6641 8.7568 11.4345 8.24936 11.0138C8.06758 10.8637 7.90621 10.692 7.76817 10.5037C7.52028 10.1663 7.34822 9.77594 7.26559 9.35909C7.13727 8.70879 7.23643 8.03397 7.54653 7.44939C7.85566 6.86481 8.35629 6.40675 8.96288 6.1537C9.21077 6.04973 9.47032 5.98303 9.73279 5.95361C10.1139 5.91045 10.5017 5.94478 10.874 6.05856C11.1083 6.13016 11.3309 6.23216 11.537 6.35967C11.7645 6.50092 11.9715 6.67354 12.1514 6.87462C12.2457 6.97859 12.3322 7.0904 12.41 7.2081C12.7755 7.75933 12.9398 8.42042 12.8756 9.08053C12.8105 9.73965 12.5218 10.3566 12.0571 10.8254C11.7995 11.0854 11.4972 11.2904 11.1686 11.4326C10.8186 11.5836 10.4385 11.6641 10.0507 11.6641Z" fill="#576175"/>
<path fill-rule="evenodd" clip-rule="evenodd" d="M16.2148 16.6948C16.0748 16.6242 15.9455 16.532 15.8308 16.4202C15.6198 16.2132 15.475 15.9474 15.4167 15.6561C15.3574 15.3658 15.3875 15.0637 15.5032 14.791C15.5712 14.6282 15.6685 14.4801 15.789 14.3516C15.825 14.3123 15.8629 14.276 15.9027 14.2407C15.9533 14.1976 16.0058 14.1583 16.0612 14.122C16.2128 14.021 16.3829 13.9484 16.5608 13.9092C16.8107 13.8523 17.0702 13.8592 17.3162 13.9278C17.5631 13.9965 17.7886 14.125 17.9733 14.3025C18.0452 14.3731 18.1094 14.4506 18.1658 14.535C18.2193 14.6154 18.2649 14.7007 18.3019 14.79C18.3466 14.8969 18.3787 15.0077 18.3962 15.1215C18.4088 15.202 18.4146 15.2834 18.4137 15.3658C18.4137 15.662 18.3242 15.9513 18.158 16.1955C17.9898 16.4417 17.7536 16.632 17.4785 16.7438C17.3667 16.789 17.2501 16.8213 17.1305 16.839C17.0547 16.8507 16.9779 16.8566 16.9011 16.8566C16.661 16.8576 16.4267 16.8007 16.2148 16.6948ZM16.4102 15.2696C16.4024 15.3098 16.3995 15.352 16.4024 15.3932C16.4053 15.4472 16.4179 15.5001 16.4393 15.5492C16.4461 15.5668 16.4549 15.5835 16.4636 15.5992C16.4763 15.6208 16.4899 15.6414 16.5054 15.66C16.5229 15.6826 16.5424 15.7041 16.5638 15.7228C16.5822 15.7395 16.6017 15.7551 16.6231 15.7689C16.6464 15.7836 16.6717 15.7973 16.6969 15.8091C16.7232 15.8199 16.7504 15.8287 16.7776 15.8366L16.835 15.8473C16.8612 15.8503 16.8865 15.8513 16.9127 15.8513C16.9458 15.8513 16.9788 15.8483 17.0109 15.8424C17.0401 15.8366 17.0683 15.8287 17.0965 15.8179L17.1499 15.7934L17.1869 15.7708C17.2131 15.7532 17.2374 15.7336 17.2598 15.712L17.2851 15.6845C17.2967 15.6718 17.3074 15.659 17.3162 15.6443C17.3356 15.6149 17.3521 15.5845 17.3667 15.5531L17.3871 15.4903C17.3959 15.4491 17.4007 15.4079 17.4007 15.3667C17.4007 15.3432 17.3988 15.3197 17.3959 15.2961C17.39 15.2637 17.3823 15.2324 17.3716 15.201L17.3521 15.1539L17.3171 15.095C17.3035 15.0735 17.288 15.0538 17.2705 15.0352L17.2365 15.0019L17.1879 14.9636C17.1567 14.943 17.1247 14.9263 17.0906 14.9126C17.0362 14.89 16.9779 14.8783 16.9186 14.8763C16.8787 14.8753 16.8398 14.8783 16.801 14.8851C16.7543 14.895 16.7086 14.9116 16.6658 14.9332C16.6425 14.946 16.6192 14.9597 16.5978 14.9754C16.5803 14.9881 16.5638 15.0028 16.5482 15.0185C16.5288 15.0372 16.5113 15.0578 16.4957 15.0793C16.4811 15.098 16.4685 15.1176 16.4568 15.1392C16.4354 15.1804 16.4199 15.2235 16.4102 15.2696Z" fill="#576175"/>
<path fill-rule="evenodd" clip-rule="evenodd" d="M20.9499 16.172C20.9275 16.1132 20.8955 16.0582 20.8566 16.0092C20.8332 15.9807 20.807 15.9543 20.7788 15.9297C20.7467 15.9033 20.7127 15.8797 20.6758 15.8601L20.1742 15.4952L20.1761 15.3638L20.1742 15.2324L20.7176 14.8361L20.7603 14.7998C20.8109 14.7547 20.8537 14.7017 20.8886 14.6448C20.9314 14.5732 20.9625 14.4948 20.9791 14.4124C20.9936 14.3378 20.9956 14.2613 20.9859 14.1868C20.9761 14.1122 20.9538 14.0387 20.9198 13.97L20.1401 12.6675C20.0556 12.5301 19.9263 12.4272 19.7746 12.3752C19.7056 12.3526 19.6327 12.3399 19.5598 12.3379C19.4684 12.3359 19.377 12.3516 19.2905 12.384L18.6538 12.6714L18.6091 12.6429C18.543 12.6027 18.473 12.5625 18.3981 12.5233L18.3291 11.8642C18.3242 11.7965 18.3097 11.7308 18.2863 11.669C18.2504 11.5748 18.193 11.4885 18.1182 11.4179C17.9918 11.2992 17.8275 11.2315 17.6554 11.2276H16.1477C16.0622 11.2276 15.9766 11.2423 15.8959 11.2717C15.8143 11.3021 15.7404 11.3492 15.6772 11.409C15.6383 11.4453 15.6043 11.4865 15.5761 11.5316C15.5576 11.5601 15.5421 11.5895 15.5285 11.6199C15.5129 11.6533 15.5003 11.6876 15.4915 11.7229C15.4808 11.7671 15.475 11.8122 15.4731 11.8573L15.4031 12.5213C15.3195 12.5655 15.2359 12.6135 15.1484 12.6704L14.5457 12.3967L14.498 12.3791C14.3464 12.3232 14.1802 12.3212 14.0275 12.3742C13.8749 12.4272 13.7447 12.5311 13.6581 12.6694L12.8737 13.9838L12.8474 14.0446C12.8202 14.1162 12.8046 14.1917 12.8017 14.2692C12.7998 14.3329 12.8066 14.3967 12.8221 14.4595C12.8299 14.4938 12.8406 14.5271 12.8532 14.5595C12.8698 14.6007 12.8902 14.6399 12.9145 14.6762C12.967 14.7537 13.0389 14.8175 13.1235 14.8616L13.628 15.2275L13.6261 15.3599L13.628 15.4923L13.0836 15.8915L13.0409 15.9278C12.9281 16.0298 12.8513 16.1661 12.8221 16.3162C12.8105 16.379 12.8076 16.4427 12.8124 16.5055C12.8192 16.5928 12.8425 16.6781 12.8814 16.7576L13.6611 18.0591C13.7456 18.1965 13.8749 18.3004 14.0275 18.3524C14.1841 18.4064 14.3551 18.4034 14.5107 18.3436L15.1474 18.0562L15.2339 18.1101C15.2874 18.1425 15.3438 18.1739 15.4031 18.2053L15.4731 18.8644C15.4769 18.9105 15.4847 18.9556 15.4974 18.9988L15.51 19.0419C15.546 19.144 15.6062 19.2362 15.686 19.3117C15.7579 19.3794 15.8425 19.4304 15.9338 19.4617C16.0019 19.4853 16.0738 19.498 16.1467 19.5H17.6652C17.6972 19.5 17.7293 19.498 17.7604 19.4941C17.81 19.4872 17.8586 19.4745 17.9062 19.4568C17.9869 19.4264 18.0608 19.3794 18.124 19.3195C18.1872 19.2607 18.2377 19.1891 18.2727 19.1106C18.3077 19.0351 18.3262 18.9537 18.3281 18.8713L18.3991 18.2073L18.5342 18.1317L18.6538 18.0582L19.2555 18.3318L19.3031 18.3495C19.4548 18.4054 19.621 18.4064 19.7736 18.3544C19.9272 18.3014 20.0575 18.1965 20.143 18.0591L20.9275 16.7448C20.9499 16.6997 20.9674 16.6526 20.9791 16.6036C20.9907 16.5565 20.9975 16.5084 20.9995 16.4594C21.0034 16.3613 20.9859 16.2632 20.9499 16.172ZM14.7547 15.9121L14.6536 15.5963C14.6419 15.5168 14.6371 15.4374 14.639 15.3569C14.6361 15.2785 14.6429 15.2 14.6575 15.1235L14.7411 14.7949L13.9226 14.1976L14.3833 13.4266L15.2845 13.8366L15.5275 13.6365C15.5878 13.5875 15.651 13.5424 15.7171 13.5002C15.7647 13.4698 15.8133 13.4404 15.8629 13.4129C15.9319 13.3756 16.0029 13.3423 16.0758 13.3119L16.3499 13.1952L16.452 12.2329H17.3482L17.4493 13.2001L17.7254 13.3158C17.7974 13.3452 17.8674 13.3786 17.9354 13.4158C18.054 13.4806 18.1668 13.5551 18.2717 13.6395L18.5167 13.8405L19.4169 13.4306L19.8786 14.1976L19.0465 14.8155L19.1476 15.1313C19.1602 15.2108 19.1651 15.2912 19.1622 15.3716C19.1651 15.4491 19.1583 15.5276 19.1437 15.6041L19.0611 15.9327L19.8796 16.53L19.4188 17.298L18.5177 16.888L18.2737 17.0891C18.1075 17.2225 17.9228 17.3314 17.7254 17.4128L17.4513 17.5295L17.3492 18.4937H16.4529L16.3509 17.5265L16.0748 17.4108L15.9533 17.3549L15.8444 17.299C15.7336 17.2372 15.6286 17.1666 15.5294 17.0871L15.2845 16.8861L14.3833 17.298L13.9226 16.531L14.7547 15.9121Z" fill="#576175"/>
</svg>
