<svg width="24" height="24" viewBox="0 0 24 24" fill="none" xmlns="http://www.w3.org/2000/svg">
<path fill-rule="evenodd" clip-rule="evenodd" d="M12.4995 16.8245C12.5199 16.8098 12.5398 16.7942 12.5592 16.7776L12.6213 16.7194L12.6282 16.7123L12.6294 16.7111L20.7326 8.54474C20.938 8.33675 21.0219 8.08962 20.9952 7.84574C20.9693 7.60969 20.843 7.40415 20.6786 7.25861C20.3537 6.97115 19.8064 6.86401 19.3984 7.2775L19.3951 7.28092L11.9454 14.7715L4.59614 7.27747C4.55628 7.23722 4.51283 7.2008 4.46652 7.16859C4.41692 7.13409 4.36392 7.10434 4.30833 7.07986C4.19163 7.02846 4.06291 7 3.92947 7C3.67337 7 3.43431 7.10366 3.26285 7.27742C3.17744 7.36382 3.11069 7.46551 3.06646 7.57377C3.02226 7.68196 3 7.79663 3 7.9115C3 8.02636 3.02226 8.14103 3.06646 8.24923C3.1107 8.35751 3.17656 8.45829 3.26199 8.5447L3.26542 8.54817L11.276 16.7165L11.2784 16.719C11.5404 16.9884 11.9271 17.0609 12.2545 16.9503C12.2918 16.9377 12.3285 16.9227 12.3643 16.9053C12.3931 16.8912 12.4214 16.8756 12.4489 16.8584C12.4661 16.8477 12.483 16.8364 12.4995 16.8245Z" fill="#576175"/>
</svg>
