<svg width="24" height="24" viewBox="0 0 24 24" fill="none" xmlns="http://www.w3.org/2000/svg">
<path d="M13.697 4.72726C13.697 4.32561 14.0226 4 14.4243 4H19.2726C19.3562 4 19.4365 4.01409 19.5112 4.04003C19.612 4.07491 19.7065 4.13257 19.787 4.21301C19.932 4.35806 20.003 4.54914 19.9999 4.73923V9.57565C19.9999 9.97731 19.6743 10.3029 19.2726 10.3029C18.871 10.3029 18.5454 9.97731 18.5454 9.57565V6.48312L10.8983 14.1302C10.6143 14.4142 10.1538 14.4142 9.86983 14.1302C9.58582 13.8462 9.58582 13.3857 9.86983 13.1017L17.517 5.45452H14.4243C14.0226 5.45452 13.697 5.12891 13.697 4.72726Z" fill="#576175"/>
<path d="M6.34338 7.87901C6.10763 7.87901 5.88155 7.97266 5.71485 8.13936C5.54816 8.30605 5.45451 8.53214 5.45451 8.76788V17.6566C5.45451 17.8924 5.54816 18.1184 5.71485 18.2851C5.88155 18.4518 6.10763 18.5455 6.34338 18.5455H15.232C15.4678 18.5455 15.6939 18.4518 15.8606 18.2851C16.0273 18.1184 16.1209 17.8924 16.1209 17.6566V12.8082C16.1209 12.4066 16.4465 12.081 16.8482 12.081C17.2498 12.081 17.5754 12.4066 17.5754 12.8082V17.6566C17.5754 18.2781 17.3285 18.8742 16.8891 19.3136C16.4496 19.7531 15.8535 20 15.232 20H6.34338C5.72187 20 5.12583 19.7531 4.68636 19.3136C4.24689 18.8742 4 18.2781 4 17.6566V8.76788C4 8.14638 4.24689 7.55033 4.68636 7.11086C5.12583 6.67139 5.72187 6.42449 6.34338 6.42449H11.1917C11.5934 6.42449 11.919 6.7501 11.919 7.15175C11.919 7.55341 11.5934 7.87901 11.1917 7.87901H6.34338Z" fill="#576175"/>
</svg>
