<svg width="24" height="24" viewBox="0 0 24 24" fill="none" xmlns="http://www.w3.org/2000/svg">
<path fill-rule="evenodd" clip-rule="evenodd" d="M19.1765 3.71591V8.62734L19.3114 8.67619C19.3439 8.68796 19.3761 8.70037 19.408 8.7134C19.4376 8.72551 19.467 8.73814 19.4961 8.75131C19.9126 8.93987 20.2721 9.23673 20.5359 9.61226C20.838 10.0423 21 10.5546 21 11.0795C21 11.6045 20.838 12.1168 20.5359 12.5468C20.2338 12.9768 19.8063 13.3037 19.3114 13.4829L19.1765 13.5318V20.2841C19.1765 20.4738 19.1009 20.6558 18.9663 20.7901C18.8317 20.9245 18.649 21 18.4584 21C18.2678 21 18.0851 20.9245 17.9504 20.7901C17.8158 20.6558 17.7403 20.4738 17.7403 20.2841V13.5318L17.6054 13.4829C17.1105 13.3037 16.6829 12.9768 16.3809 12.5468C16.0788 12.1168 15.9167 11.6045 15.9167 11.0795C15.9167 10.5546 16.0788 10.0423 16.3809 9.61226C16.6829 9.18226 17.1105 8.8554 17.6054 8.67619L17.7403 8.62734V3.71591C17.7403 3.52619 17.8158 3.34415 17.9504 3.20986C18.0851 3.07554 18.2678 3 18.4584 3C18.649 3 18.8317 3.07554 18.9663 3.20986C19.1009 3.34415 19.1765 3.52619 19.1765 3.71591ZM12.7181 3.71591V14.1501L12.853 14.1989C13.3479 14.3781 13.7754 14.705 14.0775 15.135C14.3796 15.565 14.5416 16.0773 14.5416 16.6023C14.5416 17.1273 14.3796 17.6396 14.0775 18.0696C13.7754 18.4996 13.3479 18.8264 12.853 19.0056L12.7181 19.0545V20.2841C12.7181 20.4738 12.6425 20.6558 12.5079 20.7901C12.3733 20.9245 12.1906 21 12 21C11.8094 21 11.6267 20.9245 11.4921 20.7901C11.3575 20.6558 11.2819 20.4738 11.2819 20.2841V19.0545L11.147 19.0056C10.6521 18.8264 10.2246 18.4996 9.92248 18.0696C9.62039 17.6396 9.45837 17.1273 9.45837 16.6023C9.45837 16.0773 9.62039 15.565 9.92248 15.135C10.2246 14.705 10.6521 14.3781 11.147 14.1989L11.2819 14.1501V3.71591C11.2819 3.52619 11.3575 3.34415 11.4921 3.20986C11.6267 3.07554 11.8094 3 12 3C12.1906 3 12.3733 3.07554 12.5079 3.20986C12.6425 3.34415 12.7181 3.52619 12.7181 3.71591ZM6.25971 3.71591V6.78643L6.39461 6.83528C6.88953 7.01449 7.31706 7.34135 7.61915 7.77135C7.92123 8.20134 8.08325 8.71365 8.08325 9.23864C8.08325 9.76363 7.92123 10.2759 7.61915 10.7059C7.31706 11.1359 6.88953 11.4628 6.39461 11.642L6.25971 11.6908V20.2841C6.25971 20.4738 6.18417 20.6558 6.04956 20.7901C5.91493 20.9245 5.73223 21 5.54163 21C5.35102 21 5.16833 20.9245 5.0337 20.7901C4.89908 20.6558 4.82355 20.4738 4.82355 20.2841V11.6908L4.68864 11.642C4.19372 11.4628 3.76619 11.1359 3.4641 10.7059C3.16202 10.2759 3 9.76363 3 9.23864C3 8.71365 3.16202 8.20134 3.4641 7.77135C3.76619 7.34135 4.19372 7.01449 4.68864 6.83528L4.82355 6.78643V3.71591C4.82355 3.52619 4.89908 3.34415 5.0337 3.20986C5.16833 3.07554 5.35102 3 5.54163 3C5.73223 3 5.91493 3.07554 6.04956 3.20986C6.18417 3.34415 6.25971 3.52619 6.25971 3.71591ZM17.8323 12.0151C18.0177 12.1386 18.2355 12.2045 18.4584 12.2045C18.7572 12.2045 19.0438 12.0861 19.2552 11.8752C19.4667 11.6643 19.5855 11.3781 19.5855 11.0795C19.5855 10.8569 19.5194 10.6394 19.3955 10.4543C19.2715 10.2693 19.0955 10.1252 18.8896 10.0401C18.6837 9.95503 18.4571 9.93277 18.2386 9.97614C18.02 10.0195 17.8192 10.1266 17.6615 10.2839C17.5038 10.4412 17.3964 10.6417 17.3529 10.86C17.3094 11.0783 17.3317 11.3046 17.4171 11.5102C17.5024 11.7158 17.647 11.8915 17.8323 12.0151ZM11.374 17.5378C11.5593 17.6614 11.7772 17.7273 12 17.7273C12.2988 17.7273 12.5854 17.6089 12.7969 17.3979C13.0083 17.187 13.1272 16.9008 13.1272 16.6023C13.1272 16.3797 13.061 16.1621 12.9371 15.9771C12.8132 15.7921 12.6371 15.6479 12.4312 15.5628C12.2253 15.4778 11.9987 15.4555 11.7802 15.4989C11.5616 15.5422 11.3608 15.6493 11.2031 15.8066C11.0455 15.9639 10.938 16.1644 10.8945 16.3827C10.851 16.601 10.8733 16.8273 10.9587 17.0329C11.0441 17.2386 11.1886 17.4142 11.374 17.5378ZM4.91559 10.1742C5.10094 10.2977 5.3188 10.3636 5.54163 10.3636C5.84042 10.3636 6.12706 10.2452 6.33849 10.0343C6.54992 9.82336 6.6688 9.53716 6.6688 9.23864C6.6688 9.01603 6.60263 8.79845 6.47871 8.61343C6.3548 8.42842 6.17873 8.2843 5.97282 8.19921C5.76691 8.11412 5.54037 8.09186 5.32182 8.13523C5.10326 8.17861 4.90244 8.28567 4.74477 8.44297C4.58709 8.60027 4.47966 8.80075 4.43613 9.01907C4.3926 9.23739 4.41495 9.46369 4.50032 9.66931C4.58569 9.87494 4.73023 10.0506 4.91559 10.1742Z" fill="#576175"/>
</svg>
