<svg width="24" height="24" viewBox="0 0 24 24" fill="none" xmlns="http://www.w3.org/2000/svg">
<path fill-rule="evenodd" clip-rule="evenodd" d="M20.3641 3.75C20.3506 3.73262 20.336 3.71577 20.3205 3.69953C20.3172 3.69614 20.3139 3.69277 20.3106 3.68943C20.1216 3.50051 19.8449 3.4529 19.6117 3.5466L3.9331 9.03413C3.68281 9.12173 3.51135 9.35325 3.50054 9.61821C3.48973 9.88317 3.64176 10.1279 3.88409 10.2356L10.3875 13.126L10.631 13.3693L10.8745 13.6126L13.7652 20.1167C13.8729 20.359 14.1176 20.5111 14.3826 20.5003C14.6476 20.4895 14.8791 20.318 14.9667 20.0677L20.4641 4.36082C20.5243 4.18868 20.5083 4.00239 20.426 3.84598C20.4085 3.81264 20.3878 3.7805 20.3641 3.75ZM17.3911 5.69429L5.90016 9.71611L11.0711 12.0143L17.3911 5.69429ZM11.986 12.9286L18.3074 6.60727L14.2847 18.1006L11.986 12.9286Z" fill="#576175"/>
</svg>
