<svg width="24" height="24" viewBox="0 0 16 16" fill="none" xmlns="http://www.w3.org/2000/svg">
<path fill-rule="evenodd" clip-rule="evenodd" d="M13.9843 10.2158C13.9757 10.1761 13.9634 10.1371 13.9475 10.099C13.9312 10.0606 13.9115 10.0231 13.8892 9.98784C13.8763 9.9674 13.8624 9.94757 13.8476 9.92838C13.8336 9.91014 13.8187 9.89241 13.803 9.87541L11.9992 8.1016C11.8674 7.97202 11.6887 7.89922 11.5023 7.89922C11.316 7.89922 11.1372 7.97202 11.0055 8.1016C10.8737 8.23117 10.7997 8.40692 10.7997 8.59016C10.7997 8.77341 10.874 8.94942 11.0057 9.079L11.6136 9.67213H8.5015C8.31579 9.67213 8.1377 9.74467 8.00639 9.8738C7.87507 10.0029 7.80131 10.178 7.80131 10.3607C7.80131 10.5433 7.87507 10.7184 8.00639 10.8475C8.1377 10.9766 8.31579 11.0492 8.5015 11.0492H11.6136L11.0058 11.6423C10.9757 11.6716 10.9485 11.7034 10.9245 11.7374C10.8959 11.7776 10.8718 11.8208 10.8525 11.8664C10.8362 11.9047 10.8236 11.9443 10.8147 11.9847C10.8089 12.0108 10.8047 12.0372 10.802 12.0637C10.7998 12.0861 10.7986 12.1086 10.7986 12.1311C10.7986 12.1537 10.7998 12.1762 10.802 12.1986C10.8047 12.2251 10.8089 12.2515 10.8147 12.2776C10.8236 12.318 10.8362 12.3576 10.8525 12.3959C10.8641 12.4233 10.8774 12.4498 10.8924 12.4754C10.9233 12.528 10.9612 12.5764 11.0052 12.6194C11.0319 12.6459 11.0607 12.6702 11.0913 12.692C11.1352 12.7233 11.1827 12.7495 11.233 12.7701C11.2789 12.7889 11.3266 12.8028 11.3753 12.8117C11.4171 12.8192 11.4596 12.8231 11.5023 12.8231C11.5275 12.8231 11.5526 12.8218 11.5776 12.8191C11.6122 12.8154 11.6464 12.8092 11.68 12.8005C11.7112 12.7925 11.7418 12.7824 11.7716 12.7701C11.8568 12.7352 11.9344 12.6838 11.9994 12.6194L13.8001 10.8488C13.8164 10.8325 13.8318 10.8155 13.8462 10.7977C13.8616 10.7787 13.8759 10.7589 13.889 10.7383C13.9127 10.7013 13.9325 10.6619 13.9481 10.6207C13.9577 10.5976 13.966 10.5742 13.9729 10.5504C13.9801 10.5257 13.9859 10.5006 13.9902 10.4754C13.9967 10.4374 14 10.399 14 10.3607C14 10.3363 13.9987 10.3118 13.996 10.2875C13.9934 10.2635 13.9895 10.2395 13.9843 10.2158Z" fill="#576175"/>
<path fill-rule="evenodd" clip-rule="evenodd" d="M12.4908 6.80049C12.6052 6.72467 12.6943 6.61731 12.7468 6.4919C12.8005 6.36651 12.8151 6.22831 12.7889 6.09475C12.7628 5.96118 12.6965 5.83776 12.5993 5.74094L8.99837 2.19992L8.99616 2.19787C8.93882 2.14482 8.87326 2.10107 8.80194 2.06828L8.7818 2.05902H8.72288L8.55483 2H4.90052C4.39647 2 3.91306 2.1969 3.55665 2.54737C3.20023 2.89785 3 3.3732 3 3.86885V12.1311C3 12.6268 3.20023 13.1021 3.55665 13.4526C3.91306 13.8031 4.39647 14 4.90052 14H9.70182C9.88752 14 10.0656 13.9275 10.1969 13.7983C10.3282 13.6692 10.402 13.4941 10.402 13.3115C10.402 13.1289 10.3282 12.9537 10.1969 12.8246C10.0656 12.6955 9.88752 12.623 9.70182 12.623H4.90052C4.76787 12.623 4.64066 12.5711 4.54687 12.4789C4.45307 12.3867 4.40038 12.2616 4.40038 12.1311V3.86885C4.40038 3.73842 4.45307 3.61333 4.54687 3.5211C4.64066 3.42886 4.76787 3.37705 4.90052 3.37705H7.80131V5.04918C7.80131 5.54483 8.00154 6.02018 8.35795 6.37066C8.71437 6.72114 9.19777 6.91803 9.70182 6.91803L12.103 6.91803C12.2412 6.91735 12.3761 6.87645 12.4908 6.80049ZM9.20169 5.04918V4.34828L10.4146 5.54098H9.70182C9.56918 5.54098 9.44197 5.48917 9.34817 5.39694C9.25438 5.30471 9.20169 5.17961 9.20169 5.04918Z" fill="#576175"/>
</svg>
