<svg width="24" height="24" viewBox="0 0 24 24" fill="none" xmlns="http://www.w3.org/2000/svg">
<path fill-rule="evenodd" clip-rule="evenodd" d="M18.1718 8.37388V10.6916H20.4038C20.7333 10.6916 21 10.9547 21 11.2812C21 11.3566 20.985 11.4326 20.957 11.5027L18.2502 18.1316C18.1588 18.3546 17.9389 18.5 17.6968 18.5H3.59617C3.26667 18.5 3 18.2369 3 17.9104V6.08958C3 5.76313 3.26667 5.5 3.59617 5.5H8.73116C8.7596 5.50029 8.78713 5.51124 8.80802 5.53049L11.1919 7.7843H17.5756C17.9051 7.7843 18.1718 8.04743 18.1718 8.37388ZM8.23248 6.83891H4.35395V14.6198L4.4509 14.6381L5.91147 11.0599C6.00283 10.837 6.22277 10.6916 6.46478 10.6916H16.8178V9.1232H10.6486L8.23248 6.83891ZM4.79454 17.1611H17.2723L19.4014 11.9506H6.92167L4.79454 17.1611Z" fill="#576175"/>
</svg>
