<svg width="24" height="24" viewBox="0 0 24 24" fill="none" xmlns="http://www.w3.org/2000/svg">
<path fill-rule="evenodd" clip-rule="evenodd" d="M11.5005 7.17553C11.4801 7.19021 11.4602 7.20583 11.4408 7.22239L11.3787 7.28061L11.3718 7.28765L11.3706 7.28889L3.26744 15.4553C3.062 15.6632 2.9781 15.9104 3.00482 16.1543C3.03068 16.3903 3.15696 16.5959 3.32145 16.7414C3.64634 17.0288 4.19365 17.136 4.60157 16.7225L4.60494 16.7191L12.0546 9.22853L19.4039 16.7225C19.4437 16.7628 19.4872 16.7992 19.5335 16.8314C19.5831 16.8659 19.6361 16.8957 19.6917 16.9201C19.8084 16.9715 19.9371 17 20.0705 17C20.3266 17 20.5657 16.8963 20.7372 16.7226C20.8226 16.6362 20.8893 16.5345 20.9335 16.4262C20.9777 16.318 21 16.2034 21 16.0885C21 15.9736 20.9777 15.859 20.9335 15.7508C20.8893 15.6425 20.8234 15.5417 20.738 15.4553L20.7346 15.4518L12.724 7.2835L12.7216 7.28104C12.4596 7.01162 12.0729 6.93915 11.7455 7.04972C11.7082 7.0623 11.6715 7.07729 11.6357 7.09473C11.6069 7.10875 11.5787 7.12436 11.5511 7.14157C11.5339 7.15227 11.517 7.16359 11.5005 7.17553Z" fill="#576175"/>
</svg>
