<svg width="24" height="24" viewBox="0 0 16 16" fill="none" xmlns="http://www.w3.org/2000/svg">
<path fill-rule="evenodd" clip-rule="evenodd" d="M8.68852 10.3607V8C8.68852 7.61974 8.38026 7.31148 8 7.31148C7.61974 7.31148 7.31148 7.61974 7.31148 8V10.3607C7.31148 10.7409 7.61974 11.0492 8 11.0492C8.38026 11.0492 8.68852 10.7409 8.68852 10.3607Z" fill="#576175"/>
<path fill-rule="evenodd" clip-rule="evenodd" d="M8 4.95082C7.61974 4.95082 7.31148 5.25908 7.31148 5.63934C7.31148 6.01961 7.61974 6.32787 8 6.32787C8.38026 6.32787 8.68852 6.01961 8.68852 5.63934C8.68852 5.25908 8.38026 4.95082 8 4.95082Z" fill="#576175"/>
<path fill-rule="evenodd" clip-rule="evenodd" d="M8 2C7.21207 2 6.43185 2.15519 5.7039 2.45672C4.97595 2.75825 4.31451 3.20021 3.75736 3.75736C2.63214 4.88258 2 6.4087 2 8C2 9.5913 2.63214 11.1174 3.75736 12.2426C4.31451 12.7998 4.97595 13.2417 5.7039 13.5433C6.43185 13.8448 7.21207 14 8 14C9.5913 14 11.1174 13.3679 12.2426 12.2426C13.3679 11.1174 14 9.5913 14 8C14 7.21207 13.8448 6.43185 13.5433 5.7039C13.2417 4.97595 12.7998 4.31451 12.2426 3.75736C11.6855 3.20021 11.0241 2.75825 10.2961 2.45672C9.56815 2.15519 8.78793 2 8 2ZM8 12.623C5.4517 12.623 3.37705 10.5483 3.37705 8C3.37705 5.4517 5.4517 3.37705 8 3.37705C10.5483 3.37705 12.623 5.4517 12.623 8C12.623 10.5483 10.5483 12.623 8 12.623Z" fill="#576175"/>
</svg>
