<svg width="24" height="24" viewBox="0 0 24 24" fill="none" xmlns="http://www.w3.org/2000/svg">
<path fill-rule="evenodd" clip-rule="evenodd" d="M3.06013 11.7191C4.89624 7.54935 8.33124 5 12 5C15.6688 5 19.1038 7.54935 20.9399 11.7191C20.9793 11.8074 21 11.9036 21 12C21 12.0964 20.9797 12.1917 20.9403 12.28C19.1042 16.4498 15.6688 19 12 19C8.33124 19 4.89624 16.4507 3.06014 12.2809C3.02073 12.1926 3 12.0964 3 12C3 11.9036 3.02073 11.8074 3.06013 11.7191ZM4.54556 11.9154L4.50525 12L4.54556 12.0846C6.15892 15.4687 8.97862 17.6001 12 17.6001C15.0214 17.6001 17.8411 15.4687 19.4544 12.0846L19.4947 12L19.4544 11.9154C17.8411 8.53125 15.0214 6.39987 12 6.39987C8.97862 6.39987 6.15892 8.53125 4.54556 11.9154ZM10.0688 9.17303C10.6405 8.79944 11.3125 8.60004 12 8.60004C12.9219 8.60004 13.806 8.95825 14.4579 9.59586C15.1098 10.2335 15.476 11.0983 15.476 12C15.476 12.6724 15.2721 13.3298 14.8902 13.8889C14.5082 14.448 13.9654 14.8838 13.3302 15.1412C12.6951 15.3985 11.9961 15.4658 11.3219 15.3346C10.6476 15.2034 10.0282 14.8796 9.5421 14.4041C9.05598 13.9286 8.72492 13.3228 8.5908 12.6633C8.45668 12.0038 8.52551 11.3202 8.7886 10.6989C9.05169 10.0776 9.49722 9.54663 10.0688 9.17303ZM10.864 13.663C11.2002 13.8828 11.5956 14.0001 12 14.0001C12.5423 14.0001 13.0624 13.7894 13.4459 13.4143C13.8294 13.0392 14.0448 12.5305 14.0448 12C14.0448 11.6044 13.9249 11.2177 13.7002 10.8888C13.4755 10.5599 13.1562 10.3035 12.7825 10.1522C12.4089 10.0008 11.9977 9.96117 11.6011 10.0383C11.2044 10.1155 10.8401 10.306 10.5541 10.5857C10.2681 10.8654 10.0734 11.2218 9.99448 11.6098C9.91558 11.9978 9.95607 12.3999 10.1108 12.7654C10.2656 13.1309 10.5277 13.4432 10.864 13.663Z" fill="#576175"/>
</svg>
