<svg width="24" height="24" viewBox="0 0 24 24" fill="none" xmlns="http://www.w3.org/2000/svg">
    <path d="M9.99964 16.6708L10.0036 16.6759C10.1135 16.8165 10.2803 16.8996 10.4523 16.8996C10.5983 16.8996 10.7174 16.8565 10.8288 16.7547L13.7367 14.0956C13.8634 13.9761 13.9347 13.8157 13.9347 13.6246C13.9347 13.4331 13.8632 13.2725 13.736 13.153L13.7341 13.1513L10.8433 10.4951C10.7299 10.3916 10.5954 10.3496 10.4661 10.3496C10.2941 10.3496 10.1273 10.4327 10.0174 10.5733C9.81774 10.832 9.85368 11.2068 10.0886 11.4248L10.0902 11.4262L12.4882 13.6099L10.0896 15.8084L10.0886 15.8093C9.85634 16.0248 9.82244 16.3848 9.98755 16.6519L9.99612 16.6654L9.99964 16.6708Z" fill="#576175"/>
    <path fill-rule="evenodd" clip-rule="evenodd" d="M6.47637 3.20605H14.3033C14.7398 3.20605 15.1565 3.36693 15.4616 3.64656L18.6793 6.59617C18.9835 6.87499 19.152 7.25223 19.152 7.63668V19.3121C19.152 20.1105 18.4394 20.7896 17.5211 20.7896H6.47564C5.55729 20.7896 4.84473 20.1105 4.84473 19.3121V4.68707C4.84473 3.88905 5.55748 3.20956 6.47637 3.20605ZM14.2429 7.70957H17.9114L14.2429 4.3468V7.70957ZM12.822 4.47707H6.26564V19.5221H17.7311V8.97707H13.5325C13.1201 8.97707 12.822 8.67752 12.822 8.34332V4.47707Z" fill="#576175"/>
</svg>
