<svg width="24" height="24" viewBox="0 0 24 24" fill="none" xmlns="http://www.w3.org/2000/svg">
<path d="M11.2944 14.2607C11.321 14.1193 11.4396 14.0164 11.5777 14.0164V14.0113H11.9602C12.1491 14.0113 12.2871 14.199 12.2411 14.3944C12.137 14.8315 11.9094 15.7853 11.4058 17.8911C11.3743 18.0299 11.2581 18.125 11.1249 18.125H10.5268C10.3937 18.125 10.2774 18.0273 10.246 17.8911C10.1229 17.3759 9.83965 16.1706 9.81434 16.063L9.81254 16.0553L9.74233 15.6105C9.73022 15.7468 9.70601 15.8959 9.66969 16.0553L9.23628 17.8911C9.2048 18.0299 9.08858 18.125 8.95541 18.125H8.34524C8.20965 18.125 8.09343 18.0299 8.06195 17.8911C7.98879 17.5743 7.85177 16.9775 7.70662 16.3452C7.53957 15.6175 7.36174 14.8429 7.25809 14.3944C7.2145 14.2016 7.35252 14.0139 7.54138 14.0139H7.94815C8.08859 14.0139 8.20723 14.1193 8.23387 14.2633C8.26002 14.406 8.29567 14.5997 8.33567 14.8169C8.48078 15.6051 8.68304 16.7038 8.69633 16.8086C8.70264 16.8466 8.7053 16.8787 8.70747 16.9051C8.7078 16.909 8.70812 16.9129 8.70844 16.9166C8.7102 16.8991 8.71171 16.8838 8.71346 16.8685C8.731 16.7153 8.77174 16.5648 9.30892 14.2504C9.34281 14.1141 9.45904 14.0164 9.59221 14.0164H9.91424C10.0498 14.0164 10.1661 14.1141 10.1975 14.253C10.7244 16.587 10.7495 16.6829 10.7644 16.7803C10.7659 16.7899 10.7672 16.7995 10.769 16.8112C10.7735 16.8386 10.7771 16.863 10.7804 16.885C10.7823 16.8981 10.7841 16.9103 10.7859 16.9218C10.7873 16.9023 10.7884 16.8852 10.7899 16.8681C10.8039 16.7022 10.8421 16.5382 11.2944 14.2607Z" fill="#576175"/>
<path fill-rule="evenodd" clip-rule="evenodd" d="M19.0744 7.59613L19.0752 7.59694C19.3727 7.90021 19.5394 8.3091 19.5394 8.73509V15.1164C19.5394 16.3811 18.5468 17.4382 17.2691 17.4382H15.4566C15.4289 17.4382 15.4066 17.4608 15.4066 17.4885V18.6781C15.4066 19.9429 14.414 21 13.1363 21H6.27209C4.99307 21 4 19.9434 4 18.6781V8.87944C4.00361 8.26588 4.24761 7.67848 4.67907 7.24461C5.11056 6.81071 5.69476 6.56536 6.30496 6.56177L6.30913 6.56176L8.08281 6.56176C8.11043 6.56176 8.13281 6.53925 8.13281 6.51148V5.31766C8.13643 4.70411 8.38043 4.11672 8.81188 3.68286C9.24337 3.24896 9.82757 3.00361 10.4378 3.00001L10.4419 3H13.9098C14.1212 3.0003 14.3313 3.04265 14.5263 3.12457C14.7212 3.20651 14.8981 3.32643 15.0468 3.47742L15.0486 3.47923L19.0744 7.59613ZM13.1495 4.42917C13.1495 4.41584 13.1442 4.40305 13.1348 4.39362C13.1254 4.38419 13.1127 4.37889 13.0995 4.37889L10.4439 4.37889C10.1953 4.38087 9.95734 4.48105 9.78149 4.65788C9.60565 4.8347 9.50602 5.07435 9.50405 5.32435V6.51148C9.50405 6.53925 9.52644 6.56176 9.55405 6.56176H9.78254C9.99372 6.56208 10.2027 6.60467 10.3974 6.68703C10.5918 6.76932 10.7681 6.88969 10.9159 7.04109L14.9441 11.1604C15.2406 11.4654 15.4067 11.8751 15.4066 12.3017V16.0091C15.4066 16.0368 15.4289 16.0593 15.4566 16.0593H17.2691C17.7546 16.0593 18.1681 15.6552 18.1681 15.1164V9.47483C18.1681 9.44706 18.1457 9.42455 18.1181 9.42455H14.8596C14.4078 9.41905 13.976 9.23605 13.6565 8.91473C13.3368 8.59334 13.1549 8.159 13.1495 7.70451L13.1494 7.69601L13.1495 4.42917ZM14.6261 7.93971C14.6917 8.00569 14.7801 8.04361 14.8727 8.04565L17.4716 8.04566C17.4917 8.04566 17.5099 8.0335 17.5177 8.01481C17.5255 7.99613 17.5213 7.97457 17.5072 7.96013L14.6064 4.99365C14.5921 4.97909 14.5706 4.97463 14.5518 4.98237C14.533 4.9901 14.5207 5.00849 14.5207 5.0289L14.5207 7.69058L14.5207 7.69168C14.5227 7.78487 14.5605 7.87373 14.6261 7.93971ZM8.96762 7.94065L6.31146 7.94065C6.06283 7.94262 5.82452 8.04281 5.64868 8.21964C5.47284 8.39646 5.37321 8.6361 5.37124 8.88611V18.6781C5.37124 19.2164 5.78428 19.6211 6.27209 19.6211H13.1363C13.6217 19.6211 14.0353 19.2169 14.0353 18.6781V13.0366C14.0353 13.0088 14.0129 12.9863 13.9853 12.9863H10.7278C10.276 12.9808 9.84415 12.7978 9.52462 12.4765C9.20501 12.1551 9.02307 11.7208 9.01768 11.2663L9.01758 11.2578L9.01762 7.99093C9.01762 7.97759 9.01235 7.96481 9.00298 7.95538C8.9936 7.94595 8.98088 7.94065 8.96762 7.94065ZM10.4942 11.5015C10.5598 11.5674 10.6482 11.6054 10.7409 11.6074L13.3387 11.6074C13.3589 11.6074 13.3771 11.5953 13.3849 11.5766C13.3926 11.5579 13.3885 11.5363 13.3744 11.5219L10.4745 8.55641C10.4603 8.54185 10.4387 8.53739 10.4199 8.54513C10.4011 8.55286 10.3889 8.57125 10.3889 8.59166L10.3889 11.2523L10.3889 11.2534C10.3909 11.3466 10.4286 11.4355 10.4942 11.5015Z" fill="#576175"/>
</svg>
