<svg width="24" height="24" viewBox="0 0 24 24" fill="none" xmlns="http://www.w3.org/2000/svg">
    <path fill-rule="evenodd" clip-rule="evenodd" d="M18.941 3.48416L20.4983 5.05372C20.8192 5.37777 20.9998 5.81565 20.9998 6.27201C20.9998 6.72837 20.8197 7.16625 20.4988 7.4903L11.1163 16.8558L7.14551 16.8694V12.8497L16.5301 3.48206L16.5308 3.48127C16.8561 3.17179 17.2878 2.99946 17.7365 3C18.1852 3.00054 18.6165 3.1739 18.941 3.48416ZM10.5921 15.3179L16.5124 9.40887C16.5605 9.36084 16.5877 9.29575 16.5878 9.22771C16.588 9.15967 16.5612 9.09434 16.5133 9.04607L14.956 7.47652C14.9322 7.45258 14.9039 7.43356 14.8728 7.42056C14.8417 7.40755 14.8083 7.40082 14.7746 7.40073C14.7409 7.40065 14.7074 7.40722 14.6763 7.42007C14.6451 7.43292 14.6167 7.4518 14.5928 7.47562L8.67149 13.3863C8.64759 13.4102 8.62862 13.4386 8.61568 13.4698C8.60274 13.501 8.59607 13.5344 8.59606 13.5682V15.141C8.59603 15.1748 8.60268 15.2083 8.61561 15.2395C8.62854 15.2707 8.6475 15.2991 8.67141 15.3229C8.69532 15.3468 8.7237 15.3657 8.75493 15.3785C8.78615 15.3914 8.81961 15.3979 8.85337 15.3978L10.4118 15.3929C10.4794 15.3927 10.5442 15.3657 10.5921 15.3179ZM17.9078 8.01652L19.4755 6.45086C19.4994 6.42701 19.5192 6.3986 19.5321 6.36744C19.5449 6.33628 19.5516 6.30289 19.5516 6.26916C19.5516 6.23544 19.5449 6.20204 19.5321 6.17088C19.5192 6.13972 19.5003 6.11141 19.4764 6.08757L17.9161 4.52101C17.8923 4.49715 17.864 4.47821 17.8329 4.4653C17.8018 4.45238 17.7684 4.44574 17.7347 4.44574C17.701 4.44574 17.6677 4.45238 17.6365 4.4653C17.6054 4.47821 17.5771 4.49715 17.5533 4.52101L15.9881 6.08457C15.94 6.13263 15.9129 6.19782 15.9128 6.26585C15.9126 6.33388 15.9394 6.3992 15.9873 6.44746L17.5447 8.01572C17.5685 8.03967 17.5967 8.05868 17.6279 8.07169C17.659 8.08469 17.6924 8.09142 17.7261 8.09149C17.7598 8.09157 17.7932 8.08498 17.8244 8.07212C17.8556 8.05925 17.8839 8.04036 17.9078 8.01652Z" fill="#576175"/>
    <path d="M18.4319 19.498C18.48 19.4498 18.5071 19.3845 18.5071 19.3164V12.952L19.9323 11.525V19.3164C19.9318 19.7628 19.7545 20.1908 19.4392 20.5065C19.1239 20.8221 18.6964 20.9997 18.2505 21.0002H4.68182C4.23593 20.9997 3.80846 20.8221 3.49318 20.5064C3.17789 20.1908 3.00053 19.7628 3 19.3164V5.73148C3.00058 5.2851 3.17796 4.85717 3.49325 4.54155C3.80853 4.22593 4.23597 4.04838 4.68182 4.04785H12.6369L11.2116 5.47486H4.68182C4.61379 5.47486 4.54854 5.50192 4.50044 5.55008C4.45234 5.59825 4.42531 5.66357 4.42531 5.73168V19.3166C4.42531 19.3847 4.45234 19.45 4.50044 19.4982C4.54854 19.5463 4.61379 19.5734 4.68182 19.5734H7.56207L7.58133 19.5761H7.58332C7.61059 19.5804 7.63813 19.5826 7.66573 19.5829C7.68419 19.5828 7.70263 19.5815 7.7209 19.5789L7.75083 19.5738L7.75393 19.5732H18.2505C18.3185 19.5732 18.3838 19.5461 18.4319 19.498Z" fill="#576175"/>
</svg>
