<svg width="24" height="24" viewBox="0 0 24 24" fill="none" xmlns="http://www.w3.org/2000/svg">
<path fill-rule="evenodd" clip-rule="evenodd" d="M11.0233 9.32424L9.45919 7.77264H11.8801C15.0083 7.77264 17.5561 10.298 17.5561 13.4045C17.5561 16.511 15.0083 19.0364 11.8801 19.0364C9.35941 19.0364 7.22163 17.3961 6.48448 15.1352C6.36195 14.7594 6.03876 14.4909 5.67371 14.4909C5.20791 14.4909 4.87785 14.8943 4.99266 15.3053C5.8291 18.2997 8.5921 20.5 11.8801 20.5C13.778 20.5 15.5979 19.7521 16.9395 18.4213C18.2811 17.0905 19.0345 15.2859 19.0345 13.4045C19.0345 11.5231 18.2811 9.7185 16.9395 8.38772C15.5979 7.05689 13.778 6.30899 11.8801 6.30899H9.45919L11.0233 4.75739C11.3133 4.46975 11.3133 4.00093 11.0233 3.71329C10.7367 3.4289 10.2743 3.4289 9.9876 3.71329L7.2526 6.42634C6.91131 6.7649 6.91131 7.31673 7.25261 7.65528L9.9876 10.3683C10.2743 10.6527 10.7367 10.6527 11.0233 10.3683C11.3133 10.0807 11.3133 9.61188 11.0233 9.32424Z" fill="#576175"/>
</svg>
