<svg width="24" height="24" viewBox="0 0 24 24" fill="none" xmlns="http://www.w3.org/2000/svg">
<path d="M11.8842 15.4598C11.7202 15.4581 11.5593 15.5051 11.422 15.5949C11.2846 15.6846 11.177 15.8131 11.1126 15.9641C11.0483 16.115 11.0301 16.2817 11.0604 16.4429C11.0908 16.6042 11.1682 16.7529 11.283 16.8701C11.3978 16.9873 11.5448 17.0679 11.7053 17.1016C11.8659 17.1353 12.0328 17.1206 12.185 17.0594C12.3372 16.9981 12.4678 16.8931 12.5604 16.7576C12.653 16.6222 12.7033 16.4622 12.705 16.2981C12.7071 16.1889 12.6875 16.0803 12.6473 15.9788C12.607 15.8772 12.5469 15.7847 12.4705 15.7067C12.3941 15.6286 12.3028 15.5666 12.2022 15.5242C12.1015 15.4818 11.9934 15.4599 11.8842 15.4598Z" fill="#576175"/>
<path fill-rule="evenodd" clip-rule="evenodd" d="M11.5045 6.91181C11.6648 6.89367 11.826 6.88472 11.9873 6.885C12.77 6.83868 13.5409 7.09234 14.1433 7.5944C14.4072 7.84996 14.6132 8.15923 14.7473 8.50128C14.8814 8.84334 14.9406 9.21021 14.9208 9.57711C14.9252 10.1749 14.7544 10.7609 14.4296 11.2628C14.2659 11.4968 14.0736 11.7424 13.8589 11.9921C13.6443 12.2417 13.4061 12.4977 13.1511 12.7528C13.0451 12.8562 12.9487 12.9689 12.863 13.0896C12.8058 13.1683 12.7624 13.2563 12.7349 13.3497C12.7186 13.4223 12.7065 13.4958 12.6986 13.5698C12.6807 13.7783 12.5868 13.9729 12.4349 14.1166C12.2829 14.2604 12.0834 14.3432 11.8744 14.3494C11.7655 14.3497 11.6578 14.3273 11.558 14.2839C11.4582 14.2404 11.3685 14.1768 11.2945 14.0969C11.2259 14.0231 11.1735 13.9358 11.1409 13.8405C11.1082 13.7452 11.096 13.6441 11.1049 13.5437C11.1172 13.2959 11.1677 13.0515 11.2546 12.8192C11.4754 12.4195 11.7731 12.0675 12.1306 11.7835C12.5658 11.2565 12.8843 10.8513 13.0728 10.5852C13.1579 10.4473 13.223 10.298 13.2661 10.1417C13.3112 9.96909 13.333 9.7912 13.3309 9.61279C13.3433 9.43147 13.3193 9.2495 13.2602 9.07761C13.2012 8.90572 13.1084 8.7474 12.9872 8.61197C12.8692 8.49522 12.728 8.40457 12.5727 8.34587C12.3848 8.2785 12.1863 8.2462 11.9868 8.25057C11.8066 8.24861 11.6273 8.27563 11.4557 8.3306C11.3002 8.38212 11.1556 8.46235 11.0295 8.56713C10.9746 8.61136 10.927 8.6639 10.8883 8.72284C10.8391 8.80678 10.7996 8.89606 10.7706 8.98894C10.7344 9.10502 10.6836 9.21602 10.6194 9.31929C10.5534 9.42243 10.4673 9.51119 10.3663 9.58023C10.2652 9.64928 10.1512 9.69719 10.0311 9.7211C9.98538 9.72885 9.93904 9.73271 9.89262 9.73263C9.75451 9.73903 9.61741 9.70608 9.49728 9.6376C9.37715 9.56912 9.27892 9.46793 9.21402 9.3458C9.16235 9.21385 9.1514 9.06943 9.18259 8.93119C9.24093 8.39835 9.49659 7.90668 9.89922 7.553C10.0111 7.46631 10.129 7.38766 10.252 7.31766C10.3769 7.24621 10.5063 7.18301 10.6394 7.12843C10.7746 7.07336 10.9135 7.02804 11.0552 6.99282C11.203 6.95613 11.3531 6.92907 11.5045 6.91181Z" fill="#576175"/>
<path fill-rule="evenodd" clip-rule="evenodd" d="M20.2883 8.5043C19.8457 7.42964 19.1949 6.45325 18.3734 5.6314C17.5518 4.80956 16.5758 4.15853 15.5015 3.71584C13.4842 2.85821 11.2231 2.76806 9.14403 3.46238C7.06494 4.1567 5.31141 5.58756 4.21374 7.48544C3.6208 8.50896 3.2352 9.63928 3.07895 10.8119C2.9227 11.9845 2.99887 13.1764 3.3031 14.3195C3.60733 15.4626 4.13367 16.5346 4.85207 17.4743C5.57046 18.414 6.46685 19.2029 7.49003 19.796C8.69671 20.4913 10.048 20.8976 11.438 20.983C12.828 21.0684 14.2188 20.8306 15.5015 20.2881C16.5758 19.8455 17.5519 19.1944 18.3735 18.3726C19.195 17.5507 19.8459 16.5743 20.2884 15.4996C20.758 14.3933 21 13.2038 21 12.0019C21 10.8 20.7579 9.61056 20.2883 8.5043ZM12.005 19.6524C11.1863 19.6534 10.3726 19.524 9.59452 19.269C8.83763 19.0235 8.12739 18.6525 7.49348 18.1715C6.87195 17.697 6.31796 17.1399 5.84681 16.5158C5.37057 15.8797 5.00263 15.1693 4.75787 14.4133C4.50293 13.635 4.37356 12.821 4.37463 12.002C4.37262 10.9832 4.57828 9.97467 4.97905 9.03807C5.35575 8.12657 5.90853 7.29837 6.60573 6.60093C7.30292 5.9035 8.13083 5.35052 9.04202 4.97369C9.97893 4.57469 10.9867 4.36902 12.005 4.36902C13.0233 4.36902 14.0311 4.57469 14.968 4.97369C15.8792 5.3505 16.7071 5.90347 17.4043 6.60091C18.1015 7.29835 18.6543 8.12655 19.031 9.03807C19.4298 9.9753 19.6354 10.9835 19.6354 12.0021C19.6354 13.0207 19.4298 14.0289 19.031 14.9661C18.6482 15.8772 18.0961 16.7074 17.4039 17.4126C16.7053 18.1104 15.8781 18.666 14.968 19.0486C14.0316 19.4492 13.0234 19.6546 12.005 19.6524Z" fill="#576175"/>
</svg>
