<svg width="24" height="24" viewBox="0 0 24 24" fill="none" xmlns="http://www.w3.org/2000/svg">
<path d="M14.121 7.1613C14.1825 7.21921 14.231 7.28951 14.2634 7.36756C14.2952 7.44367 14.3103 7.52576 14.3076 7.60823V13.1519C14.3085 13.236 14.2908 13.3193 14.2559 13.3958C14.2216 13.4718 14.1715 13.5397 14.1089 13.5948C14.0455 13.6535 13.9712 13.6992 13.8903 13.7294C13.8094 13.7591 13.7236 13.7737 13.6373 13.7724H13.6362C13.5536 13.7725 13.4717 13.757 13.3949 13.7268C13.3187 13.6974 13.249 13.6533 13.1897 13.5973C13.1261 13.5417 13.0752 13.4731 13.0404 13.3961C13.0057 13.32 12.9881 13.2373 12.9888 13.1536V8.46133L12.6186 8.60555C12.4993 8.6524 12.3723 8.67667 12.2441 8.6771C12.0769 8.6771 11.9152 8.6172 11.7883 8.50826C11.7265 8.4517 11.6775 8.38259 11.6446 8.30554C11.6119 8.23059 11.596 8.14941 11.5979 8.06767C11.597 7.94217 11.6345 7.8194 11.7053 7.71579C11.7849 7.60332 11.9002 7.52112 12.0325 7.48258L13.417 7.0265C13.4564 7.01206 13.497 7.00095 13.5383 6.99329C13.5755 6.98608 13.6133 6.98221 13.6512 6.98173L13.6767 6.98089H13.6796C13.7575 6.98087 13.8348 6.99526 13.9075 7.02333C13.9876 7.05375 14.0604 7.10077 14.121 7.1613Z" fill="#576175"/>
<path fill-rule="evenodd" clip-rule="evenodd" d="M8.35001 4H18.5701C19.3601 4 20 4.63986 20 5.42991V15.65C20 16.44 19.3601 17.0799 18.5701 17.0799H8.35001C7.56 17.0799 6.92011 16.44 6.92011 15.65V5.42991C6.92011 4.63986 7.56 4 8.35001 4ZM8.3199 15.6801H18.6002V5.3998H8.3199V15.6801Z" fill="#576175"/>
<path d="M5.3998 7.62001V18.6002H16.38C16.7665 18.6002 17.0799 18.9136 17.0799 19.3001C17.0799 19.6866 16.7665 20 16.38 20H5.42991C4.63986 20 4 19.3601 4 18.5701V7.62001C4 7.23347 4.31335 6.92011 4.6999 6.92011C5.08644 6.92011 5.3998 7.23347 5.3998 7.62001Z" fill="#576175"/>
</svg>
