<svg width="24" height="24" viewBox="0 0 24 24" fill="none" xmlns="http://www.w3.org/2000/svg">
<path fill-rule="evenodd" clip-rule="evenodd" d="M5.19619 6.33696H4.71409C4.5157 6.33696 4.34316 6.40799 4.20567 6.54645C4.07006 6.683 4 6.84918 4 7.03778C4 7.15616 4.03131 7.2695 4.09088 7.37606C4.15373 7.48849 4.24529 7.57566 4.3624 7.63524C4.47353 7.69178 4.59132 7.72131 4.71409 7.72131H5.19619V9.65663H4.76846C4.6457 9.65663 4.5279 9.68616 4.41677 9.7427C4.29966 9.80229 4.20811 9.88946 4.14525 10.0019C4.08568 10.1084 4.05437 10.2218 4.05437 10.3402C4.05437 10.529 4.12468 10.6938 4.26293 10.8257C4.40108 10.9575 4.57274 11.0237 4.76846 11.0237H5.19619V12.9763H4.75034C4.65632 12.9763 4.56566 12.9951 4.47973 13.0324C4.39955 13.0672 4.32629 13.1126 4.26042 13.1684C4.18749 13.2303 4.13211 13.3067 4.0936 13.3948C4.05614 13.4806 4.03625 13.5693 4.03625 13.6598C4.03625 13.851 4.11137 14.0181 4.25387 14.154C4.39368 14.2874 4.56079 14.3607 4.75034 14.3607H5.19619V16.2787H4.75034C4.68939 16.2787 4.62885 16.286 4.56897 16.3003C4.5076 16.3149 4.44938 16.337 4.39478 16.3668C4.34019 16.3966 4.29019 16.4334 4.24481 16.4767C4.19943 16.52 4.16068 16.5678 4.12932 16.6202C4.09794 16.6725 4.07454 16.7285 4.05906 16.7876C4.04396 16.8452 4.03625 16.9035 4.03625 16.9622C4.03625 17.1534 4.11137 17.3204 4.25387 17.4564C4.39368 17.5898 4.56079 17.663 4.75034 17.663H5.19619V19.7459C5.19619 20.1777 5.33006 20.5184 5.63299 20.7228C5.90511 20.9065 6.20409 21 6.52651 21H18.1078C18.6303 21 19.0797 20.8239 19.4471 20.4735C19.8145 20.1229 20 19.6931 20 19.1926V4.80738C20 4.30688 19.8145 3.87706 19.4471 3.52651C19.0797 3.17606 18.6303 3 18.1078 3H6.54463C6.39019 3 6.24491 3.01793 6.10979 3.05519C5.9924 3.08756 5.88335 3.13435 5.78336 3.19589C5.67858 3.26038 5.58695 3.33358 5.50983 3.41605C5.43427 3.49684 5.37329 3.58585 5.32769 3.6829C5.2897 3.76375 5.25993 3.8476 5.2384 3.93432C5.21011 4.04826 5.19619 4.1665 5.19619 4.28868V6.33696ZM6.66063 19.5984V17.663H7.10648C7.30464 17.663 7.47862 17.5923 7.62107 17.4564C7.76358 17.3204 7.8387 17.1534 7.8387 16.9622C7.8387 16.8717 7.81881 16.783 7.78134 16.6972C7.74283 16.6091 7.68746 16.5326 7.61453 16.4708C7.54866 16.4149 7.47539 16.3695 7.39521 16.3348C7.30628 16.2962 7.20905 16.2787 7.10648 16.2787H6.66063V14.3607H7.10648C7.24146 14.3607 7.36684 14.3281 7.47788 14.26C7.58076 14.1969 7.66599 14.1156 7.73236 14.0171C7.80415 13.9106 7.8387 13.7899 7.8387 13.6598C7.8387 13.4684 7.76324 13.3027 7.61811 13.1716C7.47511 13.0423 7.30206 12.9763 7.10648 12.9763H6.66063V11.0237H7.1246C7.25628 11.0237 7.37922 10.9956 7.48923 10.9356C7.5973 10.8767 7.68353 10.7945 7.74562 10.6909C7.8089 10.5852 7.8387 10.4669 7.8387 10.3402C7.8387 10.254 7.8236 10.1689 7.7944 10.0854C7.76202 9.99268 7.70809 9.91272 7.63265 9.84875C7.56678 9.7929 7.49352 9.74749 7.41334 9.71273C7.32441 9.67416 7.22717 9.65663 7.1246 9.65663H6.66063V7.72131H7.07023C7.26596 7.72131 7.43762 7.65509 7.57576 7.52331C7.71401 7.39142 7.78432 7.22657 7.78432 7.03778C7.78432 6.84918 7.71427 6.683 7.57866 6.54645C7.44116 6.40799 7.26862 6.33696 7.07023 6.33696H6.66063V4.40164H15.6357V19.5984H6.66063ZM18.5356 19.1926C18.5356 19.3011 18.4959 19.3934 18.4088 19.4765C18.3217 19.5596 18.2238 19.5984 18.1078 19.5984H17.1001V4.40164H18.1078C18.2238 4.40164 18.3217 4.44039 18.4088 4.5235C18.4959 4.60656 18.5356 4.69887 18.5356 4.80738V19.1926Z" fill="#576175"/>
</svg>
