<svg width="24" height="24" viewBox="0 0 24 24" fill="none" xmlns="http://www.w3.org/2000/svg">
<path fill-rule="evenodd" clip-rule="evenodd" d="M20.4564 13.513L19.085 12.5257C19.1121 12.1747 19.1141 11.8235 19.0871 11.4723L20.5179 10.4423C20.9283 10.0956 21.1166 9.55673 20.8883 9.04984L19.0921 6.07835C18.816 5.63368 18.2109 5.42532 17.7082 5.60457L16.0065 6.36596C15.6944 6.15406 15.3685 5.96564 15.0292 5.80068L14.8403 4.02787C14.801 3.4583 14.3084 3.01689 13.7446 3.00026H10.2578C9.68596 2.9876 9.17515 3.44057 9.16395 4.02089L9.16378 4.0297L8.97483 5.79673C8.63547 5.96173 8.30957 6.15018 7.99742 6.36208L6.37803 5.63381C5.84338 5.43038 5.2242 5.57332 4.91224 6.07589L3.14206 9.00587C2.86016 9.51329 3.01605 10.2328 3.55139 10.5L4.92307 11.4644C4.896 11.8151 4.89403 12.1668 4.92101 12.5175L3.401 13.6313C3.03578 13.9596 2.91864 14.508 3.1178 14.9501L4.91397 17.9216C5.19003 18.3664 5.79515 18.5747 6.2979 18.3954L7.99961 17.636C8.31175 17.8479 8.63762 18.0363 8.97687 18.2013L9.16581 19.9739C9.20597 20.5428 9.69828 20.9832 10.2615 20.9997H13.7483C14.3201 21.0124 14.8309 20.5594 14.8421 19.9791L14.8423 19.9703L15.0312 18.2033C15.3706 18.0383 15.6965 17.8498 16.0087 17.6379L17.628 18.3662C18.1627 18.5696 18.7818 18.4267 19.0938 17.9241L20.864 14.9941C21.1449 14.4885 20.9984 13.7889 20.4633 13.5166L20.4564 13.513ZM17.9966 17.0098L15.8049 16.0233C15.1558 16.5518 14.4737 16.9476 13.7023 17.2714L13.4515 19.6192H10.5546L10.3037 17.2655C9.53302 16.942 8.8463 16.5426 8.20134 16.0175L6.00954 17.0099L4.51449 14.5445L6.51393 13.0866C6.27553 12.3366 6.29953 11.6477 6.49449 10.8881L4.51468 9.45534L6.00934 6.98424L8.20122 7.97075C8.84718 7.44482 9.53276 7.04626 10.3038 6.7226L10.5546 4.38077H13.4516L13.7004 6.73252C14.4713 7.05618 15.1569 7.45474 15.8028 7.98064L17.9945 6.99422L19.4917 9.45536L17.4921 10.9134C17.7306 11.6633 17.7066 12.3523 17.5116 13.1119L19.4915 14.5447L17.9966 17.0098ZM12.0037 9.04475L12.0026 9.04476C10.4016 9.04472 8.96895 10.3651 8.96875 12C8.96855 13.6194 10.3911 14.9553 12.0015 14.9559C12.9963 14.9562 13.9613 14.4652 14.5258 13.6414C14.8589 13.1554 15.0365 12.5843 15.0365 12.0003V11.9992C15.0543 10.3505 13.6289 9.02807 12.0037 9.04475ZM12.0032 10.4253C12.8619 10.4256 13.6149 11.1395 13.6155 11.9992C13.6348 12.8796 12.8722 13.5937 12.0015 13.5754C11.1435 13.5748 10.3959 12.8539 10.3906 12C10.3851 11.1236 11.1437 10.425 12.0032 10.4253Z" fill="#576175"/>
</svg>
