<svg width="24" height="24" viewBox="0 0 24 24" fill="none" xmlns="http://www.w3.org/2000/svg">
<path fill-rule="evenodd" clip-rule="evenodd" d="M5.20264 17.8187L11.0214 12L5.20264 6.18135C4.93245 5.91117 4.93245 5.47312 5.20264 5.20293C5.47283 4.93275 5.91089 4.93275 6.18108 5.20293L11.9999 11.0216L17.8189 5.20264C18.0891 4.93246 18.5272 4.93245 18.7974 5.20264C19.0675 5.47282 19.0675 5.91087 18.7974 6.18105L12.9783 12L18.7974 17.8189C19.0675 18.0891 19.0675 18.5272 18.7974 18.7974C18.5272 19.0675 18.0891 19.0675 17.8189 18.7974L11.9999 12.9784L6.18108 18.7971C5.91089 19.0672 5.47283 19.0672 5.20264 18.7971C4.93245 18.5269 4.93245 18.0888 5.20264 17.8187Z" fill="#576175"/>
</svg>
