<svg width="24" height="24" viewBox="0 0 24 24" fill="none" xmlns="http://www.w3.org/2000/svg">
<path fill-rule="evenodd" clip-rule="evenodd" d="M20.9433 14.9925C21.2571 15.6238 20.1586 16.1672 19.8487 15.5486C19.672 15.1959 19.4943 14.8438 19.3037 14.4984C18.6671 16.478 17.3063 18.1689 15.4524 19.1338C13.6283 20.0736 11.4844 20.2631 9.52832 19.6316C7.55029 19.0088 5.92783 17.5509 4.98486 15.7265C4.57313 14.9635 5.80927 14.3475 6.2134 15.0918C7.01995 16.578 8.30813 17.8026 9.95068 18.3069C11.6313 18.8508 13.2536 18.7162 14.8216 17.9005C16.4033 17.055 17.4051 15.6274 17.9935 13.9654L16.7628 14.7584C16.1338 15.1531 15.4565 14.13 16.0938 13.7286L18.5916 12.1254C19.0091 11.8739 19.3858 11.9511 19.6084 12.3975M19.6084 12.3975L19.609 12.3986L20.9433 14.9925M4.64645 9.78454L4.1506 8.78865C3.79652 8.15002 2.81157 8.65138 3.03307 9.32851L4.3769 11.9462C4.60104 12.3957 4.95172 12.4587 5.3839 12.2416L5.3916 12.2378L7.89266 10.6149C8.52664 10.2149 7.84828 9.19317 7.22294 9.58558L5.92418 10.4224C6.16646 9.32631 6.68538 8.31419 7.43946 7.48081C9.1056 5.63949 11.734 4.92194 14.102 5.68833C15.7119 6.20502 17.0604 7.35002 17.84 8.84911C18.2351 9.57641 19.4988 8.96308 19.0701 8.1998L19.0693 8.19842C18.1353 6.37118 16.4896 4.97515 14.5268 4.36442C11.4946 3.37995 8.09696 4.44522 6.10183 6.89513C5.41067 7.74383 4.92468 8.728 4.64645 9.78454Z" fill="#576175"/>
</svg>
