<svg width="24" height="24" viewBox="0 0 24 24" fill="none" xmlns="http://www.w3.org/2000/svg">
<path fill-rule="evenodd" clip-rule="evenodd" d="M5.24738 7.51362C5.28536 7.50542 5.32398 7.5011 5.36271 7.50069C5.44786 7.49643 5.53286 7.51194 5.61194 7.54618C5.69103 7.58042 5.76234 7.63258 5.82105 7.69911C5.88037 7.76231 5.92687 7.83806 5.9576 7.92159C5.98833 8.00513 6.00264 8.09461 5.9996 8.1844V15.8271C6.00033 15.9165 5.98363 16.0051 5.95059 16.0872C5.91755 16.1693 5.8689 16.243 5.80777 16.3036C5.74582 16.3678 5.67267 16.4182 5.59254 16.4519C5.51241 16.4856 5.42688 16.5019 5.34088 16.4998C5.25832 16.5003 5.17648 16.4832 5.10008 16.4495C5.02368 16.4158 4.95423 16.3662 4.89573 16.3035C4.83462 16.2429 4.78599 16.1692 4.75296 16.0871C4.71993 16.005 4.70325 15.9164 4.70399 15.827V9.0969L4.0309 9.3918C3.90946 9.44604 3.77961 9.47511 3.64815 9.47749C3.47735 9.48213 3.31127 9.41681 3.18344 9.29474L3.18108 9.29249C3.12172 9.23106 3.07496 9.15693 3.04382 9.07486C3.01267 8.9928 2.99783 8.90462 3.00026 8.81601C2.99918 8.68139 3.03469 8.54938 3.1024 8.4362C3.17869 8.31429 3.29182 8.22456 3.42257 8.18225L5.12422 7.55162C5.16417 7.53513 5.20538 7.52242 5.24738 7.51362Z" fill="#576175"/>
<path d="M13.7862 15.3632C13.7205 15.298 13.642 15.2458 13.5551 15.2099C13.4621 15.1723 13.362 15.1535 13.2611 15.1545H10.0626L12.7116 12.3878C12.8957 12.1928 13.0662 11.9864 13.222 11.7699C13.3944 11.5444 13.5379 11.2998 13.6494 11.0413C13.765 10.7992 13.8262 10.5365 13.8291 10.2702C13.8427 9.76021 13.7203 9.25532 13.4737 8.80336C13.2517 8.39637 12.9095 8.06127 12.49 7.84002C12.0302 7.60556 11.5151 7.48875 10.9945 7.50085C10.4598 7.49398 9.93215 7.61874 9.46199 7.86323C9.02111 8.0974 8.65299 8.43976 8.39532 8.85527C8.12845 9.28228 7.99163 9.77249 8.0004 10.2703C8.00042 10.358 8.01958 10.4447 8.05664 10.5248C8.0937 10.6049 8.14784 10.6767 8.21557 10.7355C8.28314 10.7991 8.36315 10.8491 8.451 10.8828C8.53884 10.9165 8.63277 10.9332 8.72736 10.9319C8.82245 10.9347 8.9171 10.9185 9.00538 10.8845C9.09366 10.8506 9.17367 10.7994 9.24039 10.7344C9.30783 10.6756 9.36173 10.604 9.39864 10.5241C9.43556 10.4442 9.45466 10.3577 9.45474 10.2703C9.4512 10.0076 9.51842 9.74849 9.6499 9.51804C9.78118 9.29156 9.97141 9.10162 10.202 8.96673C10.4398 8.82581 10.7144 8.75267 10.9939 8.75586C11.1876 8.74553 11.3812 8.77664 11.5608 8.84693C11.7404 8.91723 11.9015 9.02495 12.0324 9.16232L12.0334 9.16339C12.3062 9.47085 12.4458 9.86691 12.4235 10.2701C12.4159 10.4884 12.3487 10.701 12.2287 10.8866L12.2274 10.8887C12.074 11.15 11.8895 11.3932 11.6775 11.6135L8.20046 15.3534C8.13475 15.4148 8.08305 15.4886 8.04863 15.5702C8.01421 15.6517 7.99782 15.7392 8.0005 15.8272C7.99927 15.915 8.01638 16.0022 8.05081 16.0837C8.08523 16.1651 8.13629 16.2391 8.20097 16.3013L8.20342 16.3035C8.27295 16.3677 8.35505 16.4182 8.44499 16.4519C8.53493 16.4856 8.63093 16.5019 8.72747 16.4998H13.2611C13.3575 16.5018 13.4535 16.4855 13.5434 16.4518C13.6333 16.4181 13.7153 16.3677 13.7848 16.3035C13.8534 16.2429 13.908 16.1692 13.945 16.0871C13.9821 16.005 14.0008 15.9164 14 15.827C14.0004 15.7499 13.9857 15.6735 13.9565 15.6017C13.9185 15.5113 13.8604 15.4299 13.7862 15.3632Z" fill="#576175"/>
<path d="M20.5644 12.3949C20.2782 11.9871 19.8736 11.679 19.4065 11.5132C19.5715 11.425 19.7295 11.324 19.8791 11.2112L19.8808 11.2099C20.0957 11.0418 20.2772 10.8343 20.4158 10.5982C20.567 10.3495 20.6446 10.0623 20.6394 9.77059C20.6453 9.35869 20.526 8.95486 20.2976 8.6135C20.0738 8.26456 19.7593 7.98439 19.3885 7.80357C18.994 7.5975 18.5551 7.49332 18.1109 7.50033C17.6289 7.49371 17.1521 7.60122 16.7188 7.81423C16.3193 8.00065 15.9768 8.29197 15.7271 8.65771C15.4836 9.01885 15.3559 9.44678 15.3614 9.88357C15.357 10.0611 15.42 10.2336 15.5374 10.3658L15.5424 10.3706C15.6018 10.4299 15.6722 10.4768 15.7496 10.5085C15.827 10.5402 15.9099 10.5562 15.9935 10.5555C16.0793 10.5573 16.1645 10.5403 16.2431 10.5055C16.3218 10.4708 16.392 10.4192 16.449 10.3544L16.4509 10.352C16.5677 10.2116 16.6297 10.033 16.6254 9.84972C16.6238 9.64355 16.6903 9.44273 16.8145 9.27905C16.9609 9.0973 17.1477 8.95301 17.3598 8.85795C17.6036 8.74947 17.8676 8.69491 18.134 8.69792C18.4591 8.68406 18.7772 8.79603 19.0232 9.01093C19.132 9.10452 19.2188 9.22122 19.2776 9.35267C19.3365 9.48411 19.3657 9.62706 19.3634 9.77127C19.3654 9.9767 19.3026 10.1774 19.184 10.3444C19.0594 10.5136 18.8999 10.6536 18.7166 10.7545C18.5369 10.85 18.337 10.9001 18.134 10.9006C18.0424 10.8985 17.9512 10.9147 17.8658 10.9482C17.7804 10.9818 17.7025 11.0321 17.6364 11.0962C17.5732 11.1576 17.5234 11.2317 17.4902 11.3136C17.457 11.3956 17.4412 11.4837 17.4437 11.5722C17.4418 11.6617 17.4577 11.7507 17.4904 11.834C17.523 11.9172 17.5719 11.9931 17.634 12.057L17.6364 12.0593C17.7025 12.1235 17.7804 12.1737 17.8658 12.2073C17.9512 12.2409 18.0424 12.2571 18.134 12.255C18.4031 12.2507 18.6678 12.3237 18.8974 12.4655C19.1226 12.6056 19.3074 12.8028 19.4336 13.0375L19.4342 13.0386C19.5682 13.2818 19.636 13.5564 19.631 13.8345C19.6425 14.0375 19.6087 14.2405 19.5319 14.4284C19.4551 14.6164 19.3375 14.7845 19.1876 14.9203C18.8572 15.1881 18.4408 15.3239 18.0176 15.3018C17.706 15.3069 17.3981 15.2336 17.1217 15.0886C16.8675 14.9489 16.6518 14.7476 16.4939 14.5028C16.3429 14.2628 16.2633 13.984 16.2647 13.6996C16.2682 13.6112 16.2543 13.523 16.2238 13.4401C16.1934 13.3571 16.147 13.2811 16.0873 13.2163C16.0303 13.1518 15.9602 13.1005 15.8817 13.066C15.8032 13.0315 15.7182 13.0146 15.6326 13.0165C15.5475 13.0162 15.4633 13.0336 15.3852 13.0678C15.3072 13.102 15.237 13.1521 15.179 13.215C15.119 13.2799 15.0723 13.3561 15.0417 13.4393C15.011 13.5225 14.997 13.611 15.0005 13.6996C14.9947 14.2074 15.1332 14.7062 15.3996 15.137C15.671 15.5624 16.0488 15.9081 16.4948 16.139L16.496 16.1396C16.9903 16.3865 17.5361 16.5099 18.0876 16.4994C18.591 16.5049 19.0886 16.3894 19.539 16.1624L19.5402 16.1617C19.9666 15.9419 20.3311 15.617 20.5999 15.2172C20.8663 14.8109 21.0055 14.3331 20.9997 13.846C21.0081 13.3283 20.8559 12.821 20.5644 12.3949Z" fill="#576175"/>
</svg>
