<svg width="24" height="24" viewBox="0 0 24 24" fill="none" xmlns="http://www.w3.org/2000/svg">
<path fill-rule="evenodd" clip-rule="evenodd" d="M13.9252 8.67068V5.40412H8.90713V8.67068H13.9252ZM7.50301 9.37274V5.40412H5.79675C5.69262 5.40412 5.59275 5.44549 5.51912 5.51912C5.44549 5.59275 5.40412 5.69262 5.40412 5.79675V18.2032C5.40412 18.3074 5.44549 18.4072 5.51912 18.4809C5.59275 18.5545 5.69262 18.5959 5.79675 18.5959H18.2032C18.3074 18.5959 18.4072 18.5545 18.4809 18.4809C18.5545 18.4072 18.5959 18.3074 18.5959 18.2032V8.72936C18.5959 8.6778 18.5857 8.62675 18.566 8.57911C18.5463 8.53147 18.5174 8.48818 18.4809 8.45171L15.3293 5.30014V9.37274C15.3293 9.76049 15.015 10.0748 14.6273 10.0748H8.20507C7.81733 10.0748 7.50301 9.76049 7.50301 9.37274ZM16.477 4.46214L19.5379 7.52296C19.8338 7.81886 20 8.22018 20 8.63864V18.4222C20 19.2936 19.2936 20 18.4222 20H5.57781C4.7064 20 4 19.2936 4 18.4222V5.57781C4 4.7064 4.7064 4 5.57781 4H15.3614C15.7798 4 16.1811 4.16624 16.477 4.46214ZM8.9626 14.3353C8.9626 12.6607 10.3253 11.2979 12 11.2979C13.6747 11.2979 15.0374 12.6607 15.0374 14.3353C15.0374 16.01 13.6747 17.3727 12 17.3727C10.3253 17.3727 8.9626 16.01 8.9626 14.3353ZM10.3667 14.3353C10.3667 15.2361 11.0993 15.9686 12 15.9686C12.9007 15.9686 13.6333 15.2361 13.6333 14.3353C13.6333 13.4346 12.9007 12.7021 12 12.7021C11.0993 12.7021 10.3667 13.4346 10.3667 14.3353Z" fill="#576175"/>
</svg>
