<svg width="24" height="24" viewBox="0 0 24 24" fill="none" xmlns="http://www.w3.org/2000/svg">
<path d="M20.1955 14.2674H17.581C17.0782 14.2674 16.7765 14.6705 16.7765 15.0736V15.6783C15.8715 15.6783 14.9665 15.6783 14.0615 15.6783V15.0736C14.0615 14.5698 13.6592 14.2674 13.257 14.2674H12.6536C12.6536 13.3605 12.6536 12.4535 12.6536 11.5465H14.162C14.6648 11.5465 14.9665 11.1434 14.9665 10.7403V6.3062C14.9665 5.80233 14.5642 5.5 14.162 5.5H9.83799C9.3352 5.5 9.03352 5.9031 9.03352 6.3062V10.6395C9.03352 11.1434 9.3352 11.5465 9.83799 11.5465H11.3464C11.3464 12.4535 11.3464 13.3605 11.3464 14.2674H10.743C10.2402 14.2674 9.83799 14.5698 9.83799 15.0736V15.6783H7.22346V15.0736C7.22346 14.5698 6.82123 14.2674 6.41899 14.2674H3.80447C3.40223 14.2674 3 14.5698 3 15.0736V17.6938C3 18.1977 3.40223 18.5 3.80447 18.5H6.41899C6.92179 18.5 7.22346 18.0969 7.22346 17.6938V17.0891H9.83799V17.6938C9.83799 18.1977 10.2402 18.5 10.6425 18.5H13.257C13.7598 18.5 14.0615 18.0969 14.0615 17.6938V17.0891C14.9665 17.0891 15.8715 17.0891 16.7765 17.0891V17.6938C16.7765 18.1977 17.1788 18.5 17.581 18.5H20.1955C20.6983 18.5 21 18.0969 21 17.6938V15.0736C21 14.5698 20.5978 14.2674 20.1955 14.2674ZM10.4413 6.91085H13.6592V10.1357H10.4413V6.91085ZM5.81564 17.0891H4.40782V15.6783H5.81564V17.0891ZM11.2458 17.0891V15.6783H12.6536V17.0891H11.2458ZM19.5922 17.0891H18.1844V15.6783H19.5922V17.0891Z" fill="#576175"/>
</svg>
