<svg width="24" height="24" viewBox="0 0 24 24" fill="none" xmlns="http://www.w3.org/2000/svg">
<path fill-rule="evenodd" clip-rule="evenodd" d="M12.5061 3.20997L20.7904 11.494C20.8905 11.5941 20.9586 11.7216 20.9863 11.8605C21.0139 11.9993 20.9997 12.1432 20.9455 12.274C20.8913 12.4048 20.7996 12.5166 20.6819 12.5953C20.5642 12.674 20.4258 12.716 20.2842 12.716H19.1592V19.3637C19.1592 20.2659 18.4252 21 17.5228 21H6.47715C5.57483 21 4.84075 20.2659 4.84075 19.3637V12.716H3.71573C3.57417 12.716 3.4358 12.674 3.3181 12.5953C3.2004 12.5166 3.10866 12.4048 3.05449 12.274C3.00031 12.1432 2.98614 11.9993 3.01375 11.8605C3.04136 11.7216 3.10952 11.5941 3.20961 11.494L11.494 3.20984C11.5604 3.14332 11.6393 3.09055 11.7261 3.05454C11.8129 3.01853 11.906 3 12 3C12.094 3 12.1871 3.01853 12.2739 3.05454C12.3607 3.09055 12.4397 3.14345 12.5061 3.20997ZM9.95451 14.5569V19.5682H14.0455V14.5569H9.95451ZM17.7274 10.4555L12 4.72833L6.27261 10.4555V19.5682H8.52265V14.7614C8.52265 13.8592 9.25673 13.1251 10.1591 13.1251H13.8409C14.7433 13.1251 15.4774 13.8592 15.4774 14.7614V19.5682H17.7284L17.7274 10.4555Z" fill="#576175"/>
</svg>
