<svg width="24" height="24" viewBox="0 0 24 24" fill="none" xmlns="http://www.w3.org/2000/svg">
<path fill-rule="evenodd" clip-rule="evenodd" d="M18.1858 10.7304L8.17568 20.7916C8.10464 20.8623 8.01924 20.9175 7.92561 20.9532C7.83185 20.989 7.73162 21.0044 7.63141 20.9989H3.71618C3.52623 20.9989 3.34407 20.9235 3.20977 20.7893C3.07546 20.655 3.00002 20.4729 3.00002 20.2831L3.00002 16.3806L3.00001 16.3794C2.99947 16.2852 3.01753 16.1918 3.05317 16.1046C3.08877 16.0175 3.14141 15.938 3.20769 15.8711L15.8766 3.20742C15.9435 3.14117 16.0228 3.08874 16.11 3.05315C16.1972 3.01753 16.2907 2.99947 16.3849 3.00003L16.3873 3.00001C16.4815 2.99947 16.575 3.01753 16.6622 3.05315C16.7494 3.08872 16.8289 3.14141 16.8958 3.20761L20.7991 7.10932C20.8653 7.17613 20.9176 7.25532 20.9532 7.34237C20.9762 7.3987 20.9919 7.45761 21 7.51765L20.9311 7.56685L20.9429 7.68484C20.9459 7.71408 20.9459 7.74354 20.9429 7.77279L20.9407 7.79531L20.9434 7.81779C20.9491 7.86468 20.9501 7.912 20.9464 7.95904C20.9078 8.03783 20.8577 8.11052 20.7977 8.17474L18.1858 10.7304ZM4.43234 19.5672H7.32751L16.6755 10.2231L13.7803 7.3291L4.43234 16.6732V19.5672ZM14.7887 6.32009L17.6849 9.21511L19.2716 7.61786L16.3866 4.73408L14.7887 6.32009Z" fill="#576175"/>
</svg>
