<svg width="24" height="24" viewBox="0 0 24 24" fill="none" xmlns="http://www.w3.org/2000/svg">
<path d="M8.00542 15.2539C8.00542 15.7161 8.38056 16.0907 8.84332 16.0907H8.94946C9.41221 16.0907 9.78735 15.7161 9.78735 15.2539C9.78735 14.7918 9.41221 14.4172 8.94945 14.4172H8.84332C8.38056 14.4172 8.00542 14.7918 8.00542 15.2539Z" fill="#576175"/>
<path d="M12.4072 8.55972C11.9444 8.55972 11.5693 8.18508 11.5693 7.72294C11.5693 7.2608 11.9444 6.88616 12.4072 6.88616H12.5133C12.9761 6.88616 13.3512 7.2608 13.3512 7.72294C13.3512 8.18508 12.9761 8.55972 12.5133 8.55972H12.4072Z" fill="#576175"/>
<path d="M15.971 8.55972C15.5083 8.55972 15.1331 8.18508 15.1331 7.72294C15.1331 7.2608 15.5083 6.88616 15.971 6.88616H16.0772C16.5399 6.88616 16.9151 7.2608 16.9151 7.72294C16.9151 8.18508 16.5399 8.55972 16.0772 8.55972H15.971Z" fill="#576175"/>
<path d="M15.1331 11.083C15.1331 11.538 15.5025 11.9068 15.958 11.9068H16.0902C16.5457 11.9068 16.9151 11.538 16.9151 11.083C16.9151 10.628 16.5457 10.2592 16.0902 10.2592H15.958C15.5025 10.2592 15.1331 10.628 15.1331 11.083Z" fill="#576175"/>
<path d="M15.971 15.2539C15.5083 15.2539 15.1331 14.8793 15.1331 14.4172C15.1331 13.955 15.5083 13.5804 15.971 13.5804H16.0772C16.5399 13.5804 16.9151 13.955 16.9151 14.4172C16.9151 14.8793 16.5399 15.2539 16.0772 15.2539H15.971Z" fill="#576175"/>
<path fill-rule="evenodd" clip-rule="evenodd" d="M8.08134 9.8624L3.70874 14.2548C3.60919 14.3548 3.54124 14.4824 3.51371 14.6215C3.48617 14.7606 3.50032 14.9048 3.55431 15.0357C3.6083 15.1666 3.69964 15.2784 3.81659 15.3569C3.93354 15.4354 4.07091 15.4772 4.21134 15.4773L4.41611 15.4773V20.2841C4.41611 20.4743 4.49136 20.6566 4.62493 20.7907C4.75845 20.9249 4.93929 21 5.1276 21H19.7885C19.9768 21 20.1577 20.9249 20.2912 20.7907C20.4248 20.6566 20.5 20.4743 20.5 20.2841V4.63636C20.5 3.73294 19.7686 3 18.8722 3H9.70914C8.8127 3 8.08134 3.73294 8.08134 4.63636V9.8624ZM11.7466 19.5682H5.83909V14.1376L8.79283 11.1705L11.7466 14.1376V19.5682ZM19.077 19.5682H13.1695V15.4768L13.3748 15.4773C13.5154 15.4776 13.6529 15.436 13.7701 15.3575C13.8872 15.2791 13.9787 15.1673 14.0327 15.0363C14.0867 14.9052 14.1008 14.7609 14.0731 14.6218C14.0454 14.4826 13.9772 14.355 13.8773 14.2551L9.50432 9.8624V4.43182H19.077V19.5682Z" fill="#576175"/>
</svg>
