<svg width="24" height="24" viewBox="0 0 24 24" fill="none" xmlns="http://www.w3.org/2000/svg">
<path fill-rule="evenodd" clip-rule="evenodd" d="M3 8.25608H4.41523V9.58337H3V8.25608ZM3 11.395H4.41523V12.7222H3V11.395ZM3.00539 6.4445C3.06779 5.74624 3.66452 5.17761 4.41523 5.12171V6.4445H3.00539ZM9.63391 17.6727H11.0491V19H9.63391V17.6727ZM3 14.5338H4.41523V15.8611H3V14.5338ZM4.41523 18.9955C3.66452 18.9396 3.06779 18.371 3.00539 17.6727H4.41523V18.9955ZM21 9.58337H14.4606C13.6268 9.58337 12.9509 8.9118 12.9509 8.08337V5.1172H19.4631C20.314 5.1172 21 5.77495 21 6.56557V9.58337ZM19.5848 14.5338H21V15.8611H19.5848V14.5338ZM9.63391 5.1172H11.0491V6.4445H9.63391V5.1172ZM6.31695 17.6727H7.73219V19H6.31695V17.6727ZM6.31695 5.1172H7.73219V6.4445H6.31695V5.1172ZM19.5848 18.9955V17.6727H20.9946C20.9322 18.371 20.3355 18.9396 19.5848 18.9955ZM19.5848 11.395H21V12.7222H19.5848V11.395ZM12.9509 19V17.6727H14.3661V19H12.9509ZM16.2678 19V17.6727H17.683V19H16.2678Z" fill="#576175"/>
</svg>
