<svg width="24" height="24" viewBox="0 0 24 24" fill="none" xmlns="http://www.w3.org/2000/svg">
<path d="M14.0128 12.2982C14.0472 12.1263 14.2003 12.0014 14.3784 12.0014V11.9951H14.8722C15.1159 11.9951 15.294 12.2232 15.2347 12.4607C15.1003 12.9918 14.8065 14.1509 14.1565 16.7098C14.1159 16.8785 13.9659 16.9941 13.794 16.9941H13.0222C12.8503 16.9941 12.7003 16.8754 12.6597 16.7098C12.5014 16.0857 12.1375 14.6282 12.1029 14.4896L12.1003 14.479L12.0097 13.9385C11.994 14.1041 11.9628 14.2853 11.9159 14.479L11.3565 16.7098C11.3159 16.8785 11.1659 16.9941 10.994 16.9941H10.2065C10.0315 16.9941 9.88153 16.8785 9.84091 16.7098C9.74646 16.3249 9.5696 15.5995 9.38224 14.831C9.16665 13.9468 8.93717 13.0056 8.80341 12.4607C8.74716 12.2263 8.92528 11.9982 9.16903 11.9982H9.69403C9.87528 11.9982 10.0284 12.1263 10.0628 12.3013C10.0965 12.4748 10.1426 12.7102 10.1942 12.9742C10.3815 13.932 10.6425 15.2671 10.6597 15.3945C10.6678 15.4406 10.6712 15.4796 10.674 15.5116C10.6745 15.5165 10.6749 15.5212 10.6753 15.5257C10.6775 15.5044 10.6795 15.4858 10.6818 15.4673C10.7044 15.2811 10.7569 15.0985 11.4503 12.2857C11.494 12.1201 11.644 12.0014 11.8159 12.0014H12.2315C12.4065 12.0014 12.5565 12.1201 12.5972 12.2888C13.2773 15.1253 13.3096 15.2416 13.3288 15.3601C13.3307 15.3717 13.3324 15.3833 13.3347 15.3976C13.3405 15.4309 13.3452 15.4606 13.3494 15.4873C13.3519 15.5031 13.3542 15.518 13.3565 15.5319C13.3583 15.5083 13.3598 15.4876 13.3617 15.4668C13.3798 15.2651 13.429 15.0662 14.0128 12.2982Z" fill="#576175"/>
<path fill-rule="evenodd" clip-rule="evenodd" d="M17.5708 7.06643L14.9268 4.42858C14.6526 4.15495 14.2809 4 13.8942 4H7.46233C6.65491 4.00309 6 4.65666 6 5.46197V18.5412C6 19.3465 6.65496 20 7.46223 20H16.5382C17.3454 20 18.0004 19.3465 18.0004 18.5412V8.09982C18.0004 7.7139 17.845 7.33998 17.5708 7.06643ZM16.537 8.02752H13.9666V5.46313L16.537 8.02752ZM7.41181 18.5915V5.41165H12.5548V8.73177C12.5548 9.12213 12.8694 9.43603 13.2607 9.43603H16.5886V18.5915H7.41181Z" fill="#576175"/>
</svg>
