<svg width="24" height="24" viewBox="0 0 24 24" fill="none" xmlns="http://www.w3.org/2000/svg">
<path fill-rule="evenodd" clip-rule="evenodd" d="M20.9647 9.57386L20.9747 9.62673C21.009 9.79695 21.0086 9.97209 20.9743 10.1423L20.9643 10.1952C20.9286 10.3538 20.8657 10.5053 20.7783 10.6432C20.7601 10.6724 20.7406 10.7005 20.7205 10.7286C20.6746 10.7935 20.6233 10.8547 20.5673 10.9115L16.0526 15.3426C15.8456 15.5454 15.5819 15.6835 15.295 15.7394C15.008 15.7953 14.7106 15.7665 14.4404 15.6566C14.1701 15.5467 13.9391 15.3606 13.7765 15.122C13.6139 14.8833 13.527 14.6027 13.5267 14.3156V12.6336L13.4994 12.6356C11.8793 12.7587 11.0553 13.0068 10.7438 13.4655C10.4661 13.8742 10.6233 14.4435 10.8403 15.0916C10.9408 15.3737 10.9477 15.6798 10.86 15.9661C10.7724 16.2523 10.5947 16.5039 10.3524 16.685C10.1137 16.8719 9.82164 16.9813 9.51674 16.9978C9.21184 17.0143 8.90926 16.9373 8.65105 16.7773C7.85212 16.3313 7.18676 15.6869 6.72176 14.9088C6.25676 14.1307 6.00847 13.2463 6.00181 12.3442C5.96935 11.2264 6.37452 10.1388 7.134 9.30514C7.84339 8.58252 8.73725 8.05985 9.72244 7.79159C10.9531 7.44915 12.2235 7.26349 13.5024 7.23919L13.5268 7.2382V5.45407C13.5237 5.16677 13.609 4.88524 13.7716 4.64631C13.9342 4.40737 14.1664 4.22216 14.438 4.11491C14.6214 4.03952 14.8182 4.00046 15.017 4C15.2099 4.00047 15.4007 4.0385 15.5785 4.11187C15.7563 4.18524 15.9174 4.29251 16.0527 4.42745L20.5677 8.8575C20.6237 8.91432 20.675 8.9755 20.7209 9.04046C20.7414 9.06852 20.7605 9.09629 20.7787 9.12583C20.8661 9.26375 20.929 9.41525 20.9647 9.57386ZM14.9808 11.1449V14.3751L19.5563 9.88452L14.9808 5.39391V8.63201C13.2767 8.57223 11.5735 8.77271 9.93213 9.22626C9.21662 9.3864 8.57943 9.78419 8.12837 10.3524C7.6773 10.9205 7.44005 11.6242 7.45675 12.3442C7.4736 13.0022 7.6634 13.6447 8.00776 14.2095C8.35211 14.7742 8.83934 15.2421 9.42216 15.5676L9.48096 15.6031L9.45938 15.5387C9.25904 15.1045 9.15467 14.6335 9.15314 14.1569C9.15162 13.6802 9.25298 13.2086 9.45056 12.7732C9.7172 12.4014 10.0613 12.0895 10.46 11.8582C10.8587 11.6268 11.3029 11.4811 11.7633 11.431C12.8238 11.2335 13.9014 11.1377 14.9808 11.1449Z" fill="#576175"/>
<path d="M16.9524 17.0068C16.9839 17.0609 17.0004 17.1225 17 17.1851V18.521C16.9997 18.9134 16.8437 19.2897 16.5662 19.5672C16.2887 19.8446 15.9125 20.0007 15.5201 20.001H4.48042C4.08796 20.0007 3.71166 19.8447 3.4341 19.5672C3.15655 19.2898 3.00043 18.9135 3 18.521V7.48113C3.00048 7.08866 3.15661 6.71241 3.43415 6.43492C3.71169 6.15744 4.08796 6.00137 4.48042 6.00098H8.61999C8.71309 6.00116 8.80233 6.03823 8.86816 6.10407C8.934 6.1699 8.97107 6.25914 8.97125 6.35225V6.49275C8.97127 6.53142 8.96497 6.56983 8.95258 6.60646C8.93604 6.6544 8.90936 6.69821 8.87436 6.73491C8.83935 6.77161 8.79686 6.80034 8.74976 6.81913C8.68803 6.84292 8.62722 6.86811 8.567 6.8931C8.49986 6.9206 8.43372 6.9495 8.36808 6.97841C8.21172 7.04796 8.05637 7.12353 7.90643 7.20382C7.89925 7.20767 7.89206 7.21152 7.88486 7.21537C7.84172 7.23846 7.79829 7.26171 7.75589 7.28562C7.6869 7.32423 7.61896 7.3636 7.55205 7.40375C7.49683 7.43789 7.43322 7.45603 7.36829 7.45614H4.66859C4.64057 7.45604 4.61281 7.46149 4.58691 7.47217C4.56101 7.48285 4.53747 7.49855 4.51766 7.51837C4.49784 7.53818 4.48215 7.56172 4.47147 7.58762C4.46079 7.61352 4.45534 7.64129 4.45543 7.66931V18.3327C4.45539 18.3608 4.46087 18.3885 4.47156 18.4144C4.48226 18.4404 4.49795 18.4639 4.51774 18.4837C4.53754 18.5036 4.56105 18.5193 4.58693 18.5301C4.61282 18.5408 4.64057 18.5464 4.66859 18.5464H15.3319C15.3885 18.5463 15.4428 18.5237 15.4828 18.4837C15.5229 18.4436 15.5454 18.3894 15.5456 18.3327V17.5183C15.5458 17.4419 15.5709 17.3677 15.617 17.3069C15.6632 17.2461 15.7279 17.2019 15.8014 17.1812C15.8593 17.1645 15.9147 17.146 15.9749 17.1244L15.984 17.1209C16.0268 17.1048 16.0807 17.0844 16.1337 17.0606C16.1877 17.0371 16.2441 17.0094 16.3043 16.9793C16.3561 16.9518 16.41 16.9204 16.4649 16.8861C16.518 16.853 16.579 16.8347 16.6416 16.8332C16.7042 16.8317 16.7661 16.847 16.8207 16.8776C16.8754 16.9081 16.9209 16.9527 16.9524 17.0068Z" fill="#576175"/>
</svg>
