<svg width="24" height="24" viewBox="0 0 24 24" fill="none" xmlns="http://www.w3.org/2000/svg">
<path fill-rule="evenodd" clip-rule="evenodd" d="M11.8242 3.06026C11.9141 3.09969 11.9949 3.15719 12.0617 3.22921L20.7912 11.9449C20.9207 12.0815 20.9951 12.2614 21 12.4497C21.0003 12.5433 20.9822 12.6362 20.9468 12.7229C20.9113 12.81 20.8585 12.8896 20.7923 12.9565L12.9602 20.7925C12.8934 20.8588 12.8141 20.9112 12.727 20.9468C12.6401 20.9824 12.547 21.0004 12.4531 21C12.2621 20.9971 12.0791 20.9226 11.9404 20.7911L3.20893 12.046C3.07758 11.9074 3.00301 11.7245 3.00002 11.5334L3.00002 6.00945L3.00001 6.00827C2.99947 5.91398 3.01753 5.82051 3.05317 5.73322C3.08873 5.64612 3.14108 5.56689 3.20724 5.50004L5.50778 3.20756C5.57464 3.14125 5.65392 3.08878 5.74106 3.05317C5.82828 3.01753 5.92167 2.99947 6.01587 3.00001H11.5394C11.6375 3.00037 11.7344 3.02088 11.8242 3.06026ZM4.43183 11.2512L12.451 19.2839L19.2662 12.4557L11.2379 4.43275H6.30048L4.43183 6.30233V11.2512ZM7.00004 6.80437C7.11777 6.72567 7.25616 6.68367 7.39774 6.68367C7.58757 6.68367 7.76966 6.75912 7.90392 6.89345C8.03819 7.02779 8.11364 7.21001 8.11364 7.40003C8.11364 7.54174 8.07164 7.68026 7.99296 7.79807C7.91429 7.91587 7.80247 8.00768 7.67167 8.06189C7.54086 8.11609 7.39694 8.13028 7.25809 8.10264C7.11924 8.07501 6.99168 8.0068 6.89155 7.90662C6.79142 7.80644 6.72322 7.67879 6.69559 7.53981C6.66796 7.40083 6.68214 7.25677 6.73634 7.12586C6.79053 6.99495 6.88231 6.88307 7.00004 6.80437Z" fill="#576175"/>
</svg>
