<svg width="20" height="20" viewBox="0 0 20 20" fill="none" xmlns="http://www.w3.org/2000/svg">
<path d="M14.3998 5.6998C14.3998 5.1998 13.9998 4.7998 13.4998 4.7998H5.7998L8.5998 6.0998C3.4998 11.6998 8.9998 15.7998 8.9998 15.7998C8.5998 11.1998 12.9998 9.6998 12.9998 9.6998L14.3998 12.3998V5.6998Z" fill="#576175"/>
<path fill-rule="evenodd" clip-rule="evenodd" d="M2.6 1H17.4C18.3 1 19 1.7 19 2.6V17.4C19 18.3 18.3 19 17.4 19H2.6C1.7 19 1 18.3 1 17.4V2.6C1 1.7 1.7 1 2.6 1ZM17.6 2.6C17.6 2.5 17.5 2.4 17.4 2.4H2.6C2.5 2.4 2.4 2.5 2.4 2.6V17.4C2.4 17.5 2.5 17.6 2.6 17.6H17.4C17.5 17.6 17.6 17.5 17.6 17.4V2.6Z" fill="#576175"/>
</svg>
