<svg width="20" height="20" viewBox="0 0 20 20" fill="none" xmlns="http://www.w3.org/2000/svg">
<path d="M6.09842 7H13.9016C14.1637 7 14.3452 6.85799 14.446 6.57396C14.5468 6.26627 14.5065 6.00592 14.325 5.7929L10.4234 1.21302C10.3024 1.07101 10.1613 1 10 1C9.83869 1 9.69755 1.07101 9.57657 1.21302L5.67499 5.7929C5.49352 6.00592 5.45319 6.26627 5.55401 6.57396C5.65482 6.85799 5.83629 7 6.09842 7Z" fill="#576175"/>
<path d="M13.9016 13H6.09842C5.83629 13 5.65482 13.1538 5.55401 13.4615C5.45319 13.7456 5.49352 13.9941 5.67499 14.2071L9.57657 18.787C9.69755 18.929 9.83869 19 10 19C10.1613 19 10.3024 18.929 10.4234 18.787L14.325 14.2071C14.5065 13.9941 14.5468 13.7456 14.446 13.4615C14.3452 13.1538 14.1637 13 13.9016 13Z" fill="#576175"/>
</svg>
