<svg width="20" height="20" viewBox="0 0 20 20" fill="none" xmlns="http://www.w3.org/2000/svg">
    <path fill-rule="evenodd" clip-rule="evenodd" d="M2.55123 16.4273H17.4487C18.1276 16.4273 18.7772 16.1512 19.2552 15.6618C19.7329 15.1727 20 14.5108 20 13.8221V4.10532C20 3.41663 19.7329 2.75471 19.2552 2.26556C18.7772 1.77618 18.1276 1.5 17.4487 1.5H2.55123C1.87242 1.5 1.22276 1.77618 0.744825 2.26556C0.267119 2.75471 0 3.41663 0 4.10532V13.8221C0 14.5108 0.267119 15.1727 0.744825 15.6618C1.22276 16.1512 1.87242 16.4273 2.55123 16.4273ZM5.79055 17.6478C5.6762 17.6478 5.56785 17.6943 5.48905 17.775C5.41045 17.8555 5.36755 17.9632 5.36755 18.0739C5.36755 18.1846 5.41045 18.2922 5.48905 18.3727C5.56785 18.4534 5.6762 18.5 5.79055 18.5H14.2094C14.3238 18.5 14.4322 18.4534 14.511 18.3727C14.5896 18.2922 14.6325 18.1846 14.6325 18.0739C14.6325 17.9632 14.5896 17.8555 14.511 17.775C14.4322 17.6943 14.3238 17.6478 14.2094 17.6478H5.79055ZM19.1539 13.8221C19.1539 14.2893 18.9726 14.7359 18.6521 15.0641C18.3318 15.3921 17.8988 15.5751 17.4487 15.5751H2.55123C2.10118 15.5751 1.6682 15.3921 1.34789 15.0641C1.02737 14.7359 0.846035 14.2893 0.846035 13.8221V4.10532C0.846035 3.63808 1.02737 3.19143 1.34789 2.86323C1.6682 2.53526 2.10118 2.35226 2.55123 2.35226H17.4487C17.8988 2.35226 18.3318 2.53526 18.6521 2.86323C18.9726 3.19144 19.1539 3.63808 19.1539 4.10532V13.8221Z" fill="#626D84"/>
    <path fill-rule="evenodd" clip-rule="evenodd" d="M16.659 11.3124C16.6839 11.3431 16.7043 11.3775 16.7186 11.4144C16.7415 11.4716 16.7527 11.533 16.7502 11.5945C16.749 11.6252 16.7446 11.6553 16.7372 11.6849C16.7297 11.7156 16.7186 11.7451 16.7043 11.7734L16.2039 12.597C16.1493 12.6831 16.0662 12.7489 15.9682 12.7821C15.8708 12.8146 15.7648 12.814 15.6681 12.779L15.6377 12.7679L15.3193 12.6257C15.2785 12.6075 15.2308 12.6103 15.1928 12.6333L15.1775 12.6425L15.1489 12.6583C15.1127 12.6781 15.0888 12.7131 15.0845 12.7524L15.0461 13.106C15.0448 13.1576 15.033 13.2086 15.0107 13.256C14.9884 13.3051 14.9561 13.35 14.9158 13.3869C14.8755 13.4244 14.8284 13.4539 14.7769 13.473C14.7465 13.484 14.7155 13.492 14.6839 13.4963C14.664 13.4988 14.6436 13.5 14.6231 13.5H13.6544C13.6079 13.4988 13.562 13.4908 13.5186 13.476C13.4603 13.4564 13.4064 13.4244 13.3605 13.382C13.3096 13.3347 13.2712 13.2769 13.2483 13.2129L13.2402 13.1859C13.2321 13.1589 13.2272 13.1306 13.2247 13.1017L13.187 12.753C13.1826 12.7127 13.1574 12.6772 13.1204 12.6567C13.1039 12.6475 13.0878 12.6383 13.0721 12.629C13.0378 12.608 12.9944 12.6052 12.9574 12.6216L12.6107 12.7753C12.5115 12.8128 12.4024 12.8146 12.3025 12.7808C12.2052 12.7482 12.1227 12.6831 12.0687 12.597L11.5714 11.7814C11.5466 11.7316 11.5317 11.6781 11.5274 11.6234C11.5243 11.584 11.5261 11.5441 11.5336 11.5048C11.5522 11.4107 11.6011 11.3253 11.6731 11.2613L11.7004 11.2386L11.9953 11.0261C12.0282 11.0024 12.0473 10.9654 12.0467 10.9263L12.0464 10.9054L12.0467 10.885C12.0473 10.8457 12.028 10.8085 11.9947 10.7848L11.7336 10.5987C11.7284 10.595 11.7229 10.5918 11.7173 10.5887C11.667 10.5613 11.6242 10.523 11.5925 10.477C11.577 10.4543 11.5639 10.4297 11.5534 10.4039C11.5453 10.3836 11.5385 10.3627 11.5336 10.3412C11.5236 10.3018 11.5193 10.2619 11.5205 10.2219C11.5224 10.1734 11.5323 10.126 11.5497 10.0812L11.5664 10.043L12.0669 9.21938C12.1221 9.13271 12.2052 9.06755 12.3025 9.03436C12.3999 9.00116 12.5059 9.00239 12.6027 9.03743L12.6331 9.0485L12.9502 9.18993C12.9919 9.20856 13.0409 9.20472 13.0801 9.18167C13.0936 9.17374 13.107 9.16608 13.1203 9.15864C13.1574 9.13799 13.1826 9.10244 13.187 9.06204L13.2247 8.71042C13.2259 8.68215 13.2296 8.65387 13.2365 8.62621C13.2421 8.60408 13.2501 8.58257 13.26 8.56167C13.2687 8.54261 13.2786 8.52417 13.2904 8.50635C13.3084 8.47807 13.3301 8.45226 13.3549 8.42951C13.3952 8.39202 13.4424 8.36251 13.4945 8.34346C13.5459 8.32502 13.6005 8.3158 13.6551 8.3158H14.6169C14.7267 8.31826 14.8315 8.36067 14.9121 8.43505C14.9599 8.4793 14.9964 8.53339 15.0194 8.5924C15.0343 8.63113 15.0436 8.67231 15.0467 8.71473L15.0838 9.06298C15.0881 9.10353 15.1135 9.13926 15.1508 9.15987C15.1765 9.1741 15.2013 9.18844 15.2253 9.20278C15.243 9.21385 15.2655 9.2154 15.2848 9.20688L15.66 9.0405C15.7152 9.02022 15.7735 9.01039 15.8318 9.01162C15.8783 9.01284 15.9248 9.02084 15.9688 9.03497C16.0656 9.06755 16.148 9.13209 16.202 9.21815L16.6994 10.0344C16.7211 10.0775 16.7353 10.1236 16.7415 10.1703C16.7477 10.217 16.7465 10.2649 16.7372 10.3117C16.7266 10.3633 16.7068 10.4125 16.6795 10.4573C16.6572 10.493 16.6299 10.5262 16.5977 10.5545L16.5704 10.5772L16.2763 10.7878C16.2432 10.8115 16.2241 10.8487 16.2246 10.8879L16.2249 10.9079L16.2246 10.9278C16.2241 10.9671 16.2433 11.0043 16.2765 11.028L16.5362 11.2136C16.5412 11.2171 16.5465 11.2203 16.5518 11.2233C16.5723 11.2347 16.5914 11.2479 16.6094 11.2626C16.6274 11.2779 16.6442 11.2945 16.659 11.3124ZM12.7005 11.0439C12.7014 11.0503 12.7029 11.0567 12.705 11.0629L12.7398 11.1699C12.7558 11.219 12.7379 11.2723 12.6949 11.3038L12.3259 11.5734C12.2741 11.6112 12.2599 11.6792 12.2926 11.7327L12.4691 12.0213C12.5032 12.0771 12.577 12.0987 12.6385 12.0711L13.0278 11.8963C13.0744 11.8754 13.1296 11.8823 13.1689 11.9139L13.2607 11.9879C13.3239 12.0377 13.3909 12.0819 13.4616 12.1207L13.531 12.1557L13.6086 12.1907L13.7146 12.2344C13.7579 12.2522 13.7876 12.2907 13.7924 12.3351L13.8379 12.7584C13.8446 12.8214 13.9009 12.8693 13.968 12.8693H14.3034C14.3705 12.8693 14.4267 12.8214 14.4335 12.7584L14.479 12.3364C14.4838 12.2923 14.5132 12.254 14.5561 12.2361L14.6616 12.192C14.7875 12.1409 14.9053 12.0727 15.0113 11.9891L15.1026 11.9152C15.1418 11.8835 15.197 11.8765 15.2437 11.8974L15.6329 12.0713C15.6944 12.0988 15.7681 12.0771 15.8021 12.0214L15.9783 11.7329C16.0112 11.6791 15.9965 11.6106 15.9441 11.573L15.5817 11.3132C15.5404 11.2836 15.5215 11.2336 15.5337 11.1859L15.5664 11.0585C15.5757 11.0106 15.58 10.9614 15.5781 10.9128C15.5799 10.8654 15.5772 10.8181 15.5702 10.7712C15.5693 10.7652 15.5679 10.7593 15.566 10.7536L15.531 10.646C15.5149 10.5968 15.5329 10.5435 15.576 10.512L15.9447 10.2431C15.9965 10.2053 16.0107 10.1371 15.9779 10.0836L15.8009 9.7948C15.7669 9.73918 15.6933 9.71755 15.6318 9.74507L15.2429 9.91906C15.1963 9.9399 15.1411 9.93297 15.102 9.90138L15.0101 9.8273C14.9431 9.77443 14.8712 9.72771 14.7955 9.68715C14.7521 9.66379 14.7075 9.64289 14.6616 9.62445L14.5556 9.58081C14.5123 9.56297 14.4825 9.52442 14.4778 9.48002L14.4328 9.05694C14.4261 8.99386 14.3698 8.94584 14.3027 8.94584H13.9673C13.9002 8.94584 13.844 8.99376 13.8372 9.05676L13.7918 9.47754C13.787 9.52163 13.7576 9.55993 13.7146 9.57788L13.6092 9.62199C13.5627 9.64105 13.5174 9.66194 13.4734 9.6853C13.4417 9.70251 13.4107 9.72096 13.3803 9.74001C13.3382 9.76644 13.2979 9.79472 13.2594 9.82545L13.1688 9.89877C13.1296 9.93045 13.0744 9.93743 13.0277 9.91659L12.6387 9.74271C12.577 9.71515 12.5033 9.73696 12.4693 9.79279L12.2928 10.0829C12.2601 10.1367 12.2748 10.2052 12.3271 10.2427L12.6894 10.5024C12.7309 10.5322 12.7497 10.5823 12.7373 10.63L12.7044 10.7573C12.6951 10.8052 12.6907 10.8544 12.6926 10.9036C12.6914 10.9507 12.6941 10.9973 12.7005 11.0439Z" fill="#626D84"/>
    <path fill-rule="evenodd" clip-rule="evenodd" d="M10.3402 8.92211C11.0464 8.4316 11.5074 7.62308 11.5074 6.70875C11.5074 5.21275 10.2732 4 8.75065 4C7.22813 4 5.99388 5.21275 5.99388 6.70875C5.99388 7.64612 6.47846 8.47228 7.2149 8.95858C5.65379 9.53687 4.43448 11.0786 4.2527 12.8648C4.22928 13.0948 4.4001 13.3 4.63423 13.323C4.86836 13.346 5.07714 13.1782 5.10056 12.9481C5.33375 10.6568 7.64986 9.00294 9.89456 9.66462C9.89456 9.66462 9.89456 9.66462 10.2796 9.8114C10.6646 9.95817 10.7132 9.54035 10.7808 9.3189C10.868 9.03339 10.5572 8.99369 10.3402 8.92211ZM10.6553 6.70875C10.6553 7.74235 9.80257 8.58024 8.75065 8.58024C7.69872 8.58024 6.84597 7.74235 6.84597 6.70875C6.84597 5.67515 7.69872 4.83725 8.75065 4.83725C9.80257 4.83725 10.6553 5.67515 10.6553 6.70875Z" fill="#626D84"/>
    <path fill-rule="evenodd" clip-rule="evenodd" d="M13.8293 11.5026C13.7669 11.4707 13.7092 11.429 13.6581 11.3784C13.564 11.2848 13.4994 11.1646 13.4734 11.0329C13.4469 10.9017 13.4604 10.7651 13.512 10.6418C13.5423 10.5681 13.5857 10.5012 13.6394 10.4431C13.6555 10.4253 13.6724 10.4089 13.6902 10.393C13.7127 10.3735 13.7361 10.3557 13.7608 10.3393C13.8285 10.2936 13.9043 10.2608 13.9837 10.2431C14.0951 10.2173 14.2109 10.2204 14.3206 10.2515C14.4307 10.2825 14.5313 10.3406 14.6137 10.4209C14.6458 10.4528 14.6744 10.4879 14.6995 10.526C14.7234 10.5624 14.7438 10.601 14.7602 10.6413C14.7802 10.6897 14.7945 10.7398 14.8023 10.7912C14.8079 10.8276 14.8105 10.8644 14.8101 10.9017C14.8101 11.0356 14.7702 11.1664 14.6961 11.2769C14.6211 11.3882 14.5157 11.4742 14.393 11.5248C14.3431 11.5452 14.2911 11.5598 14.2378 11.5678C14.204 11.5731 14.1697 11.5758 14.1354 11.5758C14.0284 11.5762 13.9239 11.5505 13.8293 11.5026Z" fill="#626D84"/>
</svg>
