<svg width="20" height="20" viewBox="0 0 20 20" fill="none" xmlns="http://www.w3.org/2000/svg">
  <path fill-rule="evenodd" clip-rule="evenodd" d="M2.55123 16.4273H17.4487C18.1276 16.4273 18.7772 16.1512 19.2552 15.6618C19.7329 15.1727 20 14.5108 20 13.8221V4.10532C20 3.41663 19.7329 2.75471 19.2552 2.26556C18.7772 1.77618 18.1276 1.5 17.4487 1.5H2.55123C1.87242 1.5 1.22276 1.77618 0.744825 2.26556C0.267119 2.75471 0 3.41663 0 4.10532V13.8221C0 14.5108 0.267119 15.1727 0.744825 15.6618C1.22276 16.1512 1.87242 16.4273 2.55123 16.4273ZM5.79055 17.6478C5.6762 17.6478 5.56785 17.6943 5.48905 17.775C5.41045 17.8555 5.36755 17.9632 5.36755 18.0739C5.36755 18.1846 5.41045 18.2922 5.48905 18.3727C5.56785 18.4534 5.6762 18.5 5.79055 18.5H14.2094C14.3238 18.5 14.4322 18.4534 14.511 18.3727C14.5896 18.2922 14.6325 18.1846 14.6325 18.0739C14.6325 17.9632 14.5896 17.8555 14.511 17.775C14.4322 17.6943 14.3238 17.6478 14.2094 17.6478H5.79055ZM19.1539 13.8221C19.1539 14.2893 18.9726 14.7359 18.6521 15.0641C18.3318 15.3921 17.8988 15.5751 17.4487 15.5751H2.55123C2.10118 15.5751 1.6682 15.3921 1.34789 15.0641C1.02737 14.7359 0.846035 14.2893 0.846035 13.8221V4.10532C0.846035 3.63808 1.02737 3.19143 1.34789 2.86323C1.6682 2.53526 2.10118 2.35226 2.55123 2.35226H17.4487C17.8988 2.35226 18.3318 2.53526 18.6521 2.86323C18.9726 3.19144 19.1539 3.63808 19.1539 4.10532V13.8221Z" fill="#626D84"/>
  <path fill-rule="evenodd" clip-rule="evenodd" d="M14.7101 7.1527C14.7649 7.50143 14.693 7.85865 14.5081 8.1566C14.4224 8.29541 14.3153 8.41902 14.191 8.52262C14.0423 8.64671 13.8724 8.74134 13.69 8.80168L13.6266 8.82279L13.612 8.88948C13.5605 9.12405 13.4679 9.34704 13.3385 9.54752C13.2158 9.73813 13.0632 9.90656 12.8868 10.046C12.7958 10.1179 12.6991 10.1821 12.5979 10.2379C12.5439 10.2675 12.4888 10.2948 12.4325 10.3197C12.3893 10.339 12.3455 10.3566 12.301 10.3726C12.251 10.3908 12.2005 10.407 12.1494 10.4213C12.1014 10.4348 12.0528 10.4466 12.0041 10.4566L11.9251 10.4713C11.8711 10.4803 11.8165 10.4872 11.7614 10.492C11.73 10.4946 11.6985 10.4967 11.667 10.498C11.6369 10.4993 11.6066 10.5 11.5763 10.5H9.90988C9.67229 10.5001 9.43965 10.5697 9.23928 10.7008C9.04141 10.8293 8.8555 10.8672 8.8555 10.8672C8.98994 10.9215 9.11633 10.9948 9.23098 11.0851C9.39256 11.2116 9.5268 11.3712 9.62523 11.5537C9.7907 11.8597 9.84182 12.2171 9.76902 12.5589C9.69288 12.9048 9.49931 13.2115 9.22292 13.4243C9.1104 13.5117 8.98678 13.5828 8.8555 13.6359C8.66879 13.7115 8.46981 13.7503 8.26907 13.75L8.23359 13.7496C8.04478 13.7454 7.8582 13.7068 7.68258 13.6356C7.52953 13.5739 7.38708 13.4875 7.26062 13.3797C6.99458 13.1545 6.81567 12.8393 6.75614 12.4907C6.69965 12.1454 6.76759 11.7907 6.94727 11.4929C7.04195 11.3356 7.16388 11.1974 7.30703 11.0851C7.44051 10.9801 7.58973 10.898 7.74886 10.8421L7.82771 10.8143V7.18827L7.74827 7.16068C7.57492 7.10094 7.41325 7.01014 7.27079 6.89248C7.13891 6.78373 7.02622 6.65254 6.93763 6.50463C6.84991 6.35847 6.78817 6.19751 6.75526 6.02922C6.72081 5.85342 6.71903 5.67253 6.75 5.49605C6.78127 5.31756 6.84489 5.14668 6.93757 4.99227C7.02616 4.84436 7.13885 4.71317 7.27073 4.60442C7.41323 4.48676 7.57493 4.39595 7.74833 4.33621C8.00064 4.24869 8.27028 4.22738 8.53267 4.27423C8.79506 4.32108 9.04184 4.43459 9.25051 4.60442C9.52307 4.82753 9.70803 5.14406 9.77142 5.49587C9.83175 5.84431 9.76498 6.20334 9.58385 6.50451C9.39642 6.81361 9.10952 7.0457 8.77285 7.16056L8.69342 7.18815V10.0504L8.86877 9.947C9.03247 9.85049 9.20817 9.77721 9.39108 9.72918C9.56073 9.68459 9.7351 9.66167 9.91024 9.66093H11.579C11.7159 9.661 11.8519 9.63819 11.9817 9.5934C12.0761 9.56078 12.1664 9.51658 12.2506 9.46176C12.2944 9.43321 12.3363 9.40179 12.3762 9.36772C12.4097 9.33909 12.4417 9.30859 12.4719 9.27638C12.5085 9.23751 12.5424 9.19615 12.5736 9.15259C12.5946 9.1232 12.6142 9.09291 12.6324 9.06191C12.6582 9.01798 12.6812 8.97236 12.7011 8.92535L12.7494 8.8117L12.6371 8.76588C12.6009 8.75108 12.5653 8.73499 12.5305 8.7176C12.5079 8.70636 12.4857 8.69459 12.4638 8.68228C12.4427 8.6704 12.4219 8.65806 12.4014 8.64527C12.3739 8.62808 12.3471 8.61008 12.3209 8.59129C12.2902 8.5693 12.2603 8.54617 12.2313 8.5219C12.2096 8.50375 12.1885 8.48504 12.1678 8.46577C12.1483 8.44749 12.1293 8.42868 12.1107 8.40933C12.0839 8.3815 12.0582 8.35268 12.0336 8.32285C12.0016 8.28392 11.9715 8.24335 11.9434 8.20128C11.9186 8.16406 11.8954 8.12572 11.874 8.08625C11.8582 8.05719 11.8435 8.02774 11.8298 7.99791C11.812 7.95949 11.7961 7.92049 11.7818 7.8809C11.7025 7.66119 11.6769 7.42487 11.7072 7.19264C11.7116 7.15874 11.7173 7.12493 11.7241 7.09123C11.7339 7.04345 11.7459 6.99621 11.7603 6.94969C11.7739 6.90555 11.7895 6.86225 11.807 6.81978C11.8269 6.77197 11.8492 6.72527 11.8739 6.67987C11.8973 6.63716 11.9226 6.59568 11.9499 6.55542C11.9761 6.51668 12.004 6.47931 12.0338 6.44333C12.0693 6.40021 12.1071 6.35914 12.1471 6.32032C12.1812 6.28726 12.2165 6.25599 12.253 6.22652C12.2896 6.19706 12.3273 6.16939 12.3663 6.14352C12.4023 6.11949 12.4393 6.09706 12.4773 6.07623C12.5109 6.05788 12.5449 6.0408 12.5795 6.02501C12.6266 6.00358 12.6746 5.98453 12.7237 5.96785C12.7612 5.9551 12.7991 5.94379 12.8376 5.93391C12.8717 5.92507 12.9064 5.91742 12.9414 5.91094C12.9799 5.90374 13.0188 5.89805 13.0579 5.89379C13.1131 5.88779 13.1686 5.88473 13.224 5.88461C13.2721 5.88549 13.3199 5.88855 13.3674 5.89379C13.4062 5.89803 13.4447 5.90372 13.4829 5.91088C13.5177 5.9174 13.5522 5.92505 13.5864 5.93385C13.6214 5.94289 13.6561 5.9531 13.6903 5.9645C13.7472 5.98347 13.803 6.00574 13.8574 6.03119C13.9825 6.08961 14.0995 6.16492 14.2051 6.25513C14.4732 6.48226 14.6525 6.80093 14.7101 7.1527ZM7.59385 5.75274C7.59389 5.88463 7.63361 6.0133 7.70759 6.12116C7.78211 6.23008 7.88623 6.31407 8.00697 6.36267C8.12853 6.4119 8.26121 6.42473 8.38959 6.39967C8.51754 6.37512 8.63581 6.31302 8.73006 6.22089C8.82355 6.12989 8.8878 6.01181 8.91424 5.8824C8.94052 5.75345 8.92705 5.61931 8.87572 5.49857C8.82409 5.37696 8.73811 5.27403 8.62889 5.20308C8.51888 5.13116 8.39109 5.09308 8.26065 5.09332C8.08588 5.09234 7.91755 5.1609 7.791 5.28458C7.72916 5.34501 7.67982 5.41761 7.64595 5.49805C7.61207 5.57849 7.59435 5.66511 7.59385 5.75274ZM8.92739 12.2498C8.92735 12.1179 8.88763 11.9892 8.81365 11.8813C8.73906 11.7723 8.63483 11.6883 8.51397 11.6398C8.43329 11.607 8.34726 11.5902 8.26047 11.5903C8.21715 11.5903 8.17392 11.5945 8.13136 11.6028C8.00339 11.6273 7.88512 11.6894 7.79088 11.7816C7.69739 11.8726 7.63314 11.9907 7.60671 12.1201C7.58046 12.249 7.59392 12.3832 7.64523 12.5039C7.69686 12.6255 7.78282 12.7284 7.892 12.7994C7.98371 12.859 8.08785 12.8955 8.19594 12.906C8.30403 12.9165 8.413 12.9006 8.51397 12.8597C8.59433 12.8272 8.66777 12.7791 8.73024 12.7179C8.79208 12.6575 8.84141 12.5849 8.87528 12.5044C8.90915 12.424 8.92688 12.3374 8.92739 12.2498ZM13.226 8.04235C13.4007 8.04331 13.5691 7.97476 13.6956 7.8511C13.7574 7.79068 13.8067 7.71811 13.8405 7.63772C13.8744 7.55733 13.8921 7.47076 13.8927 7.38318C13.8926 7.25129 13.8529 7.12263 13.7789 7.01476C13.7043 6.90583 13.6002 6.82186 13.4794 6.7733C13.4188 6.74872 13.3552 6.73309 13.2904 6.72688C13.2692 6.72485 13.2477 6.72383 13.2261 6.72383C13.1828 6.72384 13.1396 6.72801 13.097 6.7363C13.0332 6.74875 12.9713 6.77048 12.9134 6.80083C12.856 6.83095 12.8032 6.86946 12.7565 6.91514C12.7327 6.93859 12.7106 6.96385 12.6905 6.99071C12.6702 7.01776 12.652 7.04639 12.636 7.07635C12.5905 7.16172 12.5645 7.25665 12.5601 7.35389C12.5558 7.45113 12.5731 7.54811 12.6109 7.63741C12.6317 7.68656 12.6584 7.73289 12.6903 7.77535C12.7367 7.83738 12.7934 7.8906 12.8577 7.9326C12.9677 8.00452 13.0955 8.0426 13.226 8.04235Z" fill="#626D84"/>
</svg>
