<svg viewBox="0 0 20 20" xmlns="http://www.w3.org/2000/svg">
    <path d="M2.55123 16.4273H17.4487C18.1276 16.4273 18.7772 16.1512 19.2552 15.6618C19.7329 15.1727 20 14.5108 20 13.8221V4.10532C20 3.41663 19.7329 2.75471 19.2552 2.26556C18.7772 1.77618 18.1276 1.5 17.4487 1.5H2.55123C1.87242 1.5 1.22276 1.77618 0.744825 2.26556C0.267119 2.75471 0 3.41663 0 4.10532V13.8221C0 14.5108 0.267119 15.1727 0.744825 15.6618C1.22276 16.1512 1.87242 16.4273 2.55123 16.4273ZM5.79055 17.6478C5.6762 17.6478 5.56785 17.6943 5.48905 17.775C5.41045 17.8555 5.36755 17.9632 5.36755 18.0739C5.36755 18.1846 5.41045 18.2922 5.48905 18.3727C5.56785 18.4534 5.6762 18.5 5.79055 18.5H14.2094C14.3238 18.5 14.4322 18.4534 14.511 18.3727C14.5896 18.2922 14.6325 18.1846 14.6325 18.0739C14.6325 17.9632 14.5896 17.8555 14.511 17.775C14.4322 17.6943 14.3238 17.6478 14.2094 17.6478H5.79055ZM19.1539 13.8221C19.1539 14.2893 18.9726 14.7359 18.6521 15.0641C18.3318 15.3921 17.8988 15.5751 17.4487 15.5751H2.55123C2.10118 15.5751 1.6682 15.3921 1.34789 15.0641C1.02737 14.7359 0.846035 14.2893 0.846035 13.8221V4.10532C0.846035 3.63808 1.02737 3.19143 1.34789 2.86323C1.6682 2.53526 2.10118 2.35226 2.55123 2.35226H17.4487C17.8988 2.35226 18.3318 2.53526 18.6521 2.86323C18.9726 3.19144 19.1539 3.63808 19.1539 4.10532V13.8221Z" />
    <path d="M6.83523 6.67898H7.66477C7.80284 6.67898 7.91477 6.56705 7.91477 6.42898V4.62784C7.91477 4.52763 7.95458 4.43153 8.02544 4.36067C8.0963 4.28981 8.1924 4.25 8.29261 4.25H14.1222C14.2224 4.25 14.3185 4.28981 14.3893 4.36067C14.4602 4.43153 14.5 4.52763 14.5 4.62784V10.4574C14.5 10.5576 14.4602 10.6537 14.3893 10.7246C14.3185 10.7954 14.2224 10.8352 14.1222 10.8352H12.321C12.183 10.8352 12.071 10.9472 12.071 11.0852V11.9148C12.071 12.015 12.0312 12.1111 11.9604 12.1819C11.8895 12.2528 11.7934 12.2926 11.6932 12.2926H9.89205C9.75397 12.2926 9.64205 12.4045 9.64205 12.5426V13.3722C9.64205 13.4724 9.60224 13.5685 9.53138 13.6393C9.46052 13.7102 9.36441 13.75 9.2642 13.75H5.37784C5.27763 13.75 5.18153 13.7102 5.11067 13.6393C5.03981 13.5685 5 13.4724 5 13.3722V9.4858C5 9.38559 5.03981 9.28948 5.11067 9.21862C5.18153 9.14776 5.27763 9.10795 5.37784 9.10795H6.20739C6.34546 9.10795 6.45739 8.99603 6.45739 8.85795V7.05682C6.45739 6.95661 6.49719 6.8605 6.56805 6.78964C6.63891 6.71879 6.73502 6.67898 6.83523 6.67898ZM5.75568 12.7443C5.75568 12.8824 5.86761 12.9943 6.00568 12.9943H8.63636C8.77444 12.9943 8.88636 12.8824 8.88636 12.7443V10.1136C8.88636 9.97556 8.77444 9.86364 8.63636 9.86364H6.00568C5.86761 9.86364 5.75568 9.97556 5.75568 10.1136V12.7443ZM9.64205 11.2869C9.64205 11.425 9.75397 11.5369 9.89205 11.5369H11.0653C11.2034 11.5369 11.3153 11.425 11.3153 11.2869V7.68466C11.3153 7.54659 11.2034 7.43466 11.0653 7.43466H7.46307C7.325 7.43466 7.21307 7.54659 7.21307 7.68466V8.85795C7.21307 8.99603 7.325 9.10795 7.46307 9.10795H9.2642C9.36441 9.10795 9.46052 9.14776 9.53138 9.21862C9.60224 9.28948 9.64205 9.38559 9.64205 9.4858V11.2869ZM12.071 9.82955C12.071 9.96762 12.183 10.0795 12.321 10.0795H13.4943C13.6324 10.0795 13.7443 9.96762 13.7443 9.82955V5.25568C13.7443 5.11761 13.6324 5.00568 13.4943 5.00568H8.92045C8.78238 5.00568 8.67045 5.11761 8.67045 5.25568V6.42898C8.67045 6.56705 8.78238 6.67898 8.92045 6.67898H11.6932C11.7934 6.67898 11.8895 6.71879 11.9604 6.78964C12.0312 6.8605 12.071 6.95661 12.071 7.05682V9.82955Z" />
</svg>
