<svg viewBox="0 0 20 20" xmlns="http://www.w3.org/2000/svg">
    <path d="M2.55123 16.4273H17.4487C18.1276 16.4273 18.7772 16.1512 19.2552 15.6618C19.7329 15.1727 20 14.5108 20 13.8221V4.10532C20 3.41663 19.7329 2.75471 19.2552 2.26556C18.7772 1.77618 18.1276 1.5 17.4487 1.5H2.55123C1.87242 1.5 1.22276 1.77618 0.744825 2.26556C0.267119 2.75471 0 3.41663 0 4.10532V13.8221C0 14.5108 0.267119 15.1727 0.744825 15.6618C1.22276 16.1512 1.87242 16.4273 2.55123 16.4273ZM5.79055 17.6478C5.6762 17.6478 5.56785 17.6943 5.48905 17.775C5.41045 17.8555 5.36755 17.9632 5.36755 18.0739C5.36755 18.1846 5.41045 18.2922 5.48905 18.3727C5.56785 18.4534 5.6762 18.5 5.79055 18.5H14.2094C14.3238 18.5 14.4322 18.4534 14.511 18.3727C14.5896 18.2922 14.6325 18.1846 14.6325 18.0739C14.6325 17.9632 14.5896 17.8555 14.511 17.775C14.4322 17.6943 14.3238 17.6478 14.2094 17.6478H5.79055ZM19.1539 13.8221C19.1539 14.2893 18.9726 14.7359 18.6521 15.0641C18.3318 15.3921 17.8988 15.5751 17.4487 15.5751H2.55123C2.10118 15.5751 1.6682 15.3921 1.34789 15.0641C1.02737 14.7359 0.846035 14.2893 0.846035 13.8221V4.10532C0.846035 3.63808 1.02737 3.19143 1.34789 2.86323C1.6682 2.53526 2.10118 2.35226 2.55123 2.35226H17.4487C17.8988 2.35226 18.3318 2.53526 18.6521 2.86323C18.9726 3.19144 19.1539 3.63808 19.1539 4.10532V13.8221Z" />
    <path d="M13.4475 10.3285V9C13.4475 8.89174 13.4045 8.78791 13.3279 8.71136C13.2513 8.63481 13.1475 8.5918 13.0393 8.5918H10.4082V7.67148H11.3025C11.4108 7.67148 11.5146 7.62847 11.5912 7.55192C11.6677 7.47537 11.7107 7.37154 11.7107 7.26328V4.6582C11.7107 4.54994 11.6677 4.44611 11.5912 4.36956C11.5146 4.29301 11.4108 4.25 11.3025 4.25H8.69746C8.5892 4.25 8.48537 4.29301 8.40882 4.36956C8.33227 4.44611 8.28926 4.54994 8.28926 4.6582V7.26328C8.28926 7.37154 8.33227 7.47537 8.40882 7.55192C8.48537 7.62847 8.5892 7.67148 8.69746 7.67148H9.5918V8.5918H6.96074C6.85248 8.5918 6.74865 8.63481 6.6721 8.71136C6.59555 8.78791 6.55254 8.89174 6.55254 9V10.3285H5.6582C5.54994 10.3285 5.44611 10.3715 5.36956 10.4481C5.29301 10.5246 5.25 10.6285 5.25 10.7367V13.3418C5.25 13.4501 5.29301 13.5539 5.36956 13.6304C5.44611 13.707 5.54994 13.75 5.6582 13.75H8.26328C8.37154 13.75 8.47537 13.707 8.55192 13.6304C8.62847 13.5539 8.67148 13.4501 8.67148 13.3418V10.7367C8.67148 10.6285 8.62847 10.5246 8.55192 10.4481C8.47537 10.3715 8.37154 10.3285 8.26328 10.3285H7.36894V9.4082H12.6311V10.3285H11.7367C11.6285 10.3285 11.5246 10.3715 11.4481 10.4481C11.3715 10.5246 11.3285 10.6285 11.3285 10.7367V13.3418C11.3285 13.4501 11.3715 13.5539 11.4481 13.6304C11.5246 13.707 11.6285 13.75 11.7367 13.75H14.3418C14.4501 13.75 14.5539 13.707 14.6304 13.6304C14.707 13.5539 14.75 13.4501 14.75 13.3418V10.7367C14.75 10.6285 14.707 10.5246 14.6304 10.4481C14.5539 10.3715 14.4501 10.3285 14.3418 10.3285H13.4475ZM7.85508 11.1449V12.9336H6.0664V11.1449H7.85508ZM9.10566 6.85508V5.0664H10.8943V6.85508H9.10566ZM12.1449 12.9336V11.1449H13.9336V12.9336H12.1449Z" />
</svg>
