<svg viewBox="0 0 20 20" xmlns="http://www.w3.org/2000/svg">
    <path d="M2.55123 16.4273H17.4487C18.1276 16.4273 18.7772 16.1512 19.2552 15.6618C19.7329 15.1727 20 14.5108 20 13.8221V4.10532C20 3.41663 19.7329 2.75471 19.2552 2.26556C18.7772 1.77618 18.1276 1.5 17.4487 1.5H2.55123C1.87242 1.5 1.22276 1.77618 0.744825 2.26556C0.267119 2.75471 0 3.41663 0 4.10532V13.8221C0 14.5108 0.267119 15.1727 0.744825 15.6618C1.22276 16.1512 1.87242 16.4273 2.55123 16.4273ZM5.79055 17.6478C5.6762 17.6478 5.56785 17.6943 5.48905 17.775C5.41045 17.8555 5.36755 17.9632 5.36755 18.0739C5.36755 18.1846 5.41045 18.2922 5.48905 18.3727C5.56785 18.4534 5.6762 18.5 5.79055 18.5H14.2094C14.3238 18.5 14.4322 18.4534 14.511 18.3727C14.5896 18.2922 14.6325 18.1846 14.6325 18.0739C14.6325 17.9632 14.5896 17.8555 14.511 17.775C14.4322 17.6943 14.3238 17.6478 14.2094 17.6478H5.79055ZM19.1539 13.8221C19.1539 14.2893 18.9726 14.7359 18.6521 15.0641C18.3318 15.3921 17.8988 15.5751 17.4487 15.5751H2.55123C2.10118 15.5751 1.6682 15.3921 1.34789 15.0641C1.02737 14.7359 0.846035 14.2893 0.846035 13.8221V4.10532C0.846035 3.63808 1.02737 3.19143 1.34789 2.86323C1.6682 2.53526 2.10118 2.35226 2.55123 2.35226H17.4487C17.8988 2.35226 18.3318 2.53526 18.6521 2.86323C18.9726 3.19144 19.1539 3.63808 19.1539 4.10532V13.8221Z" />
    <path d="M6.08889 5.14434V9.45922V12.873C6.08889 13.0889 6.16495 13.2592 6.33706 13.3614C6.49167 13.4532 6.66155 13.5 6.84473 13.5H13.4249C13.7218 13.5 13.9771 13.412 14.1858 13.2367C14.3946 13.0615 14.5 12.8466 14.5 12.5963V5.40369C14.5 5.15344 14.3946 4.93853 14.1858 4.76326C13.9771 4.58803 13.7218 4.5 13.4249 4.5H6.85503C6.76728 4.5 6.68474 4.50896 6.60797 4.5276C6.54127 4.54378 6.47931 4.56718 6.4225 4.59795C6.36297 4.63019 6.31091 4.66679 6.26708 4.70803C6.22416 4.74842 6.18951 4.79293 6.1636 4.84145C6.14201 4.88188 6.1251 4.9238 6.11286 4.96716C6.09679 5.02413 6.08889 5.08325 6.08889 5.14434ZM6.92094 12.7383V12.7992H11.5153V5.20082H6.92094V10.6657V11.3578V12.7383ZM13.5959 12.7383C13.6454 12.6967 13.6679 12.6506 13.6679 12.5963V5.40369C13.6679 5.34943 13.6454 5.30328 13.5959 5.26175C13.5464 5.2202 13.4908 5.20082 13.4249 5.20082H12.3473V12.7992H13.4249C13.4908 12.7992 13.5464 12.7798 13.5959 12.7383Z" />
    <path d="M5.8812 9.35526C5.77672 9.35526 5.68508 9.32085 5.61133 9.25235C5.53753 9.1838 5.5 9.09812 5.5 9C5.5 8.93847 5.51671 8.87956 5.54851 8.82418C5.58207 8.76575 5.63094 8.72044 5.69346 8.68947C5.75278 8.66008 5.81566 8.64474 5.8812 8.64474H7.13897C7.19372 8.64474 7.24563 8.65385 7.2931 8.67389C7.3359 8.69196 7.37501 8.71556 7.41018 8.74459C7.45045 8.77784 7.47924 8.8194 7.49652 8.86757C7.51211 8.91099 7.52017 8.95523 7.52017 9C7.52017 9.06589 7.50426 9.12738 7.47048 9.18228C7.43734 9.23616 7.3913 9.27885 7.33361 9.30947C7.27489 9.34064 7.20926 9.35526 7.13897 9.35526H5.8812Z" />
    <path d="M5.8812 7.10526C5.77672 7.10526 5.68508 7.07085 5.61133 7.00235C5.53753 6.9338 5.5 6.84812 5.5 6.75C5.5 6.68847 5.51671 6.62956 5.54851 6.57418C5.58207 6.51575 5.63094 6.47044 5.69346 6.43947C5.75278 6.41008 5.81566 6.39474 5.8812 6.39474H7.13897C7.19372 6.39474 7.24563 6.40385 7.2931 6.42389C7.3359 6.44196 7.37501 6.46556 7.41018 6.49459C7.45045 6.52784 7.47924 6.5694 7.49652 6.61757C7.51211 6.66099 7.52017 6.70523 7.52017 6.75C7.52017 6.81589 7.50426 6.87738 7.47048 6.93228C7.43734 6.98616 7.3913 7.02885 7.33361 7.05947C7.27489 7.09064 7.20926 7.10526 7.13897 7.10526H5.8812Z" />
    <path d="M5.8812 11.6053C5.77672 11.6053 5.68508 11.5708 5.61133 11.5024C5.53753 11.4338 5.5 11.3481 5.5 11.25C5.5 11.1885 5.51671 11.1296 5.54851 11.0742C5.58207 11.0157 5.63094 10.9704 5.69346 10.9395C5.75278 10.9101 5.81566 10.8947 5.8812 10.8947H7.13897C7.19372 10.8947 7.24563 10.9038 7.2931 10.9239C7.3359 10.942 7.37501 10.9656 7.41018 10.9946C7.45045 11.0278 7.47924 11.0694 7.49652 11.1176C7.51211 11.161 7.52017 11.2052 7.52017 11.25C7.52017 11.3159 7.50426 11.3774 7.47048 11.4323C7.43734 11.4862 7.3913 11.5288 7.33361 11.5595C7.27489 11.5906 7.20926 11.6053 7.13897 11.6053H5.8812Z" />
</svg>
