<svg viewBox="0 0 20 20" xmlns="http://www.w3.org/2000/svg">
    <path d="M2.55123 16.4273H17.4487C18.1276 16.4273 18.7772 16.1512 19.2552 15.6618C19.7329 15.1727 20 14.5108 20 13.8221V4.10532C20 3.41663 19.7329 2.75471 19.2552 2.26556C18.7772 1.77618 18.1276 1.5 17.4487 1.5H2.55123C1.87242 1.5 1.22276 1.77618 0.744825 2.26556C0.267119 2.75471 0 3.41663 0 4.10532V13.8221C0 14.5108 0.267119 15.1727 0.744825 15.6618C1.22276 16.1512 1.87242 16.4273 2.55123 16.4273ZM5.79055 17.6478C5.6762 17.6478 5.56785 17.6943 5.48905 17.775C5.41045 17.8555 5.36755 17.9632 5.36755 18.0739C5.36755 18.1846 5.41045 18.2922 5.48905 18.3727C5.56785 18.4534 5.6762 18.5 5.79055 18.5H14.2094C14.3238 18.5 14.4322 18.4534 14.511 18.3727C14.5896 18.2922 14.6325 18.1846 14.6325 18.0739C14.6325 17.9632 14.5896 17.8555 14.511 17.775C14.4322 17.6943 14.3238 17.6478 14.2094 17.6478H5.79055ZM19.1539 13.8221C19.1539 14.2893 18.9726 14.7359 18.6521 15.0641C18.3318 15.3921 17.8988 15.5751 17.4487 15.5751H2.55123C2.10118 15.5751 1.6682 15.3921 1.34789 15.0641C1.02737 14.7359 0.846035 14.2893 0.846035 13.8221V4.10532C0.846035 3.63808 1.02737 3.19143 1.34789 2.86323C1.6682 2.53526 2.10118 2.35226 2.55123 2.35226H17.4487C17.8988 2.35226 18.3318 2.53526 18.6521 2.86323C18.9726 3.19144 19.1539 3.63808 19.1539 4.10532V13.8221Z" />
    <path d="M8.45588 7.6711H9.50392C9.60814 7.6711 9.70879 7.63206 9.78352 7.56153C9.85837 7.49089 9.90098 7.39446 9.90098 7.2933C9.90098 7.19214 9.85837 7.09571 9.78352 7.02507C9.70879 6.95454 9.60814 6.9155 9.50392 6.9155H8.45588C8.35166 6.9155 8.25102 6.95454 8.17628 7.02507C8.10144 7.09571 8.05882 7.19214 8.05882 7.2933C8.05882 7.39446 8.10144 7.49089 8.17628 7.56153C8.25102 7.63206 8.35166 7.6711 8.45588 7.6711Z" />
    <path d="M8.45588 8.85847C8.35166 8.85847 8.25102 8.89751 8.17628 8.96804C8.10144 9.03867 8.05882 9.1351 8.05882 9.23627C8.05882 9.33743 8.10144 9.43386 8.17628 9.50449C8.25102 9.57502 8.35166 9.61407 8.45588 9.61407H11.5441C11.6483 9.61407 11.749 9.57502 11.8237 9.50449C11.8986 9.43386 11.9412 9.33743 11.9412 9.23627C11.9412 9.1351 11.8986 9.03867 11.8237 8.96804C11.749 8.89751 11.6483 8.85847 11.5441 8.85847H8.45588Z" />
    <path d="M8.45588 10.8014C8.35166 10.8014 8.25102 10.8405 8.17628 10.911C8.10144 10.9816 8.05882 11.0781 8.05882 11.1792C8.05882 11.2804 8.10144 11.3768 8.17628 11.4475C8.25102 11.518 8.35166 11.557 8.45588 11.557H11.5441C11.6483 11.557 11.749 11.518 11.8237 11.4475C11.8986 11.3768 11.9412 11.2804 11.9412 11.1792C11.9412 11.0781 11.8986 10.9816 11.8237 10.911C11.749 10.8405 11.6483 10.8014 11.5441 10.8014H8.45588Z" />
    <path d="M14 6.3665C14 6.28415 13.9842 6.20282 13.9537 6.12619C13.9203 6.04235 13.8705 5.96865 13.8044 5.90673C13.3371 5.4692 11.8755 4.13689 11.851 4.11532C11.6987 3.98108 11.4615 4.00105 11.2575 4.00105H7.42647C7.04923 4.00105 6.68675 4.14245 6.41897 4.39516C6.15107 4.64798 6 4.99152 6 5.35033V12.1507C6 12.5095 6.15107 12.8531 6.41897 13.1059C6.68675 13.3586 7.04923 13.5 7.42647 13.5H12.5735C12.9508 13.5 13.3132 13.3586 13.581 13.1059C13.8489 12.8531 14 12.5095 14 12.1507C14 12.1507 14 8.48091 14 6.3665ZM11.4451 4.78361L13.141 6.38778H12.0775C11.9087 6.38778 11.7475 6.32447 11.6291 6.21281C11.5109 6.10126 11.4451 5.95059 11.4451 5.7941V4.78361ZM10.651 4.75665V5.7941C10.651 6.15291 10.8021 6.49645 11.0699 6.74927C11.3377 7.00198 11.7002 7.14338 12.0775 7.14338H13.2059V12.1507C13.2059 12.3072 13.14 12.4579 13.0218 12.5694C12.9035 12.6811 12.7423 12.7444 12.5735 12.7444H7.42647C7.25767 12.7444 7.09648 12.6811 6.97817 12.5694C6.85996 12.4579 6.79412 12.3072 6.79412 12.1507V5.35033C6.79412 5.19384 6.85996 5.04317 6.97817 4.93162C7.09648 4.81996 7.25767 4.75665 7.42647 4.75665H10.651Z" />
</svg>
