<svg viewBox="0 0 20 20" xmlns="http://www.w3.org/2000/svg">
<path d="M2.55123 16.4273H17.4487C18.1276 16.4273 18.7772 16.1512 19.2552 15.6618C19.7329 15.1727 20 14.5108 20 13.8221V4.10532C20 3.41663 19.7329 2.75471 19.2552 2.26556C18.7772 1.77618 18.1276 1.5 17.4487 1.5H2.55123C1.87242 1.5 1.22276 1.77618 0.744825 2.26556C0.267119 2.75471 0 3.41663 0 4.10532V13.8221C0 14.5108 0.267119 15.1727 0.744825 15.6618C1.22276 16.1512 1.87242 16.4273 2.55123 16.4273ZM5.79055 17.6478C5.6762 17.6478 5.56785 17.6943 5.48905 17.775C5.41045 17.8555 5.36755 17.9632 5.36755 18.0739C5.36755 18.1846 5.41045 18.2922 5.48905 18.3727C5.56785 18.4534 5.6762 18.5 5.79055 18.5H14.2094C14.3238 18.5 14.4322 18.4534 14.511 18.3727C14.5896 18.2922 14.6325 18.1846 14.6325 18.0739C14.6325 17.9632 14.5896 17.8555 14.511 17.775C14.4322 17.6943 14.3238 17.6478 14.2094 17.6478H5.79055ZM19.1539 13.8221C19.1539 14.2893 18.9726 14.7359 18.6521 15.0641C18.3318 15.3921 17.8988 15.5751 17.4487 15.5751H2.55123C2.10118 15.5751 1.6682 15.3921 1.34789 15.0641C1.02737 14.7359 0.846035 14.2893 0.846035 13.8221V4.10532C0.846035 3.63808 1.02737 3.19143 1.34789 2.86323C1.6682 2.53526 2.10118 2.35226 2.55123 2.35226H17.4487C17.8988 2.35226 18.3318 2.53526 18.6521 2.86323C18.9726 3.19144 19.1539 3.63808 19.1539 4.10532V13.8221Z" />
<path d="M10.2252 3.7792C10.0574 3.67431 9.83942 3.69914 9.69948 3.83908L8.46327 5.07528C7.55347 4.35209 6.54184 4.28922 5.92323 4.90783C5.30461 5.52644 5.36749 6.53807 6.09068 7.44788L4.94948 8.58908C4.80954 8.72902 4.78471 8.94703 4.8896 9.11485L5.8396 10.6348C5.90824 10.7447 6.02322 10.8172 6.15191 10.8319C6.28059 10.8465 6.40894 10.8017 6.50052 10.7101C7.56038 9.65026 8.41989 9.81054 8.74948 10.1401C9.07906 10.4697 9.23934 11.3292 8.17948 12.3891C8.0879 12.4807 8.04307 12.609 8.05773 12.7377C8.07238 12.8664 8.14492 12.9814 8.25475 13.05L9.77475 14C9.94257 14.1049 10.1606 14.0801 10.3005 13.9401L11.5367 12.7039C12.4465 13.4271 13.4582 13.49 14.0768 12.8714C14.6954 12.2528 14.6325 11.2411 13.9093 10.3313L15.0505 9.19012C15.1905 9.05018 15.2153 8.83217 15.1104 8.66435L14.1604 7.14435C14.0918 7.03452 13.9768 6.96199 13.8481 6.94733C13.7194 6.93267 13.5911 6.9775 13.4995 7.06908C12.4396 8.12894 11.5801 7.96866 11.2505 7.63908C10.9209 7.3095 10.7607 6.44998 11.8205 5.39012C11.9121 5.29854 11.9569 5.17019 11.9423 5.04151C11.9276 4.91282 11.8551 4.79785 11.7452 4.7292L10.2252 3.7792ZM10.8672 5.18277C9.97627 6.30343 9.92494 7.51559 10.6495 8.24012C11.374 8.96465 12.5862 8.91333 13.7068 8.02242L14.2104 8.82815L13.0245 10.0141C12.9448 10.0938 12.9 10.2019 12.9 10.3146C12.9 10.4273 12.9448 10.5354 13.0245 10.6151C13.8468 11.4375 13.6866 12.0595 13.4757 12.2703C13.2649 12.4812 12.6429 12.6414 11.8205 11.8191C11.7408 11.7394 11.6327 11.6946 11.52 11.6946C11.4073 11.6946 11.2992 11.7394 11.2195 11.8191L9.93855 13.1L9.13282 12.5964C10.0237 11.4758 10.0751 10.2636 9.35052 9.53908C8.62598 8.81455 7.41383 8.86587 6.29316 9.75678L5.78959 8.95105L6.97552 7.76512C7.05522 7.68542 7.1 7.57732 7.1 7.4646C7.1 7.35188 7.05522 7.24378 6.97552 7.16408C6.15316 6.34172 6.31343 5.7197 6.52427 5.50887C6.7351 5.29804 7.35712 5.13776 8.17948 5.96012C8.34545 6.12609 8.61455 6.12609 8.78052 5.96012L10.0615 4.67919L10.8672 5.18277Z" />
</svg>
