<svg viewBox="0 0 20 20" xmlns="http://www.w3.org/2000/svg">
<path d="M2.55123 16.4273H17.4487C18.1276 16.4273 18.7772 16.1512 19.2552 15.6618C19.7329 15.1727 20 14.5108 20 13.8221V4.10532C20 3.41663 19.7329 2.75471 19.2552 2.26556C18.7772 1.77618 18.1276 1.5 17.4487 1.5H2.55123C1.87242 1.5 1.22276 1.77618 0.744825 2.26556C0.267119 2.75471 0 3.41663 0 4.10532V13.8221C0 14.5108 0.267119 15.1727 0.744825 15.6618C1.22276 16.1512 1.87242 16.4273 2.55123 16.4273ZM5.79055 17.6478C5.6762 17.6478 5.56785 17.6943 5.48905 17.775C5.41045 17.8555 5.36755 17.9632 5.36755 18.0739C5.36755 18.1846 5.41045 18.2922 5.48905 18.3727C5.56785 18.4534 5.6762 18.5 5.79055 18.5H14.2094C14.3238 18.5 14.4322 18.4534 14.511 18.3727C14.5896 18.2922 14.6325 18.1846 14.6325 18.0739C14.6325 17.9632 14.5896 17.8555 14.511 17.775C14.4322 17.6943 14.3238 17.6478 14.2094 17.6478H5.79055ZM19.1539 13.8221C19.1539 14.2893 18.9726 14.7359 18.6521 15.0641C18.3318 15.3921 17.8988 15.5751 17.4487 15.5751H2.55123C2.10118 15.5751 1.6682 15.3921 1.34789 15.0641C1.02737 14.7359 0.846035 14.2893 0.846035 13.8221V4.10532C0.846035 3.63808 1.02737 3.19143 1.34789 2.86323C1.6682 2.53526 2.10118 2.35226 2.55123 2.35226H17.4487C17.8988 2.35226 18.3318 2.53526 18.6521 2.86323C18.9726 3.19144 19.1539 3.63808 19.1539 4.10532V13.8221Z" />
<path d="M14.5235 8.15828L13.8823 8.61985C13.826 8.6604 13.7944 8.72815 13.797 8.79974C13.8003 8.89289 13.8 8.98599 13.7962 9.07904C13.7934 9.15044 13.8249 9.21817 13.8812 9.25874L14.4755 9.68658C14.4836 9.69243 14.4928 9.69794 14.5032 9.70374C14.7982 9.86821 14.8782 10.2608 14.7207 10.5443L14.7198 10.5459L13.7851 12.0928C13.6055 12.3821 13.2514 12.4607 12.9512 12.3465L12.9484 12.3454L12.2211 12.0183C12.1581 11.9899 12.0841 11.9963 12.024 12.0341C11.9332 12.0914 11.8402 12.1452 11.7453 12.1953C11.6829 12.2282 11.6406 12.2886 11.6334 12.3568L11.5484 13.1542C11.5407 13.4889 11.2471 13.7466 10.9206 13.7397H9.07924C8.75836 13.7302 8.47618 13.4798 8.45259 13.1527L8.36764 12.3558C8.36037 12.2875 8.31807 12.2272 8.25576 12.1943C8.16066 12.1441 8.06761 12.0903 7.97664 12.0329C7.91679 11.9952 7.84305 11.9887 7.78012 12.0168L7.00549 12.3624C6.71845 12.4648 6.3741 12.3466 6.2157 12.0915L6.21539 12.091L5.2642 10.5175C5.15002 10.264 5.21744 9.95122 5.42617 9.76359L5.4299 9.76024L6.12017 9.25479C6.17567 9.21412 6.20666 9.14688 6.20408 9.07592C6.20071 8.983 6.201 8.89006 6.2047 8.79724C6.20757 8.725 6.17525 8.65659 6.1178 8.6162L5.52557 8.19984C5.51756 8.19421 5.50857 8.18891 5.49829 8.18328C5.20115 8.02049 5.12208 7.6181 5.27921 7.33529L5.2801 7.3337L6.21478 5.78682C6.39438 5.49752 6.74851 5.41892 7.04873 5.53314L7.05149 5.53419L7.77883 5.86136C7.84187 5.88971 7.91585 5.88333 7.97588 5.84547C8.06668 5.78821 8.15956 5.73451 8.25448 5.68439C8.31688 5.65144 8.3592 5.59098 8.36639 5.52262L8.45139 4.71443C8.45909 4.37956 8.75326 4.13302 9.07931 4.13994H10.9207C11.2401 4.14936 11.5242 4.38406 11.5473 4.71324L11.6325 5.52468C11.6397 5.59305 11.682 5.65353 11.7444 5.68649C11.8394 5.73665 11.9323 5.79038 12.0232 5.84769C12.0831 5.88548 12.1569 5.89191 12.2199 5.86374L12.9945 5.5172C13.2815 5.41486 13.6258 5.533 13.7842 5.78812L13.7845 5.78863L14.7357 7.36209C14.8673 7.65426 14.7564 7.96175 14.5266 8.1559L14.5235 8.15828ZM12.9824 11.4475L12.1679 11.081C12.0641 11.0342 11.9443 11.0511 11.8551 11.1187C11.5909 11.3189 11.3143 11.4803 11.0116 11.6174C10.9132 11.662 10.8431 11.7545 10.8315 11.8635L10.7386 12.7323C10.7278 12.834 10.642 12.9111 10.5398 12.9111H9.46021C9.35795 12.9111 9.27217 12.8339 9.26133 12.7323L9.1684 11.8604C9.15678 11.7514 9.08667 11.6588 8.9883 11.6142C8.68583 11.4771 8.40825 11.3149 8.14521 11.1158C8.0558 11.0482 7.93571 11.0313 7.83175 11.0784L7.01776 11.447C6.92557 11.4887 6.81673 11.455 6.76425 11.3685L6.20916 10.4532C6.15529 10.3644 6.17839 10.2491 6.26234 10.1879L6.98661 9.6598C7.09163 9.58322 7.13155 9.45043 7.10457 9.32861C7.0451 9.06016 7.0502 8.8021 7.10377 8.52861C7.12693 8.41039 7.08418 8.2853 6.98381 8.21268L6.26324 7.69124C6.17892 7.63023 6.15549 7.51475 6.20936 7.4257L6.76453 6.50793C6.81686 6.42141 6.92553 6.38757 7.01773 6.42906L7.83201 6.79552C7.93585 6.84225 8.05563 6.82534 8.14484 6.7578C8.40826 6.55836 8.6857 6.3963 8.9884 6.25907C9.08672 6.2145 9.15681 6.12201 9.16848 6.01308L9.26125 5.14724C9.27214 5.04561 9.3579 4.96855 9.46011 4.96855H10.5396C10.6419 4.96855 10.7277 5.04576 10.7385 5.1475L10.8306 6.01802C10.8421 6.1271 10.9123 6.21977 11.0107 6.2644C11.3133 6.4016 11.5907 6.56364 11.854 6.76302C11.9432 6.83056 12.063 6.84747 12.1669 6.80074L12.9815 6.4341C13.0736 6.39268 13.182 6.42632 13.2345 6.51253L13.7904 7.42633C13.8445 7.51518 13.8214 7.63062 13.7374 7.69189L13.0133 8.21982C12.9083 8.2964 12.8684 8.42918 12.8954 8.551C12.9548 8.81946 12.9497 9.07752 12.8962 9.351C12.873 9.46923 12.9158 9.59432 13.0161 9.66694L13.7365 10.1882C13.8209 10.2493 13.8443 10.3649 13.7903 10.454L13.2355 11.3688C13.1831 11.4552 13.0745 11.489 12.9824 11.4475ZM8.34839 8.93981C8.3485 8.04739 9.12899 7.33023 9.99947 7.3301C10.8832 7.32103 11.6606 8.03996 11.6511 8.93999C11.6511 9.25838 11.5543 9.56963 11.3728 9.83437C11.0652 10.2832 10.5401 10.5501 9.99915 10.5499C9.1233 10.5496 8.34828 9.82387 8.34839 8.93981ZM10.8011 8.93944C10.8007 8.51483 10.4273 8.15885 10 8.1587C9.57181 8.15855 9.19615 8.50693 9.19886 8.9395C9.20151 9.36172 9.57279 9.72099 9.9992 9.72127L10.0002 9.72127C10.4332 9.73036 10.8106 9.3749 10.8011 8.9405L10.8011 8.93944Z" />
</svg>
