<svg viewBox="0 0 20 20" xmlns="http://www.w3.org/2000/svg">
  <g>
    <path d="M 11.406 3.137 L 10.65 6.152 C 10.65 6.152 11.674 4.906 13.705 4.826 L 14.501 1.68 L 11.406 3.137 Z"/>
    <path d="M 1.064 8.004 L 4.102 6.575 C 4.102 6.575 0.64 14.772 4.346 15.268 C 8.231 15.788 8.246 7.279 12.788 6.019 C 17.875 4.607 19.951 8.748 19.881 10.862 C 19.754 14.681 17.548 16.162 16.797 16.636 C 12.694 19.218 9.68 16.162 9.68 16.162 C 9.68 16.162 10.531 15.007 10.932 14.042 C 11.286 14.503 12.127 15.312 13.792 15.312 C 17.515 15.312 18.912 8.584 14.783 8.218 C 12.102 7.98 10.992 11.425 10.515 12.346 C 9.595 14.124 8.402 17.945 3.723 17.548 C -2.146 17.052 1.064 8.004 1.064 8.004 Z"/>
  </g>
</svg>