<svg width="20" height="20" viewBox="0 0 20 20" fill="none" xmlns="http://www.w3.org/2000/svg">
<path fill-rule="evenodd" clip-rule="evenodd" d="M2.55123 16.4273H17.4487C18.1276 16.4273 18.7772 16.1512 19.2552 15.6618C19.7329 15.1727 20 14.5108 20 13.8221V4.10532C20 3.41663 19.7329 2.75471 19.2552 2.26556C18.7772 1.77618 18.1276 1.5 17.4487 1.5H2.55123C1.87242 1.5 1.22276 1.77618 0.744825 2.26556C0.267119 2.75471 0 3.41663 0 4.10532V13.8221C0 14.5108 0.267119 15.1727 0.744825 15.6618C1.22276 16.1512 1.87242 16.4273 2.55123 16.4273ZM5.79055 17.6478C5.6762 17.6478 5.56785 17.6943 5.48905 17.775C5.41045 17.8555 5.36755 17.9632 5.36755 18.0739C5.36755 18.1846 5.41045 18.2922 5.48905 18.3727C5.56785 18.4534 5.6762 18.5 5.79055 18.5H14.2094C14.3238 18.5 14.4322 18.4534 14.511 18.3727C14.5896 18.2922 14.6325 18.1846 14.6325 18.0739C14.6325 17.9632 14.5896 17.8555 14.511 17.775C14.4322 17.6943 14.3238 17.6478 14.2094 17.6478H5.79055ZM19.1539 13.8221C19.1539 14.2893 18.9726 14.7359 18.6521 15.0641C18.3318 15.3921 17.8988 15.5751 17.4487 15.5751H2.55123C2.10118 15.5751 1.6682 15.3921 1.34789 15.0641C1.02737 14.7359 0.846035 14.2893 0.846035 13.8221V4.10532C0.846035 3.63808 1.02737 3.19143 1.34789 2.86323C1.6682 2.53526 2.10118 2.35226 2.55123 2.35226H17.4487C17.8988 2.35226 18.3318 2.53526 18.6521 2.86323C18.9726 3.19144 19.1539 3.63808 19.1539 4.10532V13.8221Z" fill="#626D84"/>
<path d="M6.56271 6.44115C6.32744 6.20561 5.90542 6.29697 5.76237 6.62885L5.67692 6.82711C4.42701 9.72702 6.95962 12.519 9.90921 11.7293L9.93738 11.7217L11.8542 13.6415C12.004 13.7914 12.2583 13.7869 12.4224 13.6225C12.5865 13.4582 12.5911 13.2035 12.4413 13.0536L10.3661 10.9754C10.264 10.8731 10.1089 10.8384 9.96249 10.8881C7.66897 11.6667 5.60569 9.66882 6.28628 7.44504L6.31089 7.36464L8.43364 9.4874C8.60336 9.65731 8.83694 9.70591 9.02226 9.52037L10.6204 7.92226C10.8059 7.73694 10.7573 7.50336 10.5874 7.33364L8.46464 5.21089L8.54504 5.18628C10.7688 4.50569 12.7667 6.56897 11.9881 8.86249C11.9384 9.00892 11.9731 9.16398 12.0754 9.26611L14.1536 11.3413C14.3035 11.4911 14.5582 11.4865 14.7225 11.3224C14.8869 11.1583 14.8914 10.904 14.7415 10.7542L12.8217 8.83738L12.8293 8.80921C13.619 5.85962 10.827 3.32701 7.92711 4.57692L7.72885 4.66237C7.39697 4.80542 7.30561 5.22744 7.54115 5.46271L9.76074 7.6823L8.7823 8.66074L6.56271 6.44115Z" fill="#626D84"/>
</svg>
