<svg width="20" height="20" viewBox="0 0 20 20" fill="none" xmlns="http://www.w3.org/2000/svg">
<path fill-rule="evenodd" clip-rule="evenodd" d="M12.9994 5.81658V8.65095C12.9994 9.03753 12.686 9.35092 12.2995 9.35092C11.9129 9.35092 11.5995 9.03753 11.5995 8.65095V6.40698H9.62276C8.5347 6.40698 7.66147 5.48178 7.66147 4.41912V2.39945H4.29988C3.82023 2.39945 3.39993 2.82878 3.39993 3.2991V13C3.39993 13.4703 3.82023 13.5998 4.29988 13.5998H6.65417C7.04062 13.5998 7.3539 13.913 7.3539 14.2995C7.3539 14.6859 7.04062 14.9992 6.65417 14.9992H3.96129C2.87323 14.9992 2 14.0627 2 13V2.99922C2 1.93656 2.91183 1 3.9999 1H8.23176C8.34722 1.01687 8.54241 1.09132 8.62399 1.16835L12.8665 5.45847C12.9536 5.55284 12.9838 5.68953 12.9994 5.81658ZM11.1308 5.29378L8.75332 2.88956V4.41912C8.75332 4.88944 9.14312 5.29378 9.62276 5.29378H11.1308Z" fill="#626D84"/>
<path d="M10.5469 10.6511C10.1418 10.6085 9.58621 10.4852 9.41406 10.1326C9.34375 9.98854 9.22656 9.91653 9.0625 9.91653C8.89844 9.91653 8.78125 9.98854 8.71094 10.1326L8.42969 10.6727C8.33594 10.9127 8.16016 11.0207 7.90234 10.9967C7.64453 10.9727 7.48047 10.8407 7.41016 10.6007L6.8125 8.80033L6.42578 9.91653C6.33203 10.2526 6.14453 10.5166 5.86328 10.7087C5.60547 10.9007 5.3125 10.9967 4.98438 10.9967H4.5625C4.39844 10.9967 4.25781 10.9487 4.14062 10.8527C4.04688 10.7327 4 10.5887 4 10.4206C4 10.2526 4.04688 10.1206 4.14062 10.0245C4.25781 9.90453 4.39844 9.84452 4.5625 9.84452H4.98438C5.17188 9.84452 5.30078 9.7485 5.37109 9.55647L6.00391 7.61211C6.14453 7.20404 6.41406 7 6.8125 7C7.21094 7 7.48047 7.20404 7.62109 7.61211L8.11328 9.08838C8.44141 8.80033 8.85156 8.71631 9.34375 8.83633C9.85938 8.93235 10.2227 9.1964 10.4336 9.62848C10.4532 9.66187 10.5057 9.68863 10.5713 9.70986C10.8047 9.78538 11 9.97317 11 10.2185C11 10.4713 10.7983 10.6775 10.5469 10.6511Z" fill="#626D84"/>
<path d="M14 15.5C14.5523 15.5 15 15.0523 15 14.5C15 13.9477 14.5523 13.5 14 13.5C13.4477 13.5 13 13.9477 13 14.5C13 15.0523 13.4477 15.5 14 15.5Z" fill="#626D84"/>
<path fill-rule="evenodd" clip-rule="evenodd" d="M19 14.5C19 16 16 18 14 18C12 18 9 16 9 14.5C9 13 12 11 14 11C16 11 19 13 19 14.5ZM14.0038 16.6C15.6527 16.5977 17.6004 14.8997 17.6004 14.5004C17.6004 13.9239 15.1224 12.4 14 12.4C12.8776 12.4 11.7905 13.0483 10.9835 13.781C10.6246 14.0949 10.4004 14.3733 10.4004 14.5004C10.4004 14.6266 10.6222 14.9022 10.9775 15.2135C11.7746 15.94 12.9176 16.6 14.0004 16.6L14.0038 16.6Z" fill="#626D84"/>
</svg>
