<svg viewBox="0 0 20 20" xmlns="http://www.w3.org/2000/svg">
<path d="M17.0752 5.59694L17.0744 5.59613L13.0486 1.47923L13.0468 1.47742C12.7495 1.17547 12.3325 1.0006 11.9098 1H8.44187L8.43778 1.00001C7.17998 1.00742 6.1402 2.06363 6.13281 3.31766C6.13281 3.34251 6.13297 3.41396 6.13318 3.51087C6.13396 3.86567 6.13549 4.56176 6.13281 4.56176L4.30913 4.56176L4.30496 4.56177C3.04716 4.56918 2.00738 5.6254 2 6.87944V10.3162C2 10.6939 2.30614 11 2.68378 11C3.06164 11 3.36787 10.6935 3.36755 10.3157L3.36475 6.94546C3.36877 6.43413 3.79211 6.00407 4.30496 6H7C7 6 7.01759 8.71177 7.01758 9.25777C7.0285 10.1806 7.79891 10.975 8.7278 10.9863L12 11C12 11 12.0353 16.1714 12.0353 16.6781C12.0353 17.2169 11.6217 17.6211 11.1363 17.6211H10.6894C10.3087 17.6211 10 17.9298 10 18.3106C10 18.6913 10.3087 19 10.6894 19H11.1363C12.414 19 13.4066 17.9429 13.4066 16.6781V15.4382H15.2691C16.5468 15.4382 17.5394 14.3811 17.5394 13.1164V6.73509C17.5394 6.3091 17.3727 5.90021 17.0752 5.59694ZM8.44387 2.37889C8.88941 2.37889 11.1348 2.39362 11.1348 2.39362C11.1348 2.39362 11.1494 5.15 11.1494 5.69601L11.1495 5.70451C11.1605 6.63276 11.9286 7.41321 12.8596 7.42455H16.1681V13.1164C16.1681 13.6552 15.7546 14.0593 15.2691 14.0593H13.4066V10.3017C13.4067 9.87509 13.2406 9.46543 12.9441 9.16042L8.91586 5.04109C8.62016 4.73814 8.20468 4.5624 7.78254 4.56176H7.50405C7.50136 4.56176 7.5029 3.86952 7.50368 3.5166C7.5039 3.42018 7.50405 3.34908 7.50405 3.32435C7.50807 2.81328 7.93116 2.38297 8.44387 2.37889ZM15.5176 6.00391H12.8727C12.6874 5.99983 12.5541 5.83632 12.55 5.64994V3C12.55 3 15.1693 5.64322 15.5176 6.00391ZM11.3849 9.57657C11.3849 9.57657 9.03974 9.6074 8.74089 9.6074C8.55554 9.60332 8.39294 9.43981 8.38888 9.25344L8.38886 9.25234C8.38886 8.94818 8.41993 6.54513 8.41993 6.54513C8.41993 6.54513 11.0371 9.21503 11.3849 9.57657Z" />
<path d="M5.84284 12.8428V15.1572H8.15716C8.38063 15.1572 8.59499 15.246 8.75307 15.404C8.91116 15.562 9 15.7764 9 16C9 16.2236 8.91116 16.438 8.75307 16.596C8.59499 16.754 8.38063 16.8428 8.15716 16.8428H5.84284V19.1572C5.84284 19.3808 5.754 19.5952 5.59592 19.7532C5.43784 19.9112 5.22348 20 5 20C4.77652 20 4.56216 19.9112 4.40408 19.7532C4.246 19.5952 4.15716 19.3808 4.15716 19.1572V16.8428H1.84284C1.61937 16.8428 1.40501 16.754 1.24693 16.596C1.08884 16.438 1 16.2236 1 16C1 15.7764 1.08884 15.562 1.24693 15.404C1.40501 15.246 1.61937 15.1572 1.84284 15.1572H4.15716V12.8428C4.15716 12.6192 4.246 12.4048 4.40408 12.2468C4.56216 12.0888 4.77652 12 5 12C5.22348 12 5.43784 12.0888 5.59592 12.2468C5.754 12.4048 5.84284 12.6192 5.84284 12.8428Z" />
</svg>
