<svg viewBox="0 0 20 20" xmlns="http://www.w3.org/2000/svg">
  <path d="M 13.94 18.08 L 10.967 12.677 C 10.817 12.402 10.438 12.402 10.284 12.677 L 7.307 18.08 C 7.157 18.355 7.346 18.699 7.651 18.699 L 13.6 18.699 C 13.901 18.699 14.094 18.355 13.94 18.08 Z" style=""/>
  <path d="M 13.6 1.328 L 7.647 1.328 C 7.342 1.328 7.153 1.672 7.304 1.947 L 10.28 7.35 C 10.431 7.626 10.809 7.626 10.963 7.35 L 13.936 1.947 C 14.09 1.672 13.901 1.328 13.6 1.328 Z" style=""/>
  <path d="M 12.998 8.994 L 18.947 8.994 C 19.252 8.994 19.441 8.65 19.287 8.374 L 16.31 2.971 C 16.16 2.696 15.781 2.696 15.627 2.971 L 12.654 8.37 C 12.504 8.646 12.693 8.994 12.998 8.994 Z" style=""/>
  <path d="M 8.253 11.038 L 2.3 11.038 C 1.995 11.038 1.806 11.382 1.961 11.657 L 4.937 17.06 C 5.088 17.335 5.466 17.335 5.62 17.06 L 8.597 11.657 C 8.744 11.382 8.554 11.038 8.253 11.038 Z" style=""/>
  <path d="M 18.947 11.038 L 12.998 11.038 C 12.693 11.038 12.504 11.382 12.654 11.657 L 15.631 17.06 C 15.781 17.335 16.16 17.335 16.314 17.06 L 19.29 11.657 C 19.441 11.382 19.248 11.038 18.947 11.038 Z" style=""/>
  <path d="M 3.96 1.555 L 0.304 8.196 C 0.108 8.553 0.355 8.994 0.741 8.994 L 8.056 8.994 C 8.446 8.994 8.69 8.553 8.496 8.196 L 4.841 1.555 C 4.644 1.198 4.157 1.198 3.96 1.555 Z" style=""/>
</svg>