<svg viewBox="0 0 20 20" xmlns="http://www.w3.org/2000/svg">
  <path d="M 5.566 1.845 C 5.568 1.845 5.571 1.845 5.573 1.845 C 7.342 1.845 8.637 1.511 9.774 1.149 C 11.18 0.701 12.634 0.239 14.705 0.239 C 14.708 0.239 14.71 0.239 14.713 0.239 C 16.193 0.24 17.562 0.549 18.765 0.914 L 18.765 11.198 C 18.765 15.849 14.995 19.619 10.344 19.619 C 5.525 19.619 1.619 15.713 1.619 10.895 L 1.619 1.151 C 2.674 1.515 4.047 1.845 5.566 1.845 Z M 13.764 4.084 C 13.203 3.754 12.519 3.416 11.705 3.416 C 10.794 3.416 10.16 3.77 9.651 4.056 C 9.285 4.261 9.035 4.338 8.728 4.338 C 8.062 4.338 7.457 3.719 7.452 3.712 L 7.361 3.619 L 7.267 3.709 L 6.503 4.438 L 6.593 4.533 C 6.689 4.634 7.573 5.524 8.728 5.524 C 9.371 5.524 9.831 5.317 10.231 5.092 C 10.66 4.852 11.104 4.603 11.704 4.603 C 12.233 4.603 12.737 4.858 13.161 5.107 L 13.273 5.173 L 13.876 4.151 L 13.764 4.084 Z M 6.263 12.361 L 6.266 12.361 C 6.343 14.459 8.078 16.144 10.192 16.144 C 12.307 16.144 14.042 14.459 14.119 12.361 L 14.122 12.361 L 14.122 12.231 L 14.122 6.327 L 12.623 6.327 L 12.623 12.215 C 12.623 13.555 11.532 14.645 10.192 14.645 C 8.852 14.645 7.763 13.555 7.763 12.215 L 7.763 6.327 L 6.263 6.327 L 6.263 12.361 Z" />
</svg>