<svg viewBox="0 0 20 20" xmlns="http://www.w3.org/2000/svg">
<path d="M12.9994 8.65095V5.81658C12.9838 5.68953 12.9536 5.55284 12.8665 5.45847L8.62399 1.16835C8.54241 1.09132 8.34722 1.01687 8.23176 1H3.9999C2.91183 1 2 1.93656 2 2.99922V13C2 14.0627 2.87323 14.9992 3.96129 14.9992H6.65417C7.04062 14.9992 7.3539 14.6859 7.3539 14.2995C7.3539 13.913 7.04062 13.5998 6.65417 13.5998H4.29988C3.82023 13.5998 3.39993 13.4703 3.39993 13V3.2991C3.39993 2.82878 3.82023 2.39945 4.29988 2.39945H7.66147V4.41912C7.66147 5.48178 8.5347 6.40698 9.62276 6.40698H11.5995V8.65095C11.5995 9.03753 11.9129 9.35092 12.2995 9.35092C12.686 9.35092 12.9994 9.03753 12.9994 8.65095ZM8.75332 2.88956L11.1308 5.29378H9.62276C9.14312 5.29378 8.75332 4.88944 8.75332 4.41912V2.88956Z" />
<path d="M9.41406 10.1326C9.58621 10.4852 10.1418 10.6085 10.5469 10.6511C10.7983 10.6775 11 10.4713 11 10.2185C11 9.97317 10.8047 9.78538 10.5713 9.70986C10.5057 9.68863 10.4532 9.66187 10.4336 9.62848C10.2227 9.1964 9.85938 8.93235 9.34375 8.83633C8.85156 8.71631 8.44141 8.80033 8.11328 9.08838L7.62109 7.61211C7.48047 7.20404 7.21094 7 6.8125 7C6.41406 7 6.14453 7.20404 6.00391 7.61211L5.37109 9.55647C5.30078 9.7485 5.17188 9.84452 4.98438 9.84452H4.5625C4.39844 9.84452 4.25781 9.90453 4.14062 10.0245C4.04688 10.1206 4 10.2526 4 10.4206C4 10.5887 4.04688 10.7327 4.14062 10.8527C4.25781 10.9487 4.39844 10.9967 4.5625 10.9967H4.98438C5.3125 10.9967 5.60547 10.9007 5.86328 10.7087C6.14453 10.5166 6.33203 10.2526 6.42578 9.91653L6.8125 8.80033L7.41016 10.6007C7.48047 10.8407 7.64453 10.9727 7.90234 10.9967C8.16016 11.0207 8.33594 10.9127 8.42969 10.6727L8.71094 10.1326C8.78125 9.98854 8.89844 9.91653 9.0625 9.91653C9.22656 9.91653 9.34375 9.98854 9.41406 10.1326Z" />
<path d="M13.595 13.4098L13.5957 18.3109C13.5957 18.7677 13.9471 18.9975 14.3003 19C14.6576 19.0025 15.0168 18.7728 15.0168 18.3109L15.0042 13.4098L16.7911 15.2009C17.2943 15.7053 18.0135 15.2062 17.9994 14.6554C17.9954 14.5 17.9331 14.3406 17.7912 14.1983L14.8001 11.2002C14.6639 11.0671 14.4827 11.0004 14.3013 11C14.1188 10.9996 13.9362 11.0663 13.7991 11.2002L10.808 14.1983C10.6661 14.3406 10.6038 14.5 10.5998 14.6554C10.5857 15.2062 11.3049 15.7053 11.8082 15.2009L13.595 13.4098Z" />
</svg>
