<svg width="20" height="20" viewBox="0 0 20 20" fill="none" xmlns="http://www.w3.org/2000/svg">
<path fill-rule="evenodd" clip-rule="evenodd" d="M13.9994 6.81658V9.65095C13.9994 10.0375 13.686 10.3509 13.2995 10.3509C12.9129 10.3509 12.5995 10.0375 12.5995 9.65095V7.40698H10.6228C9.5347 7.40698 8.66147 6.48178 8.66147 5.41912V3.39945H5.29988C4.82023 3.39945 4.39993 3.82878 4.39993 4.2991V13.9953C4.39993 14.4656 4.82023 14.5951 5.29988 14.5951H7.65417C8.04062 14.5951 8.3539 14.9084 8.3539 15.2948C8.3539 15.6813 8.04062 15.9945 7.65417 15.9945H4.96129C3.87323 15.9945 3 15.058 3 13.9953V3.99922C3 2.93656 3.91183 2 4.9999 2H9.23176C9.34722 2.01687 9.54241 2.09132 9.62399 2.16835L13.8665 6.45847C13.9536 6.55284 13.9838 6.68953 13.9994 6.81658ZM12.1308 6.29378L9.75332 3.88956V5.41912C9.75332 5.88944 10.1431 6.29378 10.6228 6.29378H12.1308Z" fill="#626D84"/>
<path d="M13.7129 12.693L13.7066 15.5902L14.7905 14.5062C15.4372 13.8596 16.4397 14.8621 15.7931 15.5088L13.502 17.7998C13.2281 18.0667 12.7725 18.0667 12.4986 17.7998L10.2075 15.5088C9.56088 14.8621 10.5634 13.8596 11.2101 14.5062L12.2941 15.5902L12.2885 12.693C12.2885 11.7742 13.7129 11.7742 13.7129 12.693Z" fill="#626D84"/>
<path d="M11.5469 11.6511C11.1418 11.6085 10.5862 11.4852 10.4141 11.1326C10.3438 10.9885 10.2266 10.9165 10.0625 10.9165C9.89844 10.9165 9.78125 10.9885 9.71094 11.1326L9.42969 11.6727C9.33594 11.9127 9.16016 12.0207 8.90234 11.9967C8.64453 11.9727 8.48047 11.8407 8.41016 11.6007L7.8125 9.80033L7.42578 10.9165C7.33203 11.2526 7.14453 11.5166 6.86328 11.7087C6.60547 11.9007 6.3125 11.9967 5.98438 11.9967H5.5625C5.39844 11.9967 5.25781 11.9487 5.14062 11.8527C5.04688 11.7327 5 11.5887 5 11.4206C5 11.2526 5.04688 11.1206 5.14062 11.0245C5.25781 10.9045 5.39844 10.8445 5.5625 10.8445H5.98438C6.17188 10.8445 6.30078 10.7485 6.37109 10.5565L7.00391 8.61211C7.14453 8.20404 7.41406 8 7.8125 8C8.21094 8 8.48047 8.20404 8.62109 8.61211L9.11328 10.0884C9.44141 9.80033 9.85156 9.71631 10.3438 9.83633C10.8594 9.93235 11.2227 10.1964 11.4336 10.6285C11.4532 10.6619 11.5057 10.6886 11.5713 10.7099C11.8047 10.7854 12 10.9732 12 11.2185C12 11.4713 11.7983 11.6775 11.5469 11.6511Z" fill="#626D84"/>
</svg>
