<svg viewBox="0 0 20 20" xmlns="http://www.w3.org/2000/svg">
  <path d="M 12.372 2.416 C 9.345 2.416 6.731 4.889 6.221 8.199 L 0.142 8.199 L 0.142 17.686 L 7.419 17.686 C 10.465 17.686 13.083 15.193 13.575 11.855 L 19.648 11.855 L 19.648 2.416 L 12.372 2.416 Z M 18.234 3.951 L 18.234 10.275 L 13.661 10.275 L 13.661 3.951 L 18.234 3.951 Z M 1.557 16.106 L 1.557 9.78 L 6.13 9.78 L 6.13 16.106 L 1.557 16.106 Z M 7.657 8.192 C 8.118 5.807 9.948 4.076 12.13 3.957 C 11.666 6.308 9.802 8.072 7.657 8.192 Z M 7.547 9.78 C 9.373 9.737 11.084 8.792 12.245 7.205 L 12.245 10.277 C 10.422 10.318 8.709 11.264 7.547 12.85 L 7.547 9.78 Z M 12.133 11.864 C 11.674 14.249 9.845 15.98 7.661 16.099 C 8.125 13.749 9.989 11.985 12.133 11.864 Z"/>
</svg>