<svg viewBox="0 0 20 20" xmlns="http://www.w3.org/2000/svg">
<path d="M17.0362 5.59613L17.037 5.59694C17.3337 5.90021 17.5001 6.3091 17.5 6.73509V13.1164C17.5 14.3811 16.51 15.4382 15.2355 15.4382H13.3777V16.6781C13.3777 17.9429 12.3876 19 11.1132 19H10.6692C10.2884 19 9.97973 18.6913 9.97973 18.3106C9.97973 17.9298 10.2884 17.6211 10.6692 17.6211H11.1132C11.5974 17.6211 12.0099 17.2169 12.0099 16.6781C12.0099 16.1714 11.9747 11 11.9747 11L8.71076 10.9863C7.78421 10.975 7.01576 10.1806 7.00487 9.25777C7.00487 8.71177 6.98733 6 6.98733 6H4.29912C3.78757 6.00407 3.3653 6.43413 3.36129 6.94546L3.36409 10.3174C3.3644 10.6943 3.05895 11 2.68204 11C2.30536 11 2 10.6946 2 10.318V6.87944C2.00736 5.6254 3.04451 4.56918 4.29912 4.56177L4.30328 4.56176L6.12234 4.56176C6.12501 4.56176 6.12349 3.86567 6.12271 3.51087L6.12234 3.31766C6.12971 2.06363 7.16686 1.00742 8.42147 1.00001L8.42555 1H11.8847C12.3064 1.0006 12.7223 1.17547 13.0188 1.47742L13.0206 1.47923L17.0362 5.59613ZM11.1117 2.39362C11.1117 2.39362 8.87196 2.37889 8.42755 2.37889C7.91614 2.38297 7.49412 2.81328 7.49011 3.32435L7.48974 3.5166C7.48896 3.86952 7.48743 4.56176 7.49011 4.56176H7.76789C8.18896 4.5624 8.60339 4.73814 8.89834 5.04109L12.9163 9.16042C13.2122 9.46543 13.3778 9.87509 13.3777 10.3017V14.0593H15.2355C15.7197 14.0593 16.1322 13.6552 16.1322 13.1164V7.42455H12.8321C11.9035 7.41321 11.1373 6.63276 11.1263 5.70451L11.1262 5.69601C11.1262 5.15 11.1117 2.39362 11.1117 2.39362ZM12.8452 6.00391H15.4834C15.1359 5.64322 12.5233 3 12.5233 3V5.64994C12.5273 5.83632 12.6603 5.99983 12.8452 6.00391ZM8.72381 9.6074C9.02191 9.6074 11.3611 9.57657 11.3611 9.57657C11.0142 9.21503 8.40367 6.54513 8.40367 6.54513C8.40367 6.54513 8.37267 8.94818 8.37267 9.25234L8.3727 9.25344C8.37675 9.43981 8.53893 9.60332 8.72381 9.6074Z" />
<path d="M5.59114 15.2707C5.67851 15.2816 5.76261 15.237 5.79329 15.1636C5.82396 15.0901 5.79295 15.0077 5.71875 14.9653C5.51347 14.8481 5.26597 14.7762 4.99973 14.7762C4.28244 14.7762 3.69341 15.2826 3.69341 15.9144C3.69341 16.5462 4.28244 17.0526 4.99973 17.0526C5.71701 17.0526 6.30604 16.5462 6.30604 15.9144C6.30604 15.7599 6.27049 15.6099 6.20457 15.4746C6.16948 15.4025 6.08253 15.3619 5.99578 15.3771C5.90903 15.3923 5.84595 15.4592 5.84431 15.5377C5.84116 15.688 5.69752 15.8179 5.51593 15.8179C5.32854 15.8179 5.18759 15.6881 5.18759 15.5364C5.18759 15.3837 5.3288 15.2569 5.51134 15.2548C5.51694 15.256 5.52289 15.2574 5.52933 15.2589C5.54586 15.2629 5.56567 15.2676 5.59114 15.2707Z" />
<path d="M0.000511487 16C0.00198291 16.0198 0.00663127 16.0395 0.014486 16.0584C0.256789 16.6446 0.674453 17.1738 1.16278 17.6144C1.93337 18.3097 3.16478 19 4.99993 19C6.82261 19 8.05375 18.3109 8.82704 17.6176C9.21232 17.2722 9.4838 16.9262 9.66012 16.6642L9.71358 16.5853C9.86732 16.3589 9.99521 16.1706 9.99986 16C10.0043 15.8354 9.89971 15.6855 9.75942 15.4846C9.72788 15.4394 9.69454 15.3917 9.66023 15.3406C9.48393 15.0781 9.21247 14.7314 8.82721 14.3853C8.05397 13.6906 6.82278 13 4.99993 13C2.852 13 0.932894 14.1718 0.0222393 15.8975C0.00521144 15.9298 -0.00208506 15.9651 0.000511487 16ZM4.99993 17.8656C2.74793 17.8656 1.73025 16.5604 1.4044 16.0199C1.77577 15.4695 2.89124 14.1344 4.99993 14.1344C7.25848 14.1344 8.28681 15.4667 8.60573 15.9977C8.28755 16.5321 7.25942 17.8656 4.99993 17.8656Z" />
</svg>
