<svg width="20" height="20" viewBox="0 0 20 20" fill="none" xmlns="http://www.w3.org/2000/svg">
<path fill-rule="evenodd" clip-rule="evenodd" d="M12.9994 6.81658V9.65095C12.9994 10.0375 12.686 10.3509 12.2995 10.3509V10.3509C11.9129 10.3509 11.5995 10.0375 11.5995 9.65095V7.40698H9.62276C8.5347 7.40698 7.66147 6.48178 7.66147 5.41912V3.39945H4.29988C3.82023 3.39945 3.39993 3.82878 3.39993 4.2991V13.9953C3.39993 14.4656 3.82023 14.5951 4.29988 14.5951H6.65417C7.04062 14.5951 7.3539 14.9084 7.3539 15.2948V15.2948C7.3539 15.6813 7.04062 15.9945 6.65417 15.9945H3.96129C2.87323 15.9945 2 15.058 2 13.9953V3.99922C2 2.93656 2.91183 2 3.9999 2H8.23176C8.34722 2.01687 8.54241 2.09132 8.62399 2.16835L12.8665 6.45847C12.9536 6.55284 12.9838 6.68953 12.9994 6.81658ZM11.1308 6.29378L8.75332 3.88956V5.41912C8.75332 5.88944 9.14312 6.29378 9.62276 6.29378H11.1308Z" fill="#626D84"/>
<path d="M9.41406 11.0586C9.58774 11.406 10.1517 11.5254 10.5577 11.566C10.8032 11.5905 11 11.3894 11 11.1427C11 10.9032 10.8098 10.7182 10.5806 10.6487C10.5107 10.6276 10.4541 10.6005 10.4336 10.5664C10.2227 10.1445 9.85938 9.88672 9.34375 9.79297C8.85156 9.67578 8.44141 9.75781 8.11328 10.0391L7.62109 8.59766C7.48047 8.19922 7.21094 8 6.8125 8C6.41406 8 6.14453 8.19922 6.00391 8.59766L5.37109 10.4961C5.30078 10.6836 5.17188 10.7773 4.98438 10.7773H4.5625C4.39844 10.7773 4.25781 10.8359 4.14062 10.9531C4.04688 11.0469 4 11.1758 4 11.3398C4 11.5039 4.04688 11.6445 4.14062 11.7617C4.25781 11.8555 4.39844 11.9023 4.5625 11.9023H4.98438C5.3125 11.9023 5.60547 11.8086 5.86328 11.6211C6.14453 11.4336 6.33203 11.1758 6.42578 10.8477L6.8125 9.75781L7.41016 11.5156C7.48047 11.75 7.64453 11.8789 7.90234 11.9023C8.16016 11.9258 8.33594 11.8203 8.42969 11.5859L8.71094 11.0586C8.78125 10.918 8.89844 10.8477 9.0625 10.8477C9.22656 10.8477 9.34375 10.918 9.41406 11.0586Z" fill="#626D84"/>
<path d="M13.9997 13.8C13.3333 13.8 12.697 14.3066 12.697 14.9977C12.697 15.6016 13.3151 16 13.9997 16C14.6852 16 15.3026 15.6406 15.3026 14.9977C15.3026 14.3066 14.6527 13.8 13.9997 13.8Z" fill="#626D84"/>
<path fill-rule="evenodd" clip-rule="evenodd" d="M9.00051 14.9977C9.0152 15.1952 9.18553 15.4227 9.28667 15.5853C10.2814 17.1845 12.1557 18 13.9999 18C15.8975 18 17.6459 17.162 18.7136 15.5853C18.8673 15.3589 18.9952 15.1683 18.9999 14.9977C19.0043 14.8331 18.8997 14.6855 18.7594 14.4846C17.6446 12.8881 15.9708 12 13.9999 12C12.0281 12 10.2491 12.9875 9.26612 14.4846C9.1798 14.6161 8.98791 14.8283 9.00051 14.9977ZM13.9999 16.8656C11.7479 16.8656 10.7303 15.5382 10.4044 14.9977C10.7758 14.4473 11.8912 13.1344 13.9999 13.1344C16.2585 13.1344 17.2868 14.4667 17.6057 14.9977C17.2876 15.5321 16.2594 16.8656 13.9999 16.8656Z" fill="#626D84"/>
</svg>
