<svg viewBox="0 0 20 20" xmlns="http://www.w3.org/2000/svg">
  <path d="M 11.835 11.636 L 11.835 8.802 C 11.82 8.675 11.789 8.538 11.702 8.444 L 7.46 4.153 C 7.378 4.076 7.183 4.002 7.068 3.985 L 2.836 3.985 C 1.748 3.985 0.836 4.922 0.836 5.984 L 0.836 15.985 C 0.836 17.048 1.709 17.984 2.797 17.984 L 5.49 17.984 C 5.876 17.984 6.19 17.671 6.19 17.285 C 6.19 16.898 5.876 16.585 5.49 16.585 L 3.136 16.585 C 2.656 16.585 2.236 16.455 2.236 15.985 L 2.236 6.284 C 2.236 5.814 2.656 5.385 3.136 5.385 L 6.497 5.385 L 6.497 7.404 C 6.497 8.467 7.371 9.392 8.459 9.392 L 10.435 9.392 L 10.435 11.636 C 10.435 12.023 10.749 12.336 11.135 12.336 C 11.522 12.336 11.835 12.023 11.835 11.636 Z M 7.589 5.875 L 9.967 8.279 L 8.459 8.279 C 7.979 8.279 7.589 7.875 7.589 7.404 L 7.589 5.875 Z" />
  <path d="M 14.933 8.771 L 14.933 5.937 C 14.918 5.81 14.887 5.673 14.8 5.579 L 10.558 1.288 C 10.476 1.211 10.281 1.137 10.166 1.12 L 5.934 1.12 C 4.846 1.12 3.934 2.057 3.934 3.119 L 3.964 3.956 C 3.307 3.996 6.17 3.968 5.334 3.956 L 5.334 3.419 C 5.334 2.949 5.754 2.52 6.234 2.52 L 9.595 2.52 L 9.595 4.539 C 9.595 5.602 10.469 6.527 11.557 6.527 L 13.533 6.527 L 13.533 8.771 C 13.533 9.158 13.847 9.471 14.233 9.471 C 14.62 9.471 14.933 9.158 14.933 8.771 Z M 10.687 3.01 L 13.065 5.414 L 11.557 5.414 C 11.077 5.414 10.687 5.01 10.687 4.539 L 10.687 3.01 Z" />
  <path d="M 8.25 13.118 C 8.422 13.47 8.978 13.594 9.383 13.636 C 9.634 13.663 9.836 13.456 9.836 13.204 C 9.836 12.958 9.641 12.77 9.407 12.695 C 9.342 12.674 9.289 12.647 9.269 12.614 C 9.059 12.181 8.695 11.917 8.18 11.821 C 7.687 11.701 7.277 11.785 6.949 12.073 L 6.457 10.597 C 6.316 10.189 6.047 9.985 5.648 9.985 C 5.25 9.985 4.98 10.189 4.84 10.597 L 4.207 12.542 C 4.137 12.734 4.008 12.83 3.82 12.83 L 3.398 12.83 C 3.234 12.83 3.094 12.89 2.976 13.01 C 2.883 13.106 2.836 13.238 2.836 13.406 C 2.836 13.574 2.883 13.718 2.976 13.838 C 3.094 13.934 3.234 13.982 3.398 13.982 L 3.82 13.982 C 4.148 13.982 4.441 13.886 4.699 13.694 C 4.98 13.502 5.168 13.238 5.262 12.902 L 5.648 11.785 L 6.246 13.586 C 6.316 13.826 6.48 13.958 6.738 13.982 C 6.996 14.006 7.172 13.898 7.266 13.658 L 7.547 13.118 C 7.617 12.974 7.734 12.902 7.898 12.902 C 8.062 12.902 8.18 12.974 8.25 13.118 Z" />
  <path d="M15.0042 16.5902L15.0035 11.6891C15.0035 11.2323 14.6522 11.0025 14.2989 11C13.9417 10.9975 13.5824 11.2272 13.5825 11.6891L13.595 16.5902L11.8082 14.7991C11.3049 14.2947 10.5857 14.7938 10.5998 15.3446C10.6038 15.5 10.6661 15.6594 10.808 15.8017L13.7991 18.7998C13.9353 18.9329 14.1165 18.9996 14.2979 19C14.4804 19.0004 14.6631 18.9337 14.8001 18.7998L17.7912 15.8017C17.9331 15.6594 17.9954 15.5 17.9994 15.3446C18.0135 14.7938 17.2943 14.2947 16.7911 14.7991L15.0042 16.5902Z" />
</svg>

