<svg xmlns="http://www.w3.org/2000/svg" width="20" height="20" viewBox="0 0 20 20" fill="none">
    <path d="M15.6939 12.8723V11.0229C15.6939 10.6104 15.3604 10.2761 14.949 10.2761C14.5376 10.2761 14.2041 10.6104 14.2041 11.0229V12.8723C14.2041 13.2847 14.5376 13.6191 14.949 13.6191C15.3604 13.6191 15.6939 13.2847 15.6939 12.8723Z" fill="#576175"/>
    <path fill-rule="evenodd" clip-rule="evenodd" d="M17.1633 5.6374V3.63456C17.1633 2.73539 16.4239 2 15.5102 2H3.57143C2.15173 2 1 3.14369 1 4.5439V15.4561C1 16.399 1.38496 17.028 1.89175 17.4257C2.40529 17.8286 3.05261 18 3.57143 18H17.3469C18.2606 18 19 17.2646 19 16.3654V7.27195C19 6.37279 18.2606 5.6374 17.3469 5.6374H17.1633ZM3.57143 3.45041C3.28916 3.45666 3.01143 3.58451 2.81615 3.78671C2.61962 3.99022 2.50955 4.2614 2.50955 4.5439C2.50955 4.82641 2.61962 5.09759 2.81615 5.3011C3.01262 5.50453 3.2803 5.62486 3.56331 5.6374H15.6939V3.45041H3.57143ZM17.5306 16.5496H3.57774C3.34865 16.5437 3.07181 16.496 2.84863 16.3286C2.61524 16.1536 2.46939 15.8698 2.46939 15.4561V6.84284L2.71457 6.93021C2.98748 7.02746 3.27231 7.08781 3.57143 7.08781H17.5306V16.5496Z" fill="#576175"/>
</svg>
